  0
SECTION
  2
HEADER
  9
$ANGBASE
  50
0.0
  9
$ANGDIR
  70
1
  9
$MEASUREMENT
  70
0
  0
ENDSEC
  0
SECTION
  2
TABLES
  0
TABLE
  2
LTYPE
  70
4
  0
LTYPE
  5
40F
  2
CONTINUOUS
  70
0
  3
Solid line
  72
65
  73
0
  40
0.0
  0
LTYPE
  5
410
  2
DASHDOT
 70
0
  3
Dash Dot ____ _ ____ _
 72
65
 73
4
 40
2.0
 49
1.25
 49
-0.25
 49
0.25
 49
-0.25
  0
LTYPE
  5
411
  2
DASHED
 70
0
  3
Dashed __ __ __ __ __
 72
65
 73
2
 40
0.75
 49
0.5
 49
-0.25
  0
LTYPE
  5
43B
  2
DOTTED
 70
0
  3
Dotted .  .  .  .
 72
65
 73
2
 40
0.2
 49
0.0
 49
-0.2
  0
ENDTAB
  0
TABLE
  2
STYLE
  70
4
  0
STYLE
  2
KICAD
  70
0
  40
0
  41
1
  42
1
  50
0
  71
0
  3
isocp.shx
  0
STYLE
  2
KICADB
  70
0
  40
0
  41
1
  42
1
  50
0
  71
0
  3
isocp.shx
  0
STYLE
  2
KICADI
  70
0
  40
0
  41
1
  42
1
  50
15
  71
0
  3
isocp.shx
  0
STYLE
  2
KICADBI
  70
0
  40
0
  41
1
  42
1
  50
15
  71
0
  3
isocp.shx
  0
ENDTAB
  0
TABLE
  2
LAYER
  70
1
  0
LAYER
  2
BLACK
  70
0
  62
7
  6
CONTINUOUS
  0
ENDTAB
  0
ENDSEC
  0
SECTION
  2
ENTITIES
0
LINE
8
BLACK
6
CONTINUOUS
10
4.05318
20
-4.95843
11
4.05637
21
-4.96056
0
LINE
8
BLACK
6
CONTINUOUS
10
4.05637
20
-4.96056
11
4.0585
21
-4.96375
0
LINE
8
BLACK
6
CONTINUOUS
10
4.0585
20
-4.96375
11
4.05925
21
-4.96752
0
LINE
8
BLACK
6
CONTINUOUS
10
4.05925
20
-4.96752
11
4.05925
21
-5.03406
0
LINE
8
BLACK
6
CONTINUOUS
10
4.05925
20
-5.03406
11
4.0585
21
-5.03782
0
LINE
8
BLACK
6
CONTINUOUS
10
4.0585
20
-5.03782
11
4.05637
21
-5.04101
0
LINE
8
BLACK
6
CONTINUOUS
10
4.05637
20
-5.04101
11
4.05318
21
-5.04315
0
LINE
8
BLACK
6
CONTINUOUS
10
4.05318
20
-5.04315
11
4.04941
21
-5.0439
0
LINE
8
BLACK
6
CONTINUOUS
10
4.04941
20
-5.0439
11
4.00059
21
-5.0439
0
LINE
8
BLACK
6
CONTINUOUS
10
4.00059
20
-5.0439
11
3.99682
21
-5.04315
0
LINE
8
BLACK
6
CONTINUOUS
10
3.99682
20
-5.04315
11
3.99363
21
-5.04101
0
LINE
8
BLACK
6
CONTINUOUS
10
3.99363
20
-5.04101
11
3.9915
21
-5.03782
0
LINE
8
BLACK
6
CONTINUOUS
10
3.9915
20
-5.03782
11
3.99075
21
-5.03406
0
LINE
8
BLACK
6
CONTINUOUS
10
3.99075
20
-5.03406
11
3.99075
21
-4.96752
0
LINE
8
BLACK
6
CONTINUOUS
10
3.99075
20
-4.96752
11
3.9915
21
-4.96375
0
LINE
8
BLACK
6
CONTINUOUS
10
3.9915
20
-4.96375
11
3.99363
21
-4.96056
0
LINE
8
BLACK
6
CONTINUOUS
10
3.99363
20
-4.96056
11
3.99682
21
-4.95843
0
LINE
8
BLACK
6
CONTINUOUS
10
3.99682
20
-4.95843
11
4.00059
21
-4.95768
0
LINE
8
BLACK
6
CONTINUOUS
10
4.00059
20
-4.95768
11
4.04941
21
-4.95768
0
LINE
8
BLACK
6
CONTINUOUS
10
4.04941
20
-4.95768
11
4.05318
21
-4.95843
0
LINE
8
BLACK
6
CONTINUOUS
10
3.52818
20
-4.95843
11
3.53137
21
-4.96056
0
LINE
8
BLACK
6
CONTINUOUS
10
3.53137
20
-4.96056
11
3.5335
21
-4.96375
0
LINE
8
BLACK
6
CONTINUOUS
10
3.5335
20
-4.96375
11
3.53425
21
-4.96752
0
LINE
8
BLACK
6
CONTINUOUS
10
3.53425
20
-4.96752
11
3.53425
21
-5.03406
0
LINE
8
BLACK
6
CONTINUOUS
10
3.53425
20
-5.03406
11
3.5335
21
-5.03782
0
LINE
8
BLACK
6
CONTINUOUS
10
3.5335
20
-5.03782
11
3.53137
21
-5.04101
0
LINE
8
BLACK
6
CONTINUOUS
10
3.53137
20
-5.04101
11
3.52818
21
-5.04315
0
LINE
8
BLACK
6
CONTINUOUS
10
3.52818
20
-5.04315
11
3.52441
21
-5.0439
0
LINE
8
BLACK
6
CONTINUOUS
10
3.52441
20
-5.0439
11
3.47559
21
-5.0439
0
LINE
8
BLACK
6
CONTINUOUS
10
3.47559
20
-5.0439
11
3.47182
21
-5.04315
0
LINE
8
BLACK
6
CONTINUOUS
10
3.47182
20
-5.04315
11
3.46863
21
-5.04101
0
LINE
8
BLACK
6
CONTINUOUS
10
3.46863
20
-5.04101
11
3.4665
21
-5.03782
0
LINE
8
BLACK
6
CONTINUOUS
10
3.4665
20
-5.03782
11
3.46575
21
-5.03406
0
LINE
8
BLACK
6
CONTINUOUS
10
3.46575
20
-5.03406
11
3.46575
21
-4.96752
0
LINE
8
BLACK
6
CONTINUOUS
10
3.46575
20
-4.96752
11
3.4665
21
-4.96375
0
LINE
8
BLACK
6
CONTINUOUS
10
3.4665
20
-4.96375
11
3.46863
21
-4.96056
0
LINE
8
BLACK
6
CONTINUOUS
10
3.46863
20
-4.96056
11
3.47182
21
-4.95843
0
LINE
8
BLACK
6
CONTINUOUS
10
3.47182
20
-4.95843
11
3.47559
21
-4.95768
0
LINE
8
BLACK
6
CONTINUOUS
10
3.47559
20
-4.95768
11
3.52441
21
-4.95768
0
LINE
8
BLACK
6
CONTINUOUS
10
3.52441
20
-4.95768
11
3.52818
21
-4.95843
0
LINE
8
BLACK
6
CONTINUOUS
10
3.80921
20
-4.95894
11
3.81608
21
-4.96169
0
LINE
8
BLACK
6
CONTINUOUS
10
3.81608
20
-4.96169
11
3.8222
21
-4.96584
0
LINE
8
BLACK
6
CONTINUOUS
10
3.8222
20
-4.96584
11
3.82728
21
-4.97122
0
LINE
8
BLACK
6
CONTINUOUS
10
3.82728
20
-4.97122
11
3.83109
21
-4.97756
0
LINE
8
BLACK
6
CONTINUOUS
10
3.83109
20
-4.97756
11
3.83345
21
-4.98457
0
LINE
8
BLACK
6
CONTINUOUS
10
3.83345
20
-4.98457
11
3.83425
21
-4.99193
0
LINE
8
BLACK
6
CONTINUOUS
10
3.83425
20
-4.99193
11
3.83425
21
-5.00965
0
LINE
8
BLACK
6
CONTINUOUS
10
3.83425
20
-5.00965
11
3.83404
21
-5.01346
0
LINE
8
BLACK
6
CONTINUOUS
10
3.83404
20
-5.01346
11
3.83242
21
-5.02068
0
LINE
8
BLACK
6
CONTINUOUS
10
3.83242
20
-5.02068
11
3.8293
21
-5.02739
0
LINE
8
BLACK
6
CONTINUOUS
10
3.8293
20
-5.02739
11
3.8248
21
-5.03327
0
LINE
8
BLACK
6
CONTINUOUS
10
3.8248
20
-5.03327
11
3.81915
21
-5.03804
0
LINE
8
BLACK
6
CONTINUOUS
10
3.81915
20
-5.03804
11
3.81261
21
-5.04149
0
LINE
8
BLACK
6
CONTINUOUS
10
3.81261
20
-5.04149
11
3.80548
21
-5.04346
0
LINE
8
BLACK
6
CONTINUOUS
10
3.80548
20
-5.04346
11
3.79809
21
-5.04384
0
LINE
8
BLACK
6
CONTINUOUS
10
3.79809
20
-5.04384
11
3.79079
21
-5.04264
0
LINE
8
BLACK
6
CONTINUOUS
10
3.79079
20
-5.04264
11
3.78392
21
-5.03989
0
LINE
8
BLACK
6
CONTINUOUS
10
3.78392
20
-5.03989
11
3.7778
21
-5.03573
0
LINE
8
BLACK
6
CONTINUOUS
10
3.7778
20
-5.03573
11
3.77272
21
-5.03035
0
LINE
8
BLACK
6
CONTINUOUS
10
3.77272
20
-5.03035
11
3.76891
21
-5.02401
0
LINE
8
BLACK
6
CONTINUOUS
10
3.76891
20
-5.02401
11
3.76655
21
-5.017
0
LINE
8
BLACK
6
CONTINUOUS
10
3.76655
20
-5.017
11
3.76575
21
-5.00965
0
LINE
8
BLACK
6
CONTINUOUS
10
3.76575
20
-5.00965
11
3.76575
21
-4.99193
0
LINE
8
BLACK
6
CONTINUOUS
10
3.76575
20
-4.99193
11
3.76596
21
-4.98811
0
LINE
8
BLACK
6
CONTINUOUS
10
3.76596
20
-4.98811
11
3.76758
21
-4.98089
0
LINE
8
BLACK
6
CONTINUOUS
10
3.76758
20
-4.98089
11
3.7707
21
-4.97419
0
LINE
8
BLACK
6
CONTINUOUS
10
3.7707
20
-4.97419
11
3.7752
21
-4.96831
0
LINE
8
BLACK
6
CONTINUOUS
10
3.7752
20
-4.96831
11
3.78085
21
-4.96353
0
LINE
8
BLACK
6
CONTINUOUS
10
3.78085
20
-4.96353
11
3.78739
21
-4.96008
0
LINE
8
BLACK
6
CONTINUOUS
10
3.78739
20
-4.96008
11
3.79452
21
-4.95812
0
LINE
8
BLACK
6
CONTINUOUS
10
3.79452
20
-4.95812
11
3.80191
21
-4.95773
0
LINE
8
BLACK
6
CONTINUOUS
10
3.80191
20
-4.95773
11
3.80921
21
-4.95894
0
LINE
8
BLACK
6
CONTINUOUS
10
4.13421
20
-4.95894
11
4.14108
21
-4.96169
0
LINE
8
BLACK
6
CONTINUOUS
10
4.14108
20
-4.96169
11
4.1472
21
-4.96584
0
LINE
8
BLACK
6
CONTINUOUS
10
4.1472
20
-4.96584
11
4.15228
21
-4.97122
0
LINE
8
BLACK
6
CONTINUOUS
10
4.15228
20
-4.97122
11
4.15609
21
-4.97756
0
LINE
8
BLACK
6
CONTINUOUS
10
4.15609
20
-4.97756
11
4.15845
21
-4.98457
0
LINE
8
BLACK
6
CONTINUOUS
10
4.15845
20
-4.98457
11
4.15925
21
-4.99193
0
LINE
8
BLACK
6
CONTINUOUS
10
4.15925
20
-4.99193
11
4.15925
21
-5.00965
0
LINE
8
BLACK
6
CONTINUOUS
10
4.15925
20
-5.00965
11
4.15904
21
-5.01346
0
LINE
8
BLACK
6
CONTINUOUS
10
4.15904
20
-5.01346
11
4.15742
21
-5.02068
0
LINE
8
BLACK
6
CONTINUOUS
10
4.15742
20
-5.02068
11
4.1543
21
-5.02739
0
LINE
8
BLACK
6
CONTINUOUS
10
4.1543
20
-5.02739
11
4.1498
21
-5.03327
0
LINE
8
BLACK
6
CONTINUOUS
10
4.1498
20
-5.03327
11
4.14415
21
-5.03804
0
LINE
8
BLACK
6
CONTINUOUS
10
4.14415
20
-5.03804
11
4.13761
21
-5.04149
0
LINE
8
BLACK
6
CONTINUOUS
10
4.13761
20
-5.04149
11
4.13048
21
-5.04346
0
LINE
8
BLACK
6
CONTINUOUS
10
4.13048
20
-5.04346
11
4.12309
21
-5.04384
0
LINE
8
BLACK
6
CONTINUOUS
10
4.12309
20
-5.04384
11
4.11579
21
-5.04264
0
LINE
8
BLACK
6
CONTINUOUS
10
4.11579
20
-5.04264
11
4.10892
21
-5.03989
0
LINE
8
BLACK
6
CONTINUOUS
10
4.10892
20
-5.03989
11
4.1028
21
-5.03573
0
LINE
8
BLACK
6
CONTINUOUS
10
4.1028
20
-5.03573
11
4.09772
21
-5.03035
0
LINE
8
BLACK
6
CONTINUOUS
10
4.09772
20
-5.03035
11
4.09391
21
-5.02401
0
LINE
8
BLACK
6
CONTINUOUS
10
4.09391
20
-5.02401
11
4.09155
21
-5.017
0
LINE
8
BLACK
6
CONTINUOUS
10
4.09155
20
-5.017
11
4.09075
21
-5.00965
0
LINE
8
BLACK
6
CONTINUOUS
10
4.09075
20
-5.00965
11
4.09075
21
-4.99193
0
LINE
8
BLACK
6
CONTINUOUS
10
4.09075
20
-4.99193
11
4.09096
21
-4.98811
0
LINE
8
BLACK
6
CONTINUOUS
10
4.09096
20
-4.98811
11
4.09258
21
-4.98089
0
LINE
8
BLACK
6
CONTINUOUS
10
4.09258
20
-4.98089
11
4.0957
21
-4.97419
0
LINE
8
BLACK
6
CONTINUOUS
10
4.0957
20
-4.97419
11
4.1002
21
-4.96831
0
LINE
8
BLACK
6
CONTINUOUS
10
4.1002
20
-4.96831
11
4.10585
21
-4.96353
0
LINE
8
BLACK
6
CONTINUOUS
10
4.10585
20
-4.96353
11
4.11239
21
-4.96008
0
LINE
8
BLACK
6
CONTINUOUS
10
4.11239
20
-4.96008
11
4.11952
21
-4.95812
0
LINE
8
BLACK
6
CONTINUOUS
10
4.11952
20
-4.95812
11
4.12691
21
-4.95773
0
LINE
8
BLACK
6
CONTINUOUS
10
4.12691
20
-4.95773
11
4.13421
21
-4.95894
0
LINE
8
BLACK
6
CONTINUOUS
10
4.23421
20
-4.95894
11
4.24108
21
-4.96169
0
LINE
8
BLACK
6
CONTINUOUS
10
4.24108
20
-4.96169
11
4.2472
21
-4.96584
0
LINE
8
BLACK
6
CONTINUOUS
10
4.2472
20
-4.96584
11
4.25228
21
-4.97122
0
LINE
8
BLACK
6
CONTINUOUS
10
4.25228
20
-4.97122
11
4.25609
21
-4.97756
0
LINE
8
BLACK
6
CONTINUOUS
10
4.25609
20
-4.97756
11
4.25845
21
-4.98457
0
LINE
8
BLACK
6
CONTINUOUS
10
4.25845
20
-4.98457
11
4.25925
21
-4.99193
0
LINE
8
BLACK
6
CONTINUOUS
10
4.25925
20
-4.99193
11
4.25925
21
-5.00965
0
LINE
8
BLACK
6
CONTINUOUS
10
4.25925
20
-5.00965
11
4.25904
21
-5.01346
0
LINE
8
BLACK
6
CONTINUOUS
10
4.25904
20
-5.01346
11
4.25742
21
-5.02068
0
LINE
8
BLACK
6
CONTINUOUS
10
4.25742
20
-5.02068
11
4.2543
21
-5.02739
0
LINE
8
BLACK
6
CONTINUOUS
10
4.2543
20
-5.02739
11
4.2498
21
-5.03327
0
LINE
8
BLACK
6
CONTINUOUS
10
4.2498
20
-5.03327
11
4.24415
21
-5.03804
0
LINE
8
BLACK
6
CONTINUOUS
10
4.24415
20
-5.03804
11
4.23761
21
-5.04149
0
LINE
8
BLACK
6
CONTINUOUS
10
4.23761
20
-5.04149
11
4.23048
21
-5.04346
0
LINE
8
BLACK
6
CONTINUOUS
10
4.23048
20
-5.04346
11
4.22309
21
-5.04384
0
LINE
8
BLACK
6
CONTINUOUS
10
4.22309
20
-5.04384
11
4.21579
21
-5.04264
0
LINE
8
BLACK
6
CONTINUOUS
10
4.21579
20
-5.04264
11
4.20892
21
-5.03989
0
LINE
8
BLACK
6
CONTINUOUS
10
4.20892
20
-5.03989
11
4.2028
21
-5.03573
0
LINE
8
BLACK
6
CONTINUOUS
10
4.2028
20
-5.03573
11
4.19772
21
-5.03035
0
LINE
8
BLACK
6
CONTINUOUS
10
4.19772
20
-5.03035
11
4.19391
21
-5.02401
0
LINE
8
BLACK
6
CONTINUOUS
10
4.19391
20
-5.02401
11
4.19155
21
-5.017
0
LINE
8
BLACK
6
CONTINUOUS
10
4.19155
20
-5.017
11
4.19075
21
-5.00965
0
LINE
8
BLACK
6
CONTINUOUS
10
4.19075
20
-5.00965
11
4.19075
21
-4.99193
0
LINE
8
BLACK
6
CONTINUOUS
10
4.19075
20
-4.99193
11
4.19096
21
-4.98811
0
LINE
8
BLACK
6
CONTINUOUS
10
4.19096
20
-4.98811
11
4.19258
21
-4.98089
0
LINE
8
BLACK
6
CONTINUOUS
10
4.19258
20
-4.98089
11
4.1957
21
-4.97419
0
LINE
8
BLACK
6
CONTINUOUS
10
4.1957
20
-4.97419
11
4.2002
21
-4.96831
0
LINE
8
BLACK
6
CONTINUOUS
10
4.2002
20
-4.96831
11
4.20585
21
-4.96353
0
LINE
8
BLACK
6
CONTINUOUS
10
4.20585
20
-4.96353
11
4.21239
21
-4.96008
0
LINE
8
BLACK
6
CONTINUOUS
10
4.21239
20
-4.96008
11
4.21952
21
-4.95812
0
LINE
8
BLACK
6
CONTINUOUS
10
4.21952
20
-4.95812
11
4.22691
21
-4.95773
0
LINE
8
BLACK
6
CONTINUOUS
10
4.22691
20
-4.95773
11
4.23421
21
-4.95894
0
LINE
8
BLACK
6
CONTINUOUS
10
4.33421
20
-4.95894
11
4.34108
21
-4.96169
0
LINE
8
BLACK
6
CONTINUOUS
10
4.34108
20
-4.96169
11
4.3472
21
-4.96584
0
LINE
8
BLACK
6
CONTINUOUS
10
4.3472
20
-4.96584
11
4.35228
21
-4.97122
0
LINE
8
BLACK
6
CONTINUOUS
10
4.35228
20
-4.97122
11
4.35609
21
-4.97756
0
LINE
8
BLACK
6
CONTINUOUS
10
4.35609
20
-4.97756
11
4.35845
21
-4.98457
0
LINE
8
BLACK
6
CONTINUOUS
10
4.35845
20
-4.98457
11
4.35925
21
-4.99193
0
LINE
8
BLACK
6
CONTINUOUS
10
4.35925
20
-4.99193
11
4.35925
21
-5.00965
0
LINE
8
BLACK
6
CONTINUOUS
10
4.35925
20
-5.00965
11
4.35904
21
-5.01346
0
LINE
8
BLACK
6
CONTINUOUS
10
4.35904
20
-5.01346
11
4.35742
21
-5.02068
0
LINE
8
BLACK
6
CONTINUOUS
10
4.35742
20
-5.02068
11
4.3543
21
-5.02739
0
LINE
8
BLACK
6
CONTINUOUS
10
4.3543
20
-5.02739
11
4.3498
21
-5.03327
0
LINE
8
BLACK
6
CONTINUOUS
10
4.3498
20
-5.03327
11
4.34415
21
-5.03804
0
LINE
8
BLACK
6
CONTINUOUS
10
4.34415
20
-5.03804
11
4.33761
21
-5.04149
0
LINE
8
BLACK
6
CONTINUOUS
10
4.33761
20
-5.04149
11
4.33048
21
-5.04346
0
LINE
8
BLACK
6
CONTINUOUS
10
4.33048
20
-5.04346
11
4.32309
21
-5.04384
0
LINE
8
BLACK
6
CONTINUOUS
10
4.32309
20
-5.04384
11
4.31579
21
-5.04264
0
LINE
8
BLACK
6
CONTINUOUS
10
4.31579
20
-5.04264
11
4.30892
21
-5.03989
0
LINE
8
BLACK
6
CONTINUOUS
10
4.30892
20
-5.03989
11
4.3028
21
-5.03573
0
LINE
8
BLACK
6
CONTINUOUS
10
4.3028
20
-5.03573
11
4.29772
21
-5.03035
0
LINE
8
BLACK
6
CONTINUOUS
10
4.29772
20
-5.03035
11
4.29391
21
-5.02401
0
LINE
8
BLACK
6
CONTINUOUS
10
4.29391
20
-5.02401
11
4.29155
21
-5.017
0
LINE
8
BLACK
6
CONTINUOUS
10
4.29155
20
-5.017
11
4.29075
21
-5.00965
0
LINE
8
BLACK
6
CONTINUOUS
10
4.29075
20
-5.00965
11
4.29075
21
-4.99193
0
LINE
8
BLACK
6
CONTINUOUS
10
4.29075
20
-4.99193
11
4.29096
21
-4.98811
0
LINE
8
BLACK
6
CONTINUOUS
10
4.29096
20
-4.98811
11
4.29258
21
-4.98089
0
LINE
8
BLACK
6
CONTINUOUS
10
4.29258
20
-4.98089
11
4.2957
21
-4.97419
0
LINE
8
BLACK
6
CONTINUOUS
10
4.2957
20
-4.97419
11
4.3002
21
-4.96831
0
LINE
8
BLACK
6
CONTINUOUS
10
4.3002
20
-4.96831
11
4.30585
21
-4.96353
0
LINE
8
BLACK
6
CONTINUOUS
10
4.30585
20
-4.96353
11
4.31239
21
-4.96008
0
LINE
8
BLACK
6
CONTINUOUS
10
4.31239
20
-4.96008
11
4.31952
21
-4.95812
0
LINE
8
BLACK
6
CONTINUOUS
10
4.31952
20
-4.95812
11
4.32691
21
-4.95773
0
LINE
8
BLACK
6
CONTINUOUS
10
4.32691
20
-4.95773
11
4.33421
21
-4.95894
0
LINE
8
BLACK
6
CONTINUOUS
10
3.60921
20
-4.95894
11
3.61608
21
-4.96169
0
LINE
8
BLACK
6
CONTINUOUS
10
3.61608
20
-4.96169
11
3.6222
21
-4.96584
0
LINE
8
BLACK
6
CONTINUOUS
10
3.6222
20
-4.96584
11
3.62728
21
-4.97122
0
LINE
8
BLACK
6
CONTINUOUS
10
3.62728
20
-4.97122
11
3.63109
21
-4.97756
0
LINE
8
BLACK
6
CONTINUOUS
10
3.63109
20
-4.97756
11
3.63345
21
-4.98457
0
LINE
8
BLACK
6
CONTINUOUS
10
3.63345
20
-4.98457
11
3.63425
21
-4.99193
0
LINE
8
BLACK
6
CONTINUOUS
10
3.63425
20
-4.99193
11
3.63425
21
-5.00965
0
LINE
8
BLACK
6
CONTINUOUS
10
3.63425
20
-5.00965
11
3.63404
21
-5.01346
0
LINE
8
BLACK
6
CONTINUOUS
10
3.63404
20
-5.01346
11
3.63242
21
-5.02068
0
LINE
8
BLACK
6
CONTINUOUS
10
3.63242
20
-5.02068
11
3.6293
21
-5.02739
0
LINE
8
BLACK
6
CONTINUOUS
10
3.6293
20
-5.02739
11
3.6248
21
-5.03327
0
LINE
8
BLACK
6
CONTINUOUS
10
3.6248
20
-5.03327
11
3.61915
21
-5.03804
0
LINE
8
BLACK
6
CONTINUOUS
10
3.61915
20
-5.03804
11
3.61261
21
-5.04149
0
LINE
8
BLACK
6
CONTINUOUS
10
3.61261
20
-5.04149
11
3.60548
21
-5.04346
0
LINE
8
BLACK
6
CONTINUOUS
10
3.60548
20
-5.04346
11
3.59809
21
-5.04384
0
LINE
8
BLACK
6
CONTINUOUS
10
3.59809
20
-5.04384
11
3.59079
21
-5.04264
0
LINE
8
BLACK
6
CONTINUOUS
10
3.59079
20
-5.04264
11
3.58392
21
-5.03989
0
LINE
8
BLACK
6
CONTINUOUS
10
3.58392
20
-5.03989
11
3.5778
21
-5.03573
0
LINE
8
BLACK
6
CONTINUOUS
10
3.5778
20
-5.03573
11
3.57272
21
-5.03035
0
LINE
8
BLACK
6
CONTINUOUS
10
3.57272
20
-5.03035
11
3.56891
21
-5.02401
0
LINE
8
BLACK
6
CONTINUOUS
10
3.56891
20
-5.02401
11
3.56655
21
-5.017
0
LINE
8
BLACK
6
CONTINUOUS
10
3.56655
20
-5.017
11
3.56575
21
-5.00965
0
LINE
8
BLACK
6
CONTINUOUS
10
3.56575
20
-5.00965
11
3.56575
21
-4.99193
0
LINE
8
BLACK
6
CONTINUOUS
10
3.56575
20
-4.99193
11
3.56596
21
-4.98811
0
LINE
8
BLACK
6
CONTINUOUS
10
3.56596
20
-4.98811
11
3.56758
21
-4.98089
0
LINE
8
BLACK
6
CONTINUOUS
10
3.56758
20
-4.98089
11
3.5707
21
-4.97419
0
LINE
8
BLACK
6
CONTINUOUS
10
3.5707
20
-4.97419
11
3.5752
21
-4.96831
0
LINE
8
BLACK
6
CONTINUOUS
10
3.5752
20
-4.96831
11
3.58085
21
-4.96353
0
LINE
8
BLACK
6
CONTINUOUS
10
3.58085
20
-4.96353
11
3.58739
21
-4.96008
0
LINE
8
BLACK
6
CONTINUOUS
10
3.58739
20
-4.96008
11
3.59452
21
-4.95812
0
LINE
8
BLACK
6
CONTINUOUS
10
3.59452
20
-4.95812
11
3.60191
21
-4.95773
0
LINE
8
BLACK
6
CONTINUOUS
10
3.60191
20
-4.95773
11
3.60921
21
-4.95894
0
LINE
8
BLACK
6
CONTINUOUS
10
3.70921
20
-4.95894
11
3.71608
21
-4.96169
0
LINE
8
BLACK
6
CONTINUOUS
10
3.71608
20
-4.96169
11
3.7222
21
-4.96584
0
LINE
8
BLACK
6
CONTINUOUS
10
3.7222
20
-4.96584
11
3.72728
21
-4.97122
0
LINE
8
BLACK
6
CONTINUOUS
10
3.72728
20
-4.97122
11
3.73109
21
-4.97756
0
LINE
8
BLACK
6
CONTINUOUS
10
3.73109
20
-4.97756
11
3.73345
21
-4.98457
0
LINE
8
BLACK
6
CONTINUOUS
10
3.73345
20
-4.98457
11
3.73425
21
-4.99193
0
LINE
8
BLACK
6
CONTINUOUS
10
3.73425
20
-4.99193
11
3.73425
21
-5.00965
0
LINE
8
BLACK
6
CONTINUOUS
10
3.73425
20
-5.00965
11
3.73404
21
-5.01346
0
LINE
8
BLACK
6
CONTINUOUS
10
3.73404
20
-5.01346
11
3.73242
21
-5.02068
0
LINE
8
BLACK
6
CONTINUOUS
10
3.73242
20
-5.02068
11
3.7293
21
-5.02739
0
LINE
8
BLACK
6
CONTINUOUS
10
3.7293
20
-5.02739
11
3.7248
21
-5.03327
0
LINE
8
BLACK
6
CONTINUOUS
10
3.7248
20
-5.03327
11
3.71915
21
-5.03804
0
LINE
8
BLACK
6
CONTINUOUS
10
3.71915
20
-5.03804
11
3.71261
21
-5.04149
0
LINE
8
BLACK
6
CONTINUOUS
10
3.71261
20
-5.04149
11
3.70548
21
-5.04346
0
LINE
8
BLACK
6
CONTINUOUS
10
3.70548
20
-5.04346
11
3.69809
21
-5.04384
0
LINE
8
BLACK
6
CONTINUOUS
10
3.69809
20
-5.04384
11
3.69079
21
-5.04264
0
LINE
8
BLACK
6
CONTINUOUS
10
3.69079
20
-5.04264
11
3.68392
21
-5.03989
0
LINE
8
BLACK
6
CONTINUOUS
10
3.68392
20
-5.03989
11
3.6778
21
-5.03573
0
LINE
8
BLACK
6
CONTINUOUS
10
3.6778
20
-5.03573
11
3.67272
21
-5.03035
0
LINE
8
BLACK
6
CONTINUOUS
10
3.67272
20
-5.03035
11
3.66891
21
-5.02401
0
LINE
8
BLACK
6
CONTINUOUS
10
3.66891
20
-5.02401
11
3.66655
21
-5.017
0
LINE
8
BLACK
6
CONTINUOUS
10
3.66655
20
-5.017
11
3.66575
21
-5.00965
0
LINE
8
BLACK
6
CONTINUOUS
10
3.66575
20
-5.00965
11
3.66575
21
-4.99193
0
LINE
8
BLACK
6
CONTINUOUS
10
3.66575
20
-4.99193
11
3.66596
21
-4.98811
0
LINE
8
BLACK
6
CONTINUOUS
10
3.66596
20
-4.98811
11
3.66758
21
-4.98089
0
LINE
8
BLACK
6
CONTINUOUS
10
3.66758
20
-4.98089
11
3.6707
21
-4.97419
0
LINE
8
BLACK
6
CONTINUOUS
10
3.6707
20
-4.97419
11
3.6752
21
-4.96831
0
LINE
8
BLACK
6
CONTINUOUS
10
3.6752
20
-4.96831
11
3.68085
21
-4.96353
0
LINE
8
BLACK
6
CONTINUOUS
10
3.68085
20
-4.96353
11
3.68739
21
-4.96008
0
LINE
8
BLACK
6
CONTINUOUS
10
3.68739
20
-4.96008
11
3.69452
21
-4.95812
0
LINE
8
BLACK
6
CONTINUOUS
10
3.69452
20
-4.95812
11
3.70191
21
-4.95773
0
LINE
8
BLACK
6
CONTINUOUS
10
3.70191
20
-4.95773
11
3.70921
21
-4.95894
0
LINE
8
BLACK
6
CONTINUOUS
10
5.10318
20
-4.95764
11
5.10637
21
-4.95977
0
LINE
8
BLACK
6
CONTINUOUS
10
5.10637
20
-4.95977
11
5.1085
21
-4.96297
0
LINE
8
BLACK
6
CONTINUOUS
10
5.1085
20
-4.96297
11
5.10925
21
-4.96673
0
LINE
8
BLACK
6
CONTINUOUS
10
5.10925
20
-4.96673
11
5.10925
21
-5.03327
0
LINE
8
BLACK
6
CONTINUOUS
10
5.10925
20
-5.03327
11
5.1085
21
-5.03703
0
LINE
8
BLACK
6
CONTINUOUS
10
5.1085
20
-5.03703
11
5.10637
21
-5.04023
0
LINE
8
BLACK
6
CONTINUOUS
10
5.10637
20
-5.04023
11
5.10318
21
-5.04236
0
LINE
8
BLACK
6
CONTINUOUS
10
5.10318
20
-5.04236
11
5.09941
21
-5.04311
0
LINE
8
BLACK
6
CONTINUOUS
10
5.09941
20
-5.04311
11
5.05059
21
-5.04311
0
LINE
8
BLACK
6
CONTINUOUS
10
5.05059
20
-5.04311
11
5.04682
21
-5.04236
0
LINE
8
BLACK
6
CONTINUOUS
10
5.04682
20
-5.04236
11
5.04363
21
-5.04023
0
LINE
8
BLACK
6
CONTINUOUS
10
5.04363
20
-5.04023
11
5.0415
21
-5.03703
0
LINE
8
BLACK
6
CONTINUOUS
10
5.0415
20
-5.03703
11
5.04075
21
-5.03327
0
LINE
8
BLACK
6
CONTINUOUS
10
5.04075
20
-5.03327
11
5.04075
21
-4.96673
0
LINE
8
BLACK
6
CONTINUOUS
10
5.04075
20
-4.96673
11
5.0415
21
-4.96297
0
LINE
8
BLACK
6
CONTINUOUS
10
5.0415
20
-4.96297
11
5.04363
21
-4.95977
0
LINE
8
BLACK
6
CONTINUOUS
10
5.04363
20
-4.95977
11
5.04682
21
-4.95764
0
LINE
8
BLACK
6
CONTINUOUS
10
5.04682
20
-4.95764
11
5.05059
21
-4.95689
0
LINE
8
BLACK
6
CONTINUOUS
10
5.05059
20
-4.95689
11
5.09941
21
-4.95689
0
LINE
8
BLACK
6
CONTINUOUS
10
5.09941
20
-4.95689
11
5.10318
21
-4.95764
0
LINE
8
BLACK
6
CONTINUOUS
10
4.57818
20
-4.95764
11
4.58137
21
-4.95977
0
LINE
8
BLACK
6
CONTINUOUS
10
4.58137
20
-4.95977
11
4.5835
21
-4.96297
0
LINE
8
BLACK
6
CONTINUOUS
10
4.5835
20
-4.96297
11
4.58425
21
-4.96673
0
LINE
8
BLACK
6
CONTINUOUS
10
4.58425
20
-4.96673
11
4.58425
21
-5.03327
0
LINE
8
BLACK
6
CONTINUOUS
10
4.58425
20
-5.03327
11
4.5835
21
-5.03703
0
LINE
8
BLACK
6
CONTINUOUS
10
4.5835
20
-5.03703
11
4.58137
21
-5.04023
0
LINE
8
BLACK
6
CONTINUOUS
10
4.58137
20
-5.04023
11
4.57818
21
-5.04236
0
LINE
8
BLACK
6
CONTINUOUS
10
4.57818
20
-5.04236
11
4.57441
21
-5.04311
0
LINE
8
BLACK
6
CONTINUOUS
10
4.57441
20
-5.04311
11
4.52559
21
-5.04311
0
LINE
8
BLACK
6
CONTINUOUS
10
4.52559
20
-5.04311
11
4.52182
21
-5.04236
0
LINE
8
BLACK
6
CONTINUOUS
10
4.52182
20
-5.04236
11
4.51863
21
-5.04023
0
LINE
8
BLACK
6
CONTINUOUS
10
4.51863
20
-5.04023
11
4.5165
21
-5.03703
0
LINE
8
BLACK
6
CONTINUOUS
10
4.5165
20
-5.03703
11
4.51575
21
-5.03327
0
LINE
8
BLACK
6
CONTINUOUS
10
4.51575
20
-5.03327
11
4.51575
21
-4.96673
0
LINE
8
BLACK
6
CONTINUOUS
10
4.51575
20
-4.96673
11
4.5165
21
-4.96297
0
LINE
8
BLACK
6
CONTINUOUS
10
4.5165
20
-4.96297
11
4.51863
21
-4.95977
0
LINE
8
BLACK
6
CONTINUOUS
10
4.51863
20
-4.95977
11
4.52182
21
-4.95764
0
LINE
8
BLACK
6
CONTINUOUS
10
4.52182
20
-4.95764
11
4.52559
21
-4.95689
0
LINE
8
BLACK
6
CONTINUOUS
10
4.52559
20
-4.95689
11
4.57441
21
-4.95689
0
LINE
8
BLACK
6
CONTINUOUS
10
4.57441
20
-4.95689
11
4.57818
21
-4.95764
0
LINE
8
BLACK
6
CONTINUOUS
10
6.15318
20
-4.95764
11
6.15637
21
-4.95977
0
LINE
8
BLACK
6
CONTINUOUS
10
6.15637
20
-4.95977
11
6.1585
21
-4.96297
0
LINE
8
BLACK
6
CONTINUOUS
10
6.1585
20
-4.96297
11
6.15925
21
-4.96673
0
LINE
8
BLACK
6
CONTINUOUS
10
6.15925
20
-4.96673
11
6.15925
21
-5.03327
0
LINE
8
BLACK
6
CONTINUOUS
10
6.15925
20
-5.03327
11
6.1585
21
-5.03703
0
LINE
8
BLACK
6
CONTINUOUS
10
6.1585
20
-5.03703
11
6.15637
21
-5.04023
0
LINE
8
BLACK
6
CONTINUOUS
10
6.15637
20
-5.04023
11
6.15318
21
-5.04236
0
LINE
8
BLACK
6
CONTINUOUS
10
6.15318
20
-5.04236
11
6.14941
21
-5.04311
0
LINE
8
BLACK
6
CONTINUOUS
10
6.14941
20
-5.04311
11
6.10059
21
-5.04311
0
LINE
8
BLACK
6
CONTINUOUS
10
6.10059
20
-5.04311
11
6.09682
21
-5.04236
0
LINE
8
BLACK
6
CONTINUOUS
10
6.09682
20
-5.04236
11
6.09363
21
-5.04023
0
LINE
8
BLACK
6
CONTINUOUS
10
6.09363
20
-5.04023
11
6.0915
21
-5.03703
0
LINE
8
BLACK
6
CONTINUOUS
10
6.0915
20
-5.03703
11
6.09075
21
-5.03327
0
LINE
8
BLACK
6
CONTINUOUS
10
6.09075
20
-5.03327
11
6.09075
21
-4.96673
0
LINE
8
BLACK
6
CONTINUOUS
10
6.09075
20
-4.96673
11
6.0915
21
-4.96297
0
LINE
8
BLACK
6
CONTINUOUS
10
6.0915
20
-4.96297
11
6.09363
21
-4.95977
0
LINE
8
BLACK
6
CONTINUOUS
10
6.09363
20
-4.95977
11
6.09682
21
-4.95764
0
LINE
8
BLACK
6
CONTINUOUS
10
6.09682
20
-4.95764
11
6.10059
21
-4.95689
0
LINE
8
BLACK
6
CONTINUOUS
10
6.10059
20
-4.95689
11
6.14941
21
-4.95689
0
LINE
8
BLACK
6
CONTINUOUS
10
6.14941
20
-4.95689
11
6.15318
21
-4.95764
0
LINE
8
BLACK
6
CONTINUOUS
10
5.62818
20
-4.95764
11
5.63137
21
-4.95977
0
LINE
8
BLACK
6
CONTINUOUS
10
5.63137
20
-4.95977
11
5.6335
21
-4.96297
0
LINE
8
BLACK
6
CONTINUOUS
10
5.6335
20
-4.96297
11
5.63425
21
-4.96673
0
LINE
8
BLACK
6
CONTINUOUS
10
5.63425
20
-4.96673
11
5.63425
21
-5.03327
0
LINE
8
BLACK
6
CONTINUOUS
10
5.63425
20
-5.03327
11
5.6335
21
-5.03703
0
LINE
8
BLACK
6
CONTINUOUS
10
5.6335
20
-5.03703
11
5.63137
21
-5.04023
0
LINE
8
BLACK
6
CONTINUOUS
10
5.63137
20
-5.04023
11
5.62818
21
-5.04236
0
LINE
8
BLACK
6
CONTINUOUS
10
5.62818
20
-5.04236
11
5.62441
21
-5.04311
0
LINE
8
BLACK
6
CONTINUOUS
10
5.62441
20
-5.04311
11
5.57559
21
-5.04311
0
LINE
8
BLACK
6
CONTINUOUS
10
5.57559
20
-5.04311
11
5.57182
21
-5.04236
0
LINE
8
BLACK
6
CONTINUOUS
10
5.57182
20
-5.04236
11
5.56863
21
-5.04023
0
LINE
8
BLACK
6
CONTINUOUS
10
5.56863
20
-5.04023
11
5.5665
21
-5.03703
0
LINE
8
BLACK
6
CONTINUOUS
10
5.5665
20
-5.03703
11
5.56575
21
-5.03327
0
LINE
8
BLACK
6
CONTINUOUS
10
5.56575
20
-5.03327
11
5.56575
21
-4.96673
0
LINE
8
BLACK
6
CONTINUOUS
10
5.56575
20
-4.96673
11
5.5665
21
-4.96297
0
LINE
8
BLACK
6
CONTINUOUS
10
5.5665
20
-4.96297
11
5.56863
21
-4.95977
0
LINE
8
BLACK
6
CONTINUOUS
10
5.56863
20
-4.95977
11
5.57182
21
-4.95764
0
LINE
8
BLACK
6
CONTINUOUS
10
5.57182
20
-4.95764
11
5.57559
21
-4.95689
0
LINE
8
BLACK
6
CONTINUOUS
10
5.57559
20
-4.95689
11
5.62441
21
-4.95689
0
LINE
8
BLACK
6
CONTINUOUS
10
5.62441
20
-4.95689
11
5.62818
21
-4.95764
0
LINE
8
BLACK
6
CONTINUOUS
10
3.00318
20
-4.95764
11
3.00637
21
-4.95977
0
LINE
8
BLACK
6
CONTINUOUS
10
3.00637
20
-4.95977
11
3.0085
21
-4.96297
0
LINE
8
BLACK
6
CONTINUOUS
10
3.0085
20
-4.96297
11
3.00925
21
-4.96673
0
LINE
8
BLACK
6
CONTINUOUS
10
3.00925
20
-4.96673
11
3.00925
21
-5.03327
0
LINE
8
BLACK
6
CONTINUOUS
10
3.00925
20
-5.03327
11
3.0085
21
-5.03703
0
LINE
8
BLACK
6
CONTINUOUS
10
3.0085
20
-5.03703
11
3.00637
21
-5.04023
0
LINE
8
BLACK
6
CONTINUOUS
10
3.00637
20
-5.04023
11
3.00318
21
-5.04236
0
LINE
8
BLACK
6
CONTINUOUS
10
3.00318
20
-5.04236
11
2.99941
21
-5.04311
0
LINE
8
BLACK
6
CONTINUOUS
10
2.99941
20
-5.04311
11
2.95059
21
-5.04311
0
LINE
8
BLACK
6
CONTINUOUS
10
2.95059
20
-5.04311
11
2.94682
21
-5.04236
0
LINE
8
BLACK
6
CONTINUOUS
10
2.94682
20
-5.04236
11
2.94363
21
-5.04023
0
LINE
8
BLACK
6
CONTINUOUS
10
2.94363
20
-5.04023
11
2.9415
21
-5.03703
0
LINE
8
BLACK
6
CONTINUOUS
10
2.9415
20
-5.03703
11
2.94075
21
-5.03327
0
LINE
8
BLACK
6
CONTINUOUS
10
2.94075
20
-5.03327
11
2.94075
21
-4.96673
0
LINE
8
BLACK
6
CONTINUOUS
10
2.94075
20
-4.96673
11
2.9415
21
-4.96297
0
LINE
8
BLACK
6
CONTINUOUS
10
2.9415
20
-4.96297
11
2.94363
21
-4.95977
0
LINE
8
BLACK
6
CONTINUOUS
10
2.94363
20
-4.95977
11
2.94682
21
-4.95764
0
LINE
8
BLACK
6
CONTINUOUS
10
2.94682
20
-4.95764
11
2.95059
21
-4.95689
0
LINE
8
BLACK
6
CONTINUOUS
10
2.95059
20
-4.95689
11
2.99941
21
-4.95689
0
LINE
8
BLACK
6
CONTINUOUS
10
2.99941
20
-4.95689
11
3.00318
21
-4.95764
0
LINE
8
BLACK
6
CONTINUOUS
10
5.90921
20
-4.95815
11
5.91608
21
-4.9609
0
LINE
8
BLACK
6
CONTINUOUS
10
5.91608
20
-4.9609
11
5.9222
21
-4.96506
0
LINE
8
BLACK
6
CONTINUOUS
10
5.9222
20
-4.96506
11
5.92728
21
-4.97043
0
LINE
8
BLACK
6
CONTINUOUS
10
5.92728
20
-4.97043
11
5.93109
21
-4.97677
0
LINE
8
BLACK
6
CONTINUOUS
10
5.93109
20
-4.97677
11
5.93345
21
-4.98379
0
LINE
8
BLACK
6
CONTINUOUS
10
5.93345
20
-4.98379
11
5.93425
21
-4.99114
0
LINE
8
BLACK
6
CONTINUOUS
10
5.93425
20
-4.99114
11
5.93425
21
-5.00886
0
LINE
8
BLACK
6
CONTINUOUS
10
5.93425
20
-5.00886
11
5.93404
21
-5.01268
0
LINE
8
BLACK
6
CONTINUOUS
10
5.93404
20
-5.01268
11
5.93242
21
-5.0199
0
LINE
8
BLACK
6
CONTINUOUS
10
5.93242
20
-5.0199
11
5.9293
21
-5.0266
0
LINE
8
BLACK
6
CONTINUOUS
10
5.9293
20
-5.0266
11
5.9248
21
-5.03248
0
LINE
8
BLACK
6
CONTINUOUS
10
5.9248
20
-5.03248
11
5.91915
21
-5.03725
0
LINE
8
BLACK
6
CONTINUOUS
10
5.91915
20
-5.03725
11
5.91261
21
-5.0407
0
LINE
8
BLACK
6
CONTINUOUS
10
5.91261
20
-5.0407
11
5.90548
21
-5.04267
0
LINE
8
BLACK
6
CONTINUOUS
10
5.90548
20
-5.04267
11
5.89809
21
-5.04306
0
LINE
8
BLACK
6
CONTINUOUS
10
5.89809
20
-5.04306
11
5.89079
21
-5.04185
0
LINE
8
BLACK
6
CONTINUOUS
10
5.89079
20
-5.04185
11
5.88392
21
-5.0391
0
LINE
8
BLACK
6
CONTINUOUS
10
5.88392
20
-5.0391
11
5.8778
21
-5.03494
0
LINE
8
BLACK
6
CONTINUOUS
10
5.8778
20
-5.03494
11
5.87272
21
-5.02957
0
LINE
8
BLACK
6
CONTINUOUS
10
5.87272
20
-5.02957
11
5.86891
21
-5.02323
0
LINE
8
BLACK
6
CONTINUOUS
10
5.86891
20
-5.02323
11
5.86655
21
-5.01621
0
LINE
8
BLACK
6
CONTINUOUS
10
5.86655
20
-5.01621
11
5.86575
21
-5.00886
0
LINE
8
BLACK
6
CONTINUOUS
10
5.86575
20
-5.00886
11
5.86575
21
-4.99114
0
LINE
8
BLACK
6
CONTINUOUS
10
5.86575
20
-4.99114
11
5.86596
21
-4.98732
0
LINE
8
BLACK
6
CONTINUOUS
10
5.86596
20
-4.98732
11
5.86758
21
-4.9801
0
LINE
8
BLACK
6
CONTINUOUS
10
5.86758
20
-4.9801
11
5.8707
21
-4.9734
0
LINE
8
BLACK
6
CONTINUOUS
10
5.8707
20
-4.9734
11
5.8752
21
-4.96752
0
LINE
8
BLACK
6
CONTINUOUS
10
5.8752
20
-4.96752
11
5.88085
21
-4.96275
0
LINE
8
BLACK
6
CONTINUOUS
10
5.88085
20
-4.96275
11
5.88739
21
-4.9593
0
LINE
8
BLACK
6
CONTINUOUS
10
5.88739
20
-4.9593
11
5.89452
21
-4.95733
0
LINE
8
BLACK
6
CONTINUOUS
10
5.89452
20
-4.95733
11
5.90191
21
-4.95694
0
LINE
8
BLACK
6
CONTINUOUS
10
5.90191
20
-4.95694
11
5.90921
21
-4.95815
0
LINE
8
BLACK
6
CONTINUOUS
10
5.70921
20
-4.95815
11
5.71608
21
-4.9609
0
LINE
8
BLACK
6
CONTINUOUS
10
5.71608
20
-4.9609
11
5.7222
21
-4.96506
0
LINE
8
BLACK
6
CONTINUOUS
10
5.7222
20
-4.96506
11
5.72728
21
-4.97043
0
LINE
8
BLACK
6
CONTINUOUS
10
5.72728
20
-4.97043
11
5.73109
21
-4.97677
0
LINE
8
BLACK
6
CONTINUOUS
10
5.73109
20
-4.97677
11
5.73345
21
-4.98379
0
LINE
8
BLACK
6
CONTINUOUS
10
5.73345
20
-4.98379
11
5.73425
21
-4.99114
0
LINE
8
BLACK
6
CONTINUOUS
10
5.73425
20
-4.99114
11
5.73425
21
-5.00886
0
LINE
8
BLACK
6
CONTINUOUS
10
5.73425
20
-5.00886
11
5.73404
21
-5.01268
0
LINE
8
BLACK
6
CONTINUOUS
10
5.73404
20
-5.01268
11
5.73242
21
-5.0199
0
LINE
8
BLACK
6
CONTINUOUS
10
5.73242
20
-5.0199
11
5.7293
21
-5.0266
0
LINE
8
BLACK
6
CONTINUOUS
10
5.7293
20
-5.0266
11
5.7248
21
-5.03248
0
LINE
8
BLACK
6
CONTINUOUS
10
5.7248
20
-5.03248
11
5.71915
21
-5.03725
0
LINE
8
BLACK
6
CONTINUOUS
10
5.71915
20
-5.03725
11
5.71261
21
-5.0407
0
LINE
8
BLACK
6
CONTINUOUS
10
5.71261
20
-5.0407
11
5.70548
21
-5.04267
0
LINE
8
BLACK
6
CONTINUOUS
10
5.70548
20
-5.04267
11
5.69809
21
-5.04306
0
LINE
8
BLACK
6
CONTINUOUS
10
5.69809
20
-5.04306
11
5.69079
21
-5.04185
0
LINE
8
BLACK
6
CONTINUOUS
10
5.69079
20
-5.04185
11
5.68392
21
-5.0391
0
LINE
8
BLACK
6
CONTINUOUS
10
5.68392
20
-5.0391
11
5.6778
21
-5.03494
0
LINE
8
BLACK
6
CONTINUOUS
10
5.6778
20
-5.03494
11
5.67272
21
-5.02957
0
LINE
8
BLACK
6
CONTINUOUS
10
5.67272
20
-5.02957
11
5.66891
21
-5.02323
0
LINE
8
BLACK
6
CONTINUOUS
10
5.66891
20
-5.02323
11
5.66655
21
-5.01621
0
LINE
8
BLACK
6
CONTINUOUS
10
5.66655
20
-5.01621
11
5.66575
21
-5.00886
0
LINE
8
BLACK
6
CONTINUOUS
10
5.66575
20
-5.00886
11
5.66575
21
-4.99114
0
LINE
8
BLACK
6
CONTINUOUS
10
5.66575
20
-4.99114
11
5.66596
21
-4.98732
0
LINE
8
BLACK
6
CONTINUOUS
10
5.66596
20
-4.98732
11
5.66758
21
-4.9801
0
LINE
8
BLACK
6
CONTINUOUS
10
5.66758
20
-4.9801
11
5.6707
21
-4.9734
0
LINE
8
BLACK
6
CONTINUOUS
10
5.6707
20
-4.9734
11
5.6752
21
-4.96752
0
LINE
8
BLACK
6
CONTINUOUS
10
5.6752
20
-4.96752
11
5.68085
21
-4.96275
0
LINE
8
BLACK
6
CONTINUOUS
10
5.68085
20
-4.96275
11
5.68739
21
-4.9593
0
LINE
8
BLACK
6
CONTINUOUS
10
5.68739
20
-4.9593
11
5.69452
21
-4.95733
0
LINE
8
BLACK
6
CONTINUOUS
10
5.69452
20
-4.95733
11
5.70191
21
-4.95694
0
LINE
8
BLACK
6
CONTINUOUS
10
5.70191
20
-4.95694
11
5.70921
21
-4.95815
0
LINE
8
BLACK
6
CONTINUOUS
10
5.80921
20
-4.95815
11
5.81608
21
-4.9609
0
LINE
8
BLACK
6
CONTINUOUS
10
5.81608
20
-4.9609
11
5.8222
21
-4.96506
0
LINE
8
BLACK
6
CONTINUOUS
10
5.8222
20
-4.96506
11
5.82728
21
-4.97043
0
LINE
8
BLACK
6
CONTINUOUS
10
5.82728
20
-4.97043
11
5.83109
21
-4.97677
0
LINE
8
BLACK
6
CONTINUOUS
10
5.83109
20
-4.97677
11
5.83345
21
-4.98379
0
LINE
8
BLACK
6
CONTINUOUS
10
5.83345
20
-4.98379
11
5.83425
21
-4.99114
0
LINE
8
BLACK
6
CONTINUOUS
10
5.83425
20
-4.99114
11
5.83425
21
-5.00886
0
LINE
8
BLACK
6
CONTINUOUS
10
5.83425
20
-5.00886
11
5.83404
21
-5.01268
0
LINE
8
BLACK
6
CONTINUOUS
10
5.83404
20
-5.01268
11
5.83242
21
-5.0199
0
LINE
8
BLACK
6
CONTINUOUS
10
5.83242
20
-5.0199
11
5.8293
21
-5.0266
0
LINE
8
BLACK
6
CONTINUOUS
10
5.8293
20
-5.0266
11
5.8248
21
-5.03248
0
LINE
8
BLACK
6
CONTINUOUS
10
5.8248
20
-5.03248
11
5.81915
21
-5.03725
0
LINE
8
BLACK
6
CONTINUOUS
10
5.81915
20
-5.03725
11
5.81261
21
-5.0407
0
LINE
8
BLACK
6
CONTINUOUS
10
5.81261
20
-5.0407
11
5.80548
21
-5.04267
0
LINE
8
BLACK
6
CONTINUOUS
10
5.80548
20
-5.04267
11
5.79809
21
-5.04306
0
LINE
8
BLACK
6
CONTINUOUS
10
5.79809
20
-5.04306
11
5.79079
21
-5.04185
0
LINE
8
BLACK
6
CONTINUOUS
10
5.79079
20
-5.04185
11
5.78392
21
-5.0391
0
LINE
8
BLACK
6
CONTINUOUS
10
5.78392
20
-5.0391
11
5.7778
21
-5.03494
0
LINE
8
BLACK
6
CONTINUOUS
10
5.7778
20
-5.03494
11
5.77272
21
-5.02957
0
LINE
8
BLACK
6
CONTINUOUS
10
5.77272
20
-5.02957
11
5.76891
21
-5.02323
0
LINE
8
BLACK
6
CONTINUOUS
10
5.76891
20
-5.02323
11
5.76655
21
-5.01621
0
LINE
8
BLACK
6
CONTINUOUS
10
5.76655
20
-5.01621
11
5.76575
21
-5.00886
0
LINE
8
BLACK
6
CONTINUOUS
10
5.76575
20
-5.00886
11
5.76575
21
-4.99114
0
LINE
8
BLACK
6
CONTINUOUS
10
5.76575
20
-4.99114
11
5.76596
21
-4.98732
0
LINE
8
BLACK
6
CONTINUOUS
10
5.76596
20
-4.98732
11
5.76758
21
-4.9801
0
LINE
8
BLACK
6
CONTINUOUS
10
5.76758
20
-4.9801
11
5.7707
21
-4.9734
0
LINE
8
BLACK
6
CONTINUOUS
10
5.7707
20
-4.9734
11
5.7752
21
-4.96752
0
LINE
8
BLACK
6
CONTINUOUS
10
5.7752
20
-4.96752
11
5.78085
21
-4.96275
0
LINE
8
BLACK
6
CONTINUOUS
10
5.78085
20
-4.96275
11
5.78739
21
-4.9593
0
LINE
8
BLACK
6
CONTINUOUS
10
5.78739
20
-4.9593
11
5.79452
21
-4.95733
0
LINE
8
BLACK
6
CONTINUOUS
10
5.79452
20
-4.95733
11
5.80191
21
-4.95694
0
LINE
8
BLACK
6
CONTINUOUS
10
5.80191
20
-4.95694
11
5.80921
21
-4.95815
0
LINE
8
BLACK
6
CONTINUOUS
10
6.43421
20
-4.95815
11
6.44108
21
-4.9609
0
LINE
8
BLACK
6
CONTINUOUS
10
6.44108
20
-4.9609
11
6.4472
21
-4.96506
0
LINE
8
BLACK
6
CONTINUOUS
10
6.4472
20
-4.96506
11
6.45228
21
-4.97043
0
LINE
8
BLACK
6
CONTINUOUS
10
6.45228
20
-4.97043
11
6.45609
21
-4.97677
0
LINE
8
BLACK
6
CONTINUOUS
10
6.45609
20
-4.97677
11
6.45845
21
-4.98379
0
LINE
8
BLACK
6
CONTINUOUS
10
6.45845
20
-4.98379
11
6.45925
21
-4.99114
0
LINE
8
BLACK
6
CONTINUOUS
10
6.45925
20
-4.99114
11
6.45925
21
-5.00886
0
LINE
8
BLACK
6
CONTINUOUS
10
6.45925
20
-5.00886
11
6.45904
21
-5.01268
0
LINE
8
BLACK
6
CONTINUOUS
10
6.45904
20
-5.01268
11
6.45742
21
-5.0199
0
LINE
8
BLACK
6
CONTINUOUS
10
6.45742
20
-5.0199
11
6.4543
21
-5.0266
0
LINE
8
BLACK
6
CONTINUOUS
10
6.4543
20
-5.0266
11
6.4498
21
-5.03248
0
LINE
8
BLACK
6
CONTINUOUS
10
6.4498
20
-5.03248
11
6.44415
21
-5.03725
0
LINE
8
BLACK
6
CONTINUOUS
10
6.44415
20
-5.03725
11
6.43761
21
-5.0407
0
LINE
8
BLACK
6
CONTINUOUS
10
6.43761
20
-5.0407
11
6.43048
21
-5.04267
0
LINE
8
BLACK
6
CONTINUOUS
10
6.43048
20
-5.04267
11
6.42309
21
-5.04306
0
LINE
8
BLACK
6
CONTINUOUS
10
6.42309
20
-5.04306
11
6.41579
21
-5.04185
0
LINE
8
BLACK
6
CONTINUOUS
10
6.41579
20
-5.04185
11
6.40892
21
-5.0391
0
LINE
8
BLACK
6
CONTINUOUS
10
6.40892
20
-5.0391
11
6.4028
21
-5.03494
0
LINE
8
BLACK
6
CONTINUOUS
10
6.4028
20
-5.03494
11
6.39772
21
-5.02957
0
LINE
8
BLACK
6
CONTINUOUS
10
6.39772
20
-5.02957
11
6.39391
21
-5.02323
0
LINE
8
BLACK
6
CONTINUOUS
10
6.39391
20
-5.02323
11
6.39155
21
-5.01621
0
LINE
8
BLACK
6
CONTINUOUS
10
6.39155
20
-5.01621
11
6.39075
21
-5.00886
0
LINE
8
BLACK
6
CONTINUOUS
10
6.39075
20
-5.00886
11
6.39075
21
-4.99114
0
LINE
8
BLACK
6
CONTINUOUS
10
6.39075
20
-4.99114
11
6.39096
21
-4.98732
0
LINE
8
BLACK
6
CONTINUOUS
10
6.39096
20
-4.98732
11
6.39258
21
-4.9801
0
LINE
8
BLACK
6
CONTINUOUS
10
6.39258
20
-4.9801
11
6.3957
21
-4.9734
0
LINE
8
BLACK
6
CONTINUOUS
10
6.3957
20
-4.9734
11
6.4002
21
-4.96752
0
LINE
8
BLACK
6
CONTINUOUS
10
6.4002
20
-4.96752
11
6.40585
21
-4.96275
0
LINE
8
BLACK
6
CONTINUOUS
10
6.40585
20
-4.96275
11
6.41239
21
-4.9593
0
LINE
8
BLACK
6
CONTINUOUS
10
6.41239
20
-4.9593
11
6.41952
21
-4.95733
0
LINE
8
BLACK
6
CONTINUOUS
10
6.41952
20
-4.95733
11
6.42691
21
-4.95694
0
LINE
8
BLACK
6
CONTINUOUS
10
6.42691
20
-4.95694
11
6.43421
21
-4.95815
0
LINE
8
BLACK
6
CONTINUOUS
10
6.33421
20
-4.95815
11
6.34108
21
-4.9609
0
LINE
8
BLACK
6
CONTINUOUS
10
6.34108
20
-4.9609
11
6.3472
21
-4.96506
0
LINE
8
BLACK
6
CONTINUOUS
10
6.3472
20
-4.96506
11
6.35228
21
-4.97043
0
LINE
8
BLACK
6
CONTINUOUS
10
6.35228
20
-4.97043
11
6.35609
21
-4.97677
0
LINE
8
BLACK
6
CONTINUOUS
10
6.35609
20
-4.97677
11
6.35845
21
-4.98379
0
LINE
8
BLACK
6
CONTINUOUS
10
6.35845
20
-4.98379
11
6.35925
21
-4.99114
0
LINE
8
BLACK
6
CONTINUOUS
10
6.35925
20
-4.99114
11
6.35925
21
-5.00886
0
LINE
8
BLACK
6
CONTINUOUS
10
6.35925
20
-5.00886
11
6.35904
21
-5.01268
0
LINE
8
BLACK
6
CONTINUOUS
10
6.35904
20
-5.01268
11
6.35742
21
-5.0199
0
LINE
8
BLACK
6
CONTINUOUS
10
6.35742
20
-5.0199
11
6.3543
21
-5.0266
0
LINE
8
BLACK
6
CONTINUOUS
10
6.3543
20
-5.0266
11
6.3498
21
-5.03248
0
LINE
8
BLACK
6
CONTINUOUS
10
6.3498
20
-5.03248
11
6.34415
21
-5.03725
0
LINE
8
BLACK
6
CONTINUOUS
10
6.34415
20
-5.03725
11
6.33761
21
-5.0407
0
LINE
8
BLACK
6
CONTINUOUS
10
6.33761
20
-5.0407
11
6.33048
21
-5.04267
0
LINE
8
BLACK
6
CONTINUOUS
10
6.33048
20
-5.04267
11
6.32309
21
-5.04306
0
LINE
8
BLACK
6
CONTINUOUS
10
6.32309
20
-5.04306
11
6.31579
21
-5.04185
0
LINE
8
BLACK
6
CONTINUOUS
10
6.31579
20
-5.04185
11
6.30892
21
-5.0391
0
LINE
8
BLACK
6
CONTINUOUS
10
6.30892
20
-5.0391
11
6.3028
21
-5.03494
0
LINE
8
BLACK
6
CONTINUOUS
10
6.3028
20
-5.03494
11
6.29772
21
-5.02957
0
LINE
8
BLACK
6
CONTINUOUS
10
6.29772
20
-5.02957
11
6.29391
21
-5.02323
0
LINE
8
BLACK
6
CONTINUOUS
10
6.29391
20
-5.02323
11
6.29155
21
-5.01621
0
LINE
8
BLACK
6
CONTINUOUS
10
6.29155
20
-5.01621
11
6.29075
21
-5.00886
0
LINE
8
BLACK
6
CONTINUOUS
10
6.29075
20
-5.00886
11
6.29075
21
-4.99114
0
LINE
8
BLACK
6
CONTINUOUS
10
6.29075
20
-4.99114
11
6.29096
21
-4.98732
0
LINE
8
BLACK
6
CONTINUOUS
10
6.29096
20
-4.98732
11
6.29258
21
-4.9801
0
LINE
8
BLACK
6
CONTINUOUS
10
6.29258
20
-4.9801
11
6.2957
21
-4.9734
0
LINE
8
BLACK
6
CONTINUOUS
10
6.2957
20
-4.9734
11
6.3002
21
-4.96752
0
LINE
8
BLACK
6
CONTINUOUS
10
6.3002
20
-4.96752
11
6.30585
21
-4.96275
0
LINE
8
BLACK
6
CONTINUOUS
10
6.30585
20
-4.96275
11
6.31239
21
-4.9593
0
LINE
8
BLACK
6
CONTINUOUS
10
6.31239
20
-4.9593
11
6.31952
21
-4.95733
0
LINE
8
BLACK
6
CONTINUOUS
10
6.31952
20
-4.95733
11
6.32691
21
-4.95694
0
LINE
8
BLACK
6
CONTINUOUS
10
6.32691
20
-4.95694
11
6.33421
21
-4.95815
0
LINE
8
BLACK
6
CONTINUOUS
10
6.23421
20
-4.95815
11
6.24108
21
-4.9609
0
LINE
8
BLACK
6
CONTINUOUS
10
6.24108
20
-4.9609
11
6.2472
21
-4.96506
0
LINE
8
BLACK
6
CONTINUOUS
10
6.2472
20
-4.96506
11
6.25228
21
-4.97043
0
LINE
8
BLACK
6
CONTINUOUS
10
6.25228
20
-4.97043
11
6.25609
21
-4.97677
0
LINE
8
BLACK
6
CONTINUOUS
10
6.25609
20
-4.97677
11
6.25845
21
-4.98379
0
LINE
8
BLACK
6
CONTINUOUS
10
6.25845
20
-4.98379
11
6.25925
21
-4.99114
0
LINE
8
BLACK
6
CONTINUOUS
10
6.25925
20
-4.99114
11
6.25925
21
-5.00886
0
LINE
8
BLACK
6
CONTINUOUS
10
6.25925
20
-5.00886
11
6.25904
21
-5.01268
0
LINE
8
BLACK
6
CONTINUOUS
10
6.25904
20
-5.01268
11
6.25742
21
-5.0199
0
LINE
8
BLACK
6
CONTINUOUS
10
6.25742
20
-5.0199
11
6.2543
21
-5.0266
0
LINE
8
BLACK
6
CONTINUOUS
10
6.2543
20
-5.0266
11
6.2498
21
-5.03248
0
LINE
8
BLACK
6
CONTINUOUS
10
6.2498
20
-5.03248
11
6.24415
21
-5.03725
0
LINE
8
BLACK
6
CONTINUOUS
10
6.24415
20
-5.03725
11
6.23761
21
-5.0407
0
LINE
8
BLACK
6
CONTINUOUS
10
6.23761
20
-5.0407
11
6.23048
21
-5.04267
0
LINE
8
BLACK
6
CONTINUOUS
10
6.23048
20
-5.04267
11
6.22309
21
-5.04306
0
LINE
8
BLACK
6
CONTINUOUS
10
6.22309
20
-5.04306
11
6.21579
21
-5.04185
0
LINE
8
BLACK
6
CONTINUOUS
10
6.21579
20
-5.04185
11
6.20892
21
-5.0391
0
LINE
8
BLACK
6
CONTINUOUS
10
6.20892
20
-5.0391
11
6.2028
21
-5.03494
0
LINE
8
BLACK
6
CONTINUOUS
10
6.2028
20
-5.03494
11
6.19772
21
-5.02957
0
LINE
8
BLACK
6
CONTINUOUS
10
6.19772
20
-5.02957
11
6.19391
21
-5.02323
0
LINE
8
BLACK
6
CONTINUOUS
10
6.19391
20
-5.02323
11
6.19155
21
-5.01621
0
LINE
8
BLACK
6
CONTINUOUS
10
6.19155
20
-5.01621
11
6.19075
21
-5.00886
0
LINE
8
BLACK
6
CONTINUOUS
10
6.19075
20
-5.00886
11
6.19075
21
-4.99114
0
LINE
8
BLACK
6
CONTINUOUS
10
6.19075
20
-4.99114
11
6.19096
21
-4.98732
0
LINE
8
BLACK
6
CONTINUOUS
10
6.19096
20
-4.98732
11
6.19258
21
-4.9801
0
LINE
8
BLACK
6
CONTINUOUS
10
6.19258
20
-4.9801
11
6.1957
21
-4.9734
0
LINE
8
BLACK
6
CONTINUOUS
10
6.1957
20
-4.9734
11
6.2002
21
-4.96752
0
LINE
8
BLACK
6
CONTINUOUS
10
6.2002
20
-4.96752
11
6.20585
21
-4.96275
0
LINE
8
BLACK
6
CONTINUOUS
10
6.20585
20
-4.96275
11
6.21239
21
-4.9593
0
LINE
8
BLACK
6
CONTINUOUS
10
6.21239
20
-4.9593
11
6.21952
21
-4.95733
0
LINE
8
BLACK
6
CONTINUOUS
10
6.21952
20
-4.95733
11
6.22691
21
-4.95694
0
LINE
8
BLACK
6
CONTINUOUS
10
6.22691
20
-4.95694
11
6.23421
21
-4.95815
0
LINE
8
BLACK
6
CONTINUOUS
10
5.18421
20
-4.95815
11
5.19108
21
-4.9609
0
LINE
8
BLACK
6
CONTINUOUS
10
5.19108
20
-4.9609
11
5.1972
21
-4.96506
0
LINE
8
BLACK
6
CONTINUOUS
10
5.1972
20
-4.96506
11
5.20228
21
-4.97043
0
LINE
8
BLACK
6
CONTINUOUS
10
5.20228
20
-4.97043
11
5.20609
21
-4.97677
0
LINE
8
BLACK
6
CONTINUOUS
10
5.20609
20
-4.97677
11
5.20845
21
-4.98379
0
LINE
8
BLACK
6
CONTINUOUS
10
5.20845
20
-4.98379
11
5.20925
21
-4.99114
0
LINE
8
BLACK
6
CONTINUOUS
10
5.20925
20
-4.99114
11
5.20925
21
-5.00886
0
LINE
8
BLACK
6
CONTINUOUS
10
5.20925
20
-5.00886
11
5.20904
21
-5.01268
0
LINE
8
BLACK
6
CONTINUOUS
10
5.20904
20
-5.01268
11
5.20742
21
-5.0199
0
LINE
8
BLACK
6
CONTINUOUS
10
5.20742
20
-5.0199
11
5.2043
21
-5.0266
0
LINE
8
BLACK
6
CONTINUOUS
10
5.2043
20
-5.0266
11
5.1998
21
-5.03248
0
LINE
8
BLACK
6
CONTINUOUS
10
5.1998
20
-5.03248
11
5.19415
21
-5.03725
0
LINE
8
BLACK
6
CONTINUOUS
10
5.19415
20
-5.03725
11
5.18761
21
-5.0407
0
LINE
8
BLACK
6
CONTINUOUS
10
5.18761
20
-5.0407
11
5.18048
21
-5.04267
0
LINE
8
BLACK
6
CONTINUOUS
10
5.18048
20
-5.04267
11
5.17309
21
-5.04306
0
LINE
8
BLACK
6
CONTINUOUS
10
5.17309
20
-5.04306
11
5.16579
21
-5.04185
0
LINE
8
BLACK
6
CONTINUOUS
10
5.16579
20
-5.04185
11
5.15892
21
-5.0391
0
LINE
8
BLACK
6
CONTINUOUS
10
5.15892
20
-5.0391
11
5.1528
21
-5.03494
0
LINE
8
BLACK
6
CONTINUOUS
10
5.1528
20
-5.03494
11
5.14772
21
-5.02957
0
LINE
8
BLACK
6
CONTINUOUS
10
5.14772
20
-5.02957
11
5.14391
21
-5.02323
0
LINE
8
BLACK
6
CONTINUOUS
10
5.14391
20
-5.02323
11
5.14155
21
-5.01621
0
LINE
8
BLACK
6
CONTINUOUS
10
5.14155
20
-5.01621
11
5.14075
21
-5.00886
0
LINE
8
BLACK
6
CONTINUOUS
10
5.14075
20
-5.00886
11
5.14075
21
-4.99114
0
LINE
8
BLACK
6
CONTINUOUS
10
5.14075
20
-4.99114
11
5.14096
21
-4.98732
0
LINE
8
BLACK
6
CONTINUOUS
10
5.14096
20
-4.98732
11
5.14258
21
-4.9801
0
LINE
8
BLACK
6
CONTINUOUS
10
5.14258
20
-4.9801
11
5.1457
21
-4.9734
0
LINE
8
BLACK
6
CONTINUOUS
10
5.1457
20
-4.9734
11
5.1502
21
-4.96752
0
LINE
8
BLACK
6
CONTINUOUS
10
5.1502
20
-4.96752
11
5.15585
21
-4.96275
0
LINE
8
BLACK
6
CONTINUOUS
10
5.15585
20
-4.96275
11
5.16239
21
-4.9593
0
LINE
8
BLACK
6
CONTINUOUS
10
5.16239
20
-4.9593
11
5.16952
21
-4.95733
0
LINE
8
BLACK
6
CONTINUOUS
10
5.16952
20
-4.95733
11
5.17691
21
-4.95694
0
LINE
8
BLACK
6
CONTINUOUS
10
5.17691
20
-4.95694
11
5.18421
21
-4.95815
0
LINE
8
BLACK
6
CONTINUOUS
10
5.28421
20
-4.95815
11
5.29108
21
-4.9609
0
LINE
8
BLACK
6
CONTINUOUS
10
5.29108
20
-4.9609
11
5.2972
21
-4.96506
0
LINE
8
BLACK
6
CONTINUOUS
10
5.2972
20
-4.96506
11
5.30228
21
-4.97043
0
LINE
8
BLACK
6
CONTINUOUS
10
5.30228
20
-4.97043
11
5.30609
21
-4.97677
0
LINE
8
BLACK
6
CONTINUOUS
10
5.30609
20
-4.97677
11
5.30845
21
-4.98379
0
LINE
8
BLACK
6
CONTINUOUS
10
5.30845
20
-4.98379
11
5.30925
21
-4.99114
0
LINE
8
BLACK
6
CONTINUOUS
10
5.30925
20
-4.99114
11
5.30925
21
-5.00886
0
LINE
8
BLACK
6
CONTINUOUS
10
5.30925
20
-5.00886
11
5.30904
21
-5.01268
0
LINE
8
BLACK
6
CONTINUOUS
10
5.30904
20
-5.01268
11
5.30742
21
-5.0199
0
LINE
8
BLACK
6
CONTINUOUS
10
5.30742
20
-5.0199
11
5.3043
21
-5.0266
0
LINE
8
BLACK
6
CONTINUOUS
10
5.3043
20
-5.0266
11
5.2998
21
-5.03248
0
LINE
8
BLACK
6
CONTINUOUS
10
5.2998
20
-5.03248
11
5.29415
21
-5.03725
0
LINE
8
BLACK
6
CONTINUOUS
10
5.29415
20
-5.03725
11
5.28761
21
-5.0407
0
LINE
8
BLACK
6
CONTINUOUS
10
5.28761
20
-5.0407
11
5.28048
21
-5.04267
0
LINE
8
BLACK
6
CONTINUOUS
10
5.28048
20
-5.04267
11
5.27309
21
-5.04306
0
LINE
8
BLACK
6
CONTINUOUS
10
5.27309
20
-5.04306
11
5.26579
21
-5.04185
0
LINE
8
BLACK
6
CONTINUOUS
10
5.26579
20
-5.04185
11
5.25892
21
-5.0391
0
LINE
8
BLACK
6
CONTINUOUS
10
5.25892
20
-5.0391
11
5.2528
21
-5.03494
0
LINE
8
BLACK
6
CONTINUOUS
10
5.2528
20
-5.03494
11
5.24772
21
-5.02957
0
LINE
8
BLACK
6
CONTINUOUS
10
5.24772
20
-5.02957
11
5.24391
21
-5.02323
0
LINE
8
BLACK
6
CONTINUOUS
10
5.24391
20
-5.02323
11
5.24155
21
-5.01621
0
LINE
8
BLACK
6
CONTINUOUS
10
5.24155
20
-5.01621
11
5.24075
21
-5.00886
0
LINE
8
BLACK
6
CONTINUOUS
10
5.24075
20
-5.00886
11
5.24075
21
-4.99114
0
LINE
8
BLACK
6
CONTINUOUS
10
5.24075
20
-4.99114
11
5.24096
21
-4.98732
0
LINE
8
BLACK
6
CONTINUOUS
10
5.24096
20
-4.98732
11
5.24258
21
-4.9801
0
LINE
8
BLACK
6
CONTINUOUS
10
5.24258
20
-4.9801
11
5.2457
21
-4.9734
0
LINE
8
BLACK
6
CONTINUOUS
10
5.2457
20
-4.9734
11
5.2502
21
-4.96752
0
LINE
8
BLACK
6
CONTINUOUS
10
5.2502
20
-4.96752
11
5.25585
21
-4.96275
0
LINE
8
BLACK
6
CONTINUOUS
10
5.25585
20
-4.96275
11
5.26239
21
-4.9593
0
LINE
8
BLACK
6
CONTINUOUS
10
5.26239
20
-4.9593
11
5.26952
21
-4.95733
0
LINE
8
BLACK
6
CONTINUOUS
10
5.26952
20
-4.95733
11
5.27691
21
-4.95694
0
LINE
8
BLACK
6
CONTINUOUS
10
5.27691
20
-4.95694
11
5.28421
21
-4.95815
0
LINE
8
BLACK
6
CONTINUOUS
10
5.38421
20
-4.95815
11
5.39108
21
-4.9609
0
LINE
8
BLACK
6
CONTINUOUS
10
5.39108
20
-4.9609
11
5.3972
21
-4.96506
0
LINE
8
BLACK
6
CONTINUOUS
10
5.3972
20
-4.96506
11
5.40228
21
-4.97043
0
LINE
8
BLACK
6
CONTINUOUS
10
5.40228
20
-4.97043
11
5.40609
21
-4.97677
0
LINE
8
BLACK
6
CONTINUOUS
10
5.40609
20
-4.97677
11
5.40845
21
-4.98379
0
LINE
8
BLACK
6
CONTINUOUS
10
5.40845
20
-4.98379
11
5.40925
21
-4.99114
0
LINE
8
BLACK
6
CONTINUOUS
10
5.40925
20
-4.99114
11
5.40925
21
-5.00886
0
LINE
8
BLACK
6
CONTINUOUS
10
5.40925
20
-5.00886
11
5.40904
21
-5.01268
0
LINE
8
BLACK
6
CONTINUOUS
10
5.40904
20
-5.01268
11
5.40742
21
-5.0199
0
LINE
8
BLACK
6
CONTINUOUS
10
5.40742
20
-5.0199
11
5.4043
21
-5.0266
0
LINE
8
BLACK
6
CONTINUOUS
10
5.4043
20
-5.0266
11
5.3998
21
-5.03248
0
LINE
8
BLACK
6
CONTINUOUS
10
5.3998
20
-5.03248
11
5.39415
21
-5.03725
0
LINE
8
BLACK
6
CONTINUOUS
10
5.39415
20
-5.03725
11
5.38761
21
-5.0407
0
LINE
8
BLACK
6
CONTINUOUS
10
5.38761
20
-5.0407
11
5.38048
21
-5.04267
0
LINE
8
BLACK
6
CONTINUOUS
10
5.38048
20
-5.04267
11
5.37309
21
-5.04306
0
LINE
8
BLACK
6
CONTINUOUS
10
5.37309
20
-5.04306
11
5.36579
21
-5.04185
0
LINE
8
BLACK
6
CONTINUOUS
10
5.36579
20
-5.04185
11
5.35892
21
-5.0391
0
LINE
8
BLACK
6
CONTINUOUS
10
5.35892
20
-5.0391
11
5.3528
21
-5.03494
0
LINE
8
BLACK
6
CONTINUOUS
10
5.3528
20
-5.03494
11
5.34772
21
-5.02957
0
LINE
8
BLACK
6
CONTINUOUS
10
5.34772
20
-5.02957
11
5.34391
21
-5.02323
0
LINE
8
BLACK
6
CONTINUOUS
10
5.34391
20
-5.02323
11
5.34155
21
-5.01621
0
LINE
8
BLACK
6
CONTINUOUS
10
5.34155
20
-5.01621
11
5.34075
21
-5.00886
0
LINE
8
BLACK
6
CONTINUOUS
10
5.34075
20
-5.00886
11
5.34075
21
-4.99114
0
LINE
8
BLACK
6
CONTINUOUS
10
5.34075
20
-4.99114
11
5.34096
21
-4.98732
0
LINE
8
BLACK
6
CONTINUOUS
10
5.34096
20
-4.98732
11
5.34258
21
-4.9801
0
LINE
8
BLACK
6
CONTINUOUS
10
5.34258
20
-4.9801
11
5.3457
21
-4.9734
0
LINE
8
BLACK
6
CONTINUOUS
10
5.3457
20
-4.9734
11
5.3502
21
-4.96752
0
LINE
8
BLACK
6
CONTINUOUS
10
5.3502
20
-4.96752
11
5.35585
21
-4.96275
0
LINE
8
BLACK
6
CONTINUOUS
10
5.35585
20
-4.96275
11
5.36239
21
-4.9593
0
LINE
8
BLACK
6
CONTINUOUS
10
5.36239
20
-4.9593
11
5.36952
21
-4.95733
0
LINE
8
BLACK
6
CONTINUOUS
10
5.36952
20
-4.95733
11
5.37691
21
-4.95694
0
LINE
8
BLACK
6
CONTINUOUS
10
5.37691
20
-4.95694
11
5.38421
21
-4.95815
0
LINE
8
BLACK
6
CONTINUOUS
10
3.08421
20
-4.95815
11
3.09108
21
-4.9609
0
LINE
8
BLACK
6
CONTINUOUS
10
3.09108
20
-4.9609
11
3.0972
21
-4.96506
0
LINE
8
BLACK
6
CONTINUOUS
10
3.0972
20
-4.96506
11
3.10228
21
-4.97043
0
LINE
8
BLACK
6
CONTINUOUS
10
3.10228
20
-4.97043
11
3.10609
21
-4.97677
0
LINE
8
BLACK
6
CONTINUOUS
10
3.10609
20
-4.97677
11
3.10845
21
-4.98379
0
LINE
8
BLACK
6
CONTINUOUS
10
3.10845
20
-4.98379
11
3.10925
21
-4.99114
0
LINE
8
BLACK
6
CONTINUOUS
10
3.10925
20
-4.99114
11
3.10925
21
-5.00886
0
LINE
8
BLACK
6
CONTINUOUS
10
3.10925
20
-5.00886
11
3.10904
21
-5.01268
0
LINE
8
BLACK
6
CONTINUOUS
10
3.10904
20
-5.01268
11
3.10742
21
-5.0199
0
LINE
8
BLACK
6
CONTINUOUS
10
3.10742
20
-5.0199
11
3.1043
21
-5.0266
0
LINE
8
BLACK
6
CONTINUOUS
10
3.1043
20
-5.0266
11
3.0998
21
-5.03248
0
LINE
8
BLACK
6
CONTINUOUS
10
3.0998
20
-5.03248
11
3.09415
21
-5.03725
0
LINE
8
BLACK
6
CONTINUOUS
10
3.09415
20
-5.03725
11
3.08761
21
-5.0407
0
LINE
8
BLACK
6
CONTINUOUS
10
3.08761
20
-5.0407
11
3.08048
21
-5.04267
0
LINE
8
BLACK
6
CONTINUOUS
10
3.08048
20
-5.04267
11
3.07309
21
-5.04306
0
LINE
8
BLACK
6
CONTINUOUS
10
3.07309
20
-5.04306
11
3.06579
21
-5.04185
0
LINE
8
BLACK
6
CONTINUOUS
10
3.06579
20
-5.04185
11
3.05892
21
-5.0391
0
LINE
8
BLACK
6
CONTINUOUS
10
3.05892
20
-5.0391
11
3.0528
21
-5.03494
0
LINE
8
BLACK
6
CONTINUOUS
10
3.0528
20
-5.03494
11
3.04772
21
-5.02957
0
LINE
8
BLACK
6
CONTINUOUS
10
3.04772
20
-5.02957
11
3.04391
21
-5.02323
0
LINE
8
BLACK
6
CONTINUOUS
10
3.04391
20
-5.02323
11
3.04155
21
-5.01621
0
LINE
8
BLACK
6
CONTINUOUS
10
3.04155
20
-5.01621
11
3.04075
21
-5.00886
0
LINE
8
BLACK
6
CONTINUOUS
10
3.04075
20
-5.00886
11
3.04075
21
-4.99114
0
LINE
8
BLACK
6
CONTINUOUS
10
3.04075
20
-4.99114
11
3.04096
21
-4.98732
0
LINE
8
BLACK
6
CONTINUOUS
10
3.04096
20
-4.98732
11
3.04258
21
-4.9801
0
LINE
8
BLACK
6
CONTINUOUS
10
3.04258
20
-4.9801
11
3.0457
21
-4.9734
0
LINE
8
BLACK
6
CONTINUOUS
10
3.0457
20
-4.9734
11
3.0502
21
-4.96752
0
LINE
8
BLACK
6
CONTINUOUS
10
3.0502
20
-4.96752
11
3.05585
21
-4.96275
0
LINE
8
BLACK
6
CONTINUOUS
10
3.05585
20
-4.96275
11
3.06239
21
-4.9593
0
LINE
8
BLACK
6
CONTINUOUS
10
3.06239
20
-4.9593
11
3.06952
21
-4.95733
0
LINE
8
BLACK
6
CONTINUOUS
10
3.06952
20
-4.95733
11
3.07691
21
-4.95694
0
LINE
8
BLACK
6
CONTINUOUS
10
3.07691
20
-4.95694
11
3.08421
21
-4.95815
0
LINE
8
BLACK
6
CONTINUOUS
10
3.18421
20
-4.95815
11
3.19108
21
-4.9609
0
LINE
8
BLACK
6
CONTINUOUS
10
3.19108
20
-4.9609
11
3.1972
21
-4.96506
0
LINE
8
BLACK
6
CONTINUOUS
10
3.1972
20
-4.96506
11
3.20228
21
-4.97043
0
LINE
8
BLACK
6
CONTINUOUS
10
3.20228
20
-4.97043
11
3.20609
21
-4.97677
0
LINE
8
BLACK
6
CONTINUOUS
10
3.20609
20
-4.97677
11
3.20845
21
-4.98379
0
LINE
8
BLACK
6
CONTINUOUS
10
3.20845
20
-4.98379
11
3.20925
21
-4.99114
0
LINE
8
BLACK
6
CONTINUOUS
10
3.20925
20
-4.99114
11
3.20925
21
-5.00886
0
LINE
8
BLACK
6
CONTINUOUS
10
3.20925
20
-5.00886
11
3.20904
21
-5.01268
0
LINE
8
BLACK
6
CONTINUOUS
10
3.20904
20
-5.01268
11
3.20742
21
-5.0199
0
LINE
8
BLACK
6
CONTINUOUS
10
3.20742
20
-5.0199
11
3.2043
21
-5.0266
0
LINE
8
BLACK
6
CONTINUOUS
10
3.2043
20
-5.0266
11
3.1998
21
-5.03248
0
LINE
8
BLACK
6
CONTINUOUS
10
3.1998
20
-5.03248
11
3.19415
21
-5.03725
0
LINE
8
BLACK
6
CONTINUOUS
10
3.19415
20
-5.03725
11
3.18761
21
-5.0407
0
LINE
8
BLACK
6
CONTINUOUS
10
3.18761
20
-5.0407
11
3.18048
21
-5.04267
0
LINE
8
BLACK
6
CONTINUOUS
10
3.18048
20
-5.04267
11
3.17309
21
-5.04306
0
LINE
8
BLACK
6
CONTINUOUS
10
3.17309
20
-5.04306
11
3.16579
21
-5.04185
0
LINE
8
BLACK
6
CONTINUOUS
10
3.16579
20
-5.04185
11
3.15892
21
-5.0391
0
LINE
8
BLACK
6
CONTINUOUS
10
3.15892
20
-5.0391
11
3.1528
21
-5.03494
0
LINE
8
BLACK
6
CONTINUOUS
10
3.1528
20
-5.03494
11
3.14772
21
-5.02957
0
LINE
8
BLACK
6
CONTINUOUS
10
3.14772
20
-5.02957
11
3.14391
21
-5.02323
0
LINE
8
BLACK
6
CONTINUOUS
10
3.14391
20
-5.02323
11
3.14155
21
-5.01621
0
LINE
8
BLACK
6
CONTINUOUS
10
3.14155
20
-5.01621
11
3.14075
21
-5.00886
0
LINE
8
BLACK
6
CONTINUOUS
10
3.14075
20
-5.00886
11
3.14075
21
-4.99114
0
LINE
8
BLACK
6
CONTINUOUS
10
3.14075
20
-4.99114
11
3.14096
21
-4.98732
0
LINE
8
BLACK
6
CONTINUOUS
10
3.14096
20
-4.98732
11
3.14258
21
-4.9801
0
LINE
8
BLACK
6
CONTINUOUS
10
3.14258
20
-4.9801
11
3.1457
21
-4.9734
0
LINE
8
BLACK
6
CONTINUOUS
10
3.1457
20
-4.9734
11
3.1502
21
-4.96752
0
LINE
8
BLACK
6
CONTINUOUS
10
3.1502
20
-4.96752
11
3.15585
21
-4.96275
0
LINE
8
BLACK
6
CONTINUOUS
10
3.15585
20
-4.96275
11
3.16239
21
-4.9593
0
LINE
8
BLACK
6
CONTINUOUS
10
3.16239
20
-4.9593
11
3.16952
21
-4.95733
0
LINE
8
BLACK
6
CONTINUOUS
10
3.16952
20
-4.95733
11
3.17691
21
-4.95694
0
LINE
8
BLACK
6
CONTINUOUS
10
3.17691
20
-4.95694
11
3.18421
21
-4.95815
0
LINE
8
BLACK
6
CONTINUOUS
10
3.28421
20
-4.95815
11
3.29108
21
-4.9609
0
LINE
8
BLACK
6
CONTINUOUS
10
3.29108
20
-4.9609
11
3.2972
21
-4.96506
0
LINE
8
BLACK
6
CONTINUOUS
10
3.2972
20
-4.96506
11
3.30228
21
-4.97043
0
LINE
8
BLACK
6
CONTINUOUS
10
3.30228
20
-4.97043
11
3.30609
21
-4.97677
0
LINE
8
BLACK
6
CONTINUOUS
10
3.30609
20
-4.97677
11
3.30845
21
-4.98379
0
LINE
8
BLACK
6
CONTINUOUS
10
3.30845
20
-4.98379
11
3.30925
21
-4.99114
0
LINE
8
BLACK
6
CONTINUOUS
10
3.30925
20
-4.99114
11
3.30925
21
-5.00886
0
LINE
8
BLACK
6
CONTINUOUS
10
3.30925
20
-5.00886
11
3.30904
21
-5.01268
0
LINE
8
BLACK
6
CONTINUOUS
10
3.30904
20
-5.01268
11
3.30742
21
-5.0199
0
LINE
8
BLACK
6
CONTINUOUS
10
3.30742
20
-5.0199
11
3.3043
21
-5.0266
0
LINE
8
BLACK
6
CONTINUOUS
10
3.3043
20
-5.0266
11
3.2998
21
-5.03248
0
LINE
8
BLACK
6
CONTINUOUS
10
3.2998
20
-5.03248
11
3.29415
21
-5.03725
0
LINE
8
BLACK
6
CONTINUOUS
10
3.29415
20
-5.03725
11
3.28761
21
-5.0407
0
LINE
8
BLACK
6
CONTINUOUS
10
3.28761
20
-5.0407
11
3.28048
21
-5.04267
0
LINE
8
BLACK
6
CONTINUOUS
10
3.28048
20
-5.04267
11
3.27309
21
-5.04306
0
LINE
8
BLACK
6
CONTINUOUS
10
3.27309
20
-5.04306
11
3.26579
21
-5.04185
0
LINE
8
BLACK
6
CONTINUOUS
10
3.26579
20
-5.04185
11
3.25892
21
-5.0391
0
LINE
8
BLACK
6
CONTINUOUS
10
3.25892
20
-5.0391
11
3.2528
21
-5.03494
0
LINE
8
BLACK
6
CONTINUOUS
10
3.2528
20
-5.03494
11
3.24772
21
-5.02957
0
LINE
8
BLACK
6
CONTINUOUS
10
3.24772
20
-5.02957
11
3.24391
21
-5.02323
0
LINE
8
BLACK
6
CONTINUOUS
10
3.24391
20
-5.02323
11
3.24155
21
-5.01621
0
LINE
8
BLACK
6
CONTINUOUS
10
3.24155
20
-5.01621
11
3.24075
21
-5.00886
0
LINE
8
BLACK
6
CONTINUOUS
10
3.24075
20
-5.00886
11
3.24075
21
-4.99114
0
LINE
8
BLACK
6
CONTINUOUS
10
3.24075
20
-4.99114
11
3.24096
21
-4.98732
0
LINE
8
BLACK
6
CONTINUOUS
10
3.24096
20
-4.98732
11
3.24258
21
-4.9801
0
LINE
8
BLACK
6
CONTINUOUS
10
3.24258
20
-4.9801
11
3.2457
21
-4.9734
0
LINE
8
BLACK
6
CONTINUOUS
10
3.2457
20
-4.9734
11
3.2502
21
-4.96752
0
LINE
8
BLACK
6
CONTINUOUS
10
3.2502
20
-4.96752
11
3.25585
21
-4.96275
0
LINE
8
BLACK
6
CONTINUOUS
10
3.25585
20
-4.96275
11
3.26239
21
-4.9593
0
LINE
8
BLACK
6
CONTINUOUS
10
3.26239
20
-4.9593
11
3.26952
21
-4.95733
0
LINE
8
BLACK
6
CONTINUOUS
10
3.26952
20
-4.95733
11
3.27691
21
-4.95694
0
LINE
8
BLACK
6
CONTINUOUS
10
3.27691
20
-4.95694
11
3.28421
21
-4.95815
0
LINE
8
BLACK
6
CONTINUOUS
10
4.85921
20
-4.95815
11
4.86608
21
-4.9609
0
LINE
8
BLACK
6
CONTINUOUS
10
4.86608
20
-4.9609
11
4.8722
21
-4.96506
0
LINE
8
BLACK
6
CONTINUOUS
10
4.8722
20
-4.96506
11
4.87728
21
-4.97043
0
LINE
8
BLACK
6
CONTINUOUS
10
4.87728
20
-4.97043
11
4.88109
21
-4.97677
0
LINE
8
BLACK
6
CONTINUOUS
10
4.88109
20
-4.97677
11
4.88345
21
-4.98379
0
LINE
8
BLACK
6
CONTINUOUS
10
4.88345
20
-4.98379
11
4.88425
21
-4.99114
0
LINE
8
BLACK
6
CONTINUOUS
10
4.88425
20
-4.99114
11
4.88425
21
-5.00886
0
LINE
8
BLACK
6
CONTINUOUS
10
4.88425
20
-5.00886
11
4.88404
21
-5.01268
0
LINE
8
BLACK
6
CONTINUOUS
10
4.88404
20
-5.01268
11
4.88242
21
-5.0199
0
LINE
8
BLACK
6
CONTINUOUS
10
4.88242
20
-5.0199
11
4.8793
21
-5.0266
0
LINE
8
BLACK
6
CONTINUOUS
10
4.8793
20
-5.0266
11
4.8748
21
-5.03248
0
LINE
8
BLACK
6
CONTINUOUS
10
4.8748
20
-5.03248
11
4.86915
21
-5.03725
0
LINE
8
BLACK
6
CONTINUOUS
10
4.86915
20
-5.03725
11
4.86261
21
-5.0407
0
LINE
8
BLACK
6
CONTINUOUS
10
4.86261
20
-5.0407
11
4.85548
21
-5.04267
0
LINE
8
BLACK
6
CONTINUOUS
10
4.85548
20
-5.04267
11
4.84809
21
-5.04306
0
LINE
8
BLACK
6
CONTINUOUS
10
4.84809
20
-5.04306
11
4.84079
21
-5.04185
0
LINE
8
BLACK
6
CONTINUOUS
10
4.84079
20
-5.04185
11
4.83392
21
-5.0391
0
LINE
8
BLACK
6
CONTINUOUS
10
4.83392
20
-5.0391
11
4.8278
21
-5.03494
0
LINE
8
BLACK
6
CONTINUOUS
10
4.8278
20
-5.03494
11
4.82272
21
-5.02957
0
LINE
8
BLACK
6
CONTINUOUS
10
4.82272
20
-5.02957
11
4.81891
21
-5.02323
0
LINE
8
BLACK
6
CONTINUOUS
10
4.81891
20
-5.02323
11
4.81655
21
-5.01621
0
LINE
8
BLACK
6
CONTINUOUS
10
4.81655
20
-5.01621
11
4.81575
21
-5.00886
0
LINE
8
BLACK
6
CONTINUOUS
10
4.81575
20
-5.00886
11
4.81575
21
-4.99114
0
LINE
8
BLACK
6
CONTINUOUS
10
4.81575
20
-4.99114
11
4.81596
21
-4.98732
0
LINE
8
BLACK
6
CONTINUOUS
10
4.81596
20
-4.98732
11
4.81758
21
-4.9801
0
LINE
8
BLACK
6
CONTINUOUS
10
4.81758
20
-4.9801
11
4.8207
21
-4.9734
0
LINE
8
BLACK
6
CONTINUOUS
10
4.8207
20
-4.9734
11
4.8252
21
-4.96752
0
LINE
8
BLACK
6
CONTINUOUS
10
4.8252
20
-4.96752
11
4.83085
21
-4.96275
0
LINE
8
BLACK
6
CONTINUOUS
10
4.83085
20
-4.96275
11
4.83739
21
-4.9593
0
LINE
8
BLACK
6
CONTINUOUS
10
4.83739
20
-4.9593
11
4.84452
21
-4.95733
0
LINE
8
BLACK
6
CONTINUOUS
10
4.84452
20
-4.95733
11
4.85191
21
-4.95694
0
LINE
8
BLACK
6
CONTINUOUS
10
4.85191
20
-4.95694
11
4.85921
21
-4.95815
0
LINE
8
BLACK
6
CONTINUOUS
10
4.75921
20
-4.95815
11
4.76608
21
-4.9609
0
LINE
8
BLACK
6
CONTINUOUS
10
4.76608
20
-4.9609
11
4.7722
21
-4.96506
0
LINE
8
BLACK
6
CONTINUOUS
10
4.7722
20
-4.96506
11
4.77728
21
-4.97043
0
LINE
8
BLACK
6
CONTINUOUS
10
4.77728
20
-4.97043
11
4.78109
21
-4.97677
0
LINE
8
BLACK
6
CONTINUOUS
10
4.78109
20
-4.97677
11
4.78345
21
-4.98379
0
LINE
8
BLACK
6
CONTINUOUS
10
4.78345
20
-4.98379
11
4.78425
21
-4.99114
0
LINE
8
BLACK
6
CONTINUOUS
10
4.78425
20
-4.99114
11
4.78425
21
-5.00886
0
LINE
8
BLACK
6
CONTINUOUS
10
4.78425
20
-5.00886
11
4.78404
21
-5.01268
0
LINE
8
BLACK
6
CONTINUOUS
10
4.78404
20
-5.01268
11
4.78242
21
-5.0199
0
LINE
8
BLACK
6
CONTINUOUS
10
4.78242
20
-5.0199
11
4.7793
21
-5.0266
0
LINE
8
BLACK
6
CONTINUOUS
10
4.7793
20
-5.0266
11
4.7748
21
-5.03248
0
LINE
8
BLACK
6
CONTINUOUS
10
4.7748
20
-5.03248
11
4.76915
21
-5.03725
0
LINE
8
BLACK
6
CONTINUOUS
10
4.76915
20
-5.03725
11
4.76261
21
-5.0407
0
LINE
8
BLACK
6
CONTINUOUS
10
4.76261
20
-5.0407
11
4.75548
21
-5.04267
0
LINE
8
BLACK
6
CONTINUOUS
10
4.75548
20
-5.04267
11
4.74809
21
-5.04306
0
LINE
8
BLACK
6
CONTINUOUS
10
4.74809
20
-5.04306
11
4.74079
21
-5.04185
0
LINE
8
BLACK
6
CONTINUOUS
10
4.74079
20
-5.04185
11
4.73392
21
-5.0391
0
LINE
8
BLACK
6
CONTINUOUS
10
4.73392
20
-5.0391
11
4.7278
21
-5.03494
0
LINE
8
BLACK
6
CONTINUOUS
10
4.7278
20
-5.03494
11
4.72272
21
-5.02957
0
LINE
8
BLACK
6
CONTINUOUS
10
4.72272
20
-5.02957
11
4.71891
21
-5.02323
0
LINE
8
BLACK
6
CONTINUOUS
10
4.71891
20
-5.02323
11
4.71655
21
-5.01621
0
LINE
8
BLACK
6
CONTINUOUS
10
4.71655
20
-5.01621
11
4.71575
21
-5.00886
0
LINE
8
BLACK
6
CONTINUOUS
10
4.71575
20
-5.00886
11
4.71575
21
-4.99114
0
LINE
8
BLACK
6
CONTINUOUS
10
4.71575
20
-4.99114
11
4.71596
21
-4.98732
0
LINE
8
BLACK
6
CONTINUOUS
10
4.71596
20
-4.98732
11
4.71758
21
-4.9801
0
LINE
8
BLACK
6
CONTINUOUS
10
4.71758
20
-4.9801
11
4.7207
21
-4.9734
0
LINE
8
BLACK
6
CONTINUOUS
10
4.7207
20
-4.9734
11
4.7252
21
-4.96752
0
LINE
8
BLACK
6
CONTINUOUS
10
4.7252
20
-4.96752
11
4.73085
21
-4.96275
0
LINE
8
BLACK
6
CONTINUOUS
10
4.73085
20
-4.96275
11
4.73739
21
-4.9593
0
LINE
8
BLACK
6
CONTINUOUS
10
4.73739
20
-4.9593
11
4.74452
21
-4.95733
0
LINE
8
BLACK
6
CONTINUOUS
10
4.74452
20
-4.95733
11
4.75191
21
-4.95694
0
LINE
8
BLACK
6
CONTINUOUS
10
4.75191
20
-4.95694
11
4.75921
21
-4.95815
0
LINE
8
BLACK
6
CONTINUOUS
10
4.65921
20
-4.95815
11
4.66608
21
-4.9609
0
LINE
8
BLACK
6
CONTINUOUS
10
4.66608
20
-4.9609
11
4.6722
21
-4.96506
0
LINE
8
BLACK
6
CONTINUOUS
10
4.6722
20
-4.96506
11
4.67728
21
-4.97043
0
LINE
8
BLACK
6
CONTINUOUS
10
4.67728
20
-4.97043
11
4.68109
21
-4.97677
0
LINE
8
BLACK
6
CONTINUOUS
10
4.68109
20
-4.97677
11
4.68345
21
-4.98379
0
LINE
8
BLACK
6
CONTINUOUS
10
4.68345
20
-4.98379
11
4.68425
21
-4.99114
0
LINE
8
BLACK
6
CONTINUOUS
10
4.68425
20
-4.99114
11
4.68425
21
-5.00886
0
LINE
8
BLACK
6
CONTINUOUS
10
4.68425
20
-5.00886
11
4.68404
21
-5.01268
0
LINE
8
BLACK
6
CONTINUOUS
10
4.68404
20
-5.01268
11
4.68242
21
-5.0199
0
LINE
8
BLACK
6
CONTINUOUS
10
4.68242
20
-5.0199
11
4.6793
21
-5.0266
0
LINE
8
BLACK
6
CONTINUOUS
10
4.6793
20
-5.0266
11
4.6748
21
-5.03248
0
LINE
8
BLACK
6
CONTINUOUS
10
4.6748
20
-5.03248
11
4.66915
21
-5.03725
0
LINE
8
BLACK
6
CONTINUOUS
10
4.66915
20
-5.03725
11
4.66261
21
-5.0407
0
LINE
8
BLACK
6
CONTINUOUS
10
4.66261
20
-5.0407
11
4.65548
21
-5.04267
0
LINE
8
BLACK
6
CONTINUOUS
10
4.65548
20
-5.04267
11
4.64809
21
-5.04306
0
LINE
8
BLACK
6
CONTINUOUS
10
4.64809
20
-5.04306
11
4.64079
21
-5.04185
0
LINE
8
BLACK
6
CONTINUOUS
10
4.64079
20
-5.04185
11
4.63392
21
-5.0391
0
LINE
8
BLACK
6
CONTINUOUS
10
4.63392
20
-5.0391
11
4.6278
21
-5.03494
0
LINE
8
BLACK
6
CONTINUOUS
10
4.6278
20
-5.03494
11
4.62272
21
-5.02957
0
LINE
8
BLACK
6
CONTINUOUS
10
4.62272
20
-5.02957
11
4.61891
21
-5.02323
0
LINE
8
BLACK
6
CONTINUOUS
10
4.61891
20
-5.02323
11
4.61655
21
-5.01621
0
LINE
8
BLACK
6
CONTINUOUS
10
4.61655
20
-5.01621
11
4.61575
21
-5.00886
0
LINE
8
BLACK
6
CONTINUOUS
10
4.61575
20
-5.00886
11
4.61575
21
-4.99114
0
LINE
8
BLACK
6
CONTINUOUS
10
4.61575
20
-4.99114
11
4.61596
21
-4.98732
0
LINE
8
BLACK
6
CONTINUOUS
10
4.61596
20
-4.98732
11
4.61758
21
-4.9801
0
LINE
8
BLACK
6
CONTINUOUS
10
4.61758
20
-4.9801
11
4.6207
21
-4.9734
0
LINE
8
BLACK
6
CONTINUOUS
10
4.6207
20
-4.9734
11
4.6252
21
-4.96752
0
LINE
8
BLACK
6
CONTINUOUS
10
4.6252
20
-4.96752
11
4.63085
21
-4.96275
0
LINE
8
BLACK
6
CONTINUOUS
10
4.63085
20
-4.96275
11
4.63739
21
-4.9593
0
LINE
8
BLACK
6
CONTINUOUS
10
4.63739
20
-4.9593
11
4.64452
21
-4.95733
0
LINE
8
BLACK
6
CONTINUOUS
10
4.64452
20
-4.95733
11
4.65191
21
-4.95694
0
LINE
8
BLACK
6
CONTINUOUS
10
4.65191
20
-4.95694
11
4.65921
21
-4.95815
0
LINE
8
BLACK
6
CONTINUOUS
10
4.35423
20
-4.68098
11
4.35325
21
-4.68176
0
LINE
8
BLACK
6
CONTINUOUS
10
4.35325
20
-4.68176
11
4.35283
21
-4.68185
0
LINE
8
BLACK
6
CONTINUOUS
10
4.35283
20
-4.68185
11
4.35247
21
-4.68208
0
LINE
8
BLACK
6
CONTINUOUS
10
4.35247
20
-4.68208
11
4.35122
21
-4.68222
0
LINE
8
BLACK
6
CONTINUOUS
10
4.35122
20
-4.68222
11
4.35
21
-4.6825
0
LINE
8
BLACK
6
CONTINUOUS
10
4.35
20
-4.6825
11
4.11364
21
-4.6825
0
LINE
8
BLACK
6
CONTINUOUS
10
4.11364
20
-4.6825
11
4.11274
21
-4.68426
0
LINE
8
BLACK
6
CONTINUOUS
10
4.11274
20
-4.68426
11
4.10926
21
-4.68774
0
LINE
8
BLACK
6
CONTINUOUS
10
4.10926
20
-4.68774
11
4.10487
21
-4.68998
0
LINE
8
BLACK
6
CONTINUOUS
10
4.10487
20
-4.68998
11
4.1
21
-4.69075
0
LINE
8
BLACK
6
CONTINUOUS
10
4.1
20
-4.69075
11
4.09513
21
-4.68998
0
LINE
8
BLACK
6
CONTINUOUS
10
4.09513
20
-4.68998
11
4.09074
21
-4.68774
0
LINE
8
BLACK
6
CONTINUOUS
10
4.09074
20
-4.68774
11
4.08726
21
-4.68426
0
LINE
8
BLACK
6
CONTINUOUS
10
4.08726
20
-4.68426
11
4.08502
21
-4.67987
0
LINE
8
BLACK
6
CONTINUOUS
10
4.08502
20
-4.67987
11
4.08425
21
-4.675
0
LINE
8
BLACK
6
CONTINUOUS
10
4.08425
20
-4.675
11
4.08502
21
-4.67013
0
LINE
8
BLACK
6
CONTINUOUS
10
4.08502
20
-4.67013
11
4.08726
21
-4.66574
0
LINE
8
BLACK
6
CONTINUOUS
10
4.08726
20
-4.66574
11
4.09074
21
-4.66226
0
LINE
8
BLACK
6
CONTINUOUS
10
4.09074
20
-4.66226
11
4.09513
21
-4.66002
0
LINE
8
BLACK
6
CONTINUOUS
10
4.09513
20
-4.66002
11
4.1
21
-4.65925
0
LINE
8
BLACK
6
CONTINUOUS
10
4.1
20
-4.65925
11
4.10487
21
-4.66002
0
LINE
8
BLACK
6
CONTINUOUS
10
4.10487
20
-4.66002
11
4.10926
21
-4.66226
0
LINE
8
BLACK
6
CONTINUOUS
10
4.10926
20
-4.66226
11
4.11274
21
-4.66574
0
LINE
8
BLACK
6
CONTINUOUS
10
4.11274
20
-4.66574
11
4.11364
21
-4.6675
0
LINE
8
BLACK
6
CONTINUOUS
10
4.11364
20
-4.6675
11
4.34689
21
-4.6675
0
LINE
8
BLACK
6
CONTINUOUS
10
4.34689
20
-4.6675
11
4.3947
21
-4.6197
0
LINE
8
BLACK
6
CONTINUOUS
10
4.3947
20
-4.6197
11
4.3947
21
-4.6197
0
LINE
8
BLACK
6
CONTINUOUS
10
4.3947
20
-4.6197
11
4.4675
21
-4.54689
0
LINE
8
BLACK
6
CONTINUOUS
10
4.4675
20
-4.54689
11
4.4675
21
-4.44999
0
LINE
8
BLACK
6
CONTINUOUS
10
4.4675
20
-4.44999
11
4.46778
21
-4.44877
0
LINE
8
BLACK
6
CONTINUOUS
10
4.46778
20
-4.44877
11
4.46792
21
-4.44752
0
LINE
8
BLACK
6
CONTINUOUS
10
4.46792
20
-4.44752
11
4.46815
21
-4.44716
0
LINE
8
BLACK
6
CONTINUOUS
10
4.46815
20
-4.44716
11
4.46825
21
-4.44674
0
LINE
8
BLACK
6
CONTINUOUS
10
4.46825
20
-4.44674
11
4.46903
21
-4.44576
0
LINE
8
BLACK
6
CONTINUOUS
10
4.46903
20
-4.44576
11
4.4697
21
-4.4447
0
LINE
8
BLACK
6
CONTINUOUS
10
4.4697
20
-4.4447
11
4.49194
21
-4.42245
0
LINE
8
BLACK
6
CONTINUOUS
10
4.49194
20
-4.42245
11
4.49136
21
-4.4213
0
LINE
8
BLACK
6
CONTINUOUS
10
4.49136
20
-4.4213
11
4.49059
21
-4.41643
0
LINE
8
BLACK
6
CONTINUOUS
10
4.49059
20
-4.41643
11
4.49136
21
-4.41157
0
LINE
8
BLACK
6
CONTINUOUS
10
4.49136
20
-4.41157
11
4.4936
21
-4.40718
0
LINE
8
BLACK
6
CONTINUOUS
10
4.4936
20
-4.40718
11
4.49708
21
-4.40369
0
LINE
8
BLACK
6
CONTINUOUS
10
4.49708
20
-4.40369
11
4.50147
21
-4.40146
0
LINE
8
BLACK
6
CONTINUOUS
10
4.50147
20
-4.40146
11
4.50634
21
-4.40069
0
LINE
8
BLACK
6
CONTINUOUS
10
4.50634
20
-4.40069
11
4.5112
21
-4.40146
0
LINE
8
BLACK
6
CONTINUOUS
10
4.5112
20
-4.40146
11
4.51559
21
-4.40369
0
LINE
8
BLACK
6
CONTINUOUS
10
4.51559
20
-4.40369
11
4.51908
21
-4.40718
0
LINE
8
BLACK
6
CONTINUOUS
10
4.51908
20
-4.40718
11
4.52131
21
-4.41157
0
LINE
8
BLACK
6
CONTINUOUS
10
4.52131
20
-4.41157
11
4.52208
21
-4.41643
0
LINE
8
BLACK
6
CONTINUOUS
10
4.52208
20
-4.41643
11
4.52131
21
-4.4213
0
LINE
8
BLACK
6
CONTINUOUS
10
4.52131
20
-4.4213
11
4.51908
21
-4.42569
0
LINE
8
BLACK
6
CONTINUOUS
10
4.51908
20
-4.42569
11
4.51559
21
-4.42918
0
LINE
8
BLACK
6
CONTINUOUS
10
4.51559
20
-4.42918
11
4.5112
21
-4.43141
0
LINE
8
BLACK
6
CONTINUOUS
10
4.5112
20
-4.43141
11
4.50634
21
-4.43218
0
LINE
8
BLACK
6
CONTINUOUS
10
4.50634
20
-4.43218
11
4.50382
21
-4.43178
0
LINE
8
BLACK
6
CONTINUOUS
10
4.50382
20
-4.43178
11
4.4825
21
-4.45311
0
LINE
8
BLACK
6
CONTINUOUS
10
4.4825
20
-4.45311
11
4.4825
21
-4.55001
0
LINE
8
BLACK
6
CONTINUOUS
10
4.4825
20
-4.55001
11
4.48222
21
-4.55123
0
LINE
8
BLACK
6
CONTINUOUS
10
4.48222
20
-4.55123
11
4.48208
21
-4.55248
0
LINE
8
BLACK
6
CONTINUOUS
10
4.48208
20
-4.55248
11
4.48185
21
-4.55284
0
LINE
8
BLACK
6
CONTINUOUS
10
4.48185
20
-4.55284
11
4.48175
21
-4.55326
0
LINE
8
BLACK
6
CONTINUOUS
10
4.48175
20
-4.55326
11
4.48097
21
-4.55424
0
LINE
8
BLACK
6
CONTINUOUS
10
4.48097
20
-4.55424
11
4.4803
21
-4.5553
0
LINE
8
BLACK
6
CONTINUOUS
10
4.4803
20
-4.5553
11
4.35529
21
-4.68031
0
LINE
8
BLACK
6
CONTINUOUS
10
4.35529
20
-4.68031
11
4.35423
21
-4.68098
0
LINE
8
BLACK
6
CONTINUOUS
10
4.20487
20
-4.56002
11
4.20926
21
-4.56226
0
LINE
8
BLACK
6
CONTINUOUS
10
4.20926
20
-4.56226
11
4.21274
21
-4.56574
0
LINE
8
BLACK
6
CONTINUOUS
10
4.21274
20
-4.56574
11
4.21498
21
-4.57013
0
LINE
8
BLACK
6
CONTINUOUS
10
4.21498
20
-4.57013
11
4.21575
21
-4.575
0
LINE
8
BLACK
6
CONTINUOUS
10
4.21575
20
-4.575
11
4.21498
21
-4.57987
0
LINE
8
BLACK
6
CONTINUOUS
10
4.21498
20
-4.57987
11
4.21274
21
-4.58426
0
LINE
8
BLACK
6
CONTINUOUS
10
4.21274
20
-4.58426
11
4.20926
21
-4.58774
0
LINE
8
BLACK
6
CONTINUOUS
10
4.20926
20
-4.58774
11
4.20487
21
-4.58998
0
LINE
8
BLACK
6
CONTINUOUS
10
4.20487
20
-4.58998
11
4.2
21
-4.59075
0
LINE
8
BLACK
6
CONTINUOUS
10
4.2
20
-4.59075
11
4.19513
21
-4.58998
0
LINE
8
BLACK
6
CONTINUOUS
10
4.19513
20
-4.58998
11
4.19074
21
-4.58774
0
LINE
8
BLACK
6
CONTINUOUS
10
4.19074
20
-4.58774
11
4.18726
21
-4.58426
0
LINE
8
BLACK
6
CONTINUOUS
10
4.18726
20
-4.58426
11
4.18636
21
-4.5825
0
LINE
8
BLACK
6
CONTINUOUS
10
4.18636
20
-4.5825
11
3.65311
21
-4.5825
0
LINE
8
BLACK
6
CONTINUOUS
10
3.65311
20
-4.5825
11
3.61505
21
-4.62056
0
LINE
8
BLACK
6
CONTINUOUS
10
3.61505
20
-4.62056
11
3.61575
21
-4.625
0
LINE
8
BLACK
6
CONTINUOUS
10
3.61575
20
-4.625
11
3.61498
21
-4.62987
0
LINE
8
BLACK
6
CONTINUOUS
10
3.61498
20
-4.62987
11
3.61274
21
-4.63426
0
LINE
8
BLACK
6
CONTINUOUS
10
3.61274
20
-4.63426
11
3.60926
21
-4.63774
0
LINE
8
BLACK
6
CONTINUOUS
10
3.60926
20
-4.63774
11
3.60487
21
-4.63998
0
LINE
8
BLACK
6
CONTINUOUS
10
3.60487
20
-4.63998
11
3.6
21
-4.64075
0
LINE
8
BLACK
6
CONTINUOUS
10
3.6
20
-4.64075
11
3.59513
21
-4.63998
0
LINE
8
BLACK
6
CONTINUOUS
10
3.59513
20
-4.63998
11
3.59074
21
-4.63774
0
LINE
8
BLACK
6
CONTINUOUS
10
3.59074
20
-4.63774
11
3.58726
21
-4.63426
0
LINE
8
BLACK
6
CONTINUOUS
10
3.58726
20
-4.63426
11
3.58502
21
-4.62987
0
LINE
8
BLACK
6
CONTINUOUS
10
3.58502
20
-4.62987
11
3.58425
21
-4.625
0
LINE
8
BLACK
6
CONTINUOUS
10
3.58425
20
-4.625
11
3.58502
21
-4.62013
0
LINE
8
BLACK
6
CONTINUOUS
10
3.58502
20
-4.62013
11
3.58726
21
-4.61574
0
LINE
8
BLACK
6
CONTINUOUS
10
3.58726
20
-4.61574
11
3.59074
21
-4.61226
0
LINE
8
BLACK
6
CONTINUOUS
10
3.59074
20
-4.61226
11
3.59513
21
-4.61002
0
LINE
8
BLACK
6
CONTINUOUS
10
3.59513
20
-4.61002
11
3.6
21
-4.60925
0
LINE
8
BLACK
6
CONTINUOUS
10
3.6
20
-4.60925
11
3.60444
21
-4.60995
0
LINE
8
BLACK
6
CONTINUOUS
10
3.60444
20
-4.60995
11
3.64471
21
-4.56969
0
LINE
8
BLACK
6
CONTINUOUS
10
3.64471
20
-4.56969
11
3.64577
21
-4.56902
0
LINE
8
BLACK
6
CONTINUOUS
10
3.64577
20
-4.56902
11
3.64675
21
-4.56824
0
LINE
8
BLACK
6
CONTINUOUS
10
3.64675
20
-4.56824
11
3.64717
21
-4.56815
0
LINE
8
BLACK
6
CONTINUOUS
10
3.64717
20
-4.56815
11
3.64753
21
-4.56792
0
LINE
8
BLACK
6
CONTINUOUS
10
3.64753
20
-4.56792
11
3.64878
21
-4.56778
0
LINE
8
BLACK
6
CONTINUOUS
10
3.64878
20
-4.56778
11
3.65
21
-4.5675
0
LINE
8
BLACK
6
CONTINUOUS
10
3.65
20
-4.5675
11
4.18636
21
-4.5675
0
LINE
8
BLACK
6
CONTINUOUS
10
4.18636
20
-4.5675
11
4.18726
21
-4.56574
0
LINE
8
BLACK
6
CONTINUOUS
10
4.18726
20
-4.56574
11
4.19074
21
-4.56226
0
LINE
8
BLACK
6
CONTINUOUS
10
4.19074
20
-4.56226
11
4.19513
21
-4.56002
0
LINE
8
BLACK
6
CONTINUOUS
10
4.19513
20
-4.56002
11
4.2
21
-4.55925
0
LINE
8
BLACK
6
CONTINUOUS
10
4.2
20
-4.55925
11
4.20487
21
-4.56002
0
LINE
8
BLACK
6
CONTINUOUS
10
4.52987
20
-4.46002
11
4.53426
21
-4.46226
0
LINE
8
BLACK
6
CONTINUOUS
10
4.53426
20
-4.46226
11
4.53774
21
-4.46574
0
LINE
8
BLACK
6
CONTINUOUS
10
4.53774
20
-4.46574
11
4.53998
21
-4.47013
0
LINE
8
BLACK
6
CONTINUOUS
10
4.53998
20
-4.47013
11
4.54075
21
-4.475
0
LINE
8
BLACK
6
CONTINUOUS
10
4.54075
20
-4.475
11
4.53998
21
-4.47987
0
LINE
8
BLACK
6
CONTINUOUS
10
4.53998
20
-4.47987
11
4.53774
21
-4.48426
0
LINE
8
BLACK
6
CONTINUOUS
10
4.53774
20
-4.48426
11
4.53426
21
-4.48774
0
LINE
8
BLACK
6
CONTINUOUS
10
4.53426
20
-4.48774
11
4.5325
21
-4.48864
0
LINE
8
BLACK
6
CONTINUOUS
10
4.5325
20
-4.48864
11
4.5325
21
-4.61136
0
LINE
8
BLACK
6
CONTINUOUS
10
4.5325
20
-4.61136
11
4.53426
21
-4.61226
0
LINE
8
BLACK
6
CONTINUOUS
10
4.53426
20
-4.61226
11
4.53774
21
-4.61574
0
LINE
8
BLACK
6
CONTINUOUS
10
4.53774
20
-4.61574
11
4.53998
21
-4.62013
0
LINE
8
BLACK
6
CONTINUOUS
10
4.53998
20
-4.62013
11
4.54075
21
-4.625
0
LINE
8
BLACK
6
CONTINUOUS
10
4.54075
20
-4.625
11
4.53998
21
-4.62987
0
LINE
8
BLACK
6
CONTINUOUS
10
4.53998
20
-4.62987
11
4.53774
21
-4.63426
0
LINE
8
BLACK
6
CONTINUOUS
10
4.53774
20
-4.63426
11
4.53426
21
-4.63774
0
LINE
8
BLACK
6
CONTINUOUS
10
4.53426
20
-4.63774
11
4.52987
21
-4.63998
0
LINE
8
BLACK
6
CONTINUOUS
10
4.52987
20
-4.63998
11
4.525
21
-4.64075
0
LINE
8
BLACK
6
CONTINUOUS
10
4.525
20
-4.64075
11
4.52013
21
-4.63998
0
LINE
8
BLACK
6
CONTINUOUS
10
4.52013
20
-4.63998
11
4.51574
21
-4.63774
0
LINE
8
BLACK
6
CONTINUOUS
10
4.51574
20
-4.63774
11
4.51226
21
-4.63426
0
LINE
8
BLACK
6
CONTINUOUS
10
4.51226
20
-4.63426
11
4.51002
21
-4.62987
0
LINE
8
BLACK
6
CONTINUOUS
10
4.51002
20
-4.62987
11
4.50925
21
-4.625
0
LINE
8
BLACK
6
CONTINUOUS
10
4.50925
20
-4.625
11
4.51002
21
-4.62013
0
LINE
8
BLACK
6
CONTINUOUS
10
4.51002
20
-4.62013
11
4.51226
21
-4.61574
0
LINE
8
BLACK
6
CONTINUOUS
10
4.51226
20
-4.61574
11
4.51574
21
-4.61226
0
LINE
8
BLACK
6
CONTINUOUS
10
4.51574
20
-4.61226
11
4.5175
21
-4.61136
0
LINE
8
BLACK
6
CONTINUOUS
10
4.5175
20
-4.61136
11
4.5175
21
-4.48864
0
LINE
8
BLACK
6
CONTINUOUS
10
4.5175
20
-4.48864
11
4.51574
21
-4.48774
0
LINE
8
BLACK
6
CONTINUOUS
10
4.51574
20
-4.48774
11
4.51226
21
-4.48426
0
LINE
8
BLACK
6
CONTINUOUS
10
4.51226
20
-4.48426
11
4.51002
21
-4.47987
0
LINE
8
BLACK
6
CONTINUOUS
10
4.51002
20
-4.47987
11
4.50925
21
-4.475
0
LINE
8
BLACK
6
CONTINUOUS
10
4.50925
20
-4.475
11
4.51002
21
-4.47013
0
LINE
8
BLACK
6
CONTINUOUS
10
4.51002
20
-4.47013
11
4.51226
21
-4.46574
0
LINE
8
BLACK
6
CONTINUOUS
10
4.51226
20
-4.46574
11
4.51574
21
-4.46226
0
LINE
8
BLACK
6
CONTINUOUS
10
4.51574
20
-4.46226
11
4.52013
21
-4.46002
0
LINE
8
BLACK
6
CONTINUOUS
10
4.52013
20
-4.46002
11
4.525
21
-4.45925
0
LINE
8
BLACK
6
CONTINUOUS
10
4.525
20
-4.45925
11
4.52987
21
-4.46002
0
LINE
8
BLACK
6
CONTINUOUS
10
5.95487
20
-4.48502
11
5.95926
21
-4.48726
0
LINE
8
BLACK
6
CONTINUOUS
10
5.95926
20
-4.48726
11
5.96274
21
-4.49074
0
LINE
8
BLACK
6
CONTINUOUS
10
5.96274
20
-4.49074
11
5.96498
21
-4.49513
0
LINE
8
BLACK
6
CONTINUOUS
10
5.96498
20
-4.49513
11
5.96575
21
-4.5
0
LINE
8
BLACK
6
CONTINUOUS
10
5.96575
20
-4.5
11
5.96498
21
-4.50487
0
LINE
8
BLACK
6
CONTINUOUS
10
5.96498
20
-4.50487
11
5.96274
21
-4.50926
0
LINE
8
BLACK
6
CONTINUOUS
10
5.96274
20
-4.50926
11
5.95926
21
-4.51274
0
LINE
8
BLACK
6
CONTINUOUS
10
5.95926
20
-4.51274
11
5.95487
21
-4.51498
0
LINE
8
BLACK
6
CONTINUOUS
10
5.95487
20
-4.51498
11
5.95
21
-4.51575
0
LINE
8
BLACK
6
CONTINUOUS
10
5.95
20
-4.51575
11
5.94556
21
-4.51505
0
LINE
8
BLACK
6
CONTINUOUS
10
5.94556
20
-4.51505
11
5.83029
21
-4.63031
0
LINE
8
BLACK
6
CONTINUOUS
10
5.83029
20
-4.63031
11
5.82923
21
-4.63098
0
LINE
8
BLACK
6
CONTINUOUS
10
5.82923
20
-4.63098
11
5.82825
21
-4.63176
0
LINE
8
BLACK
6
CONTINUOUS
10
5.82825
20
-4.63176
11
5.82783
21
-4.63185
0
LINE
8
BLACK
6
CONTINUOUS
10
5.82783
20
-4.63185
11
5.82747
21
-4.63208
0
LINE
8
BLACK
6
CONTINUOUS
10
5.82747
20
-4.63208
11
5.82622
21
-4.63222
0
LINE
8
BLACK
6
CONTINUOUS
10
5.82622
20
-4.63222
11
5.825
21
-4.6325
0
LINE
8
BLACK
6
CONTINUOUS
10
5.825
20
-4.6325
11
5.71364
21
-4.6325
0
LINE
8
BLACK
6
CONTINUOUS
10
5.71364
20
-4.6325
11
5.71274
21
-4.63426
0
LINE
8
BLACK
6
CONTINUOUS
10
5.71274
20
-4.63426
11
5.70926
21
-4.63774
0
LINE
8
BLACK
6
CONTINUOUS
10
5.70926
20
-4.63774
11
5.70487
21
-4.63998
0
LINE
8
BLACK
6
CONTINUOUS
10
5.70487
20
-4.63998
11
5.7
21
-4.64075
0
LINE
8
BLACK
6
CONTINUOUS
10
5.7
20
-4.64075
11
5.69513
21
-4.63998
0
LINE
8
BLACK
6
CONTINUOUS
10
5.69513
20
-4.63998
11
5.69074
21
-4.63774
0
LINE
8
BLACK
6
CONTINUOUS
10
5.69074
20
-4.63774
11
5.68726
21
-4.63426
0
LINE
8
BLACK
6
CONTINUOUS
10
5.68726
20
-4.63426
11
5.68502
21
-4.62987
0
LINE
8
BLACK
6
CONTINUOUS
10
5.68502
20
-4.62987
11
5.68425
21
-4.625
0
LINE
8
BLACK
6
CONTINUOUS
10
5.68425
20
-4.625
11
5.68502
21
-4.62013
0
LINE
8
BLACK
6
CONTINUOUS
10
5.68502
20
-4.62013
11
5.68726
21
-4.61574
0
LINE
8
BLACK
6
CONTINUOUS
10
5.68726
20
-4.61574
11
5.69074
21
-4.61226
0
LINE
8
BLACK
6
CONTINUOUS
10
5.69074
20
-4.61226
11
5.69513
21
-4.61002
0
LINE
8
BLACK
6
CONTINUOUS
10
5.69513
20
-4.61002
11
5.7
21
-4.60925
0
LINE
8
BLACK
6
CONTINUOUS
10
5.7
20
-4.60925
11
5.70487
21
-4.61002
0
LINE
8
BLACK
6
CONTINUOUS
10
5.70487
20
-4.61002
11
5.70926
21
-4.61226
0
LINE
8
BLACK
6
CONTINUOUS
10
5.70926
20
-4.61226
11
5.71274
21
-4.61574
0
LINE
8
BLACK
6
CONTINUOUS
10
5.71274
20
-4.61574
11
5.71364
21
-4.6175
0
LINE
8
BLACK
6
CONTINUOUS
10
5.71364
20
-4.6175
11
5.82189
21
-4.6175
0
LINE
8
BLACK
6
CONTINUOUS
10
5.82189
20
-4.6175
11
5.93495
21
-4.50444
0
LINE
8
BLACK
6
CONTINUOUS
10
5.93495
20
-4.50444
11
5.93425
21
-4.5
0
LINE
8
BLACK
6
CONTINUOUS
10
5.93425
20
-4.5
11
5.93502
21
-4.49513
0
LINE
8
BLACK
6
CONTINUOUS
10
5.93502
20
-4.49513
11
5.93726
21
-4.49074
0
LINE
8
BLACK
6
CONTINUOUS
10
5.93726
20
-4.49074
11
5.94074
21
-4.48726
0
LINE
8
BLACK
6
CONTINUOUS
10
5.94074
20
-4.48726
11
5.94513
21
-4.48502
0
LINE
8
BLACK
6
CONTINUOUS
10
5.94513
20
-4.48502
11
5.95
21
-4.48425
0
LINE
8
BLACK
6
CONTINUOUS
10
5.95
20
-4.48425
11
5.95487
21
-4.48502
0
LINE
8
BLACK
6
CONTINUOUS
10
6.10487
20
-4.43502
11
6.10926
21
-4.43726
0
LINE
8
BLACK
6
CONTINUOUS
10
6.10926
20
-4.43726
11
6.11274
21
-4.44074
0
LINE
8
BLACK
6
CONTINUOUS
10
6.11274
20
-4.44074
11
6.11498
21
-4.44513
0
LINE
8
BLACK
6
CONTINUOUS
10
6.11498
20
-4.44513
11
6.11575
21
-4.45
0
LINE
8
BLACK
6
CONTINUOUS
10
6.11575
20
-4.45
11
6.11498
21
-4.45487
0
LINE
8
BLACK
6
CONTINUOUS
10
6.11498
20
-4.45487
11
6.11274
21
-4.45926
0
LINE
8
BLACK
6
CONTINUOUS
10
6.11274
20
-4.45926
11
6.10926
21
-4.46274
0
LINE
8
BLACK
6
CONTINUOUS
10
6.10926
20
-4.46274
11
6.1075
21
-4.46364
0
LINE
8
BLACK
6
CONTINUOUS
10
6.1075
20
-4.46364
11
6.1075
21
-4.52501
0
LINE
8
BLACK
6
CONTINUOUS
10
6.1075
20
-4.52501
11
6.10722
21
-4.52623
0
LINE
8
BLACK
6
CONTINUOUS
10
6.10722
20
-4.52623
11
6.10708
21
-4.52748
0
LINE
8
BLACK
6
CONTINUOUS
10
6.10708
20
-4.52748
11
6.10685
21
-4.52784
0
LINE
8
BLACK
6
CONTINUOUS
10
6.10685
20
-4.52784
11
6.10675
21
-4.52826
0
LINE
8
BLACK
6
CONTINUOUS
10
6.10675
20
-4.52826
11
6.10597
21
-4.52924
0
LINE
8
BLACK
6
CONTINUOUS
10
6.10597
20
-4.52924
11
6.1053
21
-4.5303
0
LINE
8
BLACK
6
CONTINUOUS
10
6.1053
20
-4.5303
11
6.01505
21
-4.62056
0
LINE
8
BLACK
6
CONTINUOUS
10
6.01505
20
-4.62056
11
6.01575
21
-4.625
0
LINE
8
BLACK
6
CONTINUOUS
10
6.01575
20
-4.625
11
6.01498
21
-4.62987
0
LINE
8
BLACK
6
CONTINUOUS
10
6.01498
20
-4.62987
11
6.01274
21
-4.63426
0
LINE
8
BLACK
6
CONTINUOUS
10
6.01274
20
-4.63426
11
6.00926
21
-4.63774
0
LINE
8
BLACK
6
CONTINUOUS
10
6.00926
20
-4.63774
11
6.00487
21
-4.63998
0
LINE
8
BLACK
6
CONTINUOUS
10
6.00487
20
-4.63998
11
6
21
-4.64075
0
LINE
8
BLACK
6
CONTINUOUS
10
6
20
-4.64075
11
5.99513
21
-4.63998
0
LINE
8
BLACK
6
CONTINUOUS
10
5.99513
20
-4.63998
11
5.99074
21
-4.63774
0
LINE
8
BLACK
6
CONTINUOUS
10
5.99074
20
-4.63774
11
5.98726
21
-4.63426
0
LINE
8
BLACK
6
CONTINUOUS
10
5.98726
20
-4.63426
11
5.98502
21
-4.62987
0
LINE
8
BLACK
6
CONTINUOUS
10
5.98502
20
-4.62987
11
5.98425
21
-4.625
0
LINE
8
BLACK
6
CONTINUOUS
10
5.98425
20
-4.625
11
5.98502
21
-4.62013
0
LINE
8
BLACK
6
CONTINUOUS
10
5.98502
20
-4.62013
11
5.98726
21
-4.61574
0
LINE
8
BLACK
6
CONTINUOUS
10
5.98726
20
-4.61574
11
5.99074
21
-4.61226
0
LINE
8
BLACK
6
CONTINUOUS
10
5.99074
20
-4.61226
11
5.99513
21
-4.61002
0
LINE
8
BLACK
6
CONTINUOUS
10
5.99513
20
-4.61002
11
6
21
-4.60925
0
LINE
8
BLACK
6
CONTINUOUS
10
6
20
-4.60925
11
6.00444
21
-4.60995
0
LINE
8
BLACK
6
CONTINUOUS
10
6.00444
20
-4.60995
11
6.0925
21
-4.52189
0
LINE
8
BLACK
6
CONTINUOUS
10
6.0925
20
-4.52189
11
6.0925
21
-4.46364
0
LINE
8
BLACK
6
CONTINUOUS
10
6.0925
20
-4.46364
11
6.09074
21
-4.46274
0
LINE
8
BLACK
6
CONTINUOUS
10
6.09074
20
-4.46274
11
6.08726
21
-4.45926
0
LINE
8
BLACK
6
CONTINUOUS
10
6.08726
20
-4.45926
11
6.08502
21
-4.45487
0
LINE
8
BLACK
6
CONTINUOUS
10
6.08502
20
-4.45487
11
6.08425
21
-4.45
0
LINE
8
BLACK
6
CONTINUOUS
10
6.08425
20
-4.45
11
6.08502
21
-4.44513
0
LINE
8
BLACK
6
CONTINUOUS
10
6.08502
20
-4.44513
11
6.08726
21
-4.44074
0
LINE
8
BLACK
6
CONTINUOUS
10
6.08726
20
-4.44074
11
6.09074
21
-4.43726
0
LINE
8
BLACK
6
CONTINUOUS
10
6.09074
20
-4.43726
11
6.09513
21
-4.43502
0
LINE
8
BLACK
6
CONTINUOUS
10
6.09513
20
-4.43502
11
6.1
21
-4.43425
0
LINE
8
BLACK
6
CONTINUOUS
10
6.1
20
-4.43425
11
6.10487
21
-4.43502
0
LINE
8
BLACK
6
CONTINUOUS
10
5.21274
20
-4.60926
11
5.20926
21
-4.61274
0
LINE
8
BLACK
6
CONTINUOUS
10
5.20926
20
-4.61274
11
5.20487
21
-4.61498
0
LINE
8
BLACK
6
CONTINUOUS
10
5.20487
20
-4.61498
11
5.2
21
-4.61575
0
LINE
8
BLACK
6
CONTINUOUS
10
5.2
20
-4.61575
11
5.19513
21
-4.61498
0
LINE
8
BLACK
6
CONTINUOUS
10
5.19513
20
-4.61498
11
5.19074
21
-4.61274
0
LINE
8
BLACK
6
CONTINUOUS
10
5.19074
20
-4.61274
11
5.18726
21
-4.60926
0
LINE
8
BLACK
6
CONTINUOUS
10
5.18726
20
-4.60926
11
5.18502
21
-4.60487
0
LINE
8
BLACK
6
CONTINUOUS
10
5.18502
20
-4.60487
11
5.18425
21
-4.6
0
LINE
8
BLACK
6
CONTINUOUS
10
5.18425
20
-4.6
11
5.18502
21
-4.59513
0
LINE
8
BLACK
6
CONTINUOUS
10
5.18502
20
-4.59513
11
5.18726
21
-4.59074
0
LINE
8
BLACK
6
CONTINUOUS
10
5.18726
20
-4.59074
11
5.19074
21
-4.58726
0
LINE
8
BLACK
6
CONTINUOUS
10
5.19074
20
-4.58726
11
5.19513
21
-4.58502
0
LINE
8
BLACK
6
CONTINUOUS
10
5.19513
20
-4.58502
11
5.2
21
-4.58425
0
LINE
8
BLACK
6
CONTINUOUS
10
5.2
20
-4.58425
11
5.20487
21
-4.58502
0
LINE
8
BLACK
6
CONTINUOUS
10
5.20487
20
-4.58502
11
5.20926
21
-4.58726
0
LINE
8
BLACK
6
CONTINUOUS
10
5.20926
20
-4.58726
11
5.21274
21
-4.59074
0
LINE
8
BLACK
6
CONTINUOUS
10
5.21274
20
-4.59074
11
5.21364
21
-4.5925
0
LINE
8
BLACK
6
CONTINUOUS
10
5.21364
20
-4.5925
11
5.64689
21
-4.5925
0
LINE
8
BLACK
6
CONTINUOUS
10
5.64689
20
-4.5925
11
5.69471
21
-4.54469
0
LINE
8
BLACK
6
CONTINUOUS
10
5.69471
20
-4.54469
11
5.69577
21
-4.54402
0
LINE
8
BLACK
6
CONTINUOUS
10
5.69577
20
-4.54402
11
5.69675
21
-4.54324
0
LINE
8
BLACK
6
CONTINUOUS
10
5.69675
20
-4.54324
11
5.69717
21
-4.54315
0
LINE
8
BLACK
6
CONTINUOUS
10
5.69717
20
-4.54315
11
5.69753
21
-4.54292
0
LINE
8
BLACK
6
CONTINUOUS
10
5.69753
20
-4.54292
11
5.69878
21
-4.54278
0
LINE
8
BLACK
6
CONTINUOUS
10
5.69878
20
-4.54278
11
5.7
21
-4.5425
0
LINE
8
BLACK
6
CONTINUOUS
10
5.7
20
-4.5425
11
5.79689
21
-4.5425
0
LINE
8
BLACK
6
CONTINUOUS
10
5.79689
20
-4.5425
11
5.8675
21
-4.47189
0
LINE
8
BLACK
6
CONTINUOUS
10
5.8675
20
-4.47189
11
5.8675
21
-4.46364
0
LINE
8
BLACK
6
CONTINUOUS
10
5.8675
20
-4.46364
11
5.86574
21
-4.46274
0
LINE
8
BLACK
6
CONTINUOUS
10
5.86574
20
-4.46274
11
5.86226
21
-4.45926
0
LINE
8
BLACK
6
CONTINUOUS
10
5.86226
20
-4.45926
11
5.86002
21
-4.45487
0
LINE
8
BLACK
6
CONTINUOUS
10
5.86002
20
-4.45487
11
5.85925
21
-4.45
0
LINE
8
BLACK
6
CONTINUOUS
10
5.85925
20
-4.45
11
5.86002
21
-4.44513
0
LINE
8
BLACK
6
CONTINUOUS
10
5.86002
20
-4.44513
11
5.86226
21
-4.44074
0
LINE
8
BLACK
6
CONTINUOUS
10
5.86226
20
-4.44074
11
5.86574
21
-4.43726
0
LINE
8
BLACK
6
CONTINUOUS
10
5.86574
20
-4.43726
11
5.87013
21
-4.43502
0
LINE
8
BLACK
6
CONTINUOUS
10
5.87013
20
-4.43502
11
5.875
21
-4.43425
0
LINE
8
BLACK
6
CONTINUOUS
10
5.875
20
-4.43425
11
5.87987
21
-4.43502
0
LINE
8
BLACK
6
CONTINUOUS
10
5.87987
20
-4.43502
11
5.88426
21
-4.43726
0
LINE
8
BLACK
6
CONTINUOUS
10
5.88426
20
-4.43726
11
5.88774
21
-4.44074
0
LINE
8
BLACK
6
CONTINUOUS
10
5.88774
20
-4.44074
11
5.88998
21
-4.44513
0
LINE
8
BLACK
6
CONTINUOUS
10
5.88998
20
-4.44513
11
5.89075
21
-4.45
0
LINE
8
BLACK
6
CONTINUOUS
10
5.89075
20
-4.45
11
5.88998
21
-4.45487
0
LINE
8
BLACK
6
CONTINUOUS
10
5.88998
20
-4.45487
11
5.88774
21
-4.45926
0
LINE
8
BLACK
6
CONTINUOUS
10
5.88774
20
-4.45926
11
5.88426
21
-4.46274
0
LINE
8
BLACK
6
CONTINUOUS
10
5.88426
20
-4.46274
11
5.8825
21
-4.46364
0
LINE
8
BLACK
6
CONTINUOUS
10
5.8825
20
-4.46364
11
5.8825
21
-4.47501
0
LINE
8
BLACK
6
CONTINUOUS
10
5.8825
20
-4.47501
11
5.88222
21
-4.47623
0
LINE
8
BLACK
6
CONTINUOUS
10
5.88222
20
-4.47623
11
5.88208
21
-4.47748
0
LINE
8
BLACK
6
CONTINUOUS
10
5.88208
20
-4.47748
11
5.88185
21
-4.47784
0
LINE
8
BLACK
6
CONTINUOUS
10
5.88185
20
-4.47784
11
5.88175
21
-4.47826
0
LINE
8
BLACK
6
CONTINUOUS
10
5.88175
20
-4.47826
11
5.88097
21
-4.47924
0
LINE
8
BLACK
6
CONTINUOUS
10
5.88097
20
-4.47924
11
5.8803
21
-4.4803
0
LINE
8
BLACK
6
CONTINUOUS
10
5.8803
20
-4.4803
11
5.80529
21
-4.55531
0
LINE
8
BLACK
6
CONTINUOUS
10
5.80529
20
-4.55531
11
5.80423
21
-4.55598
0
LINE
8
BLACK
6
CONTINUOUS
10
5.80423
20
-4.55598
11
5.80325
21
-4.55676
0
LINE
8
BLACK
6
CONTINUOUS
10
5.80325
20
-4.55676
11
5.80283
21
-4.55685
0
LINE
8
BLACK
6
CONTINUOUS
10
5.80283
20
-4.55685
11
5.80247
21
-4.55708
0
LINE
8
BLACK
6
CONTINUOUS
10
5.80247
20
-4.55708
11
5.80122
21
-4.55722
0
LINE
8
BLACK
6
CONTINUOUS
10
5.80122
20
-4.55722
11
5.8
21
-4.5575
0
LINE
8
BLACK
6
CONTINUOUS
10
5.8
20
-4.5575
11
5.70311
21
-4.5575
0
LINE
8
BLACK
6
CONTINUOUS
10
5.70311
20
-4.5575
11
5.65529
21
-4.60531
0
LINE
8
BLACK
6
CONTINUOUS
10
5.65529
20
-4.60531
11
5.65423
21
-4.60598
0
LINE
8
BLACK
6
CONTINUOUS
10
5.65423
20
-4.60598
11
5.65325
21
-4.60676
0
LINE
8
BLACK
6
CONTINUOUS
10
5.65325
20
-4.60676
11
5.65283
21
-4.60685
0
LINE
8
BLACK
6
CONTINUOUS
10
5.65283
20
-4.60685
11
5.65247
21
-4.60708
0
LINE
8
BLACK
6
CONTINUOUS
10
5.65247
20
-4.60708
11
5.65122
21
-4.60722
0
LINE
8
BLACK
6
CONTINUOUS
10
5.65122
20
-4.60722
11
5.65
21
-4.6075
0
LINE
8
BLACK
6
CONTINUOUS
10
5.65
20
-4.6075
11
5.21364
21
-4.6075
0
LINE
8
BLACK
6
CONTINUOUS
10
5.21364
20
-4.6075
11
5.21274
21
-4.60926
0
LINE
8
BLACK
6
CONTINUOUS
10
6.07987
20
-3.83502
11
6.08426
21
-3.83726
0
LINE
8
BLACK
6
CONTINUOUS
10
6.08426
20
-3.83726
11
6.08774
21
-3.84074
0
LINE
8
BLACK
6
CONTINUOUS
10
6.08774
20
-3.84074
11
6.08998
21
-3.84513
0
LINE
8
BLACK
6
CONTINUOUS
10
6.08998
20
-3.84513
11
6.09075
21
-3.85
0
LINE
8
BLACK
6
CONTINUOUS
10
6.09075
20
-3.85
11
6.08998
21
-3.85487
0
LINE
8
BLACK
6
CONTINUOUS
10
6.08998
20
-3.85487
11
6.08774
21
-3.85926
0
LINE
8
BLACK
6
CONTINUOUS
10
6.08774
20
-3.85926
11
6.08426
21
-3.86274
0
LINE
8
BLACK
6
CONTINUOUS
10
6.08426
20
-3.86274
11
6.0825
21
-3.86364
0
LINE
8
BLACK
6
CONTINUOUS
10
6.0825
20
-3.86364
11
6.0825
21
-3.87189
0
LINE
8
BLACK
6
CONTINUOUS
10
6.0825
20
-3.87189
11
6.35531
21
-4.14471
0
LINE
8
BLACK
6
CONTINUOUS
10
6.35531
20
-4.14471
11
6.35598
21
-4.14577
0
LINE
8
BLACK
6
CONTINUOUS
10
6.35598
20
-4.14577
11
6.35676
21
-4.14675
0
LINE
8
BLACK
6
CONTINUOUS
10
6.35676
20
-4.14675
11
6.35685
21
-4.14717
0
LINE
8
BLACK
6
CONTINUOUS
10
6.35685
20
-4.14717
11
6.35708
21
-4.14753
0
LINE
8
BLACK
6
CONTINUOUS
10
6.35708
20
-4.14753
11
6.35722
21
-4.14878
0
LINE
8
BLACK
6
CONTINUOUS
10
6.35722
20
-4.14878
11
6.3575
21
-4.15
0
LINE
8
BLACK
6
CONTINUOUS
10
6.3575
20
-4.15
11
6.3575
21
-4.31136
0
LINE
8
BLACK
6
CONTINUOUS
10
6.3575
20
-4.31136
11
6.35926
21
-4.31226
0
LINE
8
BLACK
6
CONTINUOUS
10
6.35926
20
-4.31226
11
6.36274
21
-4.31574
0
LINE
8
BLACK
6
CONTINUOUS
10
6.36274
20
-4.31574
11
6.36498
21
-4.32013
0
LINE
8
BLACK
6
CONTINUOUS
10
6.36498
20
-4.32013
11
6.36575
21
-4.325
0
LINE
8
BLACK
6
CONTINUOUS
10
6.36575
20
-4.325
11
6.36498
21
-4.32987
0
LINE
8
BLACK
6
CONTINUOUS
10
6.36498
20
-4.32987
11
6.36274
21
-4.33426
0
LINE
8
BLACK
6
CONTINUOUS
10
6.36274
20
-4.33426
11
6.35926
21
-4.33774
0
LINE
8
BLACK
6
CONTINUOUS
10
6.35926
20
-4.33774
11
6.3575
21
-4.33864
0
LINE
8
BLACK
6
CONTINUOUS
10
6.3575
20
-4.33864
11
6.3575
21
-4.40001
0
LINE
8
BLACK
6
CONTINUOUS
10
6.3575
20
-4.40001
11
6.35722
21
-4.40123
0
LINE
8
BLACK
6
CONTINUOUS
10
6.35722
20
-4.40123
11
6.35708
21
-4.40248
0
LINE
8
BLACK
6
CONTINUOUS
10
6.35708
20
-4.40248
11
6.35685
21
-4.40284
0
LINE
8
BLACK
6
CONTINUOUS
10
6.35685
20
-4.40284
11
6.35675
21
-4.40326
0
LINE
8
BLACK
6
CONTINUOUS
10
6.35675
20
-4.40326
11
6.35597
21
-4.40424
0
LINE
8
BLACK
6
CONTINUOUS
10
6.35597
20
-4.40424
11
6.3553
21
-4.4053
0
LINE
8
BLACK
6
CONTINUOUS
10
6.3553
20
-4.4053
11
6.33029
21
-4.43031
0
LINE
8
BLACK
6
CONTINUOUS
10
6.33029
20
-4.43031
11
6.32923
21
-4.43098
0
LINE
8
BLACK
6
CONTINUOUS
10
6.32923
20
-4.43098
11
6.32825
21
-4.43176
0
LINE
8
BLACK
6
CONTINUOUS
10
6.32825
20
-4.43176
11
6.32783
21
-4.43185
0
LINE
8
BLACK
6
CONTINUOUS
10
6.32783
20
-4.43185
11
6.32747
21
-4.43208
0
LINE
8
BLACK
6
CONTINUOUS
10
6.32747
20
-4.43208
11
6.32622
21
-4.43222
0
LINE
8
BLACK
6
CONTINUOUS
10
6.32622
20
-4.43222
11
6.325
21
-4.4325
0
LINE
8
BLACK
6
CONTINUOUS
10
6.325
20
-4.4325
11
6.17499
21
-4.4325
0
LINE
8
BLACK
6
CONTINUOUS
10
6.17499
20
-4.4325
11
6.17377
21
-4.43222
0
LINE
8
BLACK
6
CONTINUOUS
10
6.17377
20
-4.43222
11
6.17252
21
-4.43208
0
LINE
8
BLACK
6
CONTINUOUS
10
6.17252
20
-4.43208
11
6.17216
21
-4.43185
0
LINE
8
BLACK
6
CONTINUOUS
10
6.17216
20
-4.43185
11
6.17174
21
-4.43175
0
LINE
8
BLACK
6
CONTINUOUS
10
6.17174
20
-4.43175
11
6.17076
21
-4.43097
0
LINE
8
BLACK
6
CONTINUOUS
10
6.17076
20
-4.43097
11
6.1697
21
-4.4303
0
LINE
8
BLACK
6
CONTINUOUS
10
6.1697
20
-4.4303
11
6.09689
21
-4.3575
0
LINE
8
BLACK
6
CONTINUOUS
10
6.09689
20
-4.3575
11
5.22811
21
-4.3575
0
LINE
8
BLACK
6
CONTINUOUS
10
5.22811
20
-4.3575
11
5.18211
21
-4.4035
0
LINE
8
BLACK
6
CONTINUOUS
10
5.18211
20
-4.4035
11
5.18211
21
-4.41757
0
LINE
8
BLACK
6
CONTINUOUS
10
5.18211
20
-4.41757
11
5.18495
21
-4.41817
0
LINE
8
BLACK
6
CONTINUOUS
10
5.18495
20
-4.41817
11
5.19134
21
-4.42102
0
LINE
8
BLACK
6
CONTINUOUS
10
5.19134
20
-4.42102
11
5.197
21
-4.42513
0
LINE
8
BLACK
6
CONTINUOUS
10
5.197
20
-4.42513
11
5.20168
21
-4.43033
0
LINE
8
BLACK
6
CONTINUOUS
10
5.20168
20
-4.43033
11
5.20518
21
-4.43639
0
LINE
8
BLACK
6
CONTINUOUS
10
5.20518
20
-4.43639
11
5.20734
21
-4.44304
0
LINE
8
BLACK
6
CONTINUOUS
10
5.20734
20
-4.44304
11
5.20807
21
-4.45
0
LINE
8
BLACK
6
CONTINUOUS
10
5.20807
20
-4.45
11
5.20734
21
-4.45696
0
LINE
8
BLACK
6
CONTINUOUS
10
5.20734
20
-4.45696
11
5.20518
21
-4.46361
0
LINE
8
BLACK
6
CONTINUOUS
10
5.20518
20
-4.46361
11
5.20168
21
-4.46967
0
LINE
8
BLACK
6
CONTINUOUS
10
5.20168
20
-4.46967
11
5.197
21
-4.47487
0
LINE
8
BLACK
6
CONTINUOUS
10
5.197
20
-4.47487
11
5.19134
21
-4.47898
0
LINE
8
BLACK
6
CONTINUOUS
10
5.19134
20
-4.47898
11
5.18495
21
-4.48183
0
LINE
8
BLACK
6
CONTINUOUS
10
5.18495
20
-4.48183
11
5.18211
21
-4.48243
0
LINE
8
BLACK
6
CONTINUOUS
10
5.18211
20
-4.48243
11
5.18211
21
-4.50041
0
LINE
8
BLACK
6
CONTINUOUS
10
5.18211
20
-4.50041
11
5.18183
21
-4.50163
0
LINE
8
BLACK
6
CONTINUOUS
10
5.18183
20
-4.50163
11
5.18168
21
-4.50287
0
LINE
8
BLACK
6
CONTINUOUS
10
5.18168
20
-4.50287
11
5.18146
21
-4.50324
0
LINE
8
BLACK
6
CONTINUOUS
10
5.18146
20
-4.50324
11
5.18136
21
-4.50366
0
LINE
8
BLACK
6
CONTINUOUS
10
5.18136
20
-4.50366
11
5.18058
21
-4.50464
0
LINE
8
BLACK
6
CONTINUOUS
10
5.18058
20
-4.50464
11
5.17991
21
-4.5057
0
LINE
8
BLACK
6
CONTINUOUS
10
5.17991
20
-4.5057
11
5.13029
21
-4.55531
0
LINE
8
BLACK
6
CONTINUOUS
10
5.13029
20
-4.55531
11
5.12923
21
-4.55598
0
LINE
8
BLACK
6
CONTINUOUS
10
5.12923
20
-4.55598
11
5.12825
21
-4.55676
0
LINE
8
BLACK
6
CONTINUOUS
10
5.12825
20
-4.55676
11
5.12783
21
-4.55685
0
LINE
8
BLACK
6
CONTINUOUS
10
5.12783
20
-4.55685
11
5.12747
21
-4.55708
0
LINE
8
BLACK
6
CONTINUOUS
10
5.12747
20
-4.55708
11
5.12622
21
-4.55722
0
LINE
8
BLACK
6
CONTINUOUS
10
5.12622
20
-4.55722
11
5.125
21
-4.5575
0
LINE
8
BLACK
6
CONTINUOUS
10
5.125
20
-4.5575
11
5.02499
21
-4.5575
0
LINE
8
BLACK
6
CONTINUOUS
10
5.02499
20
-4.5575
11
5.02377
21
-4.55722
0
LINE
8
BLACK
6
CONTINUOUS
10
5.02377
20
-4.55722
11
5.02252
21
-4.55708
0
LINE
8
BLACK
6
CONTINUOUS
10
5.02252
20
-4.55708
11
5.02216
21
-4.55685
0
LINE
8
BLACK
6
CONTINUOUS
10
5.02216
20
-4.55685
11
5.02174
21
-4.55675
0
LINE
8
BLACK
6
CONTINUOUS
10
5.02174
20
-4.55675
11
5.02076
21
-4.55597
0
LINE
8
BLACK
6
CONTINUOUS
10
5.02076
20
-4.55597
11
5.0197
21
-4.5553
0
LINE
8
BLACK
6
CONTINUOUS
10
5.0197
20
-4.5553
11
4.77189
21
-4.3075
0
LINE
8
BLACK
6
CONTINUOUS
10
4.77189
20
-4.3075
11
4.56364
21
-4.3075
0
LINE
8
BLACK
6
CONTINUOUS
10
4.56364
20
-4.3075
11
4.56274
21
-4.30926
0
LINE
8
BLACK
6
CONTINUOUS
10
4.56274
20
-4.30926
11
4.55926
21
-4.31274
0
LINE
8
BLACK
6
CONTINUOUS
10
4.55926
20
-4.31274
11
4.55487
21
-4.31498
0
LINE
8
BLACK
6
CONTINUOUS
10
4.55487
20
-4.31498
11
4.55
21
-4.31575
0
LINE
8
BLACK
6
CONTINUOUS
10
4.55
20
-4.31575
11
4.54513
21
-4.31498
0
LINE
8
BLACK
6
CONTINUOUS
10
4.54513
20
-4.31498
11
4.54074
21
-4.31274
0
LINE
8
BLACK
6
CONTINUOUS
10
4.54074
20
-4.31274
11
4.53726
21
-4.30926
0
LINE
8
BLACK
6
CONTINUOUS
10
4.53726
20
-4.30926
11
4.53502
21
-4.30487
0
LINE
8
BLACK
6
CONTINUOUS
10
4.53502
20
-4.30487
11
4.53425
21
-4.3
0
LINE
8
BLACK
6
CONTINUOUS
10
4.53425
20
-4.3
11
4.53502
21
-4.29513
0
LINE
8
BLACK
6
CONTINUOUS
10
4.53502
20
-4.29513
11
4.53726
21
-4.29074
0
LINE
8
BLACK
6
CONTINUOUS
10
4.53726
20
-4.29074
11
4.54074
21
-4.28726
0
LINE
8
BLACK
6
CONTINUOUS
10
4.54074
20
-4.28726
11
4.54513
21
-4.28502
0
LINE
8
BLACK
6
CONTINUOUS
10
4.54513
20
-4.28502
11
4.55
21
-4.28425
0
LINE
8
BLACK
6
CONTINUOUS
10
4.55
20
-4.28425
11
4.55487
21
-4.28502
0
LINE
8
BLACK
6
CONTINUOUS
10
4.55487
20
-4.28502
11
4.55926
21
-4.28726
0
LINE
8
BLACK
6
CONTINUOUS
10
4.55926
20
-4.28726
11
4.56274
21
-4.29074
0
LINE
8
BLACK
6
CONTINUOUS
10
4.56274
20
-4.29074
11
4.56364
21
-4.2925
0
LINE
8
BLACK
6
CONTINUOUS
10
4.56364
20
-4.2925
11
4.77501
21
-4.2925
0
LINE
8
BLACK
6
CONTINUOUS
10
4.77501
20
-4.2925
11
4.77623
21
-4.29278
0
LINE
8
BLACK
6
CONTINUOUS
10
4.77623
20
-4.29278
11
4.77748
21
-4.29292
0
LINE
8
BLACK
6
CONTINUOUS
10
4.77748
20
-4.29292
11
4.77784
21
-4.29315
0
LINE
8
BLACK
6
CONTINUOUS
10
4.77784
20
-4.29315
11
4.77826
21
-4.29325
0
LINE
8
BLACK
6
CONTINUOUS
10
4.77826
20
-4.29325
11
4.77924
21
-4.29403
0
LINE
8
BLACK
6
CONTINUOUS
10
4.77924
20
-4.29403
11
4.7803
21
-4.2947
0
LINE
8
BLACK
6
CONTINUOUS
10
4.7803
20
-4.2947
11
5.02811
21
-4.5425
0
LINE
8
BLACK
6
CONTINUOUS
10
5.02811
20
-4.5425
11
5.12189
21
-4.5425
0
LINE
8
BLACK
6
CONTINUOUS
10
5.12189
20
-4.5425
11
5.16711
21
-4.49729
0
LINE
8
BLACK
6
CONTINUOUS
10
5.16711
20
-4.49729
11
5.16711
21
-4.48243
0
LINE
8
BLACK
6
CONTINUOUS
10
5.16711
20
-4.48243
11
5.16427
21
-4.48183
0
LINE
8
BLACK
6
CONTINUOUS
10
5.16427
20
-4.48183
11
5.15787
21
-4.47898
0
LINE
8
BLACK
6
CONTINUOUS
10
5.15787
20
-4.47898
11
5.15221
21
-4.47487
0
LINE
8
BLACK
6
CONTINUOUS
10
5.15221
20
-4.47487
11
5.14753
21
-4.46967
0
LINE
8
BLACK
6
CONTINUOUS
10
5.14753
20
-4.46967
11
5.14403
21
-4.46361
0
LINE
8
BLACK
6
CONTINUOUS
10
5.14403
20
-4.46361
11
5.14187
21
-4.45696
0
LINE
8
BLACK
6
CONTINUOUS
10
5.14187
20
-4.45696
11
5.14114
21
-4.45
0
LINE
8
BLACK
6
CONTINUOUS
10
5.14114
20
-4.45
11
5.14187
21
-4.44304
0
LINE
8
BLACK
6
CONTINUOUS
10
5.14187
20
-4.44304
11
5.14403
21
-4.43639
0
LINE
8
BLACK
6
CONTINUOUS
10
5.14403
20
-4.43639
11
5.14753
21
-4.43033
0
LINE
8
BLACK
6
CONTINUOUS
10
5.14753
20
-4.43033
11
5.15221
21
-4.42513
0
LINE
8
BLACK
6
CONTINUOUS
10
5.15221
20
-4.42513
11
5.15787
21
-4.42102
0
LINE
8
BLACK
6
CONTINUOUS
10
5.15787
20
-4.42102
11
5.16427
21
-4.41817
0
LINE
8
BLACK
6
CONTINUOUS
10
5.16427
20
-4.41817
11
5.16711
21
-4.41757
0
LINE
8
BLACK
6
CONTINUOUS
10
5.16711
20
-4.41757
11
5.16711
21
-4.40038
0
LINE
8
BLACK
6
CONTINUOUS
10
5.16711
20
-4.40038
11
5.16739
21
-4.39916
0
LINE
8
BLACK
6
CONTINUOUS
10
5.16739
20
-4.39916
11
5.16753
21
-4.39791
0
LINE
8
BLACK
6
CONTINUOUS
10
5.16753
20
-4.39791
11
5.16776
21
-4.39755
0
LINE
8
BLACK
6
CONTINUOUS
10
5.16776
20
-4.39755
11
5.16785
21
-4.39713
0
LINE
8
BLACK
6
CONTINUOUS
10
5.16785
20
-4.39713
11
5.16864
21
-4.39615
0
LINE
8
BLACK
6
CONTINUOUS
10
5.16864
20
-4.39615
11
5.1693
21
-4.39509
0
LINE
8
BLACK
6
CONTINUOUS
10
5.1693
20
-4.39509
11
5.21971
21
-4.34469
0
LINE
8
BLACK
6
CONTINUOUS
10
5.21971
20
-4.34469
11
5.22077
21
-4.34402
0
LINE
8
BLACK
6
CONTINUOUS
10
5.22077
20
-4.34402
11
5.22175
21
-4.34324
0
LINE
8
BLACK
6
CONTINUOUS
10
5.22175
20
-4.34324
11
5.22217
21
-4.34315
0
LINE
8
BLACK
6
CONTINUOUS
10
5.22217
20
-4.34315
11
5.22253
21
-4.34292
0
LINE
8
BLACK
6
CONTINUOUS
10
5.22253
20
-4.34292
11
5.22378
21
-4.34278
0
LINE
8
BLACK
6
CONTINUOUS
10
5.22378
20
-4.34278
11
5.225
21
-4.3425
0
LINE
8
BLACK
6
CONTINUOUS
10
5.225
20
-4.3425
11
6.10001
21
-4.3425
0
LINE
8
BLACK
6
CONTINUOUS
10
6.10001
20
-4.3425
11
6.10123
21
-4.34278
0
LINE
8
BLACK
6
CONTINUOUS
10
6.10123
20
-4.34278
11
6.10248
21
-4.34292
0
LINE
8
BLACK
6
CONTINUOUS
10
6.10248
20
-4.34292
11
6.10284
21
-4.34315
0
LINE
8
BLACK
6
CONTINUOUS
10
6.10284
20
-4.34315
11
6.10326
21
-4.34325
0
LINE
8
BLACK
6
CONTINUOUS
10
6.10326
20
-4.34325
11
6.10424
21
-4.34403
0
LINE
8
BLACK
6
CONTINUOUS
10
6.10424
20
-4.34403
11
6.1053
21
-4.3447
0
LINE
8
BLACK
6
CONTINUOUS
10
6.1053
20
-4.3447
11
6.17811
21
-4.4175
0
LINE
8
BLACK
6
CONTINUOUS
10
6.17811
20
-4.4175
11
6.32189
21
-4.4175
0
LINE
8
BLACK
6
CONTINUOUS
10
6.32189
20
-4.4175
11
6.3425
21
-4.39689
0
LINE
8
BLACK
6
CONTINUOUS
10
6.3425
20
-4.39689
11
6.3425
21
-4.33864
0
LINE
8
BLACK
6
CONTINUOUS
10
6.3425
20
-4.33864
11
6.34074
21
-4.33774
0
LINE
8
BLACK
6
CONTINUOUS
10
6.34074
20
-4.33774
11
6.33726
21
-4.33426
0
LINE
8
BLACK
6
CONTINUOUS
10
6.33726
20
-4.33426
11
6.33502
21
-4.32987
0
LINE
8
BLACK
6
CONTINUOUS
10
6.33502
20
-4.32987
11
6.33425
21
-4.325
0
LINE
8
BLACK
6
CONTINUOUS
10
6.33425
20
-4.325
11
6.33502
21
-4.32013
0
LINE
8
BLACK
6
CONTINUOUS
10
6.33502
20
-4.32013
11
6.33726
21
-4.31574
0
LINE
8
BLACK
6
CONTINUOUS
10
6.33726
20
-4.31574
11
6.34074
21
-4.31226
0
LINE
8
BLACK
6
CONTINUOUS
10
6.34074
20
-4.31226
11
6.3425
21
-4.31136
0
LINE
8
BLACK
6
CONTINUOUS
10
6.3425
20
-4.31136
11
6.3425
21
-4.15311
0
LINE
8
BLACK
6
CONTINUOUS
10
6.3425
20
-4.15311
11
6.06969
21
-3.88029
0
LINE
8
BLACK
6
CONTINUOUS
10
6.06969
20
-3.88029
11
6.06902
21
-3.87923
0
LINE
8
BLACK
6
CONTINUOUS
10
6.06902
20
-3.87923
11
6.06824
21
-3.87825
0
LINE
8
BLACK
6
CONTINUOUS
10
6.06824
20
-3.87825
11
6.06815
21
-3.87783
0
LINE
8
BLACK
6
CONTINUOUS
10
6.06815
20
-3.87783
11
6.06792
21
-3.87747
0
LINE
8
BLACK
6
CONTINUOUS
10
6.06792
20
-3.87747
11
6.06778
21
-3.87622
0
LINE
8
BLACK
6
CONTINUOUS
10
6.06778
20
-3.87622
11
6.0675
21
-3.875
0
LINE
8
BLACK
6
CONTINUOUS
10
6.0675
20
-3.875
11
6.0675
21
-3.86364
0
LINE
8
BLACK
6
CONTINUOUS
10
6.0675
20
-3.86364
11
6.06574
21
-3.86274
0
LINE
8
BLACK
6
CONTINUOUS
10
6.06574
20
-3.86274
11
6.06226
21
-3.85926
0
LINE
8
BLACK
6
CONTINUOUS
10
6.06226
20
-3.85926
11
6.06002
21
-3.85487
0
LINE
8
BLACK
6
CONTINUOUS
10
6.06002
20
-3.85487
11
6.05925
21
-3.85
0
LINE
8
BLACK
6
CONTINUOUS
10
6.05925
20
-3.85
11
6.06002
21
-3.84513
0
LINE
8
BLACK
6
CONTINUOUS
10
6.06002
20
-3.84513
11
6.06226
21
-3.84074
0
LINE
8
BLACK
6
CONTINUOUS
10
6.06226
20
-3.84074
11
6.06574
21
-3.83726
0
LINE
8
BLACK
6
CONTINUOUS
10
6.06574
20
-3.83726
11
6.07013
21
-3.83502
0
LINE
8
BLACK
6
CONTINUOUS
10
6.07013
20
-3.83502
11
6.075
21
-3.83425
0
LINE
8
BLACK
6
CONTINUOUS
10
6.075
20
-3.83425
11
6.07987
21
-3.83502
0
LINE
8
BLACK
6
CONTINUOUS
10
4.37987
20
-4.46002
11
4.38426
21
-4.46226
0
LINE
8
BLACK
6
CONTINUOUS
10
4.38426
20
-4.46226
11
4.38774
21
-4.46574
0
LINE
8
BLACK
6
CONTINUOUS
10
4.38774
20
-4.46574
11
4.38998
21
-4.47013
0
LINE
8
BLACK
6
CONTINUOUS
10
4.38998
20
-4.47013
11
4.39075
21
-4.475
0
LINE
8
BLACK
6
CONTINUOUS
10
4.39075
20
-4.475
11
4.38998
21
-4.47987
0
LINE
8
BLACK
6
CONTINUOUS
10
4.38998
20
-4.47987
11
4.38774
21
-4.48426
0
LINE
8
BLACK
6
CONTINUOUS
10
4.38774
20
-4.48426
11
4.38426
21
-4.48774
0
LINE
8
BLACK
6
CONTINUOUS
10
4.38426
20
-4.48774
11
4.38266
21
-4.48855
0
LINE
8
BLACK
6
CONTINUOUS
10
4.38266
20
-4.48855
11
4.36061
21
-4.51061
0
LINE
8
BLACK
6
CONTINUOUS
10
4.36061
20
-4.51061
11
4.35943
21
-4.51159
0
LINE
8
BLACK
6
CONTINUOUS
10
4.35943
20
-4.51159
11
4.35919
21
-4.51185
0
LINE
8
BLACK
6
CONTINUOUS
10
4.35919
20
-4.51185
11
4.359
21
-4.51196
0
LINE
8
BLACK
6
CONTINUOUS
10
4.359
20
-4.51196
11
4.35863
21
-4.51227
0
LINE
8
BLACK
6
CONTINUOUS
10
4.35863
20
-4.51227
11
4.35672
21
-4.51319
0
LINE
8
BLACK
6
CONTINUOUS
10
4.35672
20
-4.51319
11
4.35486
21
-4.51419
0
LINE
8
BLACK
6
CONTINUOUS
10
4.35486
20
-4.51419
11
4.35451
21
-4.51425
0
LINE
8
BLACK
6
CONTINUOUS
10
4.35451
20
-4.51425
11
4.35418
21
-4.5144
0
LINE
8
BLACK
6
CONTINUOUS
10
4.35418
20
-4.5144
11
4.35209
21
-4.51465
0
LINE
8
BLACK
6
CONTINUOUS
10
4.35209
20
-4.51465
11
4.35
21
-4.515
0
LINE
8
BLACK
6
CONTINUOUS
10
4.35
20
-4.515
11
4.10472
21
-4.515
0
LINE
8
BLACK
6
CONTINUOUS
10
4.10472
20
-4.515
11
4.1
21
-4.51575
0
LINE
8
BLACK
6
CONTINUOUS
10
4.1
20
-4.51575
11
4.09513
21
-4.51498
0
LINE
8
BLACK
6
CONTINUOUS
10
4.09513
20
-4.51498
11
4.09074
21
-4.51274
0
LINE
8
BLACK
6
CONTINUOUS
10
4.09074
20
-4.51274
11
4.08726
21
-4.50926
0
LINE
8
BLACK
6
CONTINUOUS
10
4.08726
20
-4.50926
11
4.08502
21
-4.50487
0
LINE
8
BLACK
6
CONTINUOUS
10
4.08502
20
-4.50487
11
4.08425
21
-4.5
0
LINE
8
BLACK
6
CONTINUOUS
10
4.08425
20
-4.5
11
4.08502
21
-4.49513
0
LINE
8
BLACK
6
CONTINUOUS
10
4.08502
20
-4.49513
11
4.08726
21
-4.49074
0
LINE
8
BLACK
6
CONTINUOUS
10
4.08726
20
-4.49074
11
4.09074
21
-4.48726
0
LINE
8
BLACK
6
CONTINUOUS
10
4.09074
20
-4.48726
11
4.09513
21
-4.48502
0
LINE
8
BLACK
6
CONTINUOUS
10
4.09513
20
-4.48502
11
4.1
21
-4.48425
0
LINE
8
BLACK
6
CONTINUOUS
10
4.1
20
-4.48425
11
4.10472
21
-4.485
0
LINE
8
BLACK
6
CONTINUOUS
10
4.10472
20
-4.485
11
4.34379
21
-4.485
0
LINE
8
BLACK
6
CONTINUOUS
10
4.34379
20
-4.485
11
4.36145
21
-4.46734
0
LINE
8
BLACK
6
CONTINUOUS
10
4.36145
20
-4.46734
11
4.36226
21
-4.46574
0
LINE
8
BLACK
6
CONTINUOUS
10
4.36226
20
-4.46574
11
4.36574
21
-4.46226
0
LINE
8
BLACK
6
CONTINUOUS
10
4.36574
20
-4.46226
11
4.37013
21
-4.46002
0
LINE
8
BLACK
6
CONTINUOUS
10
4.37013
20
-4.46002
11
4.375
21
-4.45925
0
LINE
8
BLACK
6
CONTINUOUS
10
4.375
20
-4.45925
11
4.37987
21
-4.46002
0
LINE
8
BLACK
6
CONTINUOUS
10
5.40807
20
-4.48346
11
5.34114
21
-4.48346
0
LINE
8
BLACK
6
CONTINUOUS
10
5.34114
20
-4.48346
11
5.34114
21
-4.41654
0
LINE
8
BLACK
6
CONTINUOUS
10
5.34114
20
-4.41654
11
5.40807
21
-4.41654
0
LINE
8
BLACK
6
CONTINUOUS
10
5.40807
20
-4.41654
11
5.40807
21
-4.48346
0
LINE
8
BLACK
6
CONTINUOUS
10
5.28495
20
-4.41817
11
5.29134
21
-4.42102
0
LINE
8
BLACK
6
CONTINUOUS
10
5.29134
20
-4.42102
11
5.297
21
-4.42513
0
LINE
8
BLACK
6
CONTINUOUS
10
5.297
20
-4.42513
11
5.30168
21
-4.43033
0
LINE
8
BLACK
6
CONTINUOUS
10
5.30168
20
-4.43033
11
5.30518
21
-4.43639
0
LINE
8
BLACK
6
CONTINUOUS
10
5.30518
20
-4.43639
11
5.30734
21
-4.44304
0
LINE
8
BLACK
6
CONTINUOUS
10
5.30734
20
-4.44304
11
5.30807
21
-4.45
0
LINE
8
BLACK
6
CONTINUOUS
10
5.30807
20
-4.45
11
5.30734
21
-4.45696
0
LINE
8
BLACK
6
CONTINUOUS
10
5.30734
20
-4.45696
11
5.30518
21
-4.46361
0
LINE
8
BLACK
6
CONTINUOUS
10
5.30518
20
-4.46361
11
5.30168
21
-4.46967
0
LINE
8
BLACK
6
CONTINUOUS
10
5.30168
20
-4.46967
11
5.297
21
-4.47487
0
LINE
8
BLACK
6
CONTINUOUS
10
5.297
20
-4.47487
11
5.29134
21
-4.47898
0
LINE
8
BLACK
6
CONTINUOUS
10
5.29134
20
-4.47898
11
5.28495
21
-4.48183
0
LINE
8
BLACK
6
CONTINUOUS
10
5.28495
20
-4.48183
11
5.2781
21
-4.48328
0
LINE
8
BLACK
6
CONTINUOUS
10
5.2781
20
-4.48328
11
5.27111
21
-4.48328
0
LINE
8
BLACK
6
CONTINUOUS
10
5.27111
20
-4.48328
11
5.26427
21
-4.48183
0
LINE
8
BLACK
6
CONTINUOUS
10
5.26427
20
-4.48183
11
5.25787
21
-4.47898
0
LINE
8
BLACK
6
CONTINUOUS
10
5.25787
20
-4.47898
11
5.25221
21
-4.47487
0
LINE
8
BLACK
6
CONTINUOUS
10
5.25221
20
-4.47487
11
5.24753
21
-4.46967
0
LINE
8
BLACK
6
CONTINUOUS
10
5.24753
20
-4.46967
11
5.24403
21
-4.46361
0
LINE
8
BLACK
6
CONTINUOUS
10
5.24403
20
-4.46361
11
5.24187
21
-4.45696
0
LINE
8
BLACK
6
CONTINUOUS
10
5.24187
20
-4.45696
11
5.24114
21
-4.45
0
LINE
8
BLACK
6
CONTINUOUS
10
5.24114
20
-4.45
11
5.24187
21
-4.44304
0
LINE
8
BLACK
6
CONTINUOUS
10
5.24187
20
-4.44304
11
5.24403
21
-4.43639
0
LINE
8
BLACK
6
CONTINUOUS
10
5.24403
20
-4.43639
11
5.24753
21
-4.43033
0
LINE
8
BLACK
6
CONTINUOUS
10
5.24753
20
-4.43033
11
5.25221
21
-4.42513
0
LINE
8
BLACK
6
CONTINUOUS
10
5.25221
20
-4.42513
11
5.25787
21
-4.42102
0
LINE
8
BLACK
6
CONTINUOUS
10
5.25787
20
-4.42102
11
5.26427
21
-4.41817
0
LINE
8
BLACK
6
CONTINUOUS
10
5.26427
20
-4.41817
11
5.27111
21
-4.41672
0
LINE
8
BLACK
6
CONTINUOUS
10
5.27111
20
-4.41672
11
5.2781
21
-4.41672
0
LINE
8
BLACK
6
CONTINUOUS
10
5.2781
20
-4.41672
11
5.28495
21
-4.41817
0
LINE
8
BLACK
6
CONTINUOUS
10
5.17987
20
-3.71002
11
5.18426
21
-3.71226
0
LINE
8
BLACK
6
CONTINUOUS
10
5.18426
20
-3.71226
11
5.18774
21
-3.71574
0
LINE
8
BLACK
6
CONTINUOUS
10
5.18774
20
-3.71574
11
5.18998
21
-3.72013
0
LINE
8
BLACK
6
CONTINUOUS
10
5.18998
20
-3.72013
11
5.19075
21
-3.725
0
LINE
8
BLACK
6
CONTINUOUS
10
5.19075
20
-3.725
11
5.18998
21
-3.72987
0
LINE
8
BLACK
6
CONTINUOUS
10
5.18998
20
-3.72987
11
5.18774
21
-3.73426
0
LINE
8
BLACK
6
CONTINUOUS
10
5.18774
20
-3.73426
11
5.18426
21
-3.73774
0
LINE
8
BLACK
6
CONTINUOUS
10
5.18426
20
-3.73774
11
5.1825
21
-3.73864
0
LINE
8
BLACK
6
CONTINUOUS
10
5.1825
20
-3.73864
11
5.1825
21
-4.20001
0
LINE
8
BLACK
6
CONTINUOUS
10
5.1825
20
-4.20001
11
5.18222
21
-4.20123
0
LINE
8
BLACK
6
CONTINUOUS
10
5.18222
20
-4.20123
11
5.18208
21
-4.20248
0
LINE
8
BLACK
6
CONTINUOUS
10
5.18208
20
-4.20248
11
5.18185
21
-4.20284
0
LINE
8
BLACK
6
CONTINUOUS
10
5.18185
20
-4.20284
11
5.18175
21
-4.20326
0
LINE
8
BLACK
6
CONTINUOUS
10
5.18175
20
-4.20326
11
5.18097
21
-4.20424
0
LINE
8
BLACK
6
CONTINUOUS
10
5.18097
20
-4.20424
11
5.1803
21
-4.2053
0
LINE
8
BLACK
6
CONTINUOUS
10
5.1803
20
-4.2053
11
5.08211
21
-4.3035
0
LINE
8
BLACK
6
CONTINUOUS
10
5.08211
20
-4.3035
11
5.08211
21
-4.41757
0
LINE
8
BLACK
6
CONTINUOUS
10
5.08211
20
-4.41757
11
5.08495
21
-4.41817
0
LINE
8
BLACK
6
CONTINUOUS
10
5.08495
20
-4.41817
11
5.09134
21
-4.42102
0
LINE
8
BLACK
6
CONTINUOUS
10
5.09134
20
-4.42102
11
5.097
21
-4.42513
0
LINE
8
BLACK
6
CONTINUOUS
10
5.097
20
-4.42513
11
5.10168
21
-4.43033
0
LINE
8
BLACK
6
CONTINUOUS
10
5.10168
20
-4.43033
11
5.10518
21
-4.43639
0
LINE
8
BLACK
6
CONTINUOUS
10
5.10518
20
-4.43639
11
5.10734
21
-4.44304
0
LINE
8
BLACK
6
CONTINUOUS
10
5.10734
20
-4.44304
11
5.10807
21
-4.45
0
LINE
8
BLACK
6
CONTINUOUS
10
5.10807
20
-4.45
11
5.10734
21
-4.45696
0
LINE
8
BLACK
6
CONTINUOUS
10
5.10734
20
-4.45696
11
5.10518
21
-4.46361
0
LINE
8
BLACK
6
CONTINUOUS
10
5.10518
20
-4.46361
11
5.10168
21
-4.46967
0
LINE
8
BLACK
6
CONTINUOUS
10
5.10168
20
-4.46967
11
5.097
21
-4.47487
0
LINE
8
BLACK
6
CONTINUOUS
10
5.097
20
-4.47487
11
5.09134
21
-4.47898
0
LINE
8
BLACK
6
CONTINUOUS
10
5.09134
20
-4.47898
11
5.08495
21
-4.48183
0
LINE
8
BLACK
6
CONTINUOUS
10
5.08495
20
-4.48183
11
5.0781
21
-4.48328
0
LINE
8
BLACK
6
CONTINUOUS
10
5.0781
20
-4.48328
11
5.07111
21
-4.48328
0
LINE
8
BLACK
6
CONTINUOUS
10
5.07111
20
-4.48328
11
5.06427
21
-4.48183
0
LINE
8
BLACK
6
CONTINUOUS
10
5.06427
20
-4.48183
11
5.05787
21
-4.47898
0
LINE
8
BLACK
6
CONTINUOUS
10
5.05787
20
-4.47898
11
5.05221
21
-4.47487
0
LINE
8
BLACK
6
CONTINUOUS
10
5.05221
20
-4.47487
11
5.04753
21
-4.46967
0
LINE
8
BLACK
6
CONTINUOUS
10
5.04753
20
-4.46967
11
5.04403
21
-4.46361
0
LINE
8
BLACK
6
CONTINUOUS
10
5.04403
20
-4.46361
11
5.04187
21
-4.45696
0
LINE
8
BLACK
6
CONTINUOUS
10
5.04187
20
-4.45696
11
5.04114
21
-4.45
0
LINE
8
BLACK
6
CONTINUOUS
10
5.04114
20
-4.45
11
5.04187
21
-4.44304
0
LINE
8
BLACK
6
CONTINUOUS
10
5.04187
20
-4.44304
11
5.04403
21
-4.43639
0
LINE
8
BLACK
6
CONTINUOUS
10
5.04403
20
-4.43639
11
5.04753
21
-4.43033
0
LINE
8
BLACK
6
CONTINUOUS
10
5.04753
20
-4.43033
11
5.05221
21
-4.42513
0
LINE
8
BLACK
6
CONTINUOUS
10
5.05221
20
-4.42513
11
5.05787
21
-4.42102
0
LINE
8
BLACK
6
CONTINUOUS
10
5.05787
20
-4.42102
11
5.06427
21
-4.41817
0
LINE
8
BLACK
6
CONTINUOUS
10
5.06427
20
-4.41817
11
5.06711
21
-4.41757
0
LINE
8
BLACK
6
CONTINUOUS
10
5.06711
20
-4.41757
11
5.06711
21
-4.30038
0
LINE
8
BLACK
6
CONTINUOUS
10
5.06711
20
-4.30038
11
5.06739
21
-4.29916
0
LINE
8
BLACK
6
CONTINUOUS
10
5.06739
20
-4.29916
11
5.06753
21
-4.29791
0
LINE
8
BLACK
6
CONTINUOUS
10
5.06753
20
-4.29791
11
5.06776
21
-4.29755
0
LINE
8
BLACK
6
CONTINUOUS
10
5.06776
20
-4.29755
11
5.06785
21
-4.29713
0
LINE
8
BLACK
6
CONTINUOUS
10
5.06785
20
-4.29713
11
5.06864
21
-4.29615
0
LINE
8
BLACK
6
CONTINUOUS
10
5.06864
20
-4.29615
11
5.0693
21
-4.29509
0
LINE
8
BLACK
6
CONTINUOUS
10
5.0693
20
-4.29509
11
5.1675
21
-4.19689
0
LINE
8
BLACK
6
CONTINUOUS
10
5.1675
20
-4.19689
11
5.1675
21
-3.73864
0
LINE
8
BLACK
6
CONTINUOUS
10
5.1675
20
-3.73864
11
5.16574
21
-3.73774
0
LINE
8
BLACK
6
CONTINUOUS
10
5.16574
20
-3.73774
11
5.16226
21
-3.73426
0
LINE
8
BLACK
6
CONTINUOUS
10
5.16226
20
-3.73426
11
5.16002
21
-3.72987
0
LINE
8
BLACK
6
CONTINUOUS
10
5.16002
20
-3.72987
11
5.15925
21
-3.725
0
LINE
8
BLACK
6
CONTINUOUS
10
5.15925
20
-3.725
11
5.16002
21
-3.72013
0
LINE
8
BLACK
6
CONTINUOUS
10
5.16002
20
-3.72013
11
5.16226
21
-3.71574
0
LINE
8
BLACK
6
CONTINUOUS
10
5.16226
20
-3.71574
11
5.16574
21
-3.71226
0
LINE
8
BLACK
6
CONTINUOUS
10
5.16574
20
-3.71226
11
5.17013
21
-3.71002
0
LINE
8
BLACK
6
CONTINUOUS
10
5.17013
20
-3.71002
11
5.175
21
-3.70925
0
LINE
8
BLACK
6
CONTINUOUS
10
5.175
20
-3.70925
11
5.17987
21
-3.71002
0
LINE
8
BLACK
6
CONTINUOUS
10
4.17987
20
-4.21002
11
4.18426
21
-4.21226
0
LINE
8
BLACK
6
CONTINUOUS
10
4.18426
20
-4.21226
11
4.18774
21
-4.21574
0
LINE
8
BLACK
6
CONTINUOUS
10
4.18774
20
-4.21574
11
4.18998
21
-4.22013
0
LINE
8
BLACK
6
CONTINUOUS
10
4.18998
20
-4.22013
11
4.19075
21
-4.225
0
LINE
8
BLACK
6
CONTINUOUS
10
4.19075
20
-4.225
11
4.18998
21
-4.22987
0
LINE
8
BLACK
6
CONTINUOUS
10
4.18998
20
-4.22987
11
4.18774
21
-4.23426
0
LINE
8
BLACK
6
CONTINUOUS
10
4.18774
20
-4.23426
11
4.18426
21
-4.23774
0
LINE
8
BLACK
6
CONTINUOUS
10
4.18426
20
-4.23774
11
4.1825
21
-4.23864
0
LINE
8
BLACK
6
CONTINUOUS
10
4.1825
20
-4.23864
11
4.1825
21
-4.41136
0
LINE
8
BLACK
6
CONTINUOUS
10
4.1825
20
-4.41136
11
4.18426
21
-4.41226
0
LINE
8
BLACK
6
CONTINUOUS
10
4.18426
20
-4.41226
11
4.18774
21
-4.41574
0
LINE
8
BLACK
6
CONTINUOUS
10
4.18774
20
-4.41574
11
4.18998
21
-4.42013
0
LINE
8
BLACK
6
CONTINUOUS
10
4.18998
20
-4.42013
11
4.19075
21
-4.425
0
LINE
8
BLACK
6
CONTINUOUS
10
4.19075
20
-4.425
11
4.18998
21
-4.42987
0
LINE
8
BLACK
6
CONTINUOUS
10
4.18998
20
-4.42987
11
4.18774
21
-4.43426
0
LINE
8
BLACK
6
CONTINUOUS
10
4.18774
20
-4.43426
11
4.18426
21
-4.43774
0
LINE
8
BLACK
6
CONTINUOUS
10
4.18426
20
-4.43774
11
4.17987
21
-4.43998
0
LINE
8
BLACK
6
CONTINUOUS
10
4.17987
20
-4.43998
11
4.175
21
-4.44075
0
LINE
8
BLACK
6
CONTINUOUS
10
4.175
20
-4.44075
11
4.17013
21
-4.43998
0
LINE
8
BLACK
6
CONTINUOUS
10
4.17013
20
-4.43998
11
4.16574
21
-4.43774
0
LINE
8
BLACK
6
CONTINUOUS
10
4.16574
20
-4.43774
11
4.16226
21
-4.43426
0
LINE
8
BLACK
6
CONTINUOUS
10
4.16226
20
-4.43426
11
4.16002
21
-4.42987
0
LINE
8
BLACK
6
CONTINUOUS
10
4.16002
20
-4.42987
11
4.15925
21
-4.425
0
LINE
8
BLACK
6
CONTINUOUS
10
4.15925
20
-4.425
11
4.16002
21
-4.42013
0
LINE
8
BLACK
6
CONTINUOUS
10
4.16002
20
-4.42013
11
4.16226
21
-4.41574
0
LINE
8
BLACK
6
CONTINUOUS
10
4.16226
20
-4.41574
11
4.16574
21
-4.41226
0
LINE
8
BLACK
6
CONTINUOUS
10
4.16574
20
-4.41226
11
4.1675
21
-4.41136
0
LINE
8
BLACK
6
CONTINUOUS
10
4.1675
20
-4.41136
11
4.1675
21
-4.23864
0
LINE
8
BLACK
6
CONTINUOUS
10
4.1675
20
-4.23864
11
4.16574
21
-4.23774
0
LINE
8
BLACK
6
CONTINUOUS
10
4.16574
20
-4.23774
11
4.16226
21
-4.23426
0
LINE
8
BLACK
6
CONTINUOUS
10
4.16226
20
-4.23426
11
4.16002
21
-4.22987
0
LINE
8
BLACK
6
CONTINUOUS
10
4.16002
20
-4.22987
11
4.15925
21
-4.225
0
LINE
8
BLACK
6
CONTINUOUS
10
4.15925
20
-4.225
11
4.16002
21
-4.22013
0
LINE
8
BLACK
6
CONTINUOUS
10
4.16002
20
-4.22013
11
4.16226
21
-4.21574
0
LINE
8
BLACK
6
CONTINUOUS
10
4.16226
20
-4.21574
11
4.16574
21
-4.21226
0
LINE
8
BLACK
6
CONTINUOUS
10
4.16574
20
-4.21226
11
4.17013
21
-4.21002
0
LINE
8
BLACK
6
CONTINUOUS
10
4.17013
20
-4.21002
11
4.175
21
-4.20925
0
LINE
8
BLACK
6
CONTINUOUS
10
4.175
20
-4.20925
11
4.17987
21
-4.21002
0
LINE
8
BLACK
6
CONTINUOUS
10
3.23346
20
-4.43346
11
3.16654
21
-4.43346
0
LINE
8
BLACK
6
CONTINUOUS
10
3.16654
20
-4.43346
11
3.16654
21
-4.36654
0
LINE
8
BLACK
6
CONTINUOUS
10
3.16654
20
-4.36654
11
3.23346
21
-4.36654
0
LINE
8
BLACK
6
CONTINUOUS
10
3.23346
20
-4.36654
11
3.23346
21
-4.43346
0
LINE
8
BLACK
6
CONTINUOUS
10
3.78346
20
-4.43346
11
3.71654
21
-4.43346
0
LINE
8
BLACK
6
CONTINUOUS
10
3.71654
20
-4.43346
11
3.71654
21
-4.36654
0
LINE
8
BLACK
6
CONTINUOUS
10
3.71654
20
-4.36654
11
3.78346
21
-4.36654
0
LINE
8
BLACK
6
CONTINUOUS
10
3.78346
20
-4.36654
11
3.78346
21
-4.43346
0
LINE
8
BLACK
6
CONTINUOUS
10
5.75487
20
-3.61002
11
5.75926
21
-3.61226
0
LINE
8
BLACK
6
CONTINUOUS
10
5.75926
20
-3.61226
11
5.76274
21
-3.61574
0
LINE
8
BLACK
6
CONTINUOUS
10
5.76274
20
-3.61574
11
5.76498
21
-3.62013
0
LINE
8
BLACK
6
CONTINUOUS
10
5.76498
20
-3.62013
11
5.76575
21
-3.625
0
LINE
8
BLACK
6
CONTINUOUS
10
5.76575
20
-3.625
11
5.76505
21
-3.62944
0
LINE
8
BLACK
6
CONTINUOUS
10
5.76505
20
-3.62944
11
6.30531
21
-4.16971
0
LINE
8
BLACK
6
CONTINUOUS
10
6.30531
20
-4.16971
11
6.30598
21
-4.17077
0
LINE
8
BLACK
6
CONTINUOUS
10
6.30598
20
-4.17077
11
6.30676
21
-4.17175
0
LINE
8
BLACK
6
CONTINUOUS
10
6.30676
20
-4.17175
11
6.30685
21
-4.17217
0
LINE
8
BLACK
6
CONTINUOUS
10
6.30685
20
-4.17217
11
6.30708
21
-4.17253
0
LINE
8
BLACK
6
CONTINUOUS
10
6.30708
20
-4.17253
11
6.30722
21
-4.17378
0
LINE
8
BLACK
6
CONTINUOUS
10
6.30722
20
-4.17378
11
6.3075
21
-4.175
0
LINE
8
BLACK
6
CONTINUOUS
10
6.3075
20
-4.175
11
6.3075
21
-4.34239
0
LINE
8
BLACK
6
CONTINUOUS
10
6.3075
20
-4.34239
11
6.30926
21
-4.34329
0
LINE
8
BLACK
6
CONTINUOUS
10
6.30926
20
-4.34329
11
6.31274
21
-4.34677
0
LINE
8
BLACK
6
CONTINUOUS
10
6.31274
20
-4.34677
11
6.31498
21
-4.35116
0
LINE
8
BLACK
6
CONTINUOUS
10
6.31498
20
-4.35116
11
6.31575
21
-4.35603
0
LINE
8
BLACK
6
CONTINUOUS
10
6.31575
20
-4.35603
11
6.31498
21
-4.36089
0
LINE
8
BLACK
6
CONTINUOUS
10
6.31498
20
-4.36089
11
6.31274
21
-4.36528
0
LINE
8
BLACK
6
CONTINUOUS
10
6.31274
20
-4.36528
11
6.30926
21
-4.36877
0
LINE
8
BLACK
6
CONTINUOUS
10
6.30926
20
-4.36877
11
6.30487
21
-4.37101
0
LINE
8
BLACK
6
CONTINUOUS
10
6.30487
20
-4.37101
11
6.3
21
-4.37178
0
LINE
8
BLACK
6
CONTINUOUS
10
6.3
20
-4.37178
11
6.29513
21
-4.37101
0
LINE
8
BLACK
6
CONTINUOUS
10
6.29513
20
-4.37101
11
6.29074
21
-4.36877
0
LINE
8
BLACK
6
CONTINUOUS
10
6.29074
20
-4.36877
11
6.28726
21
-4.36528
0
LINE
8
BLACK
6
CONTINUOUS
10
6.28726
20
-4.36528
11
6.28502
21
-4.36089
0
LINE
8
BLACK
6
CONTINUOUS
10
6.28502
20
-4.36089
11
6.28425
21
-4.35603
0
LINE
8
BLACK
6
CONTINUOUS
10
6.28425
20
-4.35603
11
6.28502
21
-4.35116
0
LINE
8
BLACK
6
CONTINUOUS
10
6.28502
20
-4.35116
11
6.28726
21
-4.34677
0
LINE
8
BLACK
6
CONTINUOUS
10
6.28726
20
-4.34677
11
6.29074
21
-4.34329
0
LINE
8
BLACK
6
CONTINUOUS
10
6.29074
20
-4.34329
11
6.2925
21
-4.34239
0
LINE
8
BLACK
6
CONTINUOUS
10
6.2925
20
-4.34239
11
6.2925
21
-4.17811
0
LINE
8
BLACK
6
CONTINUOUS
10
6.2925
20
-4.17811
11
5.75444
21
-3.64005
0
LINE
8
BLACK
6
CONTINUOUS
10
5.75444
20
-3.64005
11
5.75
21
-3.64075
0
LINE
8
BLACK
6
CONTINUOUS
10
5.75
20
-3.64075
11
5.74513
21
-3.63998
0
LINE
8
BLACK
6
CONTINUOUS
10
5.74513
20
-3.63998
11
5.74074
21
-3.63774
0
LINE
8
BLACK
6
CONTINUOUS
10
5.74074
20
-3.63774
11
5.73726
21
-3.63426
0
LINE
8
BLACK
6
CONTINUOUS
10
5.73726
20
-3.63426
11
5.73502
21
-3.62987
0
LINE
8
BLACK
6
CONTINUOUS
10
5.73502
20
-3.62987
11
5.73425
21
-3.625
0
LINE
8
BLACK
6
CONTINUOUS
10
5.73425
20
-3.625
11
5.73502
21
-3.62013
0
LINE
8
BLACK
6
CONTINUOUS
10
5.73502
20
-3.62013
11
5.73726
21
-3.61574
0
LINE
8
BLACK
6
CONTINUOUS
10
5.73726
20
-3.61574
11
5.74074
21
-3.61226
0
LINE
8
BLACK
6
CONTINUOUS
10
5.74074
20
-3.61226
11
5.74513
21
-3.61002
0
LINE
8
BLACK
6
CONTINUOUS
10
5.74513
20
-3.61002
11
5.75
21
-3.60925
0
LINE
8
BLACK
6
CONTINUOUS
10
5.75
20
-3.60925
11
5.75487
21
-3.61002
0
LINE
8
BLACK
6
CONTINUOUS
10
5.92972
20
-3.935
11
5.975
21
-3.935
0
LINE
8
BLACK
6
CONTINUOUS
10
5.975
20
-3.935
11
5.97653
21
-3.93513
0
LINE
8
BLACK
6
CONTINUOUS
10
5.97653
20
-3.93513
11
5.97688
21
-3.93512
0
LINE
8
BLACK
6
CONTINUOUS
10
5.97688
20
-3.93512
11
5.97709
21
-3.93518
0
LINE
8
BLACK
6
CONTINUOUS
10
5.97709
20
-3.93518
11
5.97758
21
-3.93522
0
LINE
8
BLACK
6
CONTINUOUS
10
5.97758
20
-3.93522
11
5.97957
21
-3.93592
0
LINE
8
BLACK
6
CONTINUOUS
10
5.97957
20
-3.93592
11
5.9816
21
-3.93653
0
LINE
8
BLACK
6
CONTINUOUS
10
5.9816
20
-3.93653
11
5.98189
21
-3.93674
0
LINE
8
BLACK
6
CONTINUOUS
10
5.98189
20
-3.93674
11
5.98223
21
-3.93686
0
LINE
8
BLACK
6
CONTINUOUS
10
5.98223
20
-3.93686
11
5.98389
21
-3.93816
0
LINE
8
BLACK
6
CONTINUOUS
10
5.98389
20
-3.93816
11
5.98561
21
-3.93939
0
LINE
8
BLACK
6
CONTINUOUS
10
5.98561
20
-3.93939
11
6.10766
21
-4.06145
0
LINE
8
BLACK
6
CONTINUOUS
10
6.10766
20
-4.06145
11
6.10926
21
-4.06226
0
LINE
8
BLACK
6
CONTINUOUS
10
6.10926
20
-4.06226
11
6.11274
21
-4.06574
0
LINE
8
BLACK
6
CONTINUOUS
10
6.11274
20
-4.06574
11
6.11498
21
-4.07013
0
LINE
8
BLACK
6
CONTINUOUS
10
6.11498
20
-4.07013
11
6.11575
21
-4.075
0
LINE
8
BLACK
6
CONTINUOUS
10
6.11575
20
-4.075
11
6.11498
21
-4.07987
0
LINE
8
BLACK
6
CONTINUOUS
10
6.11498
20
-4.07987
11
6.11274
21
-4.08426
0
LINE
8
BLACK
6
CONTINUOUS
10
6.11274
20
-4.08426
11
6.10926
21
-4.08774
0
LINE
8
BLACK
6
CONTINUOUS
10
6.10926
20
-4.08774
11
6.10487
21
-4.08998
0
LINE
8
BLACK
6
CONTINUOUS
10
6.10487
20
-4.08998
11
6.1
21
-4.09075
0
LINE
8
BLACK
6
CONTINUOUS
10
6.1
20
-4.09075
11
6.09513
21
-4.08998
0
LINE
8
BLACK
6
CONTINUOUS
10
6.09513
20
-4.08998
11
6.09074
21
-4.08774
0
LINE
8
BLACK
6
CONTINUOUS
10
6.09074
20
-4.08774
11
6.08726
21
-4.08426
0
LINE
8
BLACK
6
CONTINUOUS
10
6.08726
20
-4.08426
11
6.08645
21
-4.08266
0
LINE
8
BLACK
6
CONTINUOUS
10
6.08645
20
-4.08266
11
5.96879
21
-3.965
0
LINE
8
BLACK
6
CONTINUOUS
10
5.96879
20
-3.965
11
5.94
21
-3.965
0
LINE
8
BLACK
6
CONTINUOUS
10
5.94
20
-3.965
11
5.94
21
-4
0
LINE
8
BLACK
6
CONTINUOUS
10
5.94
20
-4
11
5.93987
21
-4.00153
0
LINE
8
BLACK
6
CONTINUOUS
10
5.93987
20
-4.00153
11
5.93988
21
-4.00188
0
LINE
8
BLACK
6
CONTINUOUS
10
5.93988
20
-4.00188
11
5.93982
21
-4.00209
0
LINE
8
BLACK
6
CONTINUOUS
10
5.93982
20
-4.00209
11
5.93978
21
-4.00258
0
LINE
8
BLACK
6
CONTINUOUS
10
5.93978
20
-4.00258
11
5.93908
21
-4.00457
0
LINE
8
BLACK
6
CONTINUOUS
10
5.93908
20
-4.00457
11
5.93847
21
-4.0066
0
LINE
8
BLACK
6
CONTINUOUS
10
5.93847
20
-4.0066
11
5.93826
21
-4.00689
0
LINE
8
BLACK
6
CONTINUOUS
10
5.93826
20
-4.00689
11
5.93814
21
-4.00723
0
LINE
8
BLACK
6
CONTINUOUS
10
5.93814
20
-4.00723
11
5.93684
21
-4.00889
0
LINE
8
BLACK
6
CONTINUOUS
10
5.93684
20
-4.00889
11
5.93561
21
-4.01061
0
LINE
8
BLACK
6
CONTINUOUS
10
5.93561
20
-4.01061
11
5.83855
21
-4.10766
0
LINE
8
BLACK
6
CONTINUOUS
10
5.83855
20
-4.10766
11
5.83774
21
-4.10926
0
LINE
8
BLACK
6
CONTINUOUS
10
5.83774
20
-4.10926
11
5.83426
21
-4.11274
0
LINE
8
BLACK
6
CONTINUOUS
10
5.83426
20
-4.11274
11
5.82987
21
-4.11498
0
LINE
8
BLACK
6
CONTINUOUS
10
5.82987
20
-4.11498
11
5.825
21
-4.11575
0
LINE
8
BLACK
6
CONTINUOUS
10
5.825
20
-4.11575
11
5.82013
21
-4.11498
0
LINE
8
BLACK
6
CONTINUOUS
10
5.82013
20
-4.11498
11
5.81574
21
-4.11274
0
LINE
8
BLACK
6
CONTINUOUS
10
5.81574
20
-4.11274
11
5.81226
21
-4.10926
0
LINE
8
BLACK
6
CONTINUOUS
10
5.81226
20
-4.10926
11
5.81002
21
-4.10487
0
LINE
8
BLACK
6
CONTINUOUS
10
5.81002
20
-4.10487
11
5.80925
21
-4.1
0
LINE
8
BLACK
6
CONTINUOUS
10
5.80925
20
-4.1
11
5.81002
21
-4.09513
0
LINE
8
BLACK
6
CONTINUOUS
10
5.81002
20
-4.09513
11
5.81226
21
-4.09074
0
LINE
8
BLACK
6
CONTINUOUS
10
5.81226
20
-4.09074
11
5.81574
21
-4.08726
0
LINE
8
BLACK
6
CONTINUOUS
10
5.81574
20
-4.08726
11
5.81734
21
-4.08645
0
LINE
8
BLACK
6
CONTINUOUS
10
5.81734
20
-4.08645
11
5.91
21
-3.99379
0
LINE
8
BLACK
6
CONTINUOUS
10
5.91
20
-3.99379
11
5.91
21
-3.95472
0
LINE
8
BLACK
6
CONTINUOUS
10
5.91
20
-3.95472
11
5.90925
21
-3.95
0
LINE
8
BLACK
6
CONTINUOUS
10
5.90925
20
-3.95
11
5.91002
21
-3.94513
0
LINE
8
BLACK
6
CONTINUOUS
10
5.91002
20
-3.94513
11
5.91226
21
-3.94074
0
LINE
8
BLACK
6
CONTINUOUS
10
5.91226
20
-3.94074
11
5.91574
21
-3.93726
0
LINE
8
BLACK
6
CONTINUOUS
10
5.91574
20
-3.93726
11
5.92013
21
-3.93502
0
LINE
8
BLACK
6
CONTINUOUS
10
5.92013
20
-3.93502
11
5.925
21
-3.93425
0
LINE
8
BLACK
6
CONTINUOUS
10
5.925
20
-3.93425
11
5.92972
21
-3.935
0
LINE
8
BLACK
6
CONTINUOUS
10
4.42987
20
-3.71002
11
4.43426
21
-3.71226
0
LINE
8
BLACK
6
CONTINUOUS
10
4.43426
20
-3.71226
11
4.43774
21
-3.71574
0
LINE
8
BLACK
6
CONTINUOUS
10
4.43774
20
-3.71574
11
4.43998
21
-3.72013
0
LINE
8
BLACK
6
CONTINUOUS
10
4.43998
20
-3.72013
11
4.44075
21
-3.725
0
LINE
8
BLACK
6
CONTINUOUS
10
4.44075
20
-3.725
11
4.44
21
-3.72972
0
LINE
8
BLACK
6
CONTINUOUS
10
4.44
20
-3.72972
11
4.44
21
-4.01634
0
LINE
8
BLACK
6
CONTINUOUS
10
4.44
20
-4.01634
11
4.43987
21
-4.01786
0
LINE
8
BLACK
6
CONTINUOUS
10
4.43987
20
-4.01786
11
4.43988
21
-4.01822
0
LINE
8
BLACK
6
CONTINUOUS
10
4.43988
20
-4.01822
11
4.43982
21
-4.01843
0
LINE
8
BLACK
6
CONTINUOUS
10
4.43982
20
-4.01843
11
4.43978
21
-4.01892
0
LINE
8
BLACK
6
CONTINUOUS
10
4.43978
20
-4.01892
11
4.43908
21
-4.02091
0
LINE
8
BLACK
6
CONTINUOUS
10
4.43908
20
-4.02091
11
4.43847
21
-4.02294
0
LINE
8
BLACK
6
CONTINUOUS
10
4.43847
20
-4.02294
11
4.43826
21
-4.02323
0
LINE
8
BLACK
6
CONTINUOUS
10
4.43826
20
-4.02323
11
4.43814
21
-4.02356
0
LINE
8
BLACK
6
CONTINUOUS
10
4.43814
20
-4.02356
11
4.43684
21
-4.02523
0
LINE
8
BLACK
6
CONTINUOUS
10
4.43684
20
-4.02523
11
4.43561
21
-4.02695
0
LINE
8
BLACK
6
CONTINUOUS
10
4.43561
20
-4.02695
11
4.43422
21
-4.02833
0
LINE
8
BLACK
6
CONTINUOUS
10
4.43422
20
-4.02833
11
4.43341
21
-4.02993
0
LINE
8
BLACK
6
CONTINUOUS
10
4.43341
20
-4.02993
11
4.42993
21
-4.03341
0
LINE
8
BLACK
6
CONTINUOUS
10
4.42993
20
-4.03341
11
4.42554
21
-4.03565
0
LINE
8
BLACK
6
CONTINUOUS
10
4.42554
20
-4.03565
11
4.42067
21
-4.03642
0
LINE
8
BLACK
6
CONTINUOUS
10
4.42067
20
-4.03642
11
4.4158
21
-4.03565
0
LINE
8
BLACK
6
CONTINUOUS
10
4.4158
20
-4.03565
11
4.41141
21
-4.03341
0
LINE
8
BLACK
6
CONTINUOUS
10
4.41141
20
-4.03341
11
4.40793
21
-4.02993
0
LINE
8
BLACK
6
CONTINUOUS
10
4.40793
20
-4.02993
11
4.40569
21
-4.02554
0
LINE
8
BLACK
6
CONTINUOUS
10
4.40569
20
-4.02554
11
4.40492
21
-4.02067
0
LINE
8
BLACK
6
CONTINUOUS
10
4.40492
20
-4.02067
11
4.40569
21
-4.0158
0
LINE
8
BLACK
6
CONTINUOUS
10
4.40569
20
-4.0158
11
4.40793
21
-4.01141
0
LINE
8
BLACK
6
CONTINUOUS
10
4.40793
20
-4.01141
11
4.41
21
-4.00934
0
LINE
8
BLACK
6
CONTINUOUS
10
4.41
20
-4.00934
11
4.41
21
-3.72972
0
LINE
8
BLACK
6
CONTINUOUS
10
4.41
20
-3.72972
11
4.40925
21
-3.725
0
LINE
8
BLACK
6
CONTINUOUS
10
4.40925
20
-3.725
11
4.41002
21
-3.72013
0
LINE
8
BLACK
6
CONTINUOUS
10
4.41002
20
-3.72013
11
4.41226
21
-3.71574
0
LINE
8
BLACK
6
CONTINUOUS
10
4.41226
20
-3.71574
11
4.41574
21
-3.71226
0
LINE
8
BLACK
6
CONTINUOUS
10
4.41574
20
-3.71226
11
4.42013
21
-3.71002
0
LINE
8
BLACK
6
CONTINUOUS
10
4.42013
20
-3.71002
11
4.425
21
-3.70925
0
LINE
8
BLACK
6
CONTINUOUS
10
4.425
20
-3.70925
11
4.42987
21
-3.71002
0
LINE
8
BLACK
6
CONTINUOUS
10
3.85487
20
-3.81002
11
3.85926
21
-3.81226
0
LINE
8
BLACK
6
CONTINUOUS
10
3.85926
20
-3.81226
11
3.86274
21
-3.81574
0
LINE
8
BLACK
6
CONTINUOUS
10
3.86274
20
-3.81574
11
3.86498
21
-3.82013
0
LINE
8
BLACK
6
CONTINUOUS
10
3.86498
20
-3.82013
11
3.86575
21
-3.825
0
LINE
8
BLACK
6
CONTINUOUS
10
3.86575
20
-3.825
11
3.86498
21
-3.82987
0
LINE
8
BLACK
6
CONTINUOUS
10
3.86498
20
-3.82987
11
3.86274
21
-3.83426
0
LINE
8
BLACK
6
CONTINUOUS
10
3.86274
20
-3.83426
11
3.85926
21
-3.83774
0
LINE
8
BLACK
6
CONTINUOUS
10
3.85926
20
-3.83774
11
3.85766
21
-3.83855
0
LINE
8
BLACK
6
CONTINUOUS
10
3.85766
20
-3.83855
11
3.71061
21
-3.98561
0
LINE
8
BLACK
6
CONTINUOUS
10
3.71061
20
-3.98561
11
3.70943
21
-3.98659
0
LINE
8
BLACK
6
CONTINUOUS
10
3.70943
20
-3.98659
11
3.70919
21
-3.98685
0
LINE
8
BLACK
6
CONTINUOUS
10
3.70919
20
-3.98685
11
3.709
21
-3.98696
0
LINE
8
BLACK
6
CONTINUOUS
10
3.709
20
-3.98696
11
3.70863
21
-3.98727
0
LINE
8
BLACK
6
CONTINUOUS
10
3.70863
20
-3.98727
11
3.70672
21
-3.98819
0
LINE
8
BLACK
6
CONTINUOUS
10
3.70672
20
-3.98819
11
3.70486
21
-3.98919
0
LINE
8
BLACK
6
CONTINUOUS
10
3.70486
20
-3.98919
11
3.70451
21
-3.98925
0
LINE
8
BLACK
6
CONTINUOUS
10
3.70451
20
-3.98925
11
3.70418
21
-3.9894
0
LINE
8
BLACK
6
CONTINUOUS
10
3.70418
20
-3.9894
11
3.70209
21
-3.98965
0
LINE
8
BLACK
6
CONTINUOUS
10
3.70209
20
-3.98965
11
3.7
21
-3.99
0
LINE
8
BLACK
6
CONTINUOUS
10
3.7
20
-3.99
11
3.62972
21
-3.99
0
LINE
8
BLACK
6
CONTINUOUS
10
3.62972
20
-3.99
11
3.625
21
-3.99075
0
LINE
8
BLACK
6
CONTINUOUS
10
3.625
20
-3.99075
11
3.62013
21
-3.98998
0
LINE
8
BLACK
6
CONTINUOUS
10
3.62013
20
-3.98998
11
3.61574
21
-3.98774
0
LINE
8
BLACK
6
CONTINUOUS
10
3.61574
20
-3.98774
11
3.61226
21
-3.98426
0
LINE
8
BLACK
6
CONTINUOUS
10
3.61226
20
-3.98426
11
3.61002
21
-3.97987
0
LINE
8
BLACK
6
CONTINUOUS
10
3.61002
20
-3.97987
11
3.60925
21
-3.975
0
LINE
8
BLACK
6
CONTINUOUS
10
3.60925
20
-3.975
11
3.61002
21
-3.97013
0
LINE
8
BLACK
6
CONTINUOUS
10
3.61002
20
-3.97013
11
3.61226
21
-3.96574
0
LINE
8
BLACK
6
CONTINUOUS
10
3.61226
20
-3.96574
11
3.61574
21
-3.96226
0
LINE
8
BLACK
6
CONTINUOUS
10
3.61574
20
-3.96226
11
3.62013
21
-3.96002
0
LINE
8
BLACK
6
CONTINUOUS
10
3.62013
20
-3.96002
11
3.625
21
-3.95925
0
LINE
8
BLACK
6
CONTINUOUS
10
3.625
20
-3.95925
11
3.62972
21
-3.96
0
LINE
8
BLACK
6
CONTINUOUS
10
3.62972
20
-3.96
11
3.69379
21
-3.96
0
LINE
8
BLACK
6
CONTINUOUS
10
3.69379
20
-3.96
11
3.83645
21
-3.81734
0
LINE
8
BLACK
6
CONTINUOUS
10
3.83645
20
-3.81734
11
3.83726
21
-3.81574
0
LINE
8
BLACK
6
CONTINUOUS
10
3.83726
20
-3.81574
11
3.84074
21
-3.81226
0
LINE
8
BLACK
6
CONTINUOUS
10
3.84074
20
-3.81226
11
3.84513
21
-3.81002
0
LINE
8
BLACK
6
CONTINUOUS
10
3.84513
20
-3.81002
11
3.85
21
-3.80925
0
LINE
8
BLACK
6
CONTINUOUS
10
3.85
20
-3.80925
11
3.85487
21
-3.81002
0
LINE
8
BLACK
6
CONTINUOUS
10
6.38346
20
-3.98346
11
6.31654
21
-3.98346
0
LINE
8
BLACK
6
CONTINUOUS
10
6.31654
20
-3.98346
11
6.31654
21
-3.91654
0
LINE
8
BLACK
6
CONTINUOUS
10
6.31654
20
-3.91654
11
6.38346
21
-3.91654
0
LINE
8
BLACK
6
CONTINUOUS
10
6.38346
20
-3.91654
11
6.38346
21
-3.98346
0
LINE
8
BLACK
6
CONTINUOUS
10
6.36034
20
-3.81817
11
6.36673
21
-3.82102
0
LINE
8
BLACK
6
CONTINUOUS
10
6.36673
20
-3.82102
11
6.37239
21
-3.82513
0
LINE
8
BLACK
6
CONTINUOUS
10
6.37239
20
-3.82513
11
6.37707
21
-3.83033
0
LINE
8
BLACK
6
CONTINUOUS
10
6.37707
20
-3.83033
11
6.38057
21
-3.83639
0
LINE
8
BLACK
6
CONTINUOUS
10
6.38057
20
-3.83639
11
6.38273
21
-3.84304
0
LINE
8
BLACK
6
CONTINUOUS
10
6.38273
20
-3.84304
11
6.38346
21
-3.85
0
LINE
8
BLACK
6
CONTINUOUS
10
6.38346
20
-3.85
11
6.38273
21
-3.85696
0
LINE
8
BLACK
6
CONTINUOUS
10
6.38273
20
-3.85696
11
6.38057
21
-3.86361
0
LINE
8
BLACK
6
CONTINUOUS
10
6.38057
20
-3.86361
11
6.37707
21
-3.86967
0
LINE
8
BLACK
6
CONTINUOUS
10
6.37707
20
-3.86967
11
6.37239
21
-3.87487
0
LINE
8
BLACK
6
CONTINUOUS
10
6.37239
20
-3.87487
11
6.36673
21
-3.87898
0
LINE
8
BLACK
6
CONTINUOUS
10
6.36673
20
-3.87898
11
6.36034
21
-3.88183
0
LINE
8
BLACK
6
CONTINUOUS
10
6.36034
20
-3.88183
11
6.3535
21
-3.88328
0
LINE
8
BLACK
6
CONTINUOUS
10
6.3535
20
-3.88328
11
6.3465
21
-3.88328
0
LINE
8
BLACK
6
CONTINUOUS
10
6.3465
20
-3.88328
11
6.33966
21
-3.88183
0
LINE
8
BLACK
6
CONTINUOUS
10
6.33966
20
-3.88183
11
6.33327
21
-3.87898
0
LINE
8
BLACK
6
CONTINUOUS
10
6.33327
20
-3.87898
11
6.32761
21
-3.87487
0
LINE
8
BLACK
6
CONTINUOUS
10
6.32761
20
-3.87487
11
6.32293
21
-3.86967
0
LINE
8
BLACK
6
CONTINUOUS
10
6.32293
20
-3.86967
11
6.31943
21
-3.86361
0
LINE
8
BLACK
6
CONTINUOUS
10
6.31943
20
-3.86361
11
6.31727
21
-3.85696
0
LINE
8
BLACK
6
CONTINUOUS
10
6.31727
20
-3.85696
11
6.31654
21
-3.85
0
LINE
8
BLACK
6
CONTINUOUS
10
6.31654
20
-3.85
11
6.31727
21
-3.84304
0
LINE
8
BLACK
6
CONTINUOUS
10
6.31727
20
-3.84304
11
6.31943
21
-3.83639
0
LINE
8
BLACK
6
CONTINUOUS
10
6.31943
20
-3.83639
11
6.32293
21
-3.83033
0
LINE
8
BLACK
6
CONTINUOUS
10
6.32293
20
-3.83033
11
6.32761
21
-3.82513
0
LINE
8
BLACK
6
CONTINUOUS
10
6.32761
20
-3.82513
11
6.33327
21
-3.82102
0
LINE
8
BLACK
6
CONTINUOUS
10
6.33327
20
-3.82102
11
6.33966
21
-3.81817
0
LINE
8
BLACK
6
CONTINUOUS
10
6.33966
20
-3.81817
11
6.3465
21
-3.81672
0
LINE
8
BLACK
6
CONTINUOUS
10
6.3465
20
-3.81672
11
6.3535
21
-3.81672
0
LINE
8
BLACK
6
CONTINUOUS
10
6.3535
20
-3.81672
11
6.36034
21
-3.81817
0
LINE
8
BLACK
6
CONTINUOUS
10
6.36034
20
-3.71817
11
6.36673
21
-3.72102
0
LINE
8
BLACK
6
CONTINUOUS
10
6.36673
20
-3.72102
11
6.37239
21
-3.72513
0
LINE
8
BLACK
6
CONTINUOUS
10
6.37239
20
-3.72513
11
6.37707
21
-3.73033
0
LINE
8
BLACK
6
CONTINUOUS
10
6.37707
20
-3.73033
11
6.38057
21
-3.73639
0
LINE
8
BLACK
6
CONTINUOUS
10
6.38057
20
-3.73639
11
6.38273
21
-3.74304
0
LINE
8
BLACK
6
CONTINUOUS
10
6.38273
20
-3.74304
11
6.38346
21
-3.75
0
LINE
8
BLACK
6
CONTINUOUS
10
6.38346
20
-3.75
11
6.38273
21
-3.75696
0
LINE
8
BLACK
6
CONTINUOUS
10
6.38273
20
-3.75696
11
6.38057
21
-3.76361
0
LINE
8
BLACK
6
CONTINUOUS
10
6.38057
20
-3.76361
11
6.37707
21
-3.76967
0
LINE
8
BLACK
6
CONTINUOUS
10
6.37707
20
-3.76967
11
6.37239
21
-3.77487
0
LINE
8
BLACK
6
CONTINUOUS
10
6.37239
20
-3.77487
11
6.36673
21
-3.77898
0
LINE
8
BLACK
6
CONTINUOUS
10
6.36673
20
-3.77898
11
6.36034
21
-3.78183
0
LINE
8
BLACK
6
CONTINUOUS
10
6.36034
20
-3.78183
11
6.3535
21
-3.78328
0
LINE
8
BLACK
6
CONTINUOUS
10
6.3535
20
-3.78328
11
6.3465
21
-3.78328
0
LINE
8
BLACK
6
CONTINUOUS
10
6.3465
20
-3.78328
11
6.33966
21
-3.78183
0
LINE
8
BLACK
6
CONTINUOUS
10
6.33966
20
-3.78183
11
6.33327
21
-3.77898
0
LINE
8
BLACK
6
CONTINUOUS
10
6.33327
20
-3.77898
11
6.32761
21
-3.77487
0
LINE
8
BLACK
6
CONTINUOUS
10
6.32761
20
-3.77487
11
6.32293
21
-3.76967
0
LINE
8
BLACK
6
CONTINUOUS
10
6.32293
20
-3.76967
11
6.31943
21
-3.76361
0
LINE
8
BLACK
6
CONTINUOUS
10
6.31943
20
-3.76361
11
6.31727
21
-3.75696
0
LINE
8
BLACK
6
CONTINUOUS
10
6.31727
20
-3.75696
11
6.31654
21
-3.75
0
LINE
8
BLACK
6
CONTINUOUS
10
6.31654
20
-3.75
11
6.31727
21
-3.74304
0
LINE
8
BLACK
6
CONTINUOUS
10
6.31727
20
-3.74304
11
6.31943
21
-3.73639
0
LINE
8
BLACK
6
CONTINUOUS
10
6.31943
20
-3.73639
11
6.32293
21
-3.73033
0
LINE
8
BLACK
6
CONTINUOUS
10
6.32293
20
-3.73033
11
6.32761
21
-3.72513
0
LINE
8
BLACK
6
CONTINUOUS
10
6.32761
20
-3.72513
11
6.33327
21
-3.72102
0
LINE
8
BLACK
6
CONTINUOUS
10
6.33327
20
-3.72102
11
6.33966
21
-3.71817
0
LINE
8
BLACK
6
CONTINUOUS
10
6.33966
20
-3.71817
11
6.3465
21
-3.71672
0
LINE
8
BLACK
6
CONTINUOUS
10
6.3465
20
-3.71672
11
6.3535
21
-3.71672
0
LINE
8
BLACK
6
CONTINUOUS
10
6.3535
20
-3.71672
11
6.36034
21
-3.71817
0
LINE
8
BLACK
6
CONTINUOUS
10
5.97987
20
-3.53502
11
5.98426
21
-3.53726
0
LINE
8
BLACK
6
CONTINUOUS
10
5.98426
20
-3.53726
11
5.98774
21
-3.54074
0
LINE
8
BLACK
6
CONTINUOUS
10
5.98774
20
-3.54074
11
5.98998
21
-3.54513
0
LINE
8
BLACK
6
CONTINUOUS
10
5.98998
20
-3.54513
11
5.99075
21
-3.55
0
LINE
8
BLACK
6
CONTINUOUS
10
5.99075
20
-3.55
11
5.98998
21
-3.55487
0
LINE
8
BLACK
6
CONTINUOUS
10
5.98998
20
-3.55487
11
5.98774
21
-3.55926
0
LINE
8
BLACK
6
CONTINUOUS
10
5.98774
20
-3.55926
11
5.98426
21
-3.56274
0
LINE
8
BLACK
6
CONTINUOUS
10
5.98426
20
-3.56274
11
5.97987
21
-3.56498
0
LINE
8
BLACK
6
CONTINUOUS
10
5.97987
20
-3.56498
11
5.975
21
-3.56575
0
LINE
8
BLACK
6
CONTINUOUS
10
5.975
20
-3.56575
11
5.97013
21
-3.56498
0
LINE
8
BLACK
6
CONTINUOUS
10
5.97013
20
-3.56498
11
5.96574
21
-3.56274
0
LINE
8
BLACK
6
CONTINUOUS
10
5.96574
20
-3.56274
11
5.96226
21
-3.55926
0
LINE
8
BLACK
6
CONTINUOUS
10
5.96226
20
-3.55926
11
5.96136
21
-3.5575
0
LINE
8
BLACK
6
CONTINUOUS
10
5.96136
20
-3.5575
11
5.72811
21
-3.5575
0
LINE
8
BLACK
6
CONTINUOUS
10
5.72811
20
-3.5575
11
5.7075
21
-3.57811
0
LINE
8
BLACK
6
CONTINUOUS
10
5.7075
20
-3.57811
11
5.7075
21
-3.67189
0
LINE
8
BLACK
6
CONTINUOUS
10
5.7075
20
-3.67189
11
5.72056
21
-3.68495
0
LINE
8
BLACK
6
CONTINUOUS
10
5.72056
20
-3.68495
11
5.725
21
-3.68425
0
LINE
8
BLACK
6
CONTINUOUS
10
5.725
20
-3.68425
11
5.72987
21
-3.68502
0
LINE
8
BLACK
6
CONTINUOUS
10
5.72987
20
-3.68502
11
5.73426
21
-3.68726
0
LINE
8
BLACK
6
CONTINUOUS
10
5.73426
20
-3.68726
11
5.73774
21
-3.69074
0
LINE
8
BLACK
6
CONTINUOUS
10
5.73774
20
-3.69074
11
5.73998
21
-3.69513
0
LINE
8
BLACK
6
CONTINUOUS
10
5.73998
20
-3.69513
11
5.74075
21
-3.7
0
LINE
8
BLACK
6
CONTINUOUS
10
5.74075
20
-3.7
11
5.73998
21
-3.70487
0
LINE
8
BLACK
6
CONTINUOUS
10
5.73998
20
-3.70487
11
5.73774
21
-3.70926
0
LINE
8
BLACK
6
CONTINUOUS
10
5.73774
20
-3.70926
11
5.73426
21
-3.71274
0
LINE
8
BLACK
6
CONTINUOUS
10
5.73426
20
-3.71274
11
5.72987
21
-3.71498
0
LINE
8
BLACK
6
CONTINUOUS
10
5.72987
20
-3.71498
11
5.725
21
-3.71575
0
LINE
8
BLACK
6
CONTINUOUS
10
5.725
20
-3.71575
11
5.72013
21
-3.71498
0
LINE
8
BLACK
6
CONTINUOUS
10
5.72013
20
-3.71498
11
5.71574
21
-3.71274
0
LINE
8
BLACK
6
CONTINUOUS
10
5.71574
20
-3.71274
11
5.71226
21
-3.70926
0
LINE
8
BLACK
6
CONTINUOUS
10
5.71226
20
-3.70926
11
5.71002
21
-3.70487
0
LINE
8
BLACK
6
CONTINUOUS
10
5.71002
20
-3.70487
11
5.70925
21
-3.7
0
LINE
8
BLACK
6
CONTINUOUS
10
5.70925
20
-3.7
11
5.70995
21
-3.69556
0
LINE
8
BLACK
6
CONTINUOUS
10
5.70995
20
-3.69556
11
5.69469
21
-3.68029
0
LINE
8
BLACK
6
CONTINUOUS
10
5.69469
20
-3.68029
11
5.69402
21
-3.67923
0
LINE
8
BLACK
6
CONTINUOUS
10
5.69402
20
-3.67923
11
5.69324
21
-3.67825
0
LINE
8
BLACK
6
CONTINUOUS
10
5.69324
20
-3.67825
11
5.69315
21
-3.67783
0
LINE
8
BLACK
6
CONTINUOUS
10
5.69315
20
-3.67783
11
5.69292
21
-3.67747
0
LINE
8
BLACK
6
CONTINUOUS
10
5.69292
20
-3.67747
11
5.69278
21
-3.67622
0
LINE
8
BLACK
6
CONTINUOUS
10
5.69278
20
-3.67622
11
5.6925
21
-3.675
0
LINE
8
BLACK
6
CONTINUOUS
10
5.6925
20
-3.675
11
5.6925
21
-3.57499
0
LINE
8
BLACK
6
CONTINUOUS
10
5.6925
20
-3.57499
11
5.69278
21
-3.57377
0
LINE
8
BLACK
6
CONTINUOUS
10
5.69278
20
-3.57377
11
5.69292
21
-3.57252
0
LINE
8
BLACK
6
CONTINUOUS
10
5.69292
20
-3.57252
11
5.69315
21
-3.57216
0
LINE
8
BLACK
6
CONTINUOUS
10
5.69315
20
-3.57216
11
5.69325
21
-3.57174
0
LINE
8
BLACK
6
CONTINUOUS
10
5.69325
20
-3.57174
11
5.69403
21
-3.57076
0
LINE
8
BLACK
6
CONTINUOUS
10
5.69403
20
-3.57076
11
5.6947
21
-3.5697
0
LINE
8
BLACK
6
CONTINUOUS
10
5.6947
20
-3.5697
11
5.71971
21
-3.54469
0
LINE
8
BLACK
6
CONTINUOUS
10
5.71971
20
-3.54469
11
5.72077
21
-3.54402
0
LINE
8
BLACK
6
CONTINUOUS
10
5.72077
20
-3.54402
11
5.72175
21
-3.54324
0
LINE
8
BLACK
6
CONTINUOUS
10
5.72175
20
-3.54324
11
5.72217
21
-3.54315
0
LINE
8
BLACK
6
CONTINUOUS
10
5.72217
20
-3.54315
11
5.72253
21
-3.54292
0
LINE
8
BLACK
6
CONTINUOUS
10
5.72253
20
-3.54292
11
5.72378
21
-3.54278
0
LINE
8
BLACK
6
CONTINUOUS
10
5.72378
20
-3.54278
11
5.725
21
-3.5425
0
LINE
8
BLACK
6
CONTINUOUS
10
5.725
20
-3.5425
11
5.96136
21
-3.5425
0
LINE
8
BLACK
6
CONTINUOUS
10
5.96136
20
-3.5425
11
5.96226
21
-3.54074
0
LINE
8
BLACK
6
CONTINUOUS
10
5.96226
20
-3.54074
11
5.96574
21
-3.53726
0
LINE
8
BLACK
6
CONTINUOUS
10
5.96574
20
-3.53726
11
5.97013
21
-3.53502
0
LINE
8
BLACK
6
CONTINUOUS
10
5.97013
20
-3.53502
11
5.975
21
-3.53425
0
LINE
8
BLACK
6
CONTINUOUS
10
5.975
20
-3.53425
11
5.97987
21
-3.53502
0
LINE
8
BLACK
6
CONTINUOUS
10
6.15487
20
-3.38502
11
6.15926
21
-3.38726
0
LINE
8
BLACK
6
CONTINUOUS
10
6.15926
20
-3.38726
11
6.16274
21
-3.39074
0
LINE
8
BLACK
6
CONTINUOUS
10
6.16274
20
-3.39074
11
6.16498
21
-3.39513
0
LINE
8
BLACK
6
CONTINUOUS
10
6.16498
20
-3.39513
11
6.16575
21
-3.4
0
LINE
8
BLACK
6
CONTINUOUS
10
6.16575
20
-3.4
11
6.16498
21
-3.40487
0
LINE
8
BLACK
6
CONTINUOUS
10
6.16498
20
-3.40487
11
6.16274
21
-3.40926
0
LINE
8
BLACK
6
CONTINUOUS
10
6.16274
20
-3.40926
11
6.15926
21
-3.41274
0
LINE
8
BLACK
6
CONTINUOUS
10
6.15926
20
-3.41274
11
6.1575
21
-3.41364
0
LINE
8
BLACK
6
CONTINUOUS
10
6.1575
20
-3.41364
11
6.1575
21
-3.52189
0
LINE
8
BLACK
6
CONTINUOUS
10
6.1575
20
-3.52189
11
6.27811
21
-3.6425
0
LINE
8
BLACK
6
CONTINUOUS
10
6.27811
20
-3.6425
11
6.31744
21
-3.6425
0
LINE
8
BLACK
6
CONTINUOUS
10
6.31744
20
-3.6425
11
6.31943
21
-3.63639
0
LINE
8
BLACK
6
CONTINUOUS
10
6.31943
20
-3.63639
11
6.32293
21
-3.63033
0
LINE
8
BLACK
6
CONTINUOUS
10
6.32293
20
-3.63033
11
6.32761
21
-3.62513
0
LINE
8
BLACK
6
CONTINUOUS
10
6.32761
20
-3.62513
11
6.33327
21
-3.62102
0
LINE
8
BLACK
6
CONTINUOUS
10
6.33327
20
-3.62102
11
6.33966
21
-3.61817
0
LINE
8
BLACK
6
CONTINUOUS
10
6.33966
20
-3.61817
11
6.3465
21
-3.61672
0
LINE
8
BLACK
6
CONTINUOUS
10
6.3465
20
-3.61672
11
6.3535
21
-3.61672
0
LINE
8
BLACK
6
CONTINUOUS
10
6.3535
20
-3.61672
11
6.36034
21
-3.61817
0
LINE
8
BLACK
6
CONTINUOUS
10
6.36034
20
-3.61817
11
6.36673
21
-3.62102
0
LINE
8
BLACK
6
CONTINUOUS
10
6.36673
20
-3.62102
11
6.37239
21
-3.62513
0
LINE
8
BLACK
6
CONTINUOUS
10
6.37239
20
-3.62513
11
6.37707
21
-3.63033
0
LINE
8
BLACK
6
CONTINUOUS
10
6.37707
20
-3.63033
11
6.38057
21
-3.63639
0
LINE
8
BLACK
6
CONTINUOUS
10
6.38057
20
-3.63639
11
6.38273
21
-3.64304
0
LINE
8
BLACK
6
CONTINUOUS
10
6.38273
20
-3.64304
11
6.38346
21
-3.65
0
LINE
8
BLACK
6
CONTINUOUS
10
6.38346
20
-3.65
11
6.38273
21
-3.65696
0
LINE
8
BLACK
6
CONTINUOUS
10
6.38273
20
-3.65696
11
6.38057
21
-3.66361
0
LINE
8
BLACK
6
CONTINUOUS
10
6.38057
20
-3.66361
11
6.37707
21
-3.66967
0
LINE
8
BLACK
6
CONTINUOUS
10
6.37707
20
-3.66967
11
6.37239
21
-3.67487
0
LINE
8
BLACK
6
CONTINUOUS
10
6.37239
20
-3.67487
11
6.36673
21
-3.67898
0
LINE
8
BLACK
6
CONTINUOUS
10
6.36673
20
-3.67898
11
6.36034
21
-3.68183
0
LINE
8
BLACK
6
CONTINUOUS
10
6.36034
20
-3.68183
11
6.3535
21
-3.68328
0
LINE
8
BLACK
6
CONTINUOUS
10
6.3535
20
-3.68328
11
6.3465
21
-3.68328
0
LINE
8
BLACK
6
CONTINUOUS
10
6.3465
20
-3.68328
11
6.33966
21
-3.68183
0
LINE
8
BLACK
6
CONTINUOUS
10
6.33966
20
-3.68183
11
6.33327
21
-3.67898
0
LINE
8
BLACK
6
CONTINUOUS
10
6.33327
20
-3.67898
11
6.32761
21
-3.67487
0
LINE
8
BLACK
6
CONTINUOUS
10
6.32761
20
-3.67487
11
6.32293
21
-3.66967
0
LINE
8
BLACK
6
CONTINUOUS
10
6.32293
20
-3.66967
11
6.31943
21
-3.66361
0
LINE
8
BLACK
6
CONTINUOUS
10
6.31943
20
-3.66361
11
6.31744
21
-3.6575
0
LINE
8
BLACK
6
CONTINUOUS
10
6.31744
20
-3.6575
11
6.27499
21
-3.6575
0
LINE
8
BLACK
6
CONTINUOUS
10
6.27499
20
-3.6575
11
6.27377
21
-3.65722
0
LINE
8
BLACK
6
CONTINUOUS
10
6.27377
20
-3.65722
11
6.27252
21
-3.65708
0
LINE
8
BLACK
6
CONTINUOUS
10
6.27252
20
-3.65708
11
6.27216
21
-3.65685
0
LINE
8
BLACK
6
CONTINUOUS
10
6.27216
20
-3.65685
11
6.27174
21
-3.65675
0
LINE
8
BLACK
6
CONTINUOUS
10
6.27174
20
-3.65675
11
6.27076
21
-3.65597
0
LINE
8
BLACK
6
CONTINUOUS
10
6.27076
20
-3.65597
11
6.2697
21
-3.6553
0
LINE
8
BLACK
6
CONTINUOUS
10
6.2697
20
-3.6553
11
6.14469
21
-3.53029
0
LINE
8
BLACK
6
CONTINUOUS
10
6.14469
20
-3.53029
11
6.14402
21
-3.52923
0
LINE
8
BLACK
6
CONTINUOUS
10
6.14402
20
-3.52923
11
6.14324
21
-3.52825
0
LINE
8
BLACK
6
CONTINUOUS
10
6.14324
20
-3.52825
11
6.14315
21
-3.52783
0
LINE
8
BLACK
6
CONTINUOUS
10
6.14315
20
-3.52783
11
6.14292
21
-3.52747
0
LINE
8
BLACK
6
CONTINUOUS
10
6.14292
20
-3.52747
11
6.14278
21
-3.52622
0
LINE
8
BLACK
6
CONTINUOUS
10
6.14278
20
-3.52622
11
6.1425
21
-3.525
0
LINE
8
BLACK
6
CONTINUOUS
10
6.1425
20
-3.525
11
6.1425
21
-3.41364
0
LINE
8
BLACK
6
CONTINUOUS
10
6.1425
20
-3.41364
11
6.14074
21
-3.41274
0
LINE
8
BLACK
6
CONTINUOUS
10
6.14074
20
-3.41274
11
6.13726
21
-3.40926
0
LINE
8
BLACK
6
CONTINUOUS
10
6.13726
20
-3.40926
11
6.13502
21
-3.40487
0
LINE
8
BLACK
6
CONTINUOUS
10
6.13502
20
-3.40487
11
6.13425
21
-3.4
0
LINE
8
BLACK
6
CONTINUOUS
10
6.13425
20
-3.4
11
6.13502
21
-3.39513
0
LINE
8
BLACK
6
CONTINUOUS
10
6.13502
20
-3.39513
11
6.13726
21
-3.39074
0
LINE
8
BLACK
6
CONTINUOUS
10
6.13726
20
-3.39074
11
6.14074
21
-3.38726
0
LINE
8
BLACK
6
CONTINUOUS
10
6.14074
20
-3.38726
11
6.14513
21
-3.38502
0
LINE
8
BLACK
6
CONTINUOUS
10
6.14513
20
-3.38502
11
6.15
21
-3.38425
0
LINE
8
BLACK
6
CONTINUOUS
10
6.15
20
-3.38425
11
6.15487
21
-3.38502
0
LINE
8
BLACK
6
CONTINUOUS
10
6.36034
20
-3.51817
11
6.36673
21
-3.52102
0
LINE
8
BLACK
6
CONTINUOUS
10
6.36673
20
-3.52102
11
6.37239
21
-3.52513
0
LINE
8
BLACK
6
CONTINUOUS
10
6.37239
20
-3.52513
11
6.37707
21
-3.53033
0
LINE
8
BLACK
6
CONTINUOUS
10
6.37707
20
-3.53033
11
6.38057
21
-3.53639
0
LINE
8
BLACK
6
CONTINUOUS
10
6.38057
20
-3.53639
11
6.38273
21
-3.54304
0
LINE
8
BLACK
6
CONTINUOUS
10
6.38273
20
-3.54304
11
6.38346
21
-3.55
0
LINE
8
BLACK
6
CONTINUOUS
10
6.38346
20
-3.55
11
6.38273
21
-3.55696
0
LINE
8
BLACK
6
CONTINUOUS
10
6.38273
20
-3.55696
11
6.38057
21
-3.56361
0
LINE
8
BLACK
6
CONTINUOUS
10
6.38057
20
-3.56361
11
6.37707
21
-3.56967
0
LINE
8
BLACK
6
CONTINUOUS
10
6.37707
20
-3.56967
11
6.37239
21
-3.57487
0
LINE
8
BLACK
6
CONTINUOUS
10
6.37239
20
-3.57487
11
6.36673
21
-3.57898
0
LINE
8
BLACK
6
CONTINUOUS
10
6.36673
20
-3.57898
11
6.36034
21
-3.58183
0
LINE
8
BLACK
6
CONTINUOUS
10
6.36034
20
-3.58183
11
6.3535
21
-3.58328
0
LINE
8
BLACK
6
CONTINUOUS
10
6.3535
20
-3.58328
11
6.3465
21
-3.58328
0
LINE
8
BLACK
6
CONTINUOUS
10
6.3465
20
-3.58328
11
6.33966
21
-3.58183
0
LINE
8
BLACK
6
CONTINUOUS
10
6.33966
20
-3.58183
11
6.33327
21
-3.57898
0
LINE
8
BLACK
6
CONTINUOUS
10
6.33327
20
-3.57898
11
6.32761
21
-3.57487
0
LINE
8
BLACK
6
CONTINUOUS
10
6.32761
20
-3.57487
11
6.32293
21
-3.56967
0
LINE
8
BLACK
6
CONTINUOUS
10
6.32293
20
-3.56967
11
6.31943
21
-3.56361
0
LINE
8
BLACK
6
CONTINUOUS
10
6.31943
20
-3.56361
11
6.31727
21
-3.55696
0
LINE
8
BLACK
6
CONTINUOUS
10
6.31727
20
-3.55696
11
6.31654
21
-3.55
0
LINE
8
BLACK
6
CONTINUOUS
10
6.31654
20
-3.55
11
6.31727
21
-3.54304
0
LINE
8
BLACK
6
CONTINUOUS
10
6.31727
20
-3.54304
11
6.31943
21
-3.53639
0
LINE
8
BLACK
6
CONTINUOUS
10
6.31943
20
-3.53639
11
6.32293
21
-3.53033
0
LINE
8
BLACK
6
CONTINUOUS
10
6.32293
20
-3.53033
11
6.32761
21
-3.52513
0
LINE
8
BLACK
6
CONTINUOUS
10
6.32761
20
-3.52513
11
6.33327
21
-3.52102
0
LINE
8
BLACK
6
CONTINUOUS
10
6.33327
20
-3.52102
11
6.33966
21
-3.51817
0
LINE
8
BLACK
6
CONTINUOUS
10
6.33966
20
-3.51817
11
6.3465
21
-3.51672
0
LINE
8
BLACK
6
CONTINUOUS
10
6.3465
20
-3.51672
11
6.3535
21
-3.51672
0
LINE
8
BLACK
6
CONTINUOUS
10
6.3535
20
-3.51672
11
6.36034
21
-3.51817
0
LINE
8
BLACK
6
CONTINUOUS
10
3.78346
20
-3.53346
11
3.71654
21
-3.53346
0
LINE
8
BLACK
6
CONTINUOUS
10
3.71654
20
-3.53346
11
3.71654
21
-3.46654
0
LINE
8
BLACK
6
CONTINUOUS
10
3.71654
20
-3.46654
11
3.78346
21
-3.46654
0
LINE
8
BLACK
6
CONTINUOUS
10
3.78346
20
-3.46654
11
3.78346
21
-3.53346
0
LINE
8
BLACK
6
CONTINUOUS
10
4.23346
20
-3.53346
11
4.16654
21
-3.53346
0
LINE
8
BLACK
6
CONTINUOUS
10
4.16654
20
-3.53346
11
4.16654
21
-3.46654
0
LINE
8
BLACK
6
CONTINUOUS
10
4.16654
20
-3.46654
11
4.23346
21
-3.46654
0
LINE
8
BLACK
6
CONTINUOUS
10
4.23346
20
-3.46654
11
4.23346
21
-3.53346
0
LINE
8
BLACK
6
CONTINUOUS
10
4.08346
20
-3.53346
11
4.01654
21
-3.53346
0
LINE
8
BLACK
6
CONTINUOUS
10
4.01654
20
-3.53346
11
4.01654
21
-3.46654
0
LINE
8
BLACK
6
CONTINUOUS
10
4.01654
20
-3.46654
11
4.08346
21
-3.46654
0
LINE
8
BLACK
6
CONTINUOUS
10
4.08346
20
-3.46654
11
4.08346
21
-3.53346
0
LINE
8
BLACK
6
CONTINUOUS
10
3.23346
20
-3.53346
11
3.16654
21
-3.53346
0
LINE
8
BLACK
6
CONTINUOUS
10
3.16654
20
-3.53346
11
3.16654
21
-3.46654
0
LINE
8
BLACK
6
CONTINUOUS
10
3.16654
20
-3.46654
11
3.23346
21
-3.46654
0
LINE
8
BLACK
6
CONTINUOUS
10
3.23346
20
-3.46654
11
3.23346
21
-3.53346
0
LINE
8
BLACK
6
CONTINUOUS
10
6.36034
20
-3.41817
11
6.36673
21
-3.42102
0
LINE
8
BLACK
6
CONTINUOUS
10
6.36673
20
-3.42102
11
6.37239
21
-3.42513
0
LINE
8
BLACK
6
CONTINUOUS
10
6.37239
20
-3.42513
11
6.37707
21
-3.43033
0
LINE
8
BLACK
6
CONTINUOUS
10
6.37707
20
-3.43033
11
6.38057
21
-3.43639
0
LINE
8
BLACK
6
CONTINUOUS
10
6.38057
20
-3.43639
11
6.38273
21
-3.44304
0
LINE
8
BLACK
6
CONTINUOUS
10
6.38273
20
-3.44304
11
6.38346
21
-3.45
0
LINE
8
BLACK
6
CONTINUOUS
10
6.38346
20
-3.45
11
6.38273
21
-3.45696
0
LINE
8
BLACK
6
CONTINUOUS
10
6.38273
20
-3.45696
11
6.38057
21
-3.46361
0
LINE
8
BLACK
6
CONTINUOUS
10
6.38057
20
-3.46361
11
6.37707
21
-3.46967
0
LINE
8
BLACK
6
CONTINUOUS
10
6.37707
20
-3.46967
11
6.37239
21
-3.47487
0
LINE
8
BLACK
6
CONTINUOUS
10
6.37239
20
-3.47487
11
6.36673
21
-3.47898
0
LINE
8
BLACK
6
CONTINUOUS
10
6.36673
20
-3.47898
11
6.36034
21
-3.48183
0
LINE
8
BLACK
6
CONTINUOUS
10
6.36034
20
-3.48183
11
6.3535
21
-3.48328
0
LINE
8
BLACK
6
CONTINUOUS
10
6.3535
20
-3.48328
11
6.3465
21
-3.48328
0
LINE
8
BLACK
6
CONTINUOUS
10
6.3465
20
-3.48328
11
6.33966
21
-3.48183
0
LINE
8
BLACK
6
CONTINUOUS
10
6.33966
20
-3.48183
11
6.33327
21
-3.47898
0
LINE
8
BLACK
6
CONTINUOUS
10
6.33327
20
-3.47898
11
6.32761
21
-3.47487
0
LINE
8
BLACK
6
CONTINUOUS
10
6.32761
20
-3.47487
11
6.32293
21
-3.46967
0
LINE
8
BLACK
6
CONTINUOUS
10
6.32293
20
-3.46967
11
6.31943
21
-3.46361
0
LINE
8
BLACK
6
CONTINUOUS
10
6.31943
20
-3.46361
11
6.31727
21
-3.45696
0
LINE
8
BLACK
6
CONTINUOUS
10
6.31727
20
-3.45696
11
6.31654
21
-3.45
0
LINE
8
BLACK
6
CONTINUOUS
10
6.31654
20
-3.45
11
6.31727
21
-3.44304
0
LINE
8
BLACK
6
CONTINUOUS
10
6.31727
20
-3.44304
11
6.31943
21
-3.43639
0
LINE
8
BLACK
6
CONTINUOUS
10
6.31943
20
-3.43639
11
6.32293
21
-3.43033
0
LINE
8
BLACK
6
CONTINUOUS
10
6.32293
20
-3.43033
11
6.32761
21
-3.42513
0
LINE
8
BLACK
6
CONTINUOUS
10
6.32761
20
-3.42513
11
6.33327
21
-3.42102
0
LINE
8
BLACK
6
CONTINUOUS
10
6.33327
20
-3.42102
11
6.33966
21
-3.41817
0
LINE
8
BLACK
6
CONTINUOUS
10
6.33966
20
-3.41817
11
6.3465
21
-3.41672
0
LINE
8
BLACK
6
CONTINUOUS
10
6.3465
20
-3.41672
11
6.3535
21
-3.41672
0
LINE
8
BLACK
6
CONTINUOUS
10
6.3535
20
-3.41672
11
6.36034
21
-3.41817
0
CIRCLE
8
BLACK
10
5.175
20
-3.725
40
0.00787402
0
CIRCLE
8
BLACK
10
5.825
20
-4.1
40
0.00787402
0
CIRCLE
8
BLACK
10
6.1
20
-4.075
40
0.00787402
0
CIRCLE
8
BLACK
10
5.925
20
-3.95
40
0.00787402
0
CIRCLE
8
BLACK
10
4.375
20
-4.475
40
0.00787402
0
CIRCLE
8
BLACK
10
4.1
20
-4.5
40
0.00787402
0
CIRCLE
8
BLACK
10
4.1
20
-4.675
40
0.00787402
0
CIRCLE
8
BLACK
10
4.425
20
-3.725
40
0.00787402
0
CIRCLE
8
BLACK
10
4.42067
20
-4.02067
40
0.00787402
0
CIRCLE
8
BLACK
10
3.85
20
-3.825
40
0.00787402
0
CIRCLE
8
BLACK
10
3.625
20
-3.975
40
0.00787402
0
CIRCLE
8
BLACK
10
4.175
20
-4.225
40
0.00787402
0
CIRCLE
8
BLACK
10
4.175
20
-4.425
40
0.00787402
0
CIRCLE
8
BLACK
10
3.6
20
-4.625
40
0.00787402
0
CIRCLE
8
BLACK
10
4.2
20
-4.575
40
0.00787402
0
CIRCLE
8
BLACK
10
4.50634
20
-4.41643
40
0.00787402
0
CIRCLE
8
BLACK
10
4.525
20
-4.625
40
0.00787402
0
CIRCLE
8
BLACK
10
4.525
20
-4.475
40
0.00787402
0
CIRCLE
8
BLACK
10
5.875
20
-4.45
40
0.00787402
0
CIRCLE
8
BLACK
10
5.2
20
-4.6
40
0.00787402
0
CIRCLE
8
BLACK
10
5.7
20
-4.625
40
0.00787402
0
CIRCLE
8
BLACK
10
5.95
20
-4.5
40
0.00787402
0
CIRCLE
8
BLACK
10
6.3
20
-4.35603
40
0.00787402
0
CIRCLE
8
BLACK
10
5.75
20
-3.625
40
0.00787402
0
CIRCLE
8
BLACK
10
4.55
20
-4.3
40
0.00787402
0
CIRCLE
8
BLACK
10
6.075
20
-3.85
40
0.00787402
0
CIRCLE
8
BLACK
10
6.35
20
-4.325
40
0.00787402
0
CIRCLE
8
BLACK
10
6
20
-4.625
40
0.00787402
0
CIRCLE
8
BLACK
10
6.1
20
-4.45
40
0.00787402
0
CIRCLE
8
BLACK
10
6.15
20
-3.4
40
0.00787402
0
CIRCLE
8
BLACK
10
5.975
20
-3.55
40
0.00787402
0
CIRCLE
8
BLACK
10
5.725
20
-3.7
40
0.00787402
  0
ENDSEC
  0
EOF
