%TF.GenerationSoftware,KiCad,Pcbnew,6.0.11+dfsg-1*%
%TF.CreationDate,2023-10-20T18:47:01+02:00*%
%TF.ProjectId,5x100A,35783130-3041-42e6-9b69-6361645f7063,rev?*%
%TF.SameCoordinates,Original*%
%TF.FileFunction,Soldermask,Bot*%
%TF.FilePolarity,Negative*%
%FSLAX46Y46*%
G04 Gerber Fmt 4.6, Leading zero omitted, Abs format (unit mm)*
G04 Created by KiCad (PCBNEW 6.0.11+dfsg-1) date 2023-10-20 18:47:01*
%MOMM*%
%LPD*%
G01*
G04 APERTURE LIST*
G04 Aperture macros list*
%AMRoundRect*
0 Rectangle with rounded corners*
0 $1 Rounding radius*
0 $2 $3 $4 $5 $6 $7 $8 $9 X,Y pos of 4 corners*
0 Add a 4 corners polygon primitive as box body*
4,1,4,$2,$3,$4,$5,$6,$7,$8,$9,$2,$3,0*
0 Add four circle primitives for the rounded corners*
1,1,$1+$1,$2,$3*
1,1,$1+$1,$4,$5*
1,1,$1+$1,$6,$7*
1,1,$1+$1,$8,$9*
0 Add four rect primitives between the rounded corners*
20,1,$1+$1,$2,$3,$4,$5,0*
20,1,$1+$1,$4,$5,$6,$7,0*
20,1,$1+$1,$6,$7,$8,$9,0*
20,1,$1+$1,$8,$9,$2,$3,0*%
G04 Aperture macros list end*
%ADD10R,1.700000X1.700000*%
%ADD11O,1.700000X1.700000*%
%ADD12RoundRect,0.250000X-0.620000X-0.845000X0.620000X-0.845000X0.620000X0.845000X-0.620000X0.845000X0*%
%ADD13O,1.740000X2.190000*%
G04 APERTURE END LIST*
D10*
%TO.C,J13*%
X161290000Y-100330000D03*
D11*
X161290000Y-97790000D03*
X161290000Y-95250000D03*
X161290000Y-92710000D03*
X161290000Y-90170000D03*
X161290000Y-87630000D03*
%TD*%
D10*
%TO.C,J4*%
X95250000Y-111760000D03*
%TD*%
D12*
%TO.C,J9*%
X115570000Y-127000000D03*
D13*
X118110000Y-127000000D03*
X120650000Y-127000000D03*
X123190000Y-127000000D03*
%TD*%
D12*
%TO.C,J11*%
X155575000Y-127000000D03*
D13*
X158115000Y-127000000D03*
X160655000Y-127000000D03*
X163195000Y-127000000D03*
%TD*%
D10*
%TO.C,J8*%
X136515000Y-113030000D03*
D11*
X133975000Y-113030000D03*
X131435000Y-113030000D03*
X128895000Y-113030000D03*
%TD*%
D12*
%TO.C,J12*%
X142240000Y-127000000D03*
D13*
X144780000Y-127000000D03*
X147320000Y-127000000D03*
X149860000Y-127000000D03*
%TD*%
D10*
%TO.C,J2*%
X102870000Y-88900000D03*
%TD*%
D12*
%TO.C,J10*%
X128905000Y-127000000D03*
D13*
X131445000Y-127000000D03*
X133985000Y-127000000D03*
X136525000Y-127000000D03*
%TD*%
D10*
%TO.C,J14*%
X106680000Y-88900000D03*
%TD*%
%TO.C,J15*%
X95250000Y-88900000D03*
%TD*%
D12*
%TO.C,J5*%
X75565000Y-127000000D03*
D13*
X78105000Y-127000000D03*
X80645000Y-127000000D03*
X83185000Y-127000000D03*
%TD*%
D12*
%TO.C,J7*%
X102235000Y-127020000D03*
D13*
X104775000Y-127020000D03*
X107315000Y-127020000D03*
X109855000Y-127020000D03*
%TD*%
D10*
%TO.C,J3*%
X81280000Y-111760000D03*
%TD*%
D12*
%TO.C,J6*%
X88900000Y-127020000D03*
D13*
X91440000Y-127020000D03*
X93980000Y-127020000D03*
X96520000Y-127020000D03*
%TD*%
D10*
%TO.C,J1*%
X81280000Y-88900000D03*
%TD*%
M02*
