%TF.GenerationSoftware,KiCad,Pcbnew,6.0.11+dfsg-1*%
%TF.CreationDate,2023-10-20T18:47:01+02:00*%
%TF.ProjectId,5x100A,35783130-3041-42e6-9b69-6361645f7063,rev?*%
%TF.SameCoordinates,Original*%
%TF.FileFunction,Copper,L1,Top*%
%TF.FilePolarity,Positive*%
%FSLAX46Y46*%
G04 Gerber Fmt 4.6, Leading zero omitted, Abs format (unit mm)*
G04 Created by KiCad (PCBNEW 6.0.11+dfsg-1) date 2023-10-20 18:47:01*
%MOMM*%
%LPD*%
G01*
G04 APERTURE LIST*
G04 Aperture macros list*
%AMRoundRect*
0 Rectangle with rounded corners*
0 $1 Rounding radius*
0 $2 $3 $4 $5 $6 $7 $8 $9 X,Y pos of 4 corners*
0 Add a 4 corners polygon primitive as box body*
4,1,4,$2,$3,$4,$5,$6,$7,$8,$9,$2,$3,0*
0 Add four circle primitives for the rounded corners*
1,1,$1+$1,$2,$3*
1,1,$1+$1,$4,$5*
1,1,$1+$1,$6,$7*
1,1,$1+$1,$8,$9*
0 Add four rect primitives between the rounded corners*
20,1,$1+$1,$2,$3,$4,$5,0*
20,1,$1+$1,$4,$5,$6,$7,0*
20,1,$1+$1,$6,$7,$8,$9,0*
20,1,$1+$1,$8,$9,$2,$3,0*%
G04 Aperture macros list end*
%TA.AperFunction,SMDPad,CuDef*%
%ADD10R,2.500000X1.000000*%
%TD*%
%TA.AperFunction,SMDPad,CuDef*%
%ADD11R,1.000000X1.800000*%
%TD*%
%TA.AperFunction,SMDPad,CuDef*%
%ADD12RoundRect,0.250000X0.325000X0.650000X-0.325000X0.650000X-0.325000X-0.650000X0.325000X-0.650000X0*%
%TD*%
%TA.AperFunction,ComponentPad*%
%ADD13R,1.700000X1.700000*%
%TD*%
%TA.AperFunction,ComponentPad*%
%ADD14O,1.700000X1.700000*%
%TD*%
%TA.AperFunction,SMDPad,CuDef*%
%ADD15R,2.000000X1.500000*%
%TD*%
%TA.AperFunction,SMDPad,CuDef*%
%ADD16R,2.000000X3.800000*%
%TD*%
%TA.AperFunction,SMDPad,CuDef*%
%ADD17RoundRect,0.250000X-0.250000X-0.475000X0.250000X-0.475000X0.250000X0.475000X-0.250000X0.475000X0*%
%TD*%
%TA.AperFunction,SMDPad,CuDef*%
%ADD18RoundRect,0.250000X-0.262500X-0.450000X0.262500X-0.450000X0.262500X0.450000X-0.262500X0.450000X0*%
%TD*%
%TA.AperFunction,ComponentPad*%
%ADD19RoundRect,0.250000X-0.620000X-0.845000X0.620000X-0.845000X0.620000X0.845000X-0.620000X0.845000X0*%
%TD*%
%TA.AperFunction,ComponentPad*%
%ADD20O,1.740000X2.190000*%
%TD*%
%TA.AperFunction,SMDPad,CuDef*%
%ADD21RoundRect,0.250000X0.262500X0.450000X-0.262500X0.450000X-0.262500X-0.450000X0.262500X-0.450000X0*%
%TD*%
%TA.AperFunction,SMDPad,CuDef*%
%ADD22RoundRect,0.250000X0.250000X0.475000X-0.250000X0.475000X-0.250000X-0.475000X0.250000X-0.475000X0*%
%TD*%
%TA.AperFunction,SMDPad,CuDef*%
%ADD23RoundRect,0.250000X-0.325000X-0.650000X0.325000X-0.650000X0.325000X0.650000X-0.325000X0.650000X0*%
%TD*%
%TA.AperFunction,SMDPad,CuDef*%
%ADD24RoundRect,0.250000X0.650000X-0.325000X0.650000X0.325000X-0.650000X0.325000X-0.650000X-0.325000X0*%
%TD*%
%TA.AperFunction,SMDPad,CuDef*%
%ADD25RoundRect,0.075000X-0.650000X-0.075000X0.650000X-0.075000X0.650000X0.075000X-0.650000X0.075000X0*%
%TD*%
%TA.AperFunction,SMDPad,CuDef*%
%ADD26RoundRect,0.250000X0.475000X-0.250000X0.475000X0.250000X-0.475000X0.250000X-0.475000X-0.250000X0*%
%TD*%
%TA.AperFunction,ViaPad*%
%ADD27C,0.800000*%
%TD*%
%TA.AperFunction,Conductor*%
%ADD28C,0.762000*%
%TD*%
%TA.AperFunction,Conductor*%
%ADD29C,0.254000*%
%TD*%
%TA.AperFunction,Conductor*%
%ADD30C,0.381000*%
%TD*%
G04 APERTURE END LIST*
D10*
%TO.P,U1,1,REST*%
%TO.N,/RST*%
X127655000Y-85400000D03*
%TO.P,U1,2,ADC*%
%TO.N,unconnected-(U1-Pad2)*%
X127655000Y-87400000D03*
%TO.P,U1,3,CH_PD*%
%TO.N,Net-(R5-Pad1)*%
X127655000Y-89400000D03*
%TO.P,U1,4,GPIO16*%
%TO.N,unconnected-(U1-Pad4)*%
X127655000Y-91400000D03*
%TO.P,U1,5,GPIO14*%
%TO.N,unconnected-(U1-Pad5)*%
X127655000Y-93400000D03*
%TO.P,U1,6,GPIO12*%
%TO.N,unconnected-(U1-Pad6)*%
X127655000Y-95400000D03*
%TO.P,U1,7,GPIO13*%
%TO.N,unconnected-(U1-Pad7)*%
X127655000Y-97400000D03*
%TO.P,U1,8,VCC*%
%TO.N,+3V3*%
X127655000Y-99400000D03*
D11*
%TO.P,U1,9,CS0*%
%TO.N,unconnected-(U1-Pad9)*%
X130255000Y-100900000D03*
%TO.P,U1,10,MISO*%
%TO.N,unconnected-(U1-Pad10)*%
X132255000Y-100900000D03*
%TO.P,U1,11,GPIO9*%
%TO.N,unconnected-(U1-Pad11)*%
X134255000Y-100900000D03*
%TO.P,U1,12,GPIO10*%
%TO.N,unconnected-(U1-Pad12)*%
X136255000Y-100900000D03*
%TO.P,U1,13,MOSI*%
%TO.N,unconnected-(U1-Pad13)*%
X138255000Y-100900000D03*
%TO.P,U1,14,SCLK*%
%TO.N,unconnected-(U1-Pad14)*%
X140255000Y-100900000D03*
D10*
%TO.P,U1,15,GND*%
%TO.N,GND*%
X142855000Y-99400000D03*
%TO.P,U1,16,GPIO15*%
%TO.N,Net-(R11-Pad1)*%
X142855000Y-97400000D03*
%TO.P,U1,17,GPIO2*%
%TO.N,unconnected-(U1-Pad17)*%
X142855000Y-95400000D03*
%TO.P,U1,18,GPIO0*%
%TO.N,/GPIO0*%
X142855000Y-93400000D03*
%TO.P,U1,19,GPIO4*%
%TO.N,/SDA*%
X142855000Y-91400000D03*
%TO.P,U1,20,GPIO5*%
%TO.N,/SCL*%
X142855000Y-89400000D03*
%TO.P,U1,21,RXD*%
%TO.N,/RxD*%
X142855000Y-87400000D03*
%TO.P,U1,22,TXD*%
%TO.N,/TxD*%
X142855000Y-85400000D03*
%TD*%
D12*
%TO.P,C18,1*%
%TO.N,+3V3*%
X111965000Y-105410000D03*
%TO.P,C18,2*%
%TO.N,GND*%
X109015000Y-105410000D03*
%TD*%
D13*
%TO.P,J13,1,Pin_1*%
%TO.N,GND*%
X161290000Y-100330000D03*
D14*
%TO.P,J13,2,Pin_2*%
%TO.N,unconnected-(J13-Pad2)*%
X161290000Y-97790000D03*
%TO.P,J13,3,Pin_3*%
%TO.N,/TxD*%
X161290000Y-95250000D03*
%TO.P,J13,4,Pin_4*%
%TO.N,/RST*%
X161290000Y-92710000D03*
%TO.P,J13,5,Pin_5*%
%TO.N,/GPIO0*%
X161290000Y-90170000D03*
%TO.P,J13,6,Pin_6*%
%TO.N,/RxD*%
X161290000Y-87630000D03*
%TD*%
D13*
%TO.P,J4,1,Pin_1*%
%TO.N,GND*%
X95250000Y-111760000D03*
%TD*%
D15*
%TO.P,U2,1,GND*%
%TO.N,GND*%
X109880000Y-94220000D03*
%TO.P,U2,2,VO*%
%TO.N,+3V3*%
X109880000Y-96520000D03*
D16*
X116180000Y-96520000D03*
D15*
%TO.P,U2,3,VI*%
%TO.N,+5V*%
X109880000Y-98820000D03*
%TD*%
D17*
%TO.P,C9,1*%
%TO.N,+5V*%
X102517500Y-120650000D03*
%TO.P,C9,2*%
%TO.N,GND*%
X104417500Y-120650000D03*
%TD*%
D18*
%TO.P,R29,1*%
%TO.N,Net-(J12-Pad3)*%
X147677500Y-120650000D03*
%TO.P,R29,2*%
%TO.N,/Ain7*%
X149502500Y-120650000D03*
%TD*%
%TO.P,R13,1*%
%TO.N,Net-(J7-Pad3)*%
X107672500Y-120650000D03*
%TO.P,R13,2*%
%TO.N,/Ain3*%
X109497500Y-120650000D03*
%TD*%
%TO.P,R14,1*%
%TO.N,GND*%
X107672500Y-118110000D03*
%TO.P,R14,2*%
%TO.N,/Ain3*%
X109497500Y-118110000D03*
%TD*%
%TO.P,R11,1*%
%TO.N,Net-(R11-Pad1)*%
X147400000Y-97155000D03*
%TO.P,R11,2*%
%TO.N,GND*%
X149225000Y-97155000D03*
%TD*%
D19*
%TO.P,J9,1,Pin_1*%
%TO.N,+5V*%
X115570000Y-127000000D03*
D20*
%TO.P,J9,2,Pin_2*%
%TO.N,GND*%
X118110000Y-127000000D03*
%TO.P,J9,3,Pin_3*%
%TO.N,Net-(J9-Pad3)*%
X120650000Y-127000000D03*
%TO.P,J9,4,Pin_4*%
%TO.N,unconnected-(J9-Pad4)*%
X123190000Y-127000000D03*
%TD*%
D18*
%TO.P,R9,1*%
%TO.N,Net-(J6-Pad3)*%
X94337500Y-120670000D03*
%TO.P,R9,2*%
%TO.N,/Ain2*%
X96162500Y-120670000D03*
%TD*%
D21*
%TO.P,R28,1*%
%TO.N,+3V3*%
X119657500Y-111760000D03*
%TO.P,R28,2*%
%TO.N,/SDA*%
X117832500Y-111760000D03*
%TD*%
D18*
%TO.P,R16,1*%
%TO.N,GND*%
X121007500Y-118110000D03*
%TO.P,R16,2*%
%TO.N,/Ain4*%
X122832500Y-118110000D03*
%TD*%
D21*
%TO.P,R5,1*%
%TO.N,Net-(R5-Pad1)*%
X122832500Y-90805000D03*
%TO.P,R5,2*%
%TO.N,+3V3*%
X121007500Y-90805000D03*
%TD*%
D19*
%TO.P,J11,1,Pin_1*%
%TO.N,+5V*%
X155575000Y-127000000D03*
D20*
%TO.P,J11,2,Pin_2*%
%TO.N,GND*%
X158115000Y-127000000D03*
%TO.P,J11,3,Pin_3*%
%TO.N,Net-(J11-Pad3)*%
X160655000Y-127000000D03*
%TO.P,J11,4,Pin_4*%
%TO.N,unconnected-(J11-Pad4)*%
X163195000Y-127000000D03*
%TD*%
D12*
%TO.P,C16,1*%
%TO.N,+3V3*%
X155145000Y-105410000D03*
%TO.P,C16,2*%
%TO.N,GND*%
X152195000Y-105410000D03*
%TD*%
D18*
%TO.P,R30,1*%
%TO.N,GND*%
X147677500Y-118110000D03*
%TO.P,R30,2*%
%TO.N,/Ain7*%
X149502500Y-118110000D03*
%TD*%
D22*
%TO.P,C6,1*%
%TO.N,+3V3*%
X111125000Y-108585000D03*
%TO.P,C6,2*%
%TO.N,GND*%
X109225000Y-108585000D03*
%TD*%
D13*
%TO.P,J8,1,Pin_1*%
%TO.N,GND*%
X136515000Y-113030000D03*
D14*
%TO.P,J8,2,Pin_2*%
%TO.N,+3V3*%
X133975000Y-113030000D03*
%TO.P,J8,3,Pin_3*%
%TO.N,/SCL*%
X131435000Y-113030000D03*
%TO.P,J8,4,Pin_4*%
%TO.N,/SDA*%
X128895000Y-113030000D03*
%TD*%
D17*
%TO.P,C13,1*%
%TO.N,+5V*%
X115575000Y-120650000D03*
%TO.P,C13,2*%
%TO.N,GND*%
X117475000Y-120650000D03*
%TD*%
%TO.P,C11,1*%
%TO.N,+5V*%
X129225000Y-120650000D03*
%TO.P,C11,2*%
%TO.N,GND*%
X131125000Y-120650000D03*
%TD*%
D19*
%TO.P,J12,1,Pin_1*%
%TO.N,+5V*%
X142240000Y-127000000D03*
D20*
%TO.P,J12,2,Pin_2*%
%TO.N,GND*%
X144780000Y-127000000D03*
%TO.P,J12,3,Pin_3*%
%TO.N,Net-(J12-Pad3)*%
X147320000Y-127000000D03*
%TO.P,J12,4,Pin_4*%
%TO.N,unconnected-(J12-Pad4)*%
X149860000Y-127000000D03*
%TD*%
D12*
%TO.P,C12,1*%
%TO.N,+3V3*%
X115775000Y-88265000D03*
%TO.P,C12,2*%
%TO.N,GND*%
X112825000Y-88265000D03*
%TD*%
D18*
%TO.P,R17,1*%
%TO.N,+3V3*%
X101322500Y-111760000D03*
%TO.P,R17,2*%
%TO.N,Net-(IC1-Pad2)*%
X103147500Y-111760000D03*
%TD*%
%TO.P,R19,1*%
%TO.N,GND*%
X101322500Y-109220000D03*
%TO.P,R19,2*%
%TO.N,Net-(IC1-Pad1)*%
X103147500Y-109220000D03*
%TD*%
D12*
%TO.P,C14,1*%
%TO.N,+3V3*%
X122760000Y-104215000D03*
%TO.P,C14,2*%
%TO.N,GND*%
X119810000Y-104215000D03*
%TD*%
D18*
%TO.P,R15,1*%
%TO.N,Net-(J9-Pad3)*%
X121007500Y-120650000D03*
%TO.P,R15,2*%
%TO.N,/Ain4*%
X122832500Y-120650000D03*
%TD*%
D21*
%TO.P,R27,1*%
%TO.N,+3V3*%
X149145000Y-92075000D03*
%TO.P,R27,2*%
%TO.N,/SDA*%
X147320000Y-92075000D03*
%TD*%
D13*
%TO.P,J2,1,Pin_1*%
%TO.N,Net-(J15-Pad1)*%
X102870000Y-88900000D03*
%TD*%
D21*
%TO.P,R26,1*%
%TO.N,+3V3*%
X119657500Y-109220000D03*
%TO.P,R26,2*%
%TO.N,/SCL*%
X117832500Y-109220000D03*
%TD*%
D19*
%TO.P,J10,1,Pin_1*%
%TO.N,+5V*%
X128905000Y-127000000D03*
D20*
%TO.P,J10,2,Pin_2*%
%TO.N,GND*%
X131445000Y-127000000D03*
%TO.P,J10,3,Pin_3*%
%TO.N,Net-(J10-Pad3)*%
X133985000Y-127000000D03*
%TO.P,J10,4,Pin_4*%
%TO.N,unconnected-(J10-Pad4)*%
X136525000Y-127000000D03*
%TD*%
D18*
%TO.P,R7,1*%
%TO.N,Net-(J5-Pad3)*%
X81002500Y-120650000D03*
%TO.P,R7,2*%
%TO.N,/Ain1*%
X82827500Y-120650000D03*
%TD*%
D13*
%TO.P,J14,1,Pin_1*%
%TO.N,+12V*%
X106680000Y-88900000D03*
%TD*%
D23*
%TO.P,C17,1*%
%TO.N,+5V*%
X154735000Y-118110000D03*
%TO.P,C17,2*%
%TO.N,GND*%
X157685000Y-118110000D03*
%TD*%
D18*
%TO.P,R21,1*%
%TO.N,Net-(J10-Pad3)*%
X134342500Y-120650000D03*
%TO.P,R21,2*%
%TO.N,/Ain5*%
X136167500Y-120650000D03*
%TD*%
%TO.P,R4,1*%
%TO.N,GND*%
X101957500Y-102870000D03*
%TO.P,R4,2*%
%TO.N,/Ain0*%
X103782500Y-102870000D03*
%TD*%
%TO.P,R22,1*%
%TO.N,GND*%
X134342500Y-118110000D03*
%TO.P,R22,2*%
%TO.N,/Ain5*%
X136167500Y-118110000D03*
%TD*%
D13*
%TO.P,J15,1,Pin_1*%
%TO.N,Net-(J15-Pad1)*%
X95250000Y-88900000D03*
%TD*%
D19*
%TO.P,J5,1,Pin_1*%
%TO.N,+5V*%
X75565000Y-127000000D03*
D20*
%TO.P,J5,2,Pin_2*%
%TO.N,GND*%
X78105000Y-127000000D03*
%TO.P,J5,3,Pin_3*%
%TO.N,Net-(J5-Pad3)*%
X80645000Y-127000000D03*
%TO.P,J5,4,Pin_4*%
%TO.N,unconnected-(J5-Pad4)*%
X83185000Y-127000000D03*
%TD*%
D24*
%TO.P,C15,1*%
%TO.N,+5V*%
X101600000Y-96725000D03*
%TO.P,C15,2*%
%TO.N,GND*%
X101600000Y-93775000D03*
%TD*%
D21*
%TO.P,R12,1*%
%TO.N,+3V3*%
X149145000Y-94615000D03*
%TO.P,R12,2*%
%TO.N,/GPIO0*%
X147320000Y-94615000D03*
%TD*%
D17*
%TO.P,C20,1*%
%TO.N,+3V3*%
X134940000Y-108585000D03*
%TO.P,C20,2*%
%TO.N,GND*%
X136840000Y-108585000D03*
%TD*%
D21*
%TO.P,R25,1*%
%TO.N,+3V3*%
X149145000Y-89535000D03*
%TO.P,R25,2*%
%TO.N,/SCL*%
X147320000Y-89535000D03*
%TD*%
D19*
%TO.P,J7,1,Pin_1*%
%TO.N,+5V*%
X102235000Y-127020000D03*
D20*
%TO.P,J7,2,Pin_2*%
%TO.N,GND*%
X104775000Y-127020000D03*
%TO.P,J7,3,Pin_3*%
%TO.N,Net-(J7-Pad3)*%
X107315000Y-127020000D03*
%TO.P,J7,4,Pin_4*%
%TO.N,unconnected-(J7-Pad4)*%
X109855000Y-127020000D03*
%TD*%
D18*
%TO.P,R24,1*%
%TO.N,GND*%
X161012500Y-118110000D03*
%TO.P,R24,2*%
%TO.N,/Ain6*%
X162837500Y-118110000D03*
%TD*%
D17*
%TO.P,C7,1*%
%TO.N,+5V*%
X88905000Y-120650000D03*
%TO.P,C7,2*%
%TO.N,GND*%
X90805000Y-120650000D03*
%TD*%
D25*
%TO.P,IC1,1,ADDR*%
%TO.N,Net-(IC1-Pad1)*%
X108290000Y-110760000D03*
%TO.P,IC1,2,ALERT/RDY*%
%TO.N,Net-(IC1-Pad2)*%
X108290000Y-111260000D03*
%TO.P,IC1,3,GND*%
%TO.N,GND*%
X108290000Y-111760000D03*
%TO.P,IC1,4,AIN0*%
%TO.N,/Ain0*%
X108290000Y-112260000D03*
%TO.P,IC1,5,AIN1*%
%TO.N,/Ain1*%
X108290000Y-112760000D03*
%TO.P,IC1,6,AIN2*%
%TO.N,/Ain3*%
X112690000Y-112760000D03*
%TO.P,IC1,7,AIN3*%
%TO.N,/Ain2*%
X112690000Y-112260000D03*
%TO.P,IC1,8,VDD*%
%TO.N,+3V3*%
X112690000Y-111760000D03*
%TO.P,IC1,9,SDA*%
%TO.N,/SDA*%
X112690000Y-111260000D03*
%TO.P,IC1,10,SCL*%
%TO.N,/SCL*%
X112690000Y-110760000D03*
%TD*%
D13*
%TO.P,J3,1,Pin_1*%
%TO.N,+5V*%
X81280000Y-111760000D03*
%TD*%
D22*
%TO.P,C8,1*%
%TO.N,+3V3*%
X154620000Y-108585000D03*
%TO.P,C8,2*%
%TO.N,GND*%
X152720000Y-108585000D03*
%TD*%
D18*
%TO.P,R8,1*%
%TO.N,GND*%
X81002500Y-118110000D03*
%TO.P,R8,2*%
%TO.N,/Ain1*%
X82827500Y-118110000D03*
%TD*%
D17*
%TO.P,C3,1*%
%TO.N,+5V*%
X142560000Y-120650000D03*
%TO.P,C3,2*%
%TO.N,GND*%
X144460000Y-120650000D03*
%TD*%
D22*
%TO.P,C4,1*%
%TO.N,+3V3*%
X115885000Y-91440000D03*
%TO.P,C4,2*%
%TO.N,GND*%
X113985000Y-91440000D03*
%TD*%
D18*
%TO.P,R10,1*%
%TO.N,GND*%
X94337500Y-118130000D03*
%TO.P,R10,2*%
%TO.N,/Ain2*%
X96162500Y-118130000D03*
%TD*%
%TO.P,R20,1*%
%TO.N,+3V3*%
X145495000Y-108585000D03*
%TO.P,R20,2*%
%TO.N,Net-(IC2-Pad1)*%
X147320000Y-108585000D03*
%TD*%
D25*
%TO.P,IC2,1,ADDR*%
%TO.N,Net-(IC2-Pad1)*%
X152105000Y-110760000D03*
%TO.P,IC2,2,ALERT/RDY*%
%TO.N,Net-(IC2-Pad2)*%
X152105000Y-111260000D03*
%TO.P,IC2,3,GND*%
%TO.N,GND*%
X152105000Y-111760000D03*
%TO.P,IC2,4,AIN0*%
%TO.N,/Ain4*%
X152105000Y-112260000D03*
%TO.P,IC2,5,AIN1*%
%TO.N,/Ain5*%
X152105000Y-112760000D03*
%TO.P,IC2,6,AIN2*%
%TO.N,/Ain7*%
X156505000Y-112760000D03*
%TO.P,IC2,7,AIN3*%
%TO.N,/Ain6*%
X156505000Y-112260000D03*
%TO.P,IC2,8,VDD*%
%TO.N,+3V3*%
X156505000Y-111760000D03*
%TO.P,IC2,9,SDA*%
%TO.N,/SDA*%
X156505000Y-111260000D03*
%TO.P,IC2,10,SCL*%
%TO.N,/SCL*%
X156505000Y-110760000D03*
%TD*%
D18*
%TO.P,R23,1*%
%TO.N,Net-(J11-Pad3)*%
X161012500Y-120650000D03*
%TO.P,R23,2*%
%TO.N,/Ain6*%
X162837500Y-120650000D03*
%TD*%
D17*
%TO.P,C19,1*%
%TO.N,+5V*%
X155895000Y-120650000D03*
%TO.P,C19,2*%
%TO.N,GND*%
X157795000Y-120650000D03*
%TD*%
D21*
%TO.P,R2,1*%
%TO.N,/Ain0*%
X103782500Y-100330000D03*
%TO.P,R2,2*%
%TO.N,+12V*%
X101957500Y-100330000D03*
%TD*%
D18*
%TO.P,R18,1*%
%TO.N,+3V3*%
X145495000Y-111760000D03*
%TO.P,R18,2*%
%TO.N,Net-(IC2-Pad2)*%
X147320000Y-111760000D03*
%TD*%
D19*
%TO.P,J6,1,Pin_1*%
%TO.N,+5V*%
X88900000Y-127020000D03*
D20*
%TO.P,J6,2,Pin_2*%
%TO.N,GND*%
X91440000Y-127020000D03*
%TO.P,J6,3,Pin_3*%
%TO.N,Net-(J6-Pad3)*%
X93980000Y-127020000D03*
%TO.P,J6,4,Pin_4*%
%TO.N,unconnected-(J6-Pad4)*%
X96520000Y-127020000D03*
%TD*%
D22*
%TO.P,C10,1*%
%TO.N,+3V3*%
X122870000Y-100965000D03*
%TO.P,C10,2*%
%TO.N,GND*%
X120970000Y-100965000D03*
%TD*%
D17*
%TO.P,C5,1*%
%TO.N,+5V*%
X75885000Y-120650000D03*
%TO.P,C5,2*%
%TO.N,GND*%
X77785000Y-120650000D03*
%TD*%
D18*
%TO.P,R3,1*%
%TO.N,GND*%
X101957500Y-105410000D03*
%TO.P,R3,2*%
%TO.N,/Ain0*%
X103782500Y-105410000D03*
%TD*%
D13*
%TO.P,J1,1,Pin_1*%
%TO.N,+12V*%
X81280000Y-88900000D03*
%TD*%
D26*
%TO.P,C1,1*%
%TO.N,+5V*%
X105410000Y-96200000D03*
%TO.P,C1,2*%
%TO.N,GND*%
X105410000Y-94300000D03*
%TD*%
D22*
%TO.P,C2,1*%
%TO.N,+3V3*%
X149225000Y-99695000D03*
%TO.P,C2,2*%
%TO.N,GND*%
X147325000Y-99695000D03*
%TD*%
D21*
%TO.P,R6,1*%
%TO.N,/RST*%
X122832500Y-88265000D03*
%TO.P,R6,2*%
%TO.N,+3V3*%
X121007500Y-88265000D03*
%TD*%
D27*
%TO.N,/SDA*%
X131445000Y-94615000D03*
%TO.N,+3V3*%
X147955000Y-104140000D03*
X154940000Y-103505000D03*
X150495000Y-100330000D03*
X111125000Y-113665000D03*
X104140000Y-114300000D03*
%TO.N,/Ain2*%
X104140000Y-118745000D03*
%TO.N,GND*%
X112395000Y-94615000D03*
X112285000Y-102125000D03*
%TO.N,+5V*%
X97790000Y-97155000D03*
X92075000Y-100965000D03*
%TO.N,/Ain0*%
X106045000Y-107315000D03*
X106045000Y-112395000D03*
%TO.N,/Ain1*%
X91440000Y-117475000D03*
X106680000Y-116205000D03*
%TO.N,/Ain2*%
X114460933Y-112177443D03*
%TO.N,/Ain3*%
X114935000Y-117475000D03*
X114935000Y-113665000D03*
%TO.N,/Ain4*%
X149225000Y-113030000D03*
X132080000Y-116840000D03*
%TO.N,/Ain5*%
X144780000Y-117475000D03*
X151130000Y-114300000D03*
%TO.N,/SDA*%
X160020000Y-110643120D03*
X146050000Y-92075000D03*
%TO.N,/SCL*%
X115570000Y-109220000D03*
X154305000Y-97790000D03*
X161290000Y-109855000D03*
%TO.N,/Ain7*%
X152400000Y-117475000D03*
X154940000Y-113030000D03*
%TO.N,/RST*%
X156210000Y-86360000D03*
%TO.N,/GPIO0*%
X151765000Y-90170000D03*
X145415000Y-93980000D03*
%TD*%
D28*
%TO.N,GND*%
X147677500Y-116482500D02*
X147320000Y-116125000D01*
X147320000Y-116125000D02*
X147320000Y-115570000D01*
X153659880Y-109855000D02*
X153659880Y-111749880D01*
X153659880Y-111749880D02*
X153659880Y-112384880D01*
D29*
X153035000Y-111760000D02*
X153045120Y-111749880D01*
X153045120Y-111749880D02*
X153659880Y-111749880D01*
D30*
%TO.N,/SDA*%
X142855000Y-91400000D02*
X134660000Y-91400000D01*
X134660000Y-91400000D02*
X131445000Y-94615000D01*
D28*
%TO.N,+3V3*%
X145415000Y-106680000D02*
X147955000Y-104140000D01*
X154940000Y-105205000D02*
X155145000Y-105410000D01*
X150495000Y-99060000D02*
X150495000Y-100330000D01*
X154940000Y-103505000D02*
X154940000Y-105205000D01*
X111125000Y-113665000D02*
X111125000Y-111760000D01*
X102235000Y-113665000D02*
X102870000Y-114300000D01*
X102870000Y-114300000D02*
X104140000Y-114300000D01*
D29*
%TO.N,/Ain1*%
X108290000Y-112760000D02*
X107585000Y-112760000D01*
X107585000Y-112760000D02*
X106680000Y-113665000D01*
X106680000Y-113665000D02*
X106680000Y-116205000D01*
D28*
%TO.N,GND*%
X95885000Y-115570000D02*
X95250000Y-115570000D01*
X107672500Y-117197500D02*
X97512500Y-117197500D01*
X97512500Y-117197500D02*
X95885000Y-115570000D01*
D30*
%TO.N,/Ain2*%
X99020000Y-118745000D02*
X104140000Y-118745000D01*
X96162500Y-118130000D02*
X98405000Y-118130000D01*
X98405000Y-118130000D02*
X99020000Y-118745000D01*
D28*
%TO.N,GND*%
X107672500Y-118110000D02*
X107672500Y-117197500D01*
X107672500Y-117197500D02*
X108227500Y-117197500D01*
X108227500Y-117197500D02*
X109855000Y-115570000D01*
%TO.N,+3V3*%
X101322500Y-112752500D02*
X102235000Y-113665000D01*
X101322500Y-111760000D02*
X101322500Y-112752500D01*
%TO.N,GND*%
X112000000Y-94220000D02*
X112395000Y-94615000D01*
X109880000Y-94220000D02*
X112000000Y-94220000D01*
X110600000Y-102125000D02*
X112285000Y-102125000D01*
X112285000Y-102125000D02*
X119810000Y-102125000D01*
%TO.N,+5V*%
X81280000Y-111760000D02*
X92075000Y-100965000D01*
X97790000Y-97155000D02*
X101170000Y-97155000D01*
X101170000Y-97155000D02*
X101600000Y-96725000D01*
D30*
%TO.N,Net-(IC1-Pad2)*%
X103147500Y-111760000D02*
X104775000Y-111760000D01*
X104775000Y-111760000D02*
X105410000Y-111125000D01*
X105410000Y-111125000D02*
X106680000Y-111125000D01*
D29*
%TO.N,/Ain0*%
X106680000Y-112395000D02*
X106839880Y-112235120D01*
X106839880Y-112235120D02*
X108265120Y-112235120D01*
X108265120Y-112235120D02*
X108290000Y-112260000D01*
D30*
X104140000Y-105410000D02*
X106045000Y-107315000D01*
X103782500Y-105410000D02*
X104140000Y-105410000D01*
D29*
X106045000Y-112395000D02*
X106680000Y-112395000D01*
%TO.N,Net-(IC1-Pad1)*%
X106680000Y-110490000D02*
X108020000Y-110490000D01*
X108020000Y-110490000D02*
X108290000Y-110760000D01*
D30*
X103147500Y-109220000D02*
X105410000Y-109220000D01*
X105410000Y-109220000D02*
X106680000Y-110490000D01*
D29*
%TO.N,Net-(IC1-Pad2)*%
X106680000Y-111125000D02*
X106790120Y-111235120D01*
X106790120Y-111235120D02*
X107805735Y-111235120D01*
D30*
%TO.N,/Ain1*%
X82827500Y-118110000D02*
X90805000Y-118110000D01*
X90805000Y-118110000D02*
X91440000Y-117475000D01*
D29*
%TO.N,/Ain2*%
X114393996Y-112244380D02*
X112705620Y-112244380D01*
X112705620Y-112244380D02*
X112690000Y-112260000D01*
D30*
X114460933Y-112177443D02*
X114393996Y-112244380D01*
D29*
%TO.N,/Ain3*%
X114935000Y-113665000D02*
X114030000Y-112760000D01*
X114030000Y-112760000D02*
X112690000Y-112760000D01*
D30*
X114300000Y-118110000D02*
X114935000Y-117475000D01*
X109497500Y-118110000D02*
X114300000Y-118110000D01*
D29*
%TO.N,/SDA*%
X116840000Y-111125000D02*
X114300000Y-111125000D01*
X114300000Y-111125000D02*
X114189880Y-111235120D01*
X114189880Y-111235120D02*
X112714880Y-111235120D01*
X112714880Y-111235120D02*
X112690000Y-111260000D01*
%TO.N,/SCL*%
X114300000Y-110490000D02*
X112960000Y-110490000D01*
X112960000Y-110490000D02*
X112690000Y-110760000D01*
D28*
%TO.N,GND*%
X120650000Y-115570000D02*
X109855000Y-115570000D01*
X109855000Y-115570000D02*
X109855000Y-111760000D01*
D29*
X109855000Y-111760000D02*
X108290000Y-111760000D01*
D28*
X109855000Y-109855000D02*
X109855000Y-111760000D01*
X109225000Y-108585000D02*
X109225000Y-109225000D01*
X109225000Y-109225000D02*
X109855000Y-109855000D01*
D29*
%TO.N,+3V3*%
X111125000Y-111760000D02*
X112690000Y-111760000D01*
D28*
X111125000Y-108585000D02*
X111125000Y-111760000D01*
D29*
%TO.N,/Ain4*%
X150495000Y-112395000D02*
X150654880Y-112235120D01*
X150654880Y-112235120D02*
X152080120Y-112235120D01*
X152080120Y-112235120D02*
X152105000Y-112260000D01*
X149860000Y-112395000D02*
X150495000Y-112395000D01*
D30*
X122832500Y-118110000D02*
X130810000Y-118110000D01*
X149225000Y-113030000D02*
X149860000Y-112395000D01*
X130810000Y-118110000D02*
X132080000Y-116840000D01*
D29*
%TO.N,Net-(IC2-Pad1)*%
X149860000Y-110490000D02*
X151835000Y-110490000D01*
X151835000Y-110490000D02*
X152105000Y-110760000D01*
D30*
X147955000Y-108585000D02*
X149860000Y-110490000D01*
X147320000Y-108585000D02*
X147955000Y-108585000D01*
D29*
%TO.N,Net-(IC2-Pad2)*%
X149860000Y-111760000D02*
X150360000Y-111260000D01*
X150360000Y-111260000D02*
X152105000Y-111260000D01*
X149225000Y-111760000D02*
X149860000Y-111760000D01*
D30*
X147320000Y-111760000D02*
X149225000Y-111760000D01*
D28*
%TO.N,GND*%
X152720000Y-108585000D02*
X152720000Y-108915120D01*
X153659880Y-112384880D02*
X153670000Y-112395000D01*
X152720000Y-108915120D02*
X153659880Y-109855000D01*
D29*
X153035000Y-111760000D02*
X152105000Y-111760000D01*
D28*
X153670000Y-115570000D02*
X156845000Y-115570000D01*
X148590000Y-115570000D02*
X153670000Y-115570000D01*
X153670000Y-115570000D02*
X153670000Y-112395000D01*
D29*
%TO.N,/Ain5*%
X151130000Y-113030000D02*
X151835000Y-113030000D01*
X151835000Y-113030000D02*
X152105000Y-112760000D01*
X151130000Y-114300000D02*
X151130000Y-113030000D01*
D30*
X144145000Y-118110000D02*
X144780000Y-117475000D01*
X136167500Y-118110000D02*
X144145000Y-118110000D01*
D29*
%TO.N,+3V3*%
X154940000Y-111760000D02*
X156505000Y-111760000D01*
%TO.N,/SDA*%
X157484394Y-111125000D02*
X157324514Y-111284880D01*
X157324514Y-111284880D02*
X156529880Y-111284880D01*
X156529880Y-111284880D02*
X156505000Y-111260000D01*
X158115000Y-111125000D02*
X157484394Y-111125000D01*
D30*
X159385000Y-111125000D02*
X158115000Y-111125000D01*
X160020000Y-110643120D02*
X159866880Y-110643120D01*
X159866880Y-110643120D02*
X159385000Y-111125000D01*
%TO.N,/SCL*%
X158115000Y-109855000D02*
X161290000Y-109855000D01*
D29*
X158115000Y-109855000D02*
X157210000Y-110760000D01*
X157210000Y-110760000D02*
X156505000Y-110760000D01*
%TO.N,/Ain7*%
X154940000Y-113030000D02*
X156235000Y-113030000D01*
X156235000Y-113030000D02*
X156505000Y-112760000D01*
%TO.N,/Ain6*%
X158115000Y-112395000D02*
X157980000Y-112260000D01*
X157980000Y-112260000D02*
X156505000Y-112260000D01*
D30*
X162837500Y-118110000D02*
X162837500Y-115212500D01*
X162837500Y-115212500D02*
X160020000Y-112395000D01*
D29*
X160020000Y-112395000D02*
X158115000Y-112395000D01*
D28*
%TO.N,+5V*%
X75565000Y-127000000D02*
X75565000Y-120970000D01*
X102235000Y-129540000D02*
X102235000Y-127020000D01*
X142240000Y-129540000D02*
X128905000Y-129540000D01*
X128905000Y-129540000D02*
X115570000Y-129540000D01*
X153035000Y-129540000D02*
X142240000Y-129540000D01*
X154735000Y-119490000D02*
X155895000Y-120650000D01*
X102235000Y-123825000D02*
X102235000Y-127020000D01*
X115575000Y-126995000D02*
X115570000Y-127000000D01*
X115570000Y-129540000D02*
X102235000Y-129540000D01*
X88900000Y-129540000D02*
X88900000Y-127020000D01*
X115575000Y-120650000D02*
X115575000Y-126995000D01*
X142560000Y-123505000D02*
X142240000Y-123825000D01*
X88905000Y-120650000D02*
X88905000Y-127015000D01*
X142240000Y-123825000D02*
X142240000Y-127000000D01*
X103300000Y-96725000D02*
X101600000Y-96725000D01*
X142560000Y-120650000D02*
X142560000Y-123505000D01*
X76200000Y-129540000D02*
X75565000Y-128905000D01*
X75565000Y-128905000D02*
X75565000Y-127000000D01*
X102517500Y-120650000D02*
X102517500Y-123542500D01*
X128905000Y-124460000D02*
X128905000Y-127000000D01*
X155895000Y-123505000D02*
X155575000Y-123825000D01*
X155895000Y-120650000D02*
X155895000Y-123505000D01*
X129225000Y-124140000D02*
X128905000Y-124460000D01*
X108030000Y-98820000D02*
X105410000Y-96200000D01*
X75885000Y-117155000D02*
X81280000Y-111760000D01*
X142240000Y-129540000D02*
X142240000Y-127000000D01*
X155575000Y-127000000D02*
X153035000Y-129540000D01*
X102235000Y-129540000D02*
X88900000Y-129540000D01*
X128905000Y-129540000D02*
X128905000Y-127000000D01*
X75885000Y-120650000D02*
X75885000Y-117155000D01*
X88905000Y-127015000D02*
X88900000Y-127020000D01*
X102517500Y-123542500D02*
X102235000Y-123825000D01*
X155575000Y-123825000D02*
X155575000Y-127000000D01*
X109880000Y-98820000D02*
X108030000Y-98820000D01*
X103825000Y-96200000D02*
X103300000Y-96725000D01*
X105410000Y-96200000D02*
X103825000Y-96200000D01*
X115570000Y-129540000D02*
X115570000Y-127000000D01*
X129225000Y-120650000D02*
X129225000Y-124140000D01*
X75565000Y-120970000D02*
X75885000Y-120650000D01*
X88900000Y-129540000D02*
X76200000Y-129540000D01*
X154735000Y-118110000D02*
X154735000Y-119490000D01*
%TO.N,GND*%
X147325000Y-100540000D02*
X147530000Y-100540000D01*
X90805000Y-123825000D02*
X91440000Y-124460000D01*
X152195000Y-103710000D02*
X152195000Y-102440000D01*
X112825000Y-91275000D02*
X109880000Y-94220000D01*
X94337500Y-115847500D02*
X94615000Y-115570000D01*
X107672500Y-118110000D02*
X106957500Y-118110000D01*
X134342500Y-118110000D02*
X134342500Y-116482500D01*
X93325000Y-118130000D02*
X90805000Y-120650000D01*
X142855000Y-99400000D02*
X145755000Y-99400000D01*
X145755000Y-99400000D02*
X146050000Y-99695000D01*
X101957500Y-106957500D02*
X101957500Y-105410000D01*
X146050000Y-99695000D02*
X147325000Y-99695000D01*
X81915000Y-115570000D02*
X81002500Y-116482500D01*
X147320000Y-115570000D02*
X146685000Y-115570000D01*
X148590000Y-115570000D02*
X147320000Y-115570000D01*
X95250000Y-115570000D02*
X94615000Y-115570000D01*
X112990000Y-91440000D02*
X112825000Y-91275000D01*
X94337500Y-116482500D02*
X94337500Y-115847500D01*
X157795000Y-120650000D02*
X157795000Y-123505000D01*
X109015000Y-103710000D02*
X110600000Y-102125000D01*
X147890480Y-98489520D02*
X148454580Y-98489520D01*
X91440000Y-124460000D02*
X91440000Y-127020000D01*
X148454580Y-98489520D02*
X148519100Y-98425000D01*
X136515000Y-108910000D02*
X136840000Y-108585000D01*
X121007500Y-118110000D02*
X121007500Y-115927500D01*
X109015000Y-105410000D02*
X109015000Y-103710000D01*
X134342500Y-115927500D02*
X133985000Y-115570000D01*
X95250000Y-115570000D02*
X94337500Y-116482500D01*
X78105000Y-123825000D02*
X78105000Y-127000000D01*
X152195000Y-105410000D02*
X152195000Y-103710000D01*
X104417500Y-120650000D02*
X104417500Y-123467500D01*
X131125000Y-120650000D02*
X131125000Y-124140000D01*
X136515000Y-115560000D02*
X136525000Y-115570000D01*
X147325000Y-99695000D02*
X147325000Y-99055000D01*
X152195000Y-105410000D02*
X152195000Y-108060000D01*
X94615000Y-115570000D02*
X81915000Y-115570000D01*
X105490000Y-94220000D02*
X105410000Y-94300000D01*
X104417500Y-123467500D02*
X104775000Y-123825000D01*
X157685000Y-116410000D02*
X157685000Y-118110000D01*
X81002500Y-118110000D02*
X80325000Y-118110000D01*
X156845000Y-115570000D02*
X157685000Y-116410000D01*
X94337500Y-116482500D02*
X94337500Y-118130000D01*
X131445000Y-124460000D02*
X131445000Y-127000000D01*
X109225000Y-108585000D02*
X109225000Y-105620000D01*
X157795000Y-123505000D02*
X158115000Y-123825000D01*
X136515000Y-113030000D02*
X136515000Y-108910000D01*
X94337500Y-118130000D02*
X93325000Y-118130000D01*
X135255000Y-115570000D02*
X133985000Y-115570000D01*
X133985000Y-115570000D02*
X120650000Y-115570000D01*
X152195000Y-102440000D02*
X152400000Y-102235000D01*
X97790000Y-109220000D02*
X101322500Y-109220000D01*
X117475000Y-123825000D02*
X118110000Y-124460000D01*
X147325000Y-99695000D02*
X147325000Y-100540000D01*
X117475000Y-120650000D02*
X117475000Y-123825000D01*
X147677500Y-118110000D02*
X147320000Y-118110000D01*
X112825000Y-88265000D02*
X112825000Y-91275000D01*
X136525000Y-115570000D02*
X137795000Y-115570000D01*
X109225000Y-105620000D02*
X109015000Y-105410000D01*
X101322500Y-107592500D02*
X101957500Y-106957500D01*
X147677500Y-118110000D02*
X147677500Y-116482500D01*
X120015000Y-118110000D02*
X117475000Y-120650000D01*
X144460000Y-120650000D02*
X144460000Y-123505000D01*
X131125000Y-124140000D02*
X131445000Y-124460000D01*
X136515000Y-113030000D02*
X136515000Y-115560000D01*
X103300000Y-93775000D02*
X101600000Y-93775000D01*
X109880000Y-94220000D02*
X105490000Y-94220000D01*
X152400000Y-102235000D02*
X153670000Y-102235000D01*
X157685000Y-118110000D02*
X157685000Y-120540000D01*
X121007500Y-118110000D02*
X120015000Y-118110000D01*
X119810000Y-102125000D02*
X120970000Y-100965000D01*
X103825000Y-94300000D02*
X103300000Y-93775000D01*
X135255000Y-115570000D02*
X136525000Y-115570000D01*
X95250000Y-111760000D02*
X97790000Y-109220000D01*
X104775000Y-123825000D02*
X104775000Y-127020000D01*
X147325000Y-99055000D02*
X147890480Y-98489520D01*
X77785000Y-123505000D02*
X78105000Y-123825000D01*
X147530000Y-100540000D02*
X149225000Y-102235000D01*
X157685000Y-120540000D02*
X157795000Y-120650000D01*
X146685000Y-115570000D02*
X137795000Y-115570000D01*
X134342500Y-118110000D02*
X133665000Y-118110000D01*
X106957500Y-118110000D02*
X104417500Y-120650000D01*
X152195000Y-108060000D02*
X152720000Y-108585000D01*
X157685000Y-118110000D02*
X161012500Y-118110000D01*
X101957500Y-105410000D02*
X101957500Y-102870000D01*
X133665000Y-118110000D02*
X131125000Y-120650000D01*
X144460000Y-123505000D02*
X144780000Y-123825000D01*
X95250000Y-115570000D02*
X95250000Y-111760000D01*
X105410000Y-94300000D02*
X103825000Y-94300000D01*
X153670000Y-102235000D02*
X155575000Y-100330000D01*
X148519100Y-97860900D02*
X148519100Y-98425000D01*
X80325000Y-118110000D02*
X77785000Y-120650000D01*
X118110000Y-124460000D02*
X118110000Y-127000000D01*
X147320000Y-118110000D02*
X144780000Y-120650000D01*
X121007500Y-115927500D02*
X120650000Y-115570000D01*
X134342500Y-118110000D02*
X134342500Y-115927500D01*
X90805000Y-120650000D02*
X90805000Y-123825000D01*
X113985000Y-91440000D02*
X112990000Y-91440000D01*
X119810000Y-104215000D02*
X119810000Y-102125000D01*
X155575000Y-100330000D02*
X161290000Y-100330000D01*
X81002500Y-116482500D02*
X81002500Y-118110000D01*
X158115000Y-123825000D02*
X158115000Y-127000000D01*
X77785000Y-120650000D02*
X77785000Y-123505000D01*
X101322500Y-109220000D02*
X101322500Y-107592500D01*
X149225000Y-97155000D02*
X148519100Y-97860900D01*
X149225000Y-102235000D02*
X152400000Y-102235000D01*
X144780000Y-123825000D02*
X144780000Y-127000000D01*
%TO.N,+3V3*%
X149145000Y-92075000D02*
X149145000Y-89535000D01*
X111965000Y-106475000D02*
X119810000Y-106475000D01*
X149225000Y-99695000D02*
X149860000Y-99695000D01*
X122890000Y-99400000D02*
X122870000Y-99380000D01*
X119657500Y-109220000D02*
X119657500Y-111760000D01*
X120650000Y-96520000D02*
X122870000Y-98740000D01*
X121007500Y-90805000D02*
X121007500Y-88265000D01*
X122125000Y-106475000D02*
X122760000Y-105840000D01*
X116180000Y-96520000D02*
X120650000Y-96520000D01*
X145495000Y-108585000D02*
X145495000Y-111760000D01*
X118745000Y-91440000D02*
X119380000Y-90805000D01*
X115885000Y-91440000D02*
X118745000Y-91440000D01*
X154620000Y-108585000D02*
X154620000Y-111440000D01*
X122870000Y-104105000D02*
X122760000Y-104215000D01*
X133350000Y-108585000D02*
X134940000Y-108585000D01*
X119810000Y-106475000D02*
X122125000Y-106475000D01*
X122870000Y-99380000D02*
X122870000Y-100965000D01*
X134940000Y-106995000D02*
X135255000Y-106680000D01*
X111125000Y-108585000D02*
X111965000Y-107745000D01*
X127655000Y-99400000D02*
X122890000Y-99400000D01*
X145415000Y-106680000D02*
X145495000Y-106760000D01*
X115775000Y-88265000D02*
X115775000Y-91330000D01*
X150495000Y-99060000D02*
X150495000Y-95250000D01*
X122760000Y-105840000D02*
X122760000Y-104215000D01*
X149145000Y-94615000D02*
X149145000Y-92075000D01*
X119657500Y-109220000D02*
X119657500Y-106627500D01*
X111965000Y-106475000D02*
X111965000Y-105410000D01*
X150495000Y-95250000D02*
X149860000Y-94615000D01*
X115885000Y-93025000D02*
X116180000Y-93320000D01*
X109880000Y-96520000D02*
X116180000Y-96520000D01*
D29*
X154620000Y-111440000D02*
X154940000Y-111760000D01*
D28*
X145495000Y-106760000D02*
X145495000Y-108585000D01*
X115775000Y-91330000D02*
X115885000Y-91440000D01*
X134940000Y-110170000D02*
X133975000Y-111135000D01*
X119657500Y-106627500D02*
X119810000Y-106475000D01*
X127655000Y-102890000D02*
X133350000Y-108585000D01*
X119380000Y-90805000D02*
X121007500Y-90805000D01*
X115885000Y-91440000D02*
X115885000Y-93025000D01*
X155145000Y-108060000D02*
X154620000Y-108585000D01*
X122870000Y-98740000D02*
X122870000Y-99380000D01*
X135255000Y-106680000D02*
X145415000Y-106680000D01*
X133975000Y-111135000D02*
X133975000Y-113030000D01*
X111965000Y-107745000D02*
X111965000Y-106475000D01*
X149860000Y-94615000D02*
X149145000Y-94615000D01*
X116180000Y-93320000D02*
X116180000Y-96520000D01*
X134940000Y-108585000D02*
X134940000Y-110170000D01*
X127655000Y-99400000D02*
X127655000Y-102890000D01*
X155145000Y-105410000D02*
X155145000Y-108060000D01*
X149860000Y-99695000D02*
X150495000Y-99060000D01*
X122870000Y-100965000D02*
X122870000Y-104105000D01*
X134940000Y-108585000D02*
X134940000Y-106995000D01*
D30*
%TO.N,/Ain0*%
X103782500Y-102870000D02*
X103782500Y-105410000D01*
X103782500Y-100330000D02*
X103782500Y-102870000D01*
%TO.N,/Ain1*%
X82827500Y-120650000D02*
X82827500Y-118110000D01*
%TO.N,/Ain3*%
X109497500Y-120650000D02*
X109497500Y-118110000D01*
%TO.N,/Ain2*%
X96162500Y-120670000D02*
X96162500Y-118130000D01*
%TO.N,/SDA*%
X146050000Y-92075000D02*
X147320000Y-92075000D01*
X116840000Y-111125000D02*
X117475000Y-111760000D01*
X118110000Y-113030000D02*
X128895000Y-113030000D01*
X142855000Y-91400000D02*
X145375000Y-91400000D01*
X117832500Y-112752500D02*
X118110000Y-113030000D01*
X145375000Y-91400000D02*
X146050000Y-92075000D01*
X117475000Y-111760000D02*
X117832500Y-111760000D01*
X117832500Y-111760000D02*
X117832500Y-112752500D01*
D29*
%TO.N,/SCL*%
X115570000Y-109220000D02*
X114300000Y-110490000D01*
D30*
X142855000Y-89400000D02*
X147185000Y-89400000D01*
X150495000Y-94083246D02*
X154305000Y-97893246D01*
X117832500Y-109220000D02*
X115570000Y-109220000D01*
X149694972Y-88390980D02*
X150495000Y-89191008D01*
X150495000Y-89191008D02*
X150495000Y-94083246D01*
X147185000Y-89400000D02*
X147320000Y-89535000D01*
X148464020Y-88390980D02*
X149694972Y-88390980D01*
X147320000Y-89535000D02*
X148464020Y-88390980D01*
%TO.N,/Ain4*%
X122832500Y-120650000D02*
X122832500Y-118110000D01*
%TO.N,/Ain5*%
X136167500Y-120650000D02*
X136167500Y-118110000D01*
%TO.N,/Ain7*%
X151765000Y-118110000D02*
X152400000Y-117475000D01*
X149502500Y-118110000D02*
X149502500Y-120650000D01*
X149502500Y-118110000D02*
X151765000Y-118110000D01*
%TO.N,/Ain6*%
X162837500Y-120650000D02*
X162837500Y-118110000D01*
D28*
%TO.N,+12V*%
X96520000Y-100330000D02*
X93345000Y-97155000D01*
X101957500Y-100330000D02*
X100330000Y-100330000D01*
X93345000Y-97155000D02*
X93345000Y-91440000D01*
X98425000Y-91440000D02*
X93345000Y-91440000D01*
X106045000Y-91440000D02*
X98425000Y-91440000D01*
X93345000Y-91440000D02*
X83820000Y-91440000D01*
X106680000Y-90805000D02*
X106045000Y-91440000D01*
X106680000Y-88900000D02*
X106680000Y-90805000D01*
X83820000Y-91440000D02*
X81280000Y-88900000D01*
X100330000Y-100330000D02*
X96520000Y-100330000D01*
D30*
%TO.N,Net-(J5-Pad3)*%
X81002500Y-120650000D02*
X81002500Y-123467500D01*
X80645000Y-123825000D02*
X80645000Y-127000000D01*
X81002500Y-123467500D02*
X80645000Y-123825000D01*
%TO.N,Net-(J6-Pad3)*%
X94337500Y-124102500D02*
X93980000Y-124460000D01*
X93980000Y-124460000D02*
X93980000Y-127020000D01*
X94337500Y-120670000D02*
X94337500Y-124102500D01*
%TO.N,Net-(J7-Pad3)*%
X107672500Y-120650000D02*
X107672500Y-123467500D01*
X107672500Y-123467500D02*
X107315000Y-123825000D01*
X107315000Y-123825000D02*
X107315000Y-127020000D01*
%TO.N,Net-(J9-Pad3)*%
X121007500Y-120650000D02*
X121007500Y-124102500D01*
X121007500Y-124102500D02*
X120650000Y-124460000D01*
X120650000Y-124460000D02*
X120650000Y-127000000D01*
%TO.N,Net-(J10-Pad3)*%
X133985000Y-121007500D02*
X134342500Y-120650000D01*
X133985000Y-127000000D02*
X133985000Y-121007500D01*
%TO.N,Net-(J11-Pad3)*%
X160655000Y-127000000D02*
X160655000Y-121007500D01*
X160655000Y-121007500D02*
X161012500Y-120650000D01*
%TO.N,Net-(J12-Pad3)*%
X147320000Y-127000000D02*
X147320000Y-121007500D01*
X147320000Y-121007500D02*
X147677500Y-120650000D01*
%TO.N,/TxD*%
X142855000Y-85400000D02*
X161600000Y-85400000D01*
X163195000Y-86995000D02*
X163195000Y-94615000D01*
X163195000Y-94615000D02*
X162560000Y-95250000D01*
X161600000Y-85400000D02*
X163195000Y-86995000D01*
X162560000Y-95250000D02*
X161290000Y-95250000D01*
%TO.N,/RST*%
X125697500Y-85400000D02*
X122832500Y-88265000D01*
X127655000Y-85400000D02*
X125697500Y-85400000D01*
X136835000Y-85400000D02*
X137795000Y-86360000D01*
X137795000Y-86360000D02*
X156210000Y-86360000D01*
X127655000Y-85400000D02*
X136835000Y-85400000D01*
%TO.N,/GPIO0*%
X161290000Y-90170000D02*
X151765000Y-90170000D01*
X146050000Y-94615000D02*
X147320000Y-94615000D01*
X144835000Y-93400000D02*
X146050000Y-94615000D01*
X142855000Y-93400000D02*
X144835000Y-93400000D01*
%TO.N,/RxD*%
X161060000Y-87400000D02*
X161290000Y-87630000D01*
X142855000Y-87400000D02*
X161060000Y-87400000D01*
%TO.N,Net-(R5-Pad1)*%
X123825000Y-90805000D02*
X125230000Y-89400000D01*
X127655000Y-89400000D02*
X125230000Y-89400000D01*
X122832500Y-90805000D02*
X123825000Y-90805000D01*
%TO.N,Net-(R11-Pad1)*%
X145170000Y-97400000D02*
X145415000Y-97155000D01*
X142855000Y-97400000D02*
X145170000Y-97400000D01*
X145415000Y-97155000D02*
X147400000Y-97155000D01*
%TO.N,Net-(J15-Pad1)*%
X95250000Y-88900000D02*
X102870000Y-88900000D01*
%TD*%
M02*
