M48
METRIC,TZ
T1C0.400
T2C1.000
T3C1.190
%
G90
G05
T1
X91440Y-117475
X92075Y-100965
X97790Y-97155
X104140Y-114300
X104140Y-118745
X106045Y-107315
X106045Y-112395
X106680Y-116205
X111125Y-113665
X112285Y-102125
X112395Y-94615
X114461Y-112177
X114935Y-113665
X114935Y-117475
X115570Y-109220
X131445Y-94615
X132080Y-116840
X144780Y-117475
X145415Y-93980
X146050Y-92075
X147955Y-104140
X149225Y-113030
X150495Y-100330
X151130Y-114300
X151765Y-90170
X152400Y-117475
X154305Y-97790
X154940Y-103505
X154940Y-113030
X156210Y-86360
X160020Y-110643
X161290Y-109855
T2
X81280Y-88900
X81280Y-111760
X95250Y-88900
X95250Y-111760
X102870Y-88900
X106680Y-88900
X128895Y-113030
X131435Y-113030
X133975Y-113030
X136515Y-113030
X161290Y-87630
X161290Y-90170
X161290Y-92710
X161290Y-95250
X161290Y-97790
X161290Y-100330
T3
X75565Y-127000
X78105Y-127000
X80645Y-127000
X83185Y-127000
X88900Y-127020
X91440Y-127020
X93980Y-127020
X96520Y-127020
X102235Y-127020
X104775Y-127020
X107315Y-127020
X109855Y-127020
X115570Y-127000
X118110Y-127000
X120650Y-127000
X123190Y-127000
X128905Y-127000
X131445Y-127000
X133985Y-127000
X136525Y-127000
X142240Y-127000
X144780Y-127000
X147320Y-127000
X149860Y-127000
X155575Y-127000
X158115Y-127000
X160655Y-127000
X163195Y-127000
T0
M30
