  0
SECTION
  2
HEADER
  9
$ANGBASE
  50
0.0
  9
$ANGDIR
  70
1
  9
$MEASUREMENT
  70
0
  0
ENDSEC
  0
SECTION
  2
TABLES
  0
TABLE
  2
LTYPE
  70
4
  0
LTYPE
  5
40F
  2
CONTINUOUS
  70
0
  3
Solid line
  72
65
  73
0
  40
0.0
  0
LTYPE
  5
410
  2
DASHDOT
 70
0
  3
Dash Dot ____ _ ____ _
 72
65
 73
4
 40
2.0
 49
1.25
 49
-0.25
 49
0.25
 49
-0.25
  0
LTYPE
  5
411
  2
DASHED
 70
0
  3
Dashed __ __ __ __ __
 72
65
 73
2
 40
0.75
 49
0.5
 49
-0.25
  0
LTYPE
  5
43B
  2
DOTTED
 70
0
  3
Dotted .  .  .  .
 72
65
 73
2
 40
0.2
 49
0.0
 49
-0.2
  0
ENDTAB
  0
TABLE
  2
STYLE
  70
4
  0
STYLE
  2
KICAD
  70
0
  40
0
  41
1
  42
1
  50
0
  71
0
  3
isocp.shx
  0
STYLE
  2
KICADB
  70
0
  40
0
  41
1
  42
1
  50
0
  71
0
  3
isocp.shx
  0
STYLE
  2
KICADI
  70
0
  40
0
  41
1
  42
1
  50
15
  71
0
  3
isocp.shx
  0
STYLE
  2
KICADBI
  70
0
  40
0
  41
1
  42
1
  50
15
  71
0
  3
isocp.shx
  0
ENDTAB
  0
TABLE
  2
LAYER
  70
1
  0
LAYER
  2
BLACK
  70
0
  62
7
  6
CONTINUOUS
  0
ENDTAB
  0
ENDSEC
  0
SECTION
  2
ENTITIES
0
LINE
8
BLACK
6
CONTINUOUS
10
4.05318
20
-4.95843
11
4.05637
21
-4.96056
0
LINE
8
BLACK
6
CONTINUOUS
10
4.05637
20
-4.96056
11
4.0585
21
-4.96375
0
LINE
8
BLACK
6
CONTINUOUS
10
4.0585
20
-4.96375
11
4.05925
21
-4.96752
0
LINE
8
BLACK
6
CONTINUOUS
10
4.05925
20
-4.96752
11
4.05925
21
-5.03406
0
LINE
8
BLACK
6
CONTINUOUS
10
4.05925
20
-5.03406
11
4.0585
21
-5.03782
0
LINE
8
BLACK
6
CONTINUOUS
10
4.0585
20
-5.03782
11
4.05637
21
-5.04101
0
LINE
8
BLACK
6
CONTINUOUS
10
4.05637
20
-5.04101
11
4.05318
21
-5.04315
0
LINE
8
BLACK
6
CONTINUOUS
10
4.05318
20
-5.04315
11
4.04941
21
-5.0439
0
LINE
8
BLACK
6
CONTINUOUS
10
4.04941
20
-5.0439
11
4.00059
21
-5.0439
0
LINE
8
BLACK
6
CONTINUOUS
10
4.00059
20
-5.0439
11
3.99682
21
-5.04315
0
LINE
8
BLACK
6
CONTINUOUS
10
3.99682
20
-5.04315
11
3.99363
21
-5.04101
0
LINE
8
BLACK
6
CONTINUOUS
10
3.99363
20
-5.04101
11
3.9915
21
-5.03782
0
LINE
8
BLACK
6
CONTINUOUS
10
3.9915
20
-5.03782
11
3.99075
21
-5.03406
0
LINE
8
BLACK
6
CONTINUOUS
10
3.99075
20
-5.03406
11
3.99075
21
-4.96752
0
LINE
8
BLACK
6
CONTINUOUS
10
3.99075
20
-4.96752
11
3.9915
21
-4.96375
0
LINE
8
BLACK
6
CONTINUOUS
10
3.9915
20
-4.96375
11
3.99363
21
-4.96056
0
LINE
8
BLACK
6
CONTINUOUS
10
3.99363
20
-4.96056
11
3.99682
21
-4.95843
0
LINE
8
BLACK
6
CONTINUOUS
10
3.99682
20
-4.95843
11
4.00059
21
-4.95768
0
LINE
8
BLACK
6
CONTINUOUS
10
4.00059
20
-4.95768
11
4.04941
21
-4.95768
0
LINE
8
BLACK
6
CONTINUOUS
10
4.04941
20
-4.95768
11
4.05318
21
-4.95843
0
LINE
8
BLACK
6
CONTINUOUS
10
3.52818
20
-4.95843
11
3.53137
21
-4.96056
0
LINE
8
BLACK
6
CONTINUOUS
10
3.53137
20
-4.96056
11
3.5335
21
-4.96375
0
LINE
8
BLACK
6
CONTINUOUS
10
3.5335
20
-4.96375
11
3.53425
21
-4.96752
0
LINE
8
BLACK
6
CONTINUOUS
10
3.53425
20
-4.96752
11
3.53425
21
-5.03406
0
LINE
8
BLACK
6
CONTINUOUS
10
3.53425
20
-5.03406
11
3.5335
21
-5.03782
0
LINE
8
BLACK
6
CONTINUOUS
10
3.5335
20
-5.03782
11
3.53137
21
-5.04101
0
LINE
8
BLACK
6
CONTINUOUS
10
3.53137
20
-5.04101
11
3.52818
21
-5.04315
0
LINE
8
BLACK
6
CONTINUOUS
10
3.52818
20
-5.04315
11
3.52441
21
-5.0439
0
LINE
8
BLACK
6
CONTINUOUS
10
3.52441
20
-5.0439
11
3.47559
21
-5.0439
0
LINE
8
BLACK
6
CONTINUOUS
10
3.47559
20
-5.0439
11
3.47182
21
-5.04315
0
LINE
8
BLACK
6
CONTINUOUS
10
3.47182
20
-5.04315
11
3.46863
21
-5.04101
0
LINE
8
BLACK
6
CONTINUOUS
10
3.46863
20
-5.04101
11
3.4665
21
-5.03782
0
LINE
8
BLACK
6
CONTINUOUS
10
3.4665
20
-5.03782
11
3.46575
21
-5.03406
0
LINE
8
BLACK
6
CONTINUOUS
10
3.46575
20
-5.03406
11
3.46575
21
-4.96752
0
LINE
8
BLACK
6
CONTINUOUS
10
3.46575
20
-4.96752
11
3.4665
21
-4.96375
0
LINE
8
BLACK
6
CONTINUOUS
10
3.4665
20
-4.96375
11
3.46863
21
-4.96056
0
LINE
8
BLACK
6
CONTINUOUS
10
3.46863
20
-4.96056
11
3.47182
21
-4.95843
0
LINE
8
BLACK
6
CONTINUOUS
10
3.47182
20
-4.95843
11
3.47559
21
-4.95768
0
LINE
8
BLACK
6
CONTINUOUS
10
3.47559
20
-4.95768
11
3.52441
21
-4.95768
0
LINE
8
BLACK
6
CONTINUOUS
10
3.52441
20
-4.95768
11
3.52818
21
-4.95843
0
LINE
8
BLACK
6
CONTINUOUS
10
4.13421
20
-4.95894
11
4.14108
21
-4.96169
0
LINE
8
BLACK
6
CONTINUOUS
10
4.14108
20
-4.96169
11
4.1472
21
-4.96584
0
LINE
8
BLACK
6
CONTINUOUS
10
4.1472
20
-4.96584
11
4.15228
21
-4.97122
0
LINE
8
BLACK
6
CONTINUOUS
10
4.15228
20
-4.97122
11
4.15609
21
-4.97756
0
LINE
8
BLACK
6
CONTINUOUS
10
4.15609
20
-4.97756
11
4.15845
21
-4.98457
0
LINE
8
BLACK
6
CONTINUOUS
10
4.15845
20
-4.98457
11
4.15925
21
-4.99193
0
LINE
8
BLACK
6
CONTINUOUS
10
4.15925
20
-4.99193
11
4.15925
21
-5.00965
0
LINE
8
BLACK
6
CONTINUOUS
10
4.15925
20
-5.00965
11
4.15904
21
-5.01346
0
LINE
8
BLACK
6
CONTINUOUS
10
4.15904
20
-5.01346
11
4.15742
21
-5.02068
0
LINE
8
BLACK
6
CONTINUOUS
10
4.15742
20
-5.02068
11
4.1543
21
-5.02739
0
LINE
8
BLACK
6
CONTINUOUS
10
4.1543
20
-5.02739
11
4.1498
21
-5.03327
0
LINE
8
BLACK
6
CONTINUOUS
10
4.1498
20
-5.03327
11
4.14415
21
-5.03804
0
LINE
8
BLACK
6
CONTINUOUS
10
4.14415
20
-5.03804
11
4.13761
21
-5.04149
0
LINE
8
BLACK
6
CONTINUOUS
10
4.13761
20
-5.04149
11
4.13048
21
-5.04346
0
LINE
8
BLACK
6
CONTINUOUS
10
4.13048
20
-5.04346
11
4.12309
21
-5.04384
0
LINE
8
BLACK
6
CONTINUOUS
10
4.12309
20
-5.04384
11
4.11579
21
-5.04264
0
LINE
8
BLACK
6
CONTINUOUS
10
4.11579
20
-5.04264
11
4.10892
21
-5.03989
0
LINE
8
BLACK
6
CONTINUOUS
10
4.10892
20
-5.03989
11
4.1028
21
-5.03573
0
LINE
8
BLACK
6
CONTINUOUS
10
4.1028
20
-5.03573
11
4.09772
21
-5.03035
0
LINE
8
BLACK
6
CONTINUOUS
10
4.09772
20
-5.03035
11
4.09391
21
-5.02401
0
LINE
8
BLACK
6
CONTINUOUS
10
4.09391
20
-5.02401
11
4.09155
21
-5.017
0
LINE
8
BLACK
6
CONTINUOUS
10
4.09155
20
-5.017
11
4.09075
21
-5.00965
0
LINE
8
BLACK
6
CONTINUOUS
10
4.09075
20
-5.00965
11
4.09075
21
-4.99193
0
LINE
8
BLACK
6
CONTINUOUS
10
4.09075
20
-4.99193
11
4.09096
21
-4.98811
0
LINE
8
BLACK
6
CONTINUOUS
10
4.09096
20
-4.98811
11
4.09258
21
-4.98089
0
LINE
8
BLACK
6
CONTINUOUS
10
4.09258
20
-4.98089
11
4.0957
21
-4.97419
0
LINE
8
BLACK
6
CONTINUOUS
10
4.0957
20
-4.97419
11
4.1002
21
-4.96831
0
LINE
8
BLACK
6
CONTINUOUS
10
4.1002
20
-4.96831
11
4.10585
21
-4.96353
0
LINE
8
BLACK
6
CONTINUOUS
10
4.10585
20
-4.96353
11
4.11239
21
-4.96008
0
LINE
8
BLACK
6
CONTINUOUS
10
4.11239
20
-4.96008
11
4.11952
21
-4.95812
0
LINE
8
BLACK
6
CONTINUOUS
10
4.11952
20
-4.95812
11
4.12691
21
-4.95773
0
LINE
8
BLACK
6
CONTINUOUS
10
4.12691
20
-4.95773
11
4.13421
21
-4.95894
0
LINE
8
BLACK
6
CONTINUOUS
10
4.23421
20
-4.95894
11
4.24108
21
-4.96169
0
LINE
8
BLACK
6
CONTINUOUS
10
4.24108
20
-4.96169
11
4.2472
21
-4.96584
0
LINE
8
BLACK
6
CONTINUOUS
10
4.2472
20
-4.96584
11
4.25228
21
-4.97122
0
LINE
8
BLACK
6
CONTINUOUS
10
4.25228
20
-4.97122
11
4.25609
21
-4.97756
0
LINE
8
BLACK
6
CONTINUOUS
10
4.25609
20
-4.97756
11
4.25845
21
-4.98457
0
LINE
8
BLACK
6
CONTINUOUS
10
4.25845
20
-4.98457
11
4.25925
21
-4.99193
0
LINE
8
BLACK
6
CONTINUOUS
10
4.25925
20
-4.99193
11
4.25925
21
-5.00965
0
LINE
8
BLACK
6
CONTINUOUS
10
4.25925
20
-5.00965
11
4.25904
21
-5.01346
0
LINE
8
BLACK
6
CONTINUOUS
10
4.25904
20
-5.01346
11
4.25742
21
-5.02068
0
LINE
8
BLACK
6
CONTINUOUS
10
4.25742
20
-5.02068
11
4.2543
21
-5.02739
0
LINE
8
BLACK
6
CONTINUOUS
10
4.2543
20
-5.02739
11
4.2498
21
-5.03327
0
LINE
8
BLACK
6
CONTINUOUS
10
4.2498
20
-5.03327
11
4.24415
21
-5.03804
0
LINE
8
BLACK
6
CONTINUOUS
10
4.24415
20
-5.03804
11
4.23761
21
-5.04149
0
LINE
8
BLACK
6
CONTINUOUS
10
4.23761
20
-5.04149
11
4.23048
21
-5.04346
0
LINE
8
BLACK
6
CONTINUOUS
10
4.23048
20
-5.04346
11
4.22309
21
-5.04384
0
LINE
8
BLACK
6
CONTINUOUS
10
4.22309
20
-5.04384
11
4.21579
21
-5.04264
0
LINE
8
BLACK
6
CONTINUOUS
10
4.21579
20
-5.04264
11
4.20892
21
-5.03989
0
LINE
8
BLACK
6
CONTINUOUS
10
4.20892
20
-5.03989
11
4.2028
21
-5.03573
0
LINE
8
BLACK
6
CONTINUOUS
10
4.2028
20
-5.03573
11
4.19772
21
-5.03035
0
LINE
8
BLACK
6
CONTINUOUS
10
4.19772
20
-5.03035
11
4.19391
21
-5.02401
0
LINE
8
BLACK
6
CONTINUOUS
10
4.19391
20
-5.02401
11
4.19155
21
-5.017
0
LINE
8
BLACK
6
CONTINUOUS
10
4.19155
20
-5.017
11
4.19075
21
-5.00965
0
LINE
8
BLACK
6
CONTINUOUS
10
4.19075
20
-5.00965
11
4.19075
21
-4.99193
0
LINE
8
BLACK
6
CONTINUOUS
10
4.19075
20
-4.99193
11
4.19096
21
-4.98811
0
LINE
8
BLACK
6
CONTINUOUS
10
4.19096
20
-4.98811
11
4.19258
21
-4.98089
0
LINE
8
BLACK
6
CONTINUOUS
10
4.19258
20
-4.98089
11
4.1957
21
-4.97419
0
LINE
8
BLACK
6
CONTINUOUS
10
4.1957
20
-4.97419
11
4.2002
21
-4.96831
0
LINE
8
BLACK
6
CONTINUOUS
10
4.2002
20
-4.96831
11
4.20585
21
-4.96353
0
LINE
8
BLACK
6
CONTINUOUS
10
4.20585
20
-4.96353
11
4.21239
21
-4.96008
0
LINE
8
BLACK
6
CONTINUOUS
10
4.21239
20
-4.96008
11
4.21952
21
-4.95812
0
LINE
8
BLACK
6
CONTINUOUS
10
4.21952
20
-4.95812
11
4.22691
21
-4.95773
0
LINE
8
BLACK
6
CONTINUOUS
10
4.22691
20
-4.95773
11
4.23421
21
-4.95894
0
LINE
8
BLACK
6
CONTINUOUS
10
4.33421
20
-4.95894
11
4.34108
21
-4.96169
0
LINE
8
BLACK
6
CONTINUOUS
10
4.34108
20
-4.96169
11
4.3472
21
-4.96584
0
LINE
8
BLACK
6
CONTINUOUS
10
4.3472
20
-4.96584
11
4.35228
21
-4.97122
0
LINE
8
BLACK
6
CONTINUOUS
10
4.35228
20
-4.97122
11
4.35609
21
-4.97756
0
LINE
8
BLACK
6
CONTINUOUS
10
4.35609
20
-4.97756
11
4.35845
21
-4.98457
0
LINE
8
BLACK
6
CONTINUOUS
10
4.35845
20
-4.98457
11
4.35925
21
-4.99193
0
LINE
8
BLACK
6
CONTINUOUS
10
4.35925
20
-4.99193
11
4.35925
21
-5.00965
0
LINE
8
BLACK
6
CONTINUOUS
10
4.35925
20
-5.00965
11
4.35904
21
-5.01346
0
LINE
8
BLACK
6
CONTINUOUS
10
4.35904
20
-5.01346
11
4.35742
21
-5.02068
0
LINE
8
BLACK
6
CONTINUOUS
10
4.35742
20
-5.02068
11
4.3543
21
-5.02739
0
LINE
8
BLACK
6
CONTINUOUS
10
4.3543
20
-5.02739
11
4.3498
21
-5.03327
0
LINE
8
BLACK
6
CONTINUOUS
10
4.3498
20
-5.03327
11
4.34415
21
-5.03804
0
LINE
8
BLACK
6
CONTINUOUS
10
4.34415
20
-5.03804
11
4.33761
21
-5.04149
0
LINE
8
BLACK
6
CONTINUOUS
10
4.33761
20
-5.04149
11
4.33048
21
-5.04346
0
LINE
8
BLACK
6
CONTINUOUS
10
4.33048
20
-5.04346
11
4.32309
21
-5.04384
0
LINE
8
BLACK
6
CONTINUOUS
10
4.32309
20
-5.04384
11
4.31579
21
-5.04264
0
LINE
8
BLACK
6
CONTINUOUS
10
4.31579
20
-5.04264
11
4.30892
21
-5.03989
0
LINE
8
BLACK
6
CONTINUOUS
10
4.30892
20
-5.03989
11
4.3028
21
-5.03573
0
LINE
8
BLACK
6
CONTINUOUS
10
4.3028
20
-5.03573
11
4.29772
21
-5.03035
0
LINE
8
BLACK
6
CONTINUOUS
10
4.29772
20
-5.03035
11
4.29391
21
-5.02401
0
LINE
8
BLACK
6
CONTINUOUS
10
4.29391
20
-5.02401
11
4.29155
21
-5.017
0
LINE
8
BLACK
6
CONTINUOUS
10
4.29155
20
-5.017
11
4.29075
21
-5.00965
0
LINE
8
BLACK
6
CONTINUOUS
10
4.29075
20
-5.00965
11
4.29075
21
-4.99193
0
LINE
8
BLACK
6
CONTINUOUS
10
4.29075
20
-4.99193
11
4.29096
21
-4.98811
0
LINE
8
BLACK
6
CONTINUOUS
10
4.29096
20
-4.98811
11
4.29258
21
-4.98089
0
LINE
8
BLACK
6
CONTINUOUS
10
4.29258
20
-4.98089
11
4.2957
21
-4.97419
0
LINE
8
BLACK
6
CONTINUOUS
10
4.2957
20
-4.97419
11
4.3002
21
-4.96831
0
LINE
8
BLACK
6
CONTINUOUS
10
4.3002
20
-4.96831
11
4.30585
21
-4.96353
0
LINE
8
BLACK
6
CONTINUOUS
10
4.30585
20
-4.96353
11
4.31239
21
-4.96008
0
LINE
8
BLACK
6
CONTINUOUS
10
4.31239
20
-4.96008
11
4.31952
21
-4.95812
0
LINE
8
BLACK
6
CONTINUOUS
10
4.31952
20
-4.95812
11
4.32691
21
-4.95773
0
LINE
8
BLACK
6
CONTINUOUS
10
4.32691
20
-4.95773
11
4.33421
21
-4.95894
0
LINE
8
BLACK
6
CONTINUOUS
10
3.70921
20
-4.95894
11
3.71608
21
-4.96169
0
LINE
8
BLACK
6
CONTINUOUS
10
3.71608
20
-4.96169
11
3.7222
21
-4.96584
0
LINE
8
BLACK
6
CONTINUOUS
10
3.7222
20
-4.96584
11
3.72728
21
-4.97122
0
LINE
8
BLACK
6
CONTINUOUS
10
3.72728
20
-4.97122
11
3.73109
21
-4.97756
0
LINE
8
BLACK
6
CONTINUOUS
10
3.73109
20
-4.97756
11
3.73345
21
-4.98457
0
LINE
8
BLACK
6
CONTINUOUS
10
3.73345
20
-4.98457
11
3.73425
21
-4.99193
0
LINE
8
BLACK
6
CONTINUOUS
10
3.73425
20
-4.99193
11
3.73425
21
-5.00965
0
LINE
8
BLACK
6
CONTINUOUS
10
3.73425
20
-5.00965
11
3.73404
21
-5.01346
0
LINE
8
BLACK
6
CONTINUOUS
10
3.73404
20
-5.01346
11
3.73242
21
-5.02068
0
LINE
8
BLACK
6
CONTINUOUS
10
3.73242
20
-5.02068
11
3.7293
21
-5.02739
0
LINE
8
BLACK
6
CONTINUOUS
10
3.7293
20
-5.02739
11
3.7248
21
-5.03327
0
LINE
8
BLACK
6
CONTINUOUS
10
3.7248
20
-5.03327
11
3.71915
21
-5.03804
0
LINE
8
BLACK
6
CONTINUOUS
10
3.71915
20
-5.03804
11
3.71261
21
-5.04149
0
LINE
8
BLACK
6
CONTINUOUS
10
3.71261
20
-5.04149
11
3.70548
21
-5.04346
0
LINE
8
BLACK
6
CONTINUOUS
10
3.70548
20
-5.04346
11
3.69809
21
-5.04384
0
LINE
8
BLACK
6
CONTINUOUS
10
3.69809
20
-5.04384
11
3.69079
21
-5.04264
0
LINE
8
BLACK
6
CONTINUOUS
10
3.69079
20
-5.04264
11
3.68392
21
-5.03989
0
LINE
8
BLACK
6
CONTINUOUS
10
3.68392
20
-5.03989
11
3.6778
21
-5.03573
0
LINE
8
BLACK
6
CONTINUOUS
10
3.6778
20
-5.03573
11
3.67272
21
-5.03035
0
LINE
8
BLACK
6
CONTINUOUS
10
3.67272
20
-5.03035
11
3.66891
21
-5.02401
0
LINE
8
BLACK
6
CONTINUOUS
10
3.66891
20
-5.02401
11
3.66655
21
-5.017
0
LINE
8
BLACK
6
CONTINUOUS
10
3.66655
20
-5.017
11
3.66575
21
-5.00965
0
LINE
8
BLACK
6
CONTINUOUS
10
3.66575
20
-5.00965
11
3.66575
21
-4.99193
0
LINE
8
BLACK
6
CONTINUOUS
10
3.66575
20
-4.99193
11
3.66596
21
-4.98811
0
LINE
8
BLACK
6
CONTINUOUS
10
3.66596
20
-4.98811
11
3.66758
21
-4.98089
0
LINE
8
BLACK
6
CONTINUOUS
10
3.66758
20
-4.98089
11
3.6707
21
-4.97419
0
LINE
8
BLACK
6
CONTINUOUS
10
3.6707
20
-4.97419
11
3.6752
21
-4.96831
0
LINE
8
BLACK
6
CONTINUOUS
10
3.6752
20
-4.96831
11
3.68085
21
-4.96353
0
LINE
8
BLACK
6
CONTINUOUS
10
3.68085
20
-4.96353
11
3.68739
21
-4.96008
0
LINE
8
BLACK
6
CONTINUOUS
10
3.68739
20
-4.96008
11
3.69452
21
-4.95812
0
LINE
8
BLACK
6
CONTINUOUS
10
3.69452
20
-4.95812
11
3.70191
21
-4.95773
0
LINE
8
BLACK
6
CONTINUOUS
10
3.70191
20
-4.95773
11
3.70921
21
-4.95894
0
LINE
8
BLACK
6
CONTINUOUS
10
3.80921
20
-4.95894
11
3.81608
21
-4.96169
0
LINE
8
BLACK
6
CONTINUOUS
10
3.81608
20
-4.96169
11
3.8222
21
-4.96584
0
LINE
8
BLACK
6
CONTINUOUS
10
3.8222
20
-4.96584
11
3.82728
21
-4.97122
0
LINE
8
BLACK
6
CONTINUOUS
10
3.82728
20
-4.97122
11
3.83109
21
-4.97756
0
LINE
8
BLACK
6
CONTINUOUS
10
3.83109
20
-4.97756
11
3.83345
21
-4.98457
0
LINE
8
BLACK
6
CONTINUOUS
10
3.83345
20
-4.98457
11
3.83425
21
-4.99193
0
LINE
8
BLACK
6
CONTINUOUS
10
3.83425
20
-4.99193
11
3.83425
21
-5.00965
0
LINE
8
BLACK
6
CONTINUOUS
10
3.83425
20
-5.00965
11
3.83404
21
-5.01346
0
LINE
8
BLACK
6
CONTINUOUS
10
3.83404
20
-5.01346
11
3.83242
21
-5.02068
0
LINE
8
BLACK
6
CONTINUOUS
10
3.83242
20
-5.02068
11
3.8293
21
-5.02739
0
LINE
8
BLACK
6
CONTINUOUS
10
3.8293
20
-5.02739
11
3.8248
21
-5.03327
0
LINE
8
BLACK
6
CONTINUOUS
10
3.8248
20
-5.03327
11
3.81915
21
-5.03804
0
LINE
8
BLACK
6
CONTINUOUS
10
3.81915
20
-5.03804
11
3.81261
21
-5.04149
0
LINE
8
BLACK
6
CONTINUOUS
10
3.81261
20
-5.04149
11
3.80548
21
-5.04346
0
LINE
8
BLACK
6
CONTINUOUS
10
3.80548
20
-5.04346
11
3.79809
21
-5.04384
0
LINE
8
BLACK
6
CONTINUOUS
10
3.79809
20
-5.04384
11
3.79079
21
-5.04264
0
LINE
8
BLACK
6
CONTINUOUS
10
3.79079
20
-5.04264
11
3.78392
21
-5.03989
0
LINE
8
BLACK
6
CONTINUOUS
10
3.78392
20
-5.03989
11
3.7778
21
-5.03573
0
LINE
8
BLACK
6
CONTINUOUS
10
3.7778
20
-5.03573
11
3.77272
21
-5.03035
0
LINE
8
BLACK
6
CONTINUOUS
10
3.77272
20
-5.03035
11
3.76891
21
-5.02401
0
LINE
8
BLACK
6
CONTINUOUS
10
3.76891
20
-5.02401
11
3.76655
21
-5.017
0
LINE
8
BLACK
6
CONTINUOUS
10
3.76655
20
-5.017
11
3.76575
21
-5.00965
0
LINE
8
BLACK
6
CONTINUOUS
10
3.76575
20
-5.00965
11
3.76575
21
-4.99193
0
LINE
8
BLACK
6
CONTINUOUS
10
3.76575
20
-4.99193
11
3.76596
21
-4.98811
0
LINE
8
BLACK
6
CONTINUOUS
10
3.76596
20
-4.98811
11
3.76758
21
-4.98089
0
LINE
8
BLACK
6
CONTINUOUS
10
3.76758
20
-4.98089
11
3.7707
21
-4.97419
0
LINE
8
BLACK
6
CONTINUOUS
10
3.7707
20
-4.97419
11
3.7752
21
-4.96831
0
LINE
8
BLACK
6
CONTINUOUS
10
3.7752
20
-4.96831
11
3.78085
21
-4.96353
0
LINE
8
BLACK
6
CONTINUOUS
10
3.78085
20
-4.96353
11
3.78739
21
-4.96008
0
LINE
8
BLACK
6
CONTINUOUS
10
3.78739
20
-4.96008
11
3.79452
21
-4.95812
0
LINE
8
BLACK
6
CONTINUOUS
10
3.79452
20
-4.95812
11
3.80191
21
-4.95773
0
LINE
8
BLACK
6
CONTINUOUS
10
3.80191
20
-4.95773
11
3.80921
21
-4.95894
0
LINE
8
BLACK
6
CONTINUOUS
10
3.60921
20
-4.95894
11
3.61608
21
-4.96169
0
LINE
8
BLACK
6
CONTINUOUS
10
3.61608
20
-4.96169
11
3.6222
21
-4.96584
0
LINE
8
BLACK
6
CONTINUOUS
10
3.6222
20
-4.96584
11
3.62728
21
-4.97122
0
LINE
8
BLACK
6
CONTINUOUS
10
3.62728
20
-4.97122
11
3.63109
21
-4.97756
0
LINE
8
BLACK
6
CONTINUOUS
10
3.63109
20
-4.97756
11
3.63345
21
-4.98457
0
LINE
8
BLACK
6
CONTINUOUS
10
3.63345
20
-4.98457
11
3.63425
21
-4.99193
0
LINE
8
BLACK
6
CONTINUOUS
10
3.63425
20
-4.99193
11
3.63425
21
-5.00965
0
LINE
8
BLACK
6
CONTINUOUS
10
3.63425
20
-5.00965
11
3.63404
21
-5.01346
0
LINE
8
BLACK
6
CONTINUOUS
10
3.63404
20
-5.01346
11
3.63242
21
-5.02068
0
LINE
8
BLACK
6
CONTINUOUS
10
3.63242
20
-5.02068
11
3.6293
21
-5.02739
0
LINE
8
BLACK
6
CONTINUOUS
10
3.6293
20
-5.02739
11
3.6248
21
-5.03327
0
LINE
8
BLACK
6
CONTINUOUS
10
3.6248
20
-5.03327
11
3.61915
21
-5.03804
0
LINE
8
BLACK
6
CONTINUOUS
10
3.61915
20
-5.03804
11
3.61261
21
-5.04149
0
LINE
8
BLACK
6
CONTINUOUS
10
3.61261
20
-5.04149
11
3.60548
21
-5.04346
0
LINE
8
BLACK
6
CONTINUOUS
10
3.60548
20
-5.04346
11
3.59809
21
-5.04384
0
LINE
8
BLACK
6
CONTINUOUS
10
3.59809
20
-5.04384
11
3.59079
21
-5.04264
0
LINE
8
BLACK
6
CONTINUOUS
10
3.59079
20
-5.04264
11
3.58392
21
-5.03989
0
LINE
8
BLACK
6
CONTINUOUS
10
3.58392
20
-5.03989
11
3.5778
21
-5.03573
0
LINE
8
BLACK
6
CONTINUOUS
10
3.5778
20
-5.03573
11
3.57272
21
-5.03035
0
LINE
8
BLACK
6
CONTINUOUS
10
3.57272
20
-5.03035
11
3.56891
21
-5.02401
0
LINE
8
BLACK
6
CONTINUOUS
10
3.56891
20
-5.02401
11
3.56655
21
-5.017
0
LINE
8
BLACK
6
CONTINUOUS
10
3.56655
20
-5.017
11
3.56575
21
-5.00965
0
LINE
8
BLACK
6
CONTINUOUS
10
3.56575
20
-5.00965
11
3.56575
21
-4.99193
0
LINE
8
BLACK
6
CONTINUOUS
10
3.56575
20
-4.99193
11
3.56596
21
-4.98811
0
LINE
8
BLACK
6
CONTINUOUS
10
3.56596
20
-4.98811
11
3.56758
21
-4.98089
0
LINE
8
BLACK
6
CONTINUOUS
10
3.56758
20
-4.98089
11
3.5707
21
-4.97419
0
LINE
8
BLACK
6
CONTINUOUS
10
3.5707
20
-4.97419
11
3.5752
21
-4.96831
0
LINE
8
BLACK
6
CONTINUOUS
10
3.5752
20
-4.96831
11
3.58085
21
-4.96353
0
LINE
8
BLACK
6
CONTINUOUS
10
3.58085
20
-4.96353
11
3.58739
21
-4.96008
0
LINE
8
BLACK
6
CONTINUOUS
10
3.58739
20
-4.96008
11
3.59452
21
-4.95812
0
LINE
8
BLACK
6
CONTINUOUS
10
3.59452
20
-4.95812
11
3.60191
21
-4.95773
0
LINE
8
BLACK
6
CONTINUOUS
10
3.60191
20
-4.95773
11
3.60921
21
-4.95894
0
LINE
8
BLACK
6
CONTINUOUS
10
4.57818
20
-4.95764
11
4.58137
21
-4.95977
0
LINE
8
BLACK
6
CONTINUOUS
10
4.58137
20
-4.95977
11
4.5835
21
-4.96297
0
LINE
8
BLACK
6
CONTINUOUS
10
4.5835
20
-4.96297
11
4.58425
21
-4.96673
0
LINE
8
BLACK
6
CONTINUOUS
10
4.58425
20
-4.96673
11
4.58425
21
-5.03327
0
LINE
8
BLACK
6
CONTINUOUS
10
4.58425
20
-5.03327
11
4.5835
21
-5.03703
0
LINE
8
BLACK
6
CONTINUOUS
10
4.5835
20
-5.03703
11
4.58137
21
-5.04023
0
LINE
8
BLACK
6
CONTINUOUS
10
4.58137
20
-5.04023
11
4.57818
21
-5.04236
0
LINE
8
BLACK
6
CONTINUOUS
10
4.57818
20
-5.04236
11
4.57441
21
-5.04311
0
LINE
8
BLACK
6
CONTINUOUS
10
4.57441
20
-5.04311
11
4.52559
21
-5.04311
0
LINE
8
BLACK
6
CONTINUOUS
10
4.52559
20
-5.04311
11
4.52182
21
-5.04236
0
LINE
8
BLACK
6
CONTINUOUS
10
4.52182
20
-5.04236
11
4.51863
21
-5.04023
0
LINE
8
BLACK
6
CONTINUOUS
10
4.51863
20
-5.04023
11
4.5165
21
-5.03703
0
LINE
8
BLACK
6
CONTINUOUS
10
4.5165
20
-5.03703
11
4.51575
21
-5.03327
0
LINE
8
BLACK
6
CONTINUOUS
10
4.51575
20
-5.03327
11
4.51575
21
-4.96673
0
LINE
8
BLACK
6
CONTINUOUS
10
4.51575
20
-4.96673
11
4.5165
21
-4.96297
0
LINE
8
BLACK
6
CONTINUOUS
10
4.5165
20
-4.96297
11
4.51863
21
-4.95977
0
LINE
8
BLACK
6
CONTINUOUS
10
4.51863
20
-4.95977
11
4.52182
21
-4.95764
0
LINE
8
BLACK
6
CONTINUOUS
10
4.52182
20
-4.95764
11
4.52559
21
-4.95689
0
LINE
8
BLACK
6
CONTINUOUS
10
4.52559
20
-4.95689
11
4.57441
21
-4.95689
0
LINE
8
BLACK
6
CONTINUOUS
10
4.57441
20
-4.95689
11
4.57818
21
-4.95764
0
LINE
8
BLACK
6
CONTINUOUS
10
6.15318
20
-4.95764
11
6.15637
21
-4.95977
0
LINE
8
BLACK
6
CONTINUOUS
10
6.15637
20
-4.95977
11
6.1585
21
-4.96297
0
LINE
8
BLACK
6
CONTINUOUS
10
6.1585
20
-4.96297
11
6.15925
21
-4.96673
0
LINE
8
BLACK
6
CONTINUOUS
10
6.15925
20
-4.96673
11
6.15925
21
-5.03327
0
LINE
8
BLACK
6
CONTINUOUS
10
6.15925
20
-5.03327
11
6.1585
21
-5.03703
0
LINE
8
BLACK
6
CONTINUOUS
10
6.1585
20
-5.03703
11
6.15637
21
-5.04023
0
LINE
8
BLACK
6
CONTINUOUS
10
6.15637
20
-5.04023
11
6.15318
21
-5.04236
0
LINE
8
BLACK
6
CONTINUOUS
10
6.15318
20
-5.04236
11
6.14941
21
-5.04311
0
LINE
8
BLACK
6
CONTINUOUS
10
6.14941
20
-5.04311
11
6.10059
21
-5.04311
0
LINE
8
BLACK
6
CONTINUOUS
10
6.10059
20
-5.04311
11
6.09682
21
-5.04236
0
LINE
8
BLACK
6
CONTINUOUS
10
6.09682
20
-5.04236
11
6.09363
21
-5.04023
0
LINE
8
BLACK
6
CONTINUOUS
10
6.09363
20
-5.04023
11
6.0915
21
-5.03703
0
LINE
8
BLACK
6
CONTINUOUS
10
6.0915
20
-5.03703
11
6.09075
21
-5.03327
0
LINE
8
BLACK
6
CONTINUOUS
10
6.09075
20
-5.03327
11
6.09075
21
-4.96673
0
LINE
8
BLACK
6
CONTINUOUS
10
6.09075
20
-4.96673
11
6.0915
21
-4.96297
0
LINE
8
BLACK
6
CONTINUOUS
10
6.0915
20
-4.96297
11
6.09363
21
-4.95977
0
LINE
8
BLACK
6
CONTINUOUS
10
6.09363
20
-4.95977
11
6.09682
21
-4.95764
0
LINE
8
BLACK
6
CONTINUOUS
10
6.09682
20
-4.95764
11
6.10059
21
-4.95689
0
LINE
8
BLACK
6
CONTINUOUS
10
6.10059
20
-4.95689
11
6.14941
21
-4.95689
0
LINE
8
BLACK
6
CONTINUOUS
10
6.14941
20
-4.95689
11
6.15318
21
-4.95764
0
LINE
8
BLACK
6
CONTINUOUS
10
5.10318
20
-4.95764
11
5.10637
21
-4.95977
0
LINE
8
BLACK
6
CONTINUOUS
10
5.10637
20
-4.95977
11
5.1085
21
-4.96297
0
LINE
8
BLACK
6
CONTINUOUS
10
5.1085
20
-4.96297
11
5.10925
21
-4.96673
0
LINE
8
BLACK
6
CONTINUOUS
10
5.10925
20
-4.96673
11
5.10925
21
-5.03327
0
LINE
8
BLACK
6
CONTINUOUS
10
5.10925
20
-5.03327
11
5.1085
21
-5.03703
0
LINE
8
BLACK
6
CONTINUOUS
10
5.1085
20
-5.03703
11
5.10637
21
-5.04023
0
LINE
8
BLACK
6
CONTINUOUS
10
5.10637
20
-5.04023
11
5.10318
21
-5.04236
0
LINE
8
BLACK
6
CONTINUOUS
10
5.10318
20
-5.04236
11
5.09941
21
-5.04311
0
LINE
8
BLACK
6
CONTINUOUS
10
5.09941
20
-5.04311
11
5.05059
21
-5.04311
0
LINE
8
BLACK
6
CONTINUOUS
10
5.05059
20
-5.04311
11
5.04682
21
-5.04236
0
LINE
8
BLACK
6
CONTINUOUS
10
5.04682
20
-5.04236
11
5.04363
21
-5.04023
0
LINE
8
BLACK
6
CONTINUOUS
10
5.04363
20
-5.04023
11
5.0415
21
-5.03703
0
LINE
8
BLACK
6
CONTINUOUS
10
5.0415
20
-5.03703
11
5.04075
21
-5.03327
0
LINE
8
BLACK
6
CONTINUOUS
10
5.04075
20
-5.03327
11
5.04075
21
-4.96673
0
LINE
8
BLACK
6
CONTINUOUS
10
5.04075
20
-4.96673
11
5.0415
21
-4.96297
0
LINE
8
BLACK
6
CONTINUOUS
10
5.0415
20
-4.96297
11
5.04363
21
-4.95977
0
LINE
8
BLACK
6
CONTINUOUS
10
5.04363
20
-4.95977
11
5.04682
21
-4.95764
0
LINE
8
BLACK
6
CONTINUOUS
10
5.04682
20
-4.95764
11
5.05059
21
-4.95689
0
LINE
8
BLACK
6
CONTINUOUS
10
5.05059
20
-4.95689
11
5.09941
21
-4.95689
0
LINE
8
BLACK
6
CONTINUOUS
10
5.09941
20
-4.95689
11
5.10318
21
-4.95764
0
LINE
8
BLACK
6
CONTINUOUS
10
3.00318
20
-4.95764
11
3.00637
21
-4.95977
0
LINE
8
BLACK
6
CONTINUOUS
10
3.00637
20
-4.95977
11
3.0085
21
-4.96297
0
LINE
8
BLACK
6
CONTINUOUS
10
3.0085
20
-4.96297
11
3.00925
21
-4.96673
0
LINE
8
BLACK
6
CONTINUOUS
10
3.00925
20
-4.96673
11
3.00925
21
-5.03327
0
LINE
8
BLACK
6
CONTINUOUS
10
3.00925
20
-5.03327
11
3.0085
21
-5.03703
0
LINE
8
BLACK
6
CONTINUOUS
10
3.0085
20
-5.03703
11
3.00637
21
-5.04023
0
LINE
8
BLACK
6
CONTINUOUS
10
3.00637
20
-5.04023
11
3.00318
21
-5.04236
0
LINE
8
BLACK
6
CONTINUOUS
10
3.00318
20
-5.04236
11
2.99941
21
-5.04311
0
LINE
8
BLACK
6
CONTINUOUS
10
2.99941
20
-5.04311
11
2.95059
21
-5.04311
0
LINE
8
BLACK
6
CONTINUOUS
10
2.95059
20
-5.04311
11
2.94682
21
-5.04236
0
LINE
8
BLACK
6
CONTINUOUS
10
2.94682
20
-5.04236
11
2.94363
21
-5.04023
0
LINE
8
BLACK
6
CONTINUOUS
10
2.94363
20
-5.04023
11
2.9415
21
-5.03703
0
LINE
8
BLACK
6
CONTINUOUS
10
2.9415
20
-5.03703
11
2.94075
21
-5.03327
0
LINE
8
BLACK
6
CONTINUOUS
10
2.94075
20
-5.03327
11
2.94075
21
-4.96673
0
LINE
8
BLACK
6
CONTINUOUS
10
2.94075
20
-4.96673
11
2.9415
21
-4.96297
0
LINE
8
BLACK
6
CONTINUOUS
10
2.9415
20
-4.96297
11
2.94363
21
-4.95977
0
LINE
8
BLACK
6
CONTINUOUS
10
2.94363
20
-4.95977
11
2.94682
21
-4.95764
0
LINE
8
BLACK
6
CONTINUOUS
10
2.94682
20
-4.95764
11
2.95059
21
-4.95689
0
LINE
8
BLACK
6
CONTINUOUS
10
2.95059
20
-4.95689
11
2.99941
21
-4.95689
0
LINE
8
BLACK
6
CONTINUOUS
10
2.99941
20
-4.95689
11
3.00318
21
-4.95764
0
LINE
8
BLACK
6
CONTINUOUS
10
5.62818
20
-4.95764
11
5.63137
21
-4.95977
0
LINE
8
BLACK
6
CONTINUOUS
10
5.63137
20
-4.95977
11
5.6335
21
-4.96297
0
LINE
8
BLACK
6
CONTINUOUS
10
5.6335
20
-4.96297
11
5.63425
21
-4.96673
0
LINE
8
BLACK
6
CONTINUOUS
10
5.63425
20
-4.96673
11
5.63425
21
-5.03327
0
LINE
8
BLACK
6
CONTINUOUS
10
5.63425
20
-5.03327
11
5.6335
21
-5.03703
0
LINE
8
BLACK
6
CONTINUOUS
10
5.6335
20
-5.03703
11
5.63137
21
-5.04023
0
LINE
8
BLACK
6
CONTINUOUS
10
5.63137
20
-5.04023
11
5.62818
21
-5.04236
0
LINE
8
BLACK
6
CONTINUOUS
10
5.62818
20
-5.04236
11
5.62441
21
-5.04311
0
LINE
8
BLACK
6
CONTINUOUS
10
5.62441
20
-5.04311
11
5.57559
21
-5.04311
0
LINE
8
BLACK
6
CONTINUOUS
10
5.57559
20
-5.04311
11
5.57182
21
-5.04236
0
LINE
8
BLACK
6
CONTINUOUS
10
5.57182
20
-5.04236
11
5.56863
21
-5.04023
0
LINE
8
BLACK
6
CONTINUOUS
10
5.56863
20
-5.04023
11
5.5665
21
-5.03703
0
LINE
8
BLACK
6
CONTINUOUS
10
5.5665
20
-5.03703
11
5.56575
21
-5.03327
0
LINE
8
BLACK
6
CONTINUOUS
10
5.56575
20
-5.03327
11
5.56575
21
-4.96673
0
LINE
8
BLACK
6
CONTINUOUS
10
5.56575
20
-4.96673
11
5.5665
21
-4.96297
0
LINE
8
BLACK
6
CONTINUOUS
10
5.5665
20
-4.96297
11
5.56863
21
-4.95977
0
LINE
8
BLACK
6
CONTINUOUS
10
5.56863
20
-4.95977
11
5.57182
21
-4.95764
0
LINE
8
BLACK
6
CONTINUOUS
10
5.57182
20
-4.95764
11
5.57559
21
-4.95689
0
LINE
8
BLACK
6
CONTINUOUS
10
5.57559
20
-4.95689
11
5.62441
21
-4.95689
0
LINE
8
BLACK
6
CONTINUOUS
10
5.62441
20
-4.95689
11
5.62818
21
-4.95764
0
LINE
8
BLACK
6
CONTINUOUS
10
3.18421
20
-4.95815
11
3.19108
21
-4.9609
0
LINE
8
BLACK
6
CONTINUOUS
10
3.19108
20
-4.9609
11
3.1972
21
-4.96506
0
LINE
8
BLACK
6
CONTINUOUS
10
3.1972
20
-4.96506
11
3.20228
21
-4.97043
0
LINE
8
BLACK
6
CONTINUOUS
10
3.20228
20
-4.97043
11
3.20609
21
-4.97677
0
LINE
8
BLACK
6
CONTINUOUS
10
3.20609
20
-4.97677
11
3.20845
21
-4.98379
0
LINE
8
BLACK
6
CONTINUOUS
10
3.20845
20
-4.98379
11
3.20925
21
-4.99114
0
LINE
8
BLACK
6
CONTINUOUS
10
3.20925
20
-4.99114
11
3.20925
21
-5.00886
0
LINE
8
BLACK
6
CONTINUOUS
10
3.20925
20
-5.00886
11
3.20904
21
-5.01268
0
LINE
8
BLACK
6
CONTINUOUS
10
3.20904
20
-5.01268
11
3.20742
21
-5.0199
0
LINE
8
BLACK
6
CONTINUOUS
10
3.20742
20
-5.0199
11
3.2043
21
-5.0266
0
LINE
8
BLACK
6
CONTINUOUS
10
3.2043
20
-5.0266
11
3.1998
21
-5.03248
0
LINE
8
BLACK
6
CONTINUOUS
10
3.1998
20
-5.03248
11
3.19415
21
-5.03725
0
LINE
8
BLACK
6
CONTINUOUS
10
3.19415
20
-5.03725
11
3.18761
21
-5.0407
0
LINE
8
BLACK
6
CONTINUOUS
10
3.18761
20
-5.0407
11
3.18048
21
-5.04267
0
LINE
8
BLACK
6
CONTINUOUS
10
3.18048
20
-5.04267
11
3.17309
21
-5.04306
0
LINE
8
BLACK
6
CONTINUOUS
10
3.17309
20
-5.04306
11
3.16579
21
-5.04185
0
LINE
8
BLACK
6
CONTINUOUS
10
3.16579
20
-5.04185
11
3.15892
21
-5.0391
0
LINE
8
BLACK
6
CONTINUOUS
10
3.15892
20
-5.0391
11
3.1528
21
-5.03494
0
LINE
8
BLACK
6
CONTINUOUS
10
3.1528
20
-5.03494
11
3.14772
21
-5.02957
0
LINE
8
BLACK
6
CONTINUOUS
10
3.14772
20
-5.02957
11
3.14391
21
-5.02323
0
LINE
8
BLACK
6
CONTINUOUS
10
3.14391
20
-5.02323
11
3.14155
21
-5.01621
0
LINE
8
BLACK
6
CONTINUOUS
10
3.14155
20
-5.01621
11
3.14075
21
-5.00886
0
LINE
8
BLACK
6
CONTINUOUS
10
3.14075
20
-5.00886
11
3.14075
21
-4.99114
0
LINE
8
BLACK
6
CONTINUOUS
10
3.14075
20
-4.99114
11
3.14096
21
-4.98732
0
LINE
8
BLACK
6
CONTINUOUS
10
3.14096
20
-4.98732
11
3.14258
21
-4.9801
0
LINE
8
BLACK
6
CONTINUOUS
10
3.14258
20
-4.9801
11
3.1457
21
-4.9734
0
LINE
8
BLACK
6
CONTINUOUS
10
3.1457
20
-4.9734
11
3.1502
21
-4.96752
0
LINE
8
BLACK
6
CONTINUOUS
10
3.1502
20
-4.96752
11
3.15585
21
-4.96275
0
LINE
8
BLACK
6
CONTINUOUS
10
3.15585
20
-4.96275
11
3.16239
21
-4.9593
0
LINE
8
BLACK
6
CONTINUOUS
10
3.16239
20
-4.9593
11
3.16952
21
-4.95733
0
LINE
8
BLACK
6
CONTINUOUS
10
3.16952
20
-4.95733
11
3.17691
21
-4.95694
0
LINE
8
BLACK
6
CONTINUOUS
10
3.17691
20
-4.95694
11
3.18421
21
-4.95815
0
LINE
8
BLACK
6
CONTINUOUS
10
5.38421
20
-4.95815
11
5.39108
21
-4.9609
0
LINE
8
BLACK
6
CONTINUOUS
10
5.39108
20
-4.9609
11
5.3972
21
-4.96506
0
LINE
8
BLACK
6
CONTINUOUS
10
5.3972
20
-4.96506
11
5.40228
21
-4.97043
0
LINE
8
BLACK
6
CONTINUOUS
10
5.40228
20
-4.97043
11
5.40609
21
-4.97677
0
LINE
8
BLACK
6
CONTINUOUS
10
5.40609
20
-4.97677
11
5.40845
21
-4.98379
0
LINE
8
BLACK
6
CONTINUOUS
10
5.40845
20
-4.98379
11
5.40925
21
-4.99114
0
LINE
8
BLACK
6
CONTINUOUS
10
5.40925
20
-4.99114
11
5.40925
21
-5.00886
0
LINE
8
BLACK
6
CONTINUOUS
10
5.40925
20
-5.00886
11
5.40904
21
-5.01268
0
LINE
8
BLACK
6
CONTINUOUS
10
5.40904
20
-5.01268
11
5.40742
21
-5.0199
0
LINE
8
BLACK
6
CONTINUOUS
10
5.40742
20
-5.0199
11
5.4043
21
-5.0266
0
LINE
8
BLACK
6
CONTINUOUS
10
5.4043
20
-5.0266
11
5.3998
21
-5.03248
0
LINE
8
BLACK
6
CONTINUOUS
10
5.3998
20
-5.03248
11
5.39415
21
-5.03725
0
LINE
8
BLACK
6
CONTINUOUS
10
5.39415
20
-5.03725
11
5.38761
21
-5.0407
0
LINE
8
BLACK
6
CONTINUOUS
10
5.38761
20
-5.0407
11
5.38048
21
-5.04267
0
LINE
8
BLACK
6
CONTINUOUS
10
5.38048
20
-5.04267
11
5.37309
21
-5.04306
0
LINE
8
BLACK
6
CONTINUOUS
10
5.37309
20
-5.04306
11
5.36579
21
-5.04185
0
LINE
8
BLACK
6
CONTINUOUS
10
5.36579
20
-5.04185
11
5.35892
21
-5.0391
0
LINE
8
BLACK
6
CONTINUOUS
10
5.35892
20
-5.0391
11
5.3528
21
-5.03494
0
LINE
8
BLACK
6
CONTINUOUS
10
5.3528
20
-5.03494
11
5.34772
21
-5.02957
0
LINE
8
BLACK
6
CONTINUOUS
10
5.34772
20
-5.02957
11
5.34391
21
-5.02323
0
LINE
8
BLACK
6
CONTINUOUS
10
5.34391
20
-5.02323
11
5.34155
21
-5.01621
0
LINE
8
BLACK
6
CONTINUOUS
10
5.34155
20
-5.01621
11
5.34075
21
-5.00886
0
LINE
8
BLACK
6
CONTINUOUS
10
5.34075
20
-5.00886
11
5.34075
21
-4.99114
0
LINE
8
BLACK
6
CONTINUOUS
10
5.34075
20
-4.99114
11
5.34096
21
-4.98732
0
LINE
8
BLACK
6
CONTINUOUS
10
5.34096
20
-4.98732
11
5.34258
21
-4.9801
0
LINE
8
BLACK
6
CONTINUOUS
10
5.34258
20
-4.9801
11
5.3457
21
-4.9734
0
LINE
8
BLACK
6
CONTINUOUS
10
5.3457
20
-4.9734
11
5.3502
21
-4.96752
0
LINE
8
BLACK
6
CONTINUOUS
10
5.3502
20
-4.96752
11
5.35585
21
-4.96275
0
LINE
8
BLACK
6
CONTINUOUS
10
5.35585
20
-4.96275
11
5.36239
21
-4.9593
0
LINE
8
BLACK
6
CONTINUOUS
10
5.36239
20
-4.9593
11
5.36952
21
-4.95733
0
LINE
8
BLACK
6
CONTINUOUS
10
5.36952
20
-4.95733
11
5.37691
21
-4.95694
0
LINE
8
BLACK
6
CONTINUOUS
10
5.37691
20
-4.95694
11
5.38421
21
-4.95815
0
LINE
8
BLACK
6
CONTINUOUS
10
5.28421
20
-4.95815
11
5.29108
21
-4.9609
0
LINE
8
BLACK
6
CONTINUOUS
10
5.29108
20
-4.9609
11
5.2972
21
-4.96506
0
LINE
8
BLACK
6
CONTINUOUS
10
5.2972
20
-4.96506
11
5.30228
21
-4.97043
0
LINE
8
BLACK
6
CONTINUOUS
10
5.30228
20
-4.97043
11
5.30609
21
-4.97677
0
LINE
8
BLACK
6
CONTINUOUS
10
5.30609
20
-4.97677
11
5.30845
21
-4.98379
0
LINE
8
BLACK
6
CONTINUOUS
10
5.30845
20
-4.98379
11
5.30925
21
-4.99114
0
LINE
8
BLACK
6
CONTINUOUS
10
5.30925
20
-4.99114
11
5.30925
21
-5.00886
0
LINE
8
BLACK
6
CONTINUOUS
10
5.30925
20
-5.00886
11
5.30904
21
-5.01268
0
LINE
8
BLACK
6
CONTINUOUS
10
5.30904
20
-5.01268
11
5.30742
21
-5.0199
0
LINE
8
BLACK
6
CONTINUOUS
10
5.30742
20
-5.0199
11
5.3043
21
-5.0266
0
LINE
8
BLACK
6
CONTINUOUS
10
5.3043
20
-5.0266
11
5.2998
21
-5.03248
0
LINE
8
BLACK
6
CONTINUOUS
10
5.2998
20
-5.03248
11
5.29415
21
-5.03725
0
LINE
8
BLACK
6
CONTINUOUS
10
5.29415
20
-5.03725
11
5.28761
21
-5.0407
0
LINE
8
BLACK
6
CONTINUOUS
10
5.28761
20
-5.0407
11
5.28048
21
-5.04267
0
LINE
8
BLACK
6
CONTINUOUS
10
5.28048
20
-5.04267
11
5.27309
21
-5.04306
0
LINE
8
BLACK
6
CONTINUOUS
10
5.27309
20
-5.04306
11
5.26579
21
-5.04185
0
LINE
8
BLACK
6
CONTINUOUS
10
5.26579
20
-5.04185
11
5.25892
21
-5.0391
0
LINE
8
BLACK
6
CONTINUOUS
10
5.25892
20
-5.0391
11
5.2528
21
-5.03494
0
LINE
8
BLACK
6
CONTINUOUS
10
5.2528
20
-5.03494
11
5.24772
21
-5.02957
0
LINE
8
BLACK
6
CONTINUOUS
10
5.24772
20
-5.02957
11
5.24391
21
-5.02323
0
LINE
8
BLACK
6
CONTINUOUS
10
5.24391
20
-5.02323
11
5.24155
21
-5.01621
0
LINE
8
BLACK
6
CONTINUOUS
10
5.24155
20
-5.01621
11
5.24075
21
-5.00886
0
LINE
8
BLACK
6
CONTINUOUS
10
5.24075
20
-5.00886
11
5.24075
21
-4.99114
0
LINE
8
BLACK
6
CONTINUOUS
10
5.24075
20
-4.99114
11
5.24096
21
-4.98732
0
LINE
8
BLACK
6
CONTINUOUS
10
5.24096
20
-4.98732
11
5.24258
21
-4.9801
0
LINE
8
BLACK
6
CONTINUOUS
10
5.24258
20
-4.9801
11
5.2457
21
-4.9734
0
LINE
8
BLACK
6
CONTINUOUS
10
5.2457
20
-4.9734
11
5.2502
21
-4.96752
0
LINE
8
BLACK
6
CONTINUOUS
10
5.2502
20
-4.96752
11
5.25585
21
-4.96275
0
LINE
8
BLACK
6
CONTINUOUS
10
5.25585
20
-4.96275
11
5.26239
21
-4.9593
0
LINE
8
BLACK
6
CONTINUOUS
10
5.26239
20
-4.9593
11
5.26952
21
-4.95733
0
LINE
8
BLACK
6
CONTINUOUS
10
5.26952
20
-4.95733
11
5.27691
21
-4.95694
0
LINE
8
BLACK
6
CONTINUOUS
10
5.27691
20
-4.95694
11
5.28421
21
-4.95815
0
LINE
8
BLACK
6
CONTINUOUS
10
5.18421
20
-4.95815
11
5.19108
21
-4.9609
0
LINE
8
BLACK
6
CONTINUOUS
10
5.19108
20
-4.9609
11
5.1972
21
-4.96506
0
LINE
8
BLACK
6
CONTINUOUS
10
5.1972
20
-4.96506
11
5.20228
21
-4.97043
0
LINE
8
BLACK
6
CONTINUOUS
10
5.20228
20
-4.97043
11
5.20609
21
-4.97677
0
LINE
8
BLACK
6
CONTINUOUS
10
5.20609
20
-4.97677
11
5.20845
21
-4.98379
0
LINE
8
BLACK
6
CONTINUOUS
10
5.20845
20
-4.98379
11
5.20925
21
-4.99114
0
LINE
8
BLACK
6
CONTINUOUS
10
5.20925
20
-4.99114
11
5.20925
21
-5.00886
0
LINE
8
BLACK
6
CONTINUOUS
10
5.20925
20
-5.00886
11
5.20904
21
-5.01268
0
LINE
8
BLACK
6
CONTINUOUS
10
5.20904
20
-5.01268
11
5.20742
21
-5.0199
0
LINE
8
BLACK
6
CONTINUOUS
10
5.20742
20
-5.0199
11
5.2043
21
-5.0266
0
LINE
8
BLACK
6
CONTINUOUS
10
5.2043
20
-5.0266
11
5.1998
21
-5.03248
0
LINE
8
BLACK
6
CONTINUOUS
10
5.1998
20
-5.03248
11
5.19415
21
-5.03725
0
LINE
8
BLACK
6
CONTINUOUS
10
5.19415
20
-5.03725
11
5.18761
21
-5.0407
0
LINE
8
BLACK
6
CONTINUOUS
10
5.18761
20
-5.0407
11
5.18048
21
-5.04267
0
LINE
8
BLACK
6
CONTINUOUS
10
5.18048
20
-5.04267
11
5.17309
21
-5.04306
0
LINE
8
BLACK
6
CONTINUOUS
10
5.17309
20
-5.04306
11
5.16579
21
-5.04185
0
LINE
8
BLACK
6
CONTINUOUS
10
5.16579
20
-5.04185
11
5.15892
21
-5.0391
0
LINE
8
BLACK
6
CONTINUOUS
10
5.15892
20
-5.0391
11
5.1528
21
-5.03494
0
LINE
8
BLACK
6
CONTINUOUS
10
5.1528
20
-5.03494
11
5.14772
21
-5.02957
0
LINE
8
BLACK
6
CONTINUOUS
10
5.14772
20
-5.02957
11
5.14391
21
-5.02323
0
LINE
8
BLACK
6
CONTINUOUS
10
5.14391
20
-5.02323
11
5.14155
21
-5.01621
0
LINE
8
BLACK
6
CONTINUOUS
10
5.14155
20
-5.01621
11
5.14075
21
-5.00886
0
LINE
8
BLACK
6
CONTINUOUS
10
5.14075
20
-5.00886
11
5.14075
21
-4.99114
0
LINE
8
BLACK
6
CONTINUOUS
10
5.14075
20
-4.99114
11
5.14096
21
-4.98732
0
LINE
8
BLACK
6
CONTINUOUS
10
5.14096
20
-4.98732
11
5.14258
21
-4.9801
0
LINE
8
BLACK
6
CONTINUOUS
10
5.14258
20
-4.9801
11
5.1457
21
-4.9734
0
LINE
8
BLACK
6
CONTINUOUS
10
5.1457
20
-4.9734
11
5.1502
21
-4.96752
0
LINE
8
BLACK
6
CONTINUOUS
10
5.1502
20
-4.96752
11
5.15585
21
-4.96275
0
LINE
8
BLACK
6
CONTINUOUS
10
5.15585
20
-4.96275
11
5.16239
21
-4.9593
0
LINE
8
BLACK
6
CONTINUOUS
10
5.16239
20
-4.9593
11
5.16952
21
-4.95733
0
LINE
8
BLACK
6
CONTINUOUS
10
5.16952
20
-4.95733
11
5.17691
21
-4.95694
0
LINE
8
BLACK
6
CONTINUOUS
10
5.17691
20
-4.95694
11
5.18421
21
-4.95815
0
LINE
8
BLACK
6
CONTINUOUS
10
5.90921
20
-4.95815
11
5.91608
21
-4.9609
0
LINE
8
BLACK
6
CONTINUOUS
10
5.91608
20
-4.9609
11
5.9222
21
-4.96506
0
LINE
8
BLACK
6
CONTINUOUS
10
5.9222
20
-4.96506
11
5.92728
21
-4.97043
0
LINE
8
BLACK
6
CONTINUOUS
10
5.92728
20
-4.97043
11
5.93109
21
-4.97677
0
LINE
8
BLACK
6
CONTINUOUS
10
5.93109
20
-4.97677
11
5.93345
21
-4.98379
0
LINE
8
BLACK
6
CONTINUOUS
10
5.93345
20
-4.98379
11
5.93425
21
-4.99114
0
LINE
8
BLACK
6
CONTINUOUS
10
5.93425
20
-4.99114
11
5.93425
21
-5.00886
0
LINE
8
BLACK
6
CONTINUOUS
10
5.93425
20
-5.00886
11
5.93404
21
-5.01268
0
LINE
8
BLACK
6
CONTINUOUS
10
5.93404
20
-5.01268
11
5.93242
21
-5.0199
0
LINE
8
BLACK
6
CONTINUOUS
10
5.93242
20
-5.0199
11
5.9293
21
-5.0266
0
LINE
8
BLACK
6
CONTINUOUS
10
5.9293
20
-5.0266
11
5.9248
21
-5.03248
0
LINE
8
BLACK
6
CONTINUOUS
10
5.9248
20
-5.03248
11
5.91915
21
-5.03725
0
LINE
8
BLACK
6
CONTINUOUS
10
5.91915
20
-5.03725
11
5.91261
21
-5.0407
0
LINE
8
BLACK
6
CONTINUOUS
10
5.91261
20
-5.0407
11
5.90548
21
-5.04267
0
LINE
8
BLACK
6
CONTINUOUS
10
5.90548
20
-5.04267
11
5.89809
21
-5.04306
0
LINE
8
BLACK
6
CONTINUOUS
10
5.89809
20
-5.04306
11
5.89079
21
-5.04185
0
LINE
8
BLACK
6
CONTINUOUS
10
5.89079
20
-5.04185
11
5.88392
21
-5.0391
0
LINE
8
BLACK
6
CONTINUOUS
10
5.88392
20
-5.0391
11
5.8778
21
-5.03494
0
LINE
8
BLACK
6
CONTINUOUS
10
5.8778
20
-5.03494
11
5.87272
21
-5.02957
0
LINE
8
BLACK
6
CONTINUOUS
10
5.87272
20
-5.02957
11
5.86891
21
-5.02323
0
LINE
8
BLACK
6
CONTINUOUS
10
5.86891
20
-5.02323
11
5.86655
21
-5.01621
0
LINE
8
BLACK
6
CONTINUOUS
10
5.86655
20
-5.01621
11
5.86575
21
-5.00886
0
LINE
8
BLACK
6
CONTINUOUS
10
5.86575
20
-5.00886
11
5.86575
21
-4.99114
0
LINE
8
BLACK
6
CONTINUOUS
10
5.86575
20
-4.99114
11
5.86596
21
-4.98732
0
LINE
8
BLACK
6
CONTINUOUS
10
5.86596
20
-4.98732
11
5.86758
21
-4.9801
0
LINE
8
BLACK
6
CONTINUOUS
10
5.86758
20
-4.9801
11
5.8707
21
-4.9734
0
LINE
8
BLACK
6
CONTINUOUS
10
5.8707
20
-4.9734
11
5.8752
21
-4.96752
0
LINE
8
BLACK
6
CONTINUOUS
10
5.8752
20
-4.96752
11
5.88085
21
-4.96275
0
LINE
8
BLACK
6
CONTINUOUS
10
5.88085
20
-4.96275
11
5.88739
21
-4.9593
0
LINE
8
BLACK
6
CONTINUOUS
10
5.88739
20
-4.9593
11
5.89452
21
-4.95733
0
LINE
8
BLACK
6
CONTINUOUS
10
5.89452
20
-4.95733
11
5.90191
21
-4.95694
0
LINE
8
BLACK
6
CONTINUOUS
10
5.90191
20
-4.95694
11
5.90921
21
-4.95815
0
LINE
8
BLACK
6
CONTINUOUS
10
5.80921
20
-4.95815
11
5.81608
21
-4.9609
0
LINE
8
BLACK
6
CONTINUOUS
10
5.81608
20
-4.9609
11
5.8222
21
-4.96506
0
LINE
8
BLACK
6
CONTINUOUS
10
5.8222
20
-4.96506
11
5.82728
21
-4.97043
0
LINE
8
BLACK
6
CONTINUOUS
10
5.82728
20
-4.97043
11
5.83109
21
-4.97677
0
LINE
8
BLACK
6
CONTINUOUS
10
5.83109
20
-4.97677
11
5.83345
21
-4.98379
0
LINE
8
BLACK
6
CONTINUOUS
10
5.83345
20
-4.98379
11
5.83425
21
-4.99114
0
LINE
8
BLACK
6
CONTINUOUS
10
5.83425
20
-4.99114
11
5.83425
21
-5.00886
0
LINE
8
BLACK
6
CONTINUOUS
10
5.83425
20
-5.00886
11
5.83404
21
-5.01268
0
LINE
8
BLACK
6
CONTINUOUS
10
5.83404
20
-5.01268
11
5.83242
21
-5.0199
0
LINE
8
BLACK
6
CONTINUOUS
10
5.83242
20
-5.0199
11
5.8293
21
-5.0266
0
LINE
8
BLACK
6
CONTINUOUS
10
5.8293
20
-5.0266
11
5.8248
21
-5.03248
0
LINE
8
BLACK
6
CONTINUOUS
10
5.8248
20
-5.03248
11
5.81915
21
-5.03725
0
LINE
8
BLACK
6
CONTINUOUS
10
5.81915
20
-5.03725
11
5.81261
21
-5.0407
0
LINE
8
BLACK
6
CONTINUOUS
10
5.81261
20
-5.0407
11
5.80548
21
-5.04267
0
LINE
8
BLACK
6
CONTINUOUS
10
5.80548
20
-5.04267
11
5.79809
21
-5.04306
0
LINE
8
BLACK
6
CONTINUOUS
10
5.79809
20
-5.04306
11
5.79079
21
-5.04185
0
LINE
8
BLACK
6
CONTINUOUS
10
5.79079
20
-5.04185
11
5.78392
21
-5.0391
0
LINE
8
BLACK
6
CONTINUOUS
10
5.78392
20
-5.0391
11
5.7778
21
-5.03494
0
LINE
8
BLACK
6
CONTINUOUS
10
5.7778
20
-5.03494
11
5.77272
21
-5.02957
0
LINE
8
BLACK
6
CONTINUOUS
10
5.77272
20
-5.02957
11
5.76891
21
-5.02323
0
LINE
8
BLACK
6
CONTINUOUS
10
5.76891
20
-5.02323
11
5.76655
21
-5.01621
0
LINE
8
BLACK
6
CONTINUOUS
10
5.76655
20
-5.01621
11
5.76575
21
-5.00886
0
LINE
8
BLACK
6
CONTINUOUS
10
5.76575
20
-5.00886
11
5.76575
21
-4.99114
0
LINE
8
BLACK
6
CONTINUOUS
10
5.76575
20
-4.99114
11
5.76596
21
-4.98732
0
LINE
8
BLACK
6
CONTINUOUS
10
5.76596
20
-4.98732
11
5.76758
21
-4.9801
0
LINE
8
BLACK
6
CONTINUOUS
10
5.76758
20
-4.9801
11
5.7707
21
-4.9734
0
LINE
8
BLACK
6
CONTINUOUS
10
5.7707
20
-4.9734
11
5.7752
21
-4.96752
0
LINE
8
BLACK
6
CONTINUOUS
10
5.7752
20
-4.96752
11
5.78085
21
-4.96275
0
LINE
8
BLACK
6
CONTINUOUS
10
5.78085
20
-4.96275
11
5.78739
21
-4.9593
0
LINE
8
BLACK
6
CONTINUOUS
10
5.78739
20
-4.9593
11
5.79452
21
-4.95733
0
LINE
8
BLACK
6
CONTINUOUS
10
5.79452
20
-4.95733
11
5.80191
21
-4.95694
0
LINE
8
BLACK
6
CONTINUOUS
10
5.80191
20
-4.95694
11
5.80921
21
-4.95815
0
LINE
8
BLACK
6
CONTINUOUS
10
5.70921
20
-4.95815
11
5.71608
21
-4.9609
0
LINE
8
BLACK
6
CONTINUOUS
10
5.71608
20
-4.9609
11
5.7222
21
-4.96506
0
LINE
8
BLACK
6
CONTINUOUS
10
5.7222
20
-4.96506
11
5.72728
21
-4.97043
0
LINE
8
BLACK
6
CONTINUOUS
10
5.72728
20
-4.97043
11
5.73109
21
-4.97677
0
LINE
8
BLACK
6
CONTINUOUS
10
5.73109
20
-4.97677
11
5.73345
21
-4.98379
0
LINE
8
BLACK
6
CONTINUOUS
10
5.73345
20
-4.98379
11
5.73425
21
-4.99114
0
LINE
8
BLACK
6
CONTINUOUS
10
5.73425
20
-4.99114
11
5.73425
21
-5.00886
0
LINE
8
BLACK
6
CONTINUOUS
10
5.73425
20
-5.00886
11
5.73404
21
-5.01268
0
LINE
8
BLACK
6
CONTINUOUS
10
5.73404
20
-5.01268
11
5.73242
21
-5.0199
0
LINE
8
BLACK
6
CONTINUOUS
10
5.73242
20
-5.0199
11
5.7293
21
-5.0266
0
LINE
8
BLACK
6
CONTINUOUS
10
5.7293
20
-5.0266
11
5.7248
21
-5.03248
0
LINE
8
BLACK
6
CONTINUOUS
10
5.7248
20
-5.03248
11
5.71915
21
-5.03725
0
LINE
8
BLACK
6
CONTINUOUS
10
5.71915
20
-5.03725
11
5.71261
21
-5.0407
0
LINE
8
BLACK
6
CONTINUOUS
10
5.71261
20
-5.0407
11
5.70548
21
-5.04267
0
LINE
8
BLACK
6
CONTINUOUS
10
5.70548
20
-5.04267
11
5.69809
21
-5.04306
0
LINE
8
BLACK
6
CONTINUOUS
10
5.69809
20
-5.04306
11
5.69079
21
-5.04185
0
LINE
8
BLACK
6
CONTINUOUS
10
5.69079
20
-5.04185
11
5.68392
21
-5.0391
0
LINE
8
BLACK
6
CONTINUOUS
10
5.68392
20
-5.0391
11
5.6778
21
-5.03494
0
LINE
8
BLACK
6
CONTINUOUS
10
5.6778
20
-5.03494
11
5.67272
21
-5.02957
0
LINE
8
BLACK
6
CONTINUOUS
10
5.67272
20
-5.02957
11
5.66891
21
-5.02323
0
LINE
8
BLACK
6
CONTINUOUS
10
5.66891
20
-5.02323
11
5.66655
21
-5.01621
0
LINE
8
BLACK
6
CONTINUOUS
10
5.66655
20
-5.01621
11
5.66575
21
-5.00886
0
LINE
8
BLACK
6
CONTINUOUS
10
5.66575
20
-5.00886
11
5.66575
21
-4.99114
0
LINE
8
BLACK
6
CONTINUOUS
10
5.66575
20
-4.99114
11
5.66596
21
-4.98732
0
LINE
8
BLACK
6
CONTINUOUS
10
5.66596
20
-4.98732
11
5.66758
21
-4.9801
0
LINE
8
BLACK
6
CONTINUOUS
10
5.66758
20
-4.9801
11
5.6707
21
-4.9734
0
LINE
8
BLACK
6
CONTINUOUS
10
5.6707
20
-4.9734
11
5.6752
21
-4.96752
0
LINE
8
BLACK
6
CONTINUOUS
10
5.6752
20
-4.96752
11
5.68085
21
-4.96275
0
LINE
8
BLACK
6
CONTINUOUS
10
5.68085
20
-4.96275
11
5.68739
21
-4.9593
0
LINE
8
BLACK
6
CONTINUOUS
10
5.68739
20
-4.9593
11
5.69452
21
-4.95733
0
LINE
8
BLACK
6
CONTINUOUS
10
5.69452
20
-4.95733
11
5.70191
21
-4.95694
0
LINE
8
BLACK
6
CONTINUOUS
10
5.70191
20
-4.95694
11
5.70921
21
-4.95815
0
LINE
8
BLACK
6
CONTINUOUS
10
3.08421
20
-4.95815
11
3.09108
21
-4.9609
0
LINE
8
BLACK
6
CONTINUOUS
10
3.09108
20
-4.9609
11
3.0972
21
-4.96506
0
LINE
8
BLACK
6
CONTINUOUS
10
3.0972
20
-4.96506
11
3.10228
21
-4.97043
0
LINE
8
BLACK
6
CONTINUOUS
10
3.10228
20
-4.97043
11
3.10609
21
-4.97677
0
LINE
8
BLACK
6
CONTINUOUS
10
3.10609
20
-4.97677
11
3.10845
21
-4.98379
0
LINE
8
BLACK
6
CONTINUOUS
10
3.10845
20
-4.98379
11
3.10925
21
-4.99114
0
LINE
8
BLACK
6
CONTINUOUS
10
3.10925
20
-4.99114
11
3.10925
21
-5.00886
0
LINE
8
BLACK
6
CONTINUOUS
10
3.10925
20
-5.00886
11
3.10904
21
-5.01268
0
LINE
8
BLACK
6
CONTINUOUS
10
3.10904
20
-5.01268
11
3.10742
21
-5.0199
0
LINE
8
BLACK
6
CONTINUOUS
10
3.10742
20
-5.0199
11
3.1043
21
-5.0266
0
LINE
8
BLACK
6
CONTINUOUS
10
3.1043
20
-5.0266
11
3.0998
21
-5.03248
0
LINE
8
BLACK
6
CONTINUOUS
10
3.0998
20
-5.03248
11
3.09415
21
-5.03725
0
LINE
8
BLACK
6
CONTINUOUS
10
3.09415
20
-5.03725
11
3.08761
21
-5.0407
0
LINE
8
BLACK
6
CONTINUOUS
10
3.08761
20
-5.0407
11
3.08048
21
-5.04267
0
LINE
8
BLACK
6
CONTINUOUS
10
3.08048
20
-5.04267
11
3.07309
21
-5.04306
0
LINE
8
BLACK
6
CONTINUOUS
10
3.07309
20
-5.04306
11
3.06579
21
-5.04185
0
LINE
8
BLACK
6
CONTINUOUS
10
3.06579
20
-5.04185
11
3.05892
21
-5.0391
0
LINE
8
BLACK
6
CONTINUOUS
10
3.05892
20
-5.0391
11
3.0528
21
-5.03494
0
LINE
8
BLACK
6
CONTINUOUS
10
3.0528
20
-5.03494
11
3.04772
21
-5.02957
0
LINE
8
BLACK
6
CONTINUOUS
10
3.04772
20
-5.02957
11
3.04391
21
-5.02323
0
LINE
8
BLACK
6
CONTINUOUS
10
3.04391
20
-5.02323
11
3.04155
21
-5.01621
0
LINE
8
BLACK
6
CONTINUOUS
10
3.04155
20
-5.01621
11
3.04075
21
-5.00886
0
LINE
8
BLACK
6
CONTINUOUS
10
3.04075
20
-5.00886
11
3.04075
21
-4.99114
0
LINE
8
BLACK
6
CONTINUOUS
10
3.04075
20
-4.99114
11
3.04096
21
-4.98732
0
LINE
8
BLACK
6
CONTINUOUS
10
3.04096
20
-4.98732
11
3.04258
21
-4.9801
0
LINE
8
BLACK
6
CONTINUOUS
10
3.04258
20
-4.9801
11
3.0457
21
-4.9734
0
LINE
8
BLACK
6
CONTINUOUS
10
3.0457
20
-4.9734
11
3.0502
21
-4.96752
0
LINE
8
BLACK
6
CONTINUOUS
10
3.0502
20
-4.96752
11
3.05585
21
-4.96275
0
LINE
8
BLACK
6
CONTINUOUS
10
3.05585
20
-4.96275
11
3.06239
21
-4.9593
0
LINE
8
BLACK
6
CONTINUOUS
10
3.06239
20
-4.9593
11
3.06952
21
-4.95733
0
LINE
8
BLACK
6
CONTINUOUS
10
3.06952
20
-4.95733
11
3.07691
21
-4.95694
0
LINE
8
BLACK
6
CONTINUOUS
10
3.07691
20
-4.95694
11
3.08421
21
-4.95815
0
LINE
8
BLACK
6
CONTINUOUS
10
3.28421
20
-4.95815
11
3.29108
21
-4.9609
0
LINE
8
BLACK
6
CONTINUOUS
10
3.29108
20
-4.9609
11
3.2972
21
-4.96506
0
LINE
8
BLACK
6
CONTINUOUS
10
3.2972
20
-4.96506
11
3.30228
21
-4.97043
0
LINE
8
BLACK
6
CONTINUOUS
10
3.30228
20
-4.97043
11
3.30609
21
-4.97677
0
LINE
8
BLACK
6
CONTINUOUS
10
3.30609
20
-4.97677
11
3.30845
21
-4.98379
0
LINE
8
BLACK
6
CONTINUOUS
10
3.30845
20
-4.98379
11
3.30925
21
-4.99114
0
LINE
8
BLACK
6
CONTINUOUS
10
3.30925
20
-4.99114
11
3.30925
21
-5.00886
0
LINE
8
BLACK
6
CONTINUOUS
10
3.30925
20
-5.00886
11
3.30904
21
-5.01268
0
LINE
8
BLACK
6
CONTINUOUS
10
3.30904
20
-5.01268
11
3.30742
21
-5.0199
0
LINE
8
BLACK
6
CONTINUOUS
10
3.30742
20
-5.0199
11
3.3043
21
-5.0266
0
LINE
8
BLACK
6
CONTINUOUS
10
3.3043
20
-5.0266
11
3.2998
21
-5.03248
0
LINE
8
BLACK
6
CONTINUOUS
10
3.2998
20
-5.03248
11
3.29415
21
-5.03725
0
LINE
8
BLACK
6
CONTINUOUS
10
3.29415
20
-5.03725
11
3.28761
21
-5.0407
0
LINE
8
BLACK
6
CONTINUOUS
10
3.28761
20
-5.0407
11
3.28048
21
-5.04267
0
LINE
8
BLACK
6
CONTINUOUS
10
3.28048
20
-5.04267
11
3.27309
21
-5.04306
0
LINE
8
BLACK
6
CONTINUOUS
10
3.27309
20
-5.04306
11
3.26579
21
-5.04185
0
LINE
8
BLACK
6
CONTINUOUS
10
3.26579
20
-5.04185
11
3.25892
21
-5.0391
0
LINE
8
BLACK
6
CONTINUOUS
10
3.25892
20
-5.0391
11
3.2528
21
-5.03494
0
LINE
8
BLACK
6
CONTINUOUS
10
3.2528
20
-5.03494
11
3.24772
21
-5.02957
0
LINE
8
BLACK
6
CONTINUOUS
10
3.24772
20
-5.02957
11
3.24391
21
-5.02323
0
LINE
8
BLACK
6
CONTINUOUS
10
3.24391
20
-5.02323
11
3.24155
21
-5.01621
0
LINE
8
BLACK
6
CONTINUOUS
10
3.24155
20
-5.01621
11
3.24075
21
-5.00886
0
LINE
8
BLACK
6
CONTINUOUS
10
3.24075
20
-5.00886
11
3.24075
21
-4.99114
0
LINE
8
BLACK
6
CONTINUOUS
10
3.24075
20
-4.99114
11
3.24096
21
-4.98732
0
LINE
8
BLACK
6
CONTINUOUS
10
3.24096
20
-4.98732
11
3.24258
21
-4.9801
0
LINE
8
BLACK
6
CONTINUOUS
10
3.24258
20
-4.9801
11
3.2457
21
-4.9734
0
LINE
8
BLACK
6
CONTINUOUS
10
3.2457
20
-4.9734
11
3.2502
21
-4.96752
0
LINE
8
BLACK
6
CONTINUOUS
10
3.2502
20
-4.96752
11
3.25585
21
-4.96275
0
LINE
8
BLACK
6
CONTINUOUS
10
3.25585
20
-4.96275
11
3.26239
21
-4.9593
0
LINE
8
BLACK
6
CONTINUOUS
10
3.26239
20
-4.9593
11
3.26952
21
-4.95733
0
LINE
8
BLACK
6
CONTINUOUS
10
3.26952
20
-4.95733
11
3.27691
21
-4.95694
0
LINE
8
BLACK
6
CONTINUOUS
10
3.27691
20
-4.95694
11
3.28421
21
-4.95815
0
LINE
8
BLACK
6
CONTINUOUS
10
6.43421
20
-4.95815
11
6.44108
21
-4.9609
0
LINE
8
BLACK
6
CONTINUOUS
10
6.44108
20
-4.9609
11
6.4472
21
-4.96506
0
LINE
8
BLACK
6
CONTINUOUS
10
6.4472
20
-4.96506
11
6.45228
21
-4.97043
0
LINE
8
BLACK
6
CONTINUOUS
10
6.45228
20
-4.97043
11
6.45609
21
-4.97677
0
LINE
8
BLACK
6
CONTINUOUS
10
6.45609
20
-4.97677
11
6.45845
21
-4.98379
0
LINE
8
BLACK
6
CONTINUOUS
10
6.45845
20
-4.98379
11
6.45925
21
-4.99114
0
LINE
8
BLACK
6
CONTINUOUS
10
6.45925
20
-4.99114
11
6.45925
21
-5.00886
0
LINE
8
BLACK
6
CONTINUOUS
10
6.45925
20
-5.00886
11
6.45904
21
-5.01268
0
LINE
8
BLACK
6
CONTINUOUS
10
6.45904
20
-5.01268
11
6.45742
21
-5.0199
0
LINE
8
BLACK
6
CONTINUOUS
10
6.45742
20
-5.0199
11
6.4543
21
-5.0266
0
LINE
8
BLACK
6
CONTINUOUS
10
6.4543
20
-5.0266
11
6.4498
21
-5.03248
0
LINE
8
BLACK
6
CONTINUOUS
10
6.4498
20
-5.03248
11
6.44415
21
-5.03725
0
LINE
8
BLACK
6
CONTINUOUS
10
6.44415
20
-5.03725
11
6.43761
21
-5.0407
0
LINE
8
BLACK
6
CONTINUOUS
10
6.43761
20
-5.0407
11
6.43048
21
-5.04267
0
LINE
8
BLACK
6
CONTINUOUS
10
6.43048
20
-5.04267
11
6.42309
21
-5.04306
0
LINE
8
BLACK
6
CONTINUOUS
10
6.42309
20
-5.04306
11
6.41579
21
-5.04185
0
LINE
8
BLACK
6
CONTINUOUS
10
6.41579
20
-5.04185
11
6.40892
21
-5.0391
0
LINE
8
BLACK
6
CONTINUOUS
10
6.40892
20
-5.0391
11
6.4028
21
-5.03494
0
LINE
8
BLACK
6
CONTINUOUS
10
6.4028
20
-5.03494
11
6.39772
21
-5.02957
0
LINE
8
BLACK
6
CONTINUOUS
10
6.39772
20
-5.02957
11
6.39391
21
-5.02323
0
LINE
8
BLACK
6
CONTINUOUS
10
6.39391
20
-5.02323
11
6.39155
21
-5.01621
0
LINE
8
BLACK
6
CONTINUOUS
10
6.39155
20
-5.01621
11
6.39075
21
-5.00886
0
LINE
8
BLACK
6
CONTINUOUS
10
6.39075
20
-5.00886
11
6.39075
21
-4.99114
0
LINE
8
BLACK
6
CONTINUOUS
10
6.39075
20
-4.99114
11
6.39096
21
-4.98732
0
LINE
8
BLACK
6
CONTINUOUS
10
6.39096
20
-4.98732
11
6.39258
21
-4.9801
0
LINE
8
BLACK
6
CONTINUOUS
10
6.39258
20
-4.9801
11
6.3957
21
-4.9734
0
LINE
8
BLACK
6
CONTINUOUS
10
6.3957
20
-4.9734
11
6.4002
21
-4.96752
0
LINE
8
BLACK
6
CONTINUOUS
10
6.4002
20
-4.96752
11
6.40585
21
-4.96275
0
LINE
8
BLACK
6
CONTINUOUS
10
6.40585
20
-4.96275
11
6.41239
21
-4.9593
0
LINE
8
BLACK
6
CONTINUOUS
10
6.41239
20
-4.9593
11
6.41952
21
-4.95733
0
LINE
8
BLACK
6
CONTINUOUS
10
6.41952
20
-4.95733
11
6.42691
21
-4.95694
0
LINE
8
BLACK
6
CONTINUOUS
10
6.42691
20
-4.95694
11
6.43421
21
-4.95815
0
LINE
8
BLACK
6
CONTINUOUS
10
6.33421
20
-4.95815
11
6.34108
21
-4.9609
0
LINE
8
BLACK
6
CONTINUOUS
10
6.34108
20
-4.9609
11
6.3472
21
-4.96506
0
LINE
8
BLACK
6
CONTINUOUS
10
6.3472
20
-4.96506
11
6.35228
21
-4.97043
0
LINE
8
BLACK
6
CONTINUOUS
10
6.35228
20
-4.97043
11
6.35609
21
-4.97677
0
LINE
8
BLACK
6
CONTINUOUS
10
6.35609
20
-4.97677
11
6.35845
21
-4.98379
0
LINE
8
BLACK
6
CONTINUOUS
10
6.35845
20
-4.98379
11
6.35925
21
-4.99114
0
LINE
8
BLACK
6
CONTINUOUS
10
6.35925
20
-4.99114
11
6.35925
21
-5.00886
0
LINE
8
BLACK
6
CONTINUOUS
10
6.35925
20
-5.00886
11
6.35904
21
-5.01268
0
LINE
8
BLACK
6
CONTINUOUS
10
6.35904
20
-5.01268
11
6.35742
21
-5.0199
0
LINE
8
BLACK
6
CONTINUOUS
10
6.35742
20
-5.0199
11
6.3543
21
-5.0266
0
LINE
8
BLACK
6
CONTINUOUS
10
6.3543
20
-5.0266
11
6.3498
21
-5.03248
0
LINE
8
BLACK
6
CONTINUOUS
10
6.3498
20
-5.03248
11
6.34415
21
-5.03725
0
LINE
8
BLACK
6
CONTINUOUS
10
6.34415
20
-5.03725
11
6.33761
21
-5.0407
0
LINE
8
BLACK
6
CONTINUOUS
10
6.33761
20
-5.0407
11
6.33048
21
-5.04267
0
LINE
8
BLACK
6
CONTINUOUS
10
6.33048
20
-5.04267
11
6.32309
21
-5.04306
0
LINE
8
BLACK
6
CONTINUOUS
10
6.32309
20
-5.04306
11
6.31579
21
-5.04185
0
LINE
8
BLACK
6
CONTINUOUS
10
6.31579
20
-5.04185
11
6.30892
21
-5.0391
0
LINE
8
BLACK
6
CONTINUOUS
10
6.30892
20
-5.0391
11
6.3028
21
-5.03494
0
LINE
8
BLACK
6
CONTINUOUS
10
6.3028
20
-5.03494
11
6.29772
21
-5.02957
0
LINE
8
BLACK
6
CONTINUOUS
10
6.29772
20
-5.02957
11
6.29391
21
-5.02323
0
LINE
8
BLACK
6
CONTINUOUS
10
6.29391
20
-5.02323
11
6.29155
21
-5.01621
0
LINE
8
BLACK
6
CONTINUOUS
10
6.29155
20
-5.01621
11
6.29075
21
-5.00886
0
LINE
8
BLACK
6
CONTINUOUS
10
6.29075
20
-5.00886
11
6.29075
21
-4.99114
0
LINE
8
BLACK
6
CONTINUOUS
10
6.29075
20
-4.99114
11
6.29096
21
-4.98732
0
LINE
8
BLACK
6
CONTINUOUS
10
6.29096
20
-4.98732
11
6.29258
21
-4.9801
0
LINE
8
BLACK
6
CONTINUOUS
10
6.29258
20
-4.9801
11
6.2957
21
-4.9734
0
LINE
8
BLACK
6
CONTINUOUS
10
6.2957
20
-4.9734
11
6.3002
21
-4.96752
0
LINE
8
BLACK
6
CONTINUOUS
10
6.3002
20
-4.96752
11
6.30585
21
-4.96275
0
LINE
8
BLACK
6
CONTINUOUS
10
6.30585
20
-4.96275
11
6.31239
21
-4.9593
0
LINE
8
BLACK
6
CONTINUOUS
10
6.31239
20
-4.9593
11
6.31952
21
-4.95733
0
LINE
8
BLACK
6
CONTINUOUS
10
6.31952
20
-4.95733
11
6.32691
21
-4.95694
0
LINE
8
BLACK
6
CONTINUOUS
10
6.32691
20
-4.95694
11
6.33421
21
-4.95815
0
LINE
8
BLACK
6
CONTINUOUS
10
6.23421
20
-4.95815
11
6.24108
21
-4.9609
0
LINE
8
BLACK
6
CONTINUOUS
10
6.24108
20
-4.9609
11
6.2472
21
-4.96506
0
LINE
8
BLACK
6
CONTINUOUS
10
6.2472
20
-4.96506
11
6.25228
21
-4.97043
0
LINE
8
BLACK
6
CONTINUOUS
10
6.25228
20
-4.97043
11
6.25609
21
-4.97677
0
LINE
8
BLACK
6
CONTINUOUS
10
6.25609
20
-4.97677
11
6.25845
21
-4.98379
0
LINE
8
BLACK
6
CONTINUOUS
10
6.25845
20
-4.98379
11
6.25925
21
-4.99114
0
LINE
8
BLACK
6
CONTINUOUS
10
6.25925
20
-4.99114
11
6.25925
21
-5.00886
0
LINE
8
BLACK
6
CONTINUOUS
10
6.25925
20
-5.00886
11
6.25904
21
-5.01268
0
LINE
8
BLACK
6
CONTINUOUS
10
6.25904
20
-5.01268
11
6.25742
21
-5.0199
0
LINE
8
BLACK
6
CONTINUOUS
10
6.25742
20
-5.0199
11
6.2543
21
-5.0266
0
LINE
8
BLACK
6
CONTINUOUS
10
6.2543
20
-5.0266
11
6.2498
21
-5.03248
0
LINE
8
BLACK
6
CONTINUOUS
10
6.2498
20
-5.03248
11
6.24415
21
-5.03725
0
LINE
8
BLACK
6
CONTINUOUS
10
6.24415
20
-5.03725
11
6.23761
21
-5.0407
0
LINE
8
BLACK
6
CONTINUOUS
10
6.23761
20
-5.0407
11
6.23048
21
-5.04267
0
LINE
8
BLACK
6
CONTINUOUS
10
6.23048
20
-5.04267
11
6.22309
21
-5.04306
0
LINE
8
BLACK
6
CONTINUOUS
10
6.22309
20
-5.04306
11
6.21579
21
-5.04185
0
LINE
8
BLACK
6
CONTINUOUS
10
6.21579
20
-5.04185
11
6.20892
21
-5.0391
0
LINE
8
BLACK
6
CONTINUOUS
10
6.20892
20
-5.0391
11
6.2028
21
-5.03494
0
LINE
8
BLACK
6
CONTINUOUS
10
6.2028
20
-5.03494
11
6.19772
21
-5.02957
0
LINE
8
BLACK
6
CONTINUOUS
10
6.19772
20
-5.02957
11
6.19391
21
-5.02323
0
LINE
8
BLACK
6
CONTINUOUS
10
6.19391
20
-5.02323
11
6.19155
21
-5.01621
0
LINE
8
BLACK
6
CONTINUOUS
10
6.19155
20
-5.01621
11
6.19075
21
-5.00886
0
LINE
8
BLACK
6
CONTINUOUS
10
6.19075
20
-5.00886
11
6.19075
21
-4.99114
0
LINE
8
BLACK
6
CONTINUOUS
10
6.19075
20
-4.99114
11
6.19096
21
-4.98732
0
LINE
8
BLACK
6
CONTINUOUS
10
6.19096
20
-4.98732
11
6.19258
21
-4.9801
0
LINE
8
BLACK
6
CONTINUOUS
10
6.19258
20
-4.9801
11
6.1957
21
-4.9734
0
LINE
8
BLACK
6
CONTINUOUS
10
6.1957
20
-4.9734
11
6.2002
21
-4.96752
0
LINE
8
BLACK
6
CONTINUOUS
10
6.2002
20
-4.96752
11
6.20585
21
-4.96275
0
LINE
8
BLACK
6
CONTINUOUS
10
6.20585
20
-4.96275
11
6.21239
21
-4.9593
0
LINE
8
BLACK
6
CONTINUOUS
10
6.21239
20
-4.9593
11
6.21952
21
-4.95733
0
LINE
8
BLACK
6
CONTINUOUS
10
6.21952
20
-4.95733
11
6.22691
21
-4.95694
0
LINE
8
BLACK
6
CONTINUOUS
10
6.22691
20
-4.95694
11
6.23421
21
-4.95815
0
LINE
8
BLACK
6
CONTINUOUS
10
4.85921
20
-4.95815
11
4.86608
21
-4.9609
0
LINE
8
BLACK
6
CONTINUOUS
10
4.86608
20
-4.9609
11
4.8722
21
-4.96506
0
LINE
8
BLACK
6
CONTINUOUS
10
4.8722
20
-4.96506
11
4.87728
21
-4.97043
0
LINE
8
BLACK
6
CONTINUOUS
10
4.87728
20
-4.97043
11
4.88109
21
-4.97677
0
LINE
8
BLACK
6
CONTINUOUS
10
4.88109
20
-4.97677
11
4.88345
21
-4.98379
0
LINE
8
BLACK
6
CONTINUOUS
10
4.88345
20
-4.98379
11
4.88425
21
-4.99114
0
LINE
8
BLACK
6
CONTINUOUS
10
4.88425
20
-4.99114
11
4.88425
21
-5.00886
0
LINE
8
BLACK
6
CONTINUOUS
10
4.88425
20
-5.00886
11
4.88404
21
-5.01268
0
LINE
8
BLACK
6
CONTINUOUS
10
4.88404
20
-5.01268
11
4.88242
21
-5.0199
0
LINE
8
BLACK
6
CONTINUOUS
10
4.88242
20
-5.0199
11
4.8793
21
-5.0266
0
LINE
8
BLACK
6
CONTINUOUS
10
4.8793
20
-5.0266
11
4.8748
21
-5.03248
0
LINE
8
BLACK
6
CONTINUOUS
10
4.8748
20
-5.03248
11
4.86915
21
-5.03725
0
LINE
8
BLACK
6
CONTINUOUS
10
4.86915
20
-5.03725
11
4.86261
21
-5.0407
0
LINE
8
BLACK
6
CONTINUOUS
10
4.86261
20
-5.0407
11
4.85548
21
-5.04267
0
LINE
8
BLACK
6
CONTINUOUS
10
4.85548
20
-5.04267
11
4.84809
21
-5.04306
0
LINE
8
BLACK
6
CONTINUOUS
10
4.84809
20
-5.04306
11
4.84079
21
-5.04185
0
LINE
8
BLACK
6
CONTINUOUS
10
4.84079
20
-5.04185
11
4.83392
21
-5.0391
0
LINE
8
BLACK
6
CONTINUOUS
10
4.83392
20
-5.0391
11
4.8278
21
-5.03494
0
LINE
8
BLACK
6
CONTINUOUS
10
4.8278
20
-5.03494
11
4.82272
21
-5.02957
0
LINE
8
BLACK
6
CONTINUOUS
10
4.82272
20
-5.02957
11
4.81891
21
-5.02323
0
LINE
8
BLACK
6
CONTINUOUS
10
4.81891
20
-5.02323
11
4.81655
21
-5.01621
0
LINE
8
BLACK
6
CONTINUOUS
10
4.81655
20
-5.01621
11
4.81575
21
-5.00886
0
LINE
8
BLACK
6
CONTINUOUS
10
4.81575
20
-5.00886
11
4.81575
21
-4.99114
0
LINE
8
BLACK
6
CONTINUOUS
10
4.81575
20
-4.99114
11
4.81596
21
-4.98732
0
LINE
8
BLACK
6
CONTINUOUS
10
4.81596
20
-4.98732
11
4.81758
21
-4.9801
0
LINE
8
BLACK
6
CONTINUOUS
10
4.81758
20
-4.9801
11
4.8207
21
-4.9734
0
LINE
8
BLACK
6
CONTINUOUS
10
4.8207
20
-4.9734
11
4.8252
21
-4.96752
0
LINE
8
BLACK
6
CONTINUOUS
10
4.8252
20
-4.96752
11
4.83085
21
-4.96275
0
LINE
8
BLACK
6
CONTINUOUS
10
4.83085
20
-4.96275
11
4.83739
21
-4.9593
0
LINE
8
BLACK
6
CONTINUOUS
10
4.83739
20
-4.9593
11
4.84452
21
-4.95733
0
LINE
8
BLACK
6
CONTINUOUS
10
4.84452
20
-4.95733
11
4.85191
21
-4.95694
0
LINE
8
BLACK
6
CONTINUOUS
10
4.85191
20
-4.95694
11
4.85921
21
-4.95815
0
LINE
8
BLACK
6
CONTINUOUS
10
4.75921
20
-4.95815
11
4.76608
21
-4.9609
0
LINE
8
BLACK
6
CONTINUOUS
10
4.76608
20
-4.9609
11
4.7722
21
-4.96506
0
LINE
8
BLACK
6
CONTINUOUS
10
4.7722
20
-4.96506
11
4.77728
21
-4.97043
0
LINE
8
BLACK
6
CONTINUOUS
10
4.77728
20
-4.97043
11
4.78109
21
-4.97677
0
LINE
8
BLACK
6
CONTINUOUS
10
4.78109
20
-4.97677
11
4.78345
21
-4.98379
0
LINE
8
BLACK
6
CONTINUOUS
10
4.78345
20
-4.98379
11
4.78425
21
-4.99114
0
LINE
8
BLACK
6
CONTINUOUS
10
4.78425
20
-4.99114
11
4.78425
21
-5.00886
0
LINE
8
BLACK
6
CONTINUOUS
10
4.78425
20
-5.00886
11
4.78404
21
-5.01268
0
LINE
8
BLACK
6
CONTINUOUS
10
4.78404
20
-5.01268
11
4.78242
21
-5.0199
0
LINE
8
BLACK
6
CONTINUOUS
10
4.78242
20
-5.0199
11
4.7793
21
-5.0266
0
LINE
8
BLACK
6
CONTINUOUS
10
4.7793
20
-5.0266
11
4.7748
21
-5.03248
0
LINE
8
BLACK
6
CONTINUOUS
10
4.7748
20
-5.03248
11
4.76915
21
-5.03725
0
LINE
8
BLACK
6
CONTINUOUS
10
4.76915
20
-5.03725
11
4.76261
21
-5.0407
0
LINE
8
BLACK
6
CONTINUOUS
10
4.76261
20
-5.0407
11
4.75548
21
-5.04267
0
LINE
8
BLACK
6
CONTINUOUS
10
4.75548
20
-5.04267
11
4.74809
21
-5.04306
0
LINE
8
BLACK
6
CONTINUOUS
10
4.74809
20
-5.04306
11
4.74079
21
-5.04185
0
LINE
8
BLACK
6
CONTINUOUS
10
4.74079
20
-5.04185
11
4.73392
21
-5.0391
0
LINE
8
BLACK
6
CONTINUOUS
10
4.73392
20
-5.0391
11
4.7278
21
-5.03494
0
LINE
8
BLACK
6
CONTINUOUS
10
4.7278
20
-5.03494
11
4.72272
21
-5.02957
0
LINE
8
BLACK
6
CONTINUOUS
10
4.72272
20
-5.02957
11
4.71891
21
-5.02323
0
LINE
8
BLACK
6
CONTINUOUS
10
4.71891
20
-5.02323
11
4.71655
21
-5.01621
0
LINE
8
BLACK
6
CONTINUOUS
10
4.71655
20
-5.01621
11
4.71575
21
-5.00886
0
LINE
8
BLACK
6
CONTINUOUS
10
4.71575
20
-5.00886
11
4.71575
21
-4.99114
0
LINE
8
BLACK
6
CONTINUOUS
10
4.71575
20
-4.99114
11
4.71596
21
-4.98732
0
LINE
8
BLACK
6
CONTINUOUS
10
4.71596
20
-4.98732
11
4.71758
21
-4.9801
0
LINE
8
BLACK
6
CONTINUOUS
10
4.71758
20
-4.9801
11
4.7207
21
-4.9734
0
LINE
8
BLACK
6
CONTINUOUS
10
4.7207
20
-4.9734
11
4.7252
21
-4.96752
0
LINE
8
BLACK
6
CONTINUOUS
10
4.7252
20
-4.96752
11
4.73085
21
-4.96275
0
LINE
8
BLACK
6
CONTINUOUS
10
4.73085
20
-4.96275
11
4.73739
21
-4.9593
0
LINE
8
BLACK
6
CONTINUOUS
10
4.73739
20
-4.9593
11
4.74452
21
-4.95733
0
LINE
8
BLACK
6
CONTINUOUS
10
4.74452
20
-4.95733
11
4.75191
21
-4.95694
0
LINE
8
BLACK
6
CONTINUOUS
10
4.75191
20
-4.95694
11
4.75921
21
-4.95815
0
LINE
8
BLACK
6
CONTINUOUS
10
4.65921
20
-4.95815
11
4.66608
21
-4.9609
0
LINE
8
BLACK
6
CONTINUOUS
10
4.66608
20
-4.9609
11
4.6722
21
-4.96506
0
LINE
8
BLACK
6
CONTINUOUS
10
4.6722
20
-4.96506
11
4.67728
21
-4.97043
0
LINE
8
BLACK
6
CONTINUOUS
10
4.67728
20
-4.97043
11
4.68109
21
-4.97677
0
LINE
8
BLACK
6
CONTINUOUS
10
4.68109
20
-4.97677
11
4.68345
21
-4.98379
0
LINE
8
BLACK
6
CONTINUOUS
10
4.68345
20
-4.98379
11
4.68425
21
-4.99114
0
LINE
8
BLACK
6
CONTINUOUS
10
4.68425
20
-4.99114
11
4.68425
21
-5.00886
0
LINE
8
BLACK
6
CONTINUOUS
10
4.68425
20
-5.00886
11
4.68404
21
-5.01268
0
LINE
8
BLACK
6
CONTINUOUS
10
4.68404
20
-5.01268
11
4.68242
21
-5.0199
0
LINE
8
BLACK
6
CONTINUOUS
10
4.68242
20
-5.0199
11
4.6793
21
-5.0266
0
LINE
8
BLACK
6
CONTINUOUS
10
4.6793
20
-5.0266
11
4.6748
21
-5.03248
0
LINE
8
BLACK
6
CONTINUOUS
10
4.6748
20
-5.03248
11
4.66915
21
-5.03725
0
LINE
8
BLACK
6
CONTINUOUS
10
4.66915
20
-5.03725
11
4.66261
21
-5.0407
0
LINE
8
BLACK
6
CONTINUOUS
10
4.66261
20
-5.0407
11
4.65548
21
-5.04267
0
LINE
8
BLACK
6
CONTINUOUS
10
4.65548
20
-5.04267
11
4.64809
21
-5.04306
0
LINE
8
BLACK
6
CONTINUOUS
10
4.64809
20
-5.04306
11
4.64079
21
-5.04185
0
LINE
8
BLACK
6
CONTINUOUS
10
4.64079
20
-5.04185
11
4.63392
21
-5.0391
0
LINE
8
BLACK
6
CONTINUOUS
10
4.63392
20
-5.0391
11
4.6278
21
-5.03494
0
LINE
8
BLACK
6
CONTINUOUS
10
4.6278
20
-5.03494
11
4.62272
21
-5.02957
0
LINE
8
BLACK
6
CONTINUOUS
10
4.62272
20
-5.02957
11
4.61891
21
-5.02323
0
LINE
8
BLACK
6
CONTINUOUS
10
4.61891
20
-5.02323
11
4.61655
21
-5.01621
0
LINE
8
BLACK
6
CONTINUOUS
10
4.61655
20
-5.01621
11
4.61575
21
-5.00886
0
LINE
8
BLACK
6
CONTINUOUS
10
4.61575
20
-5.00886
11
4.61575
21
-4.99114
0
LINE
8
BLACK
6
CONTINUOUS
10
4.61575
20
-4.99114
11
4.61596
21
-4.98732
0
LINE
8
BLACK
6
CONTINUOUS
10
4.61596
20
-4.98732
11
4.61758
21
-4.9801
0
LINE
8
BLACK
6
CONTINUOUS
10
4.61758
20
-4.9801
11
4.6207
21
-4.9734
0
LINE
8
BLACK
6
CONTINUOUS
10
4.6207
20
-4.9734
11
4.6252
21
-4.96752
0
LINE
8
BLACK
6
CONTINUOUS
10
4.6252
20
-4.96752
11
4.63085
21
-4.96275
0
LINE
8
BLACK
6
CONTINUOUS
10
4.63085
20
-4.96275
11
4.63739
21
-4.9593
0
LINE
8
BLACK
6
CONTINUOUS
10
4.63739
20
-4.9593
11
4.64452
21
-4.95733
0
LINE
8
BLACK
6
CONTINUOUS
10
4.64452
20
-4.95733
11
4.65191
21
-4.95694
0
LINE
8
BLACK
6
CONTINUOUS
10
4.65191
20
-4.95694
11
4.65921
21
-4.95815
0
LINE
8
BLACK
6
CONTINUOUS
10
5.40807
20
-4.48346
11
5.34114
21
-4.48346
0
LINE
8
BLACK
6
CONTINUOUS
10
5.34114
20
-4.48346
11
5.34114
21
-4.41654
0
LINE
8
BLACK
6
CONTINUOUS
10
5.34114
20
-4.41654
11
5.40807
21
-4.41654
0
LINE
8
BLACK
6
CONTINUOUS
10
5.40807
20
-4.41654
11
5.40807
21
-4.48346
0
LINE
8
BLACK
6
CONTINUOUS
10
5.08495
20
-4.41817
11
5.09134
21
-4.42102
0
LINE
8
BLACK
6
CONTINUOUS
10
5.09134
20
-4.42102
11
5.097
21
-4.42513
0
LINE
8
BLACK
6
CONTINUOUS
10
5.097
20
-4.42513
11
5.10168
21
-4.43033
0
LINE
8
BLACK
6
CONTINUOUS
10
5.10168
20
-4.43033
11
5.10518
21
-4.43639
0
LINE
8
BLACK
6
CONTINUOUS
10
5.10518
20
-4.43639
11
5.10734
21
-4.44304
0
LINE
8
BLACK
6
CONTINUOUS
10
5.10734
20
-4.44304
11
5.10807
21
-4.45
0
LINE
8
BLACK
6
CONTINUOUS
10
5.10807
20
-4.45
11
5.10734
21
-4.45696
0
LINE
8
BLACK
6
CONTINUOUS
10
5.10734
20
-4.45696
11
5.10518
21
-4.46361
0
LINE
8
BLACK
6
CONTINUOUS
10
5.10518
20
-4.46361
11
5.10168
21
-4.46967
0
LINE
8
BLACK
6
CONTINUOUS
10
5.10168
20
-4.46967
11
5.097
21
-4.47487
0
LINE
8
BLACK
6
CONTINUOUS
10
5.097
20
-4.47487
11
5.09134
21
-4.47898
0
LINE
8
BLACK
6
CONTINUOUS
10
5.09134
20
-4.47898
11
5.08495
21
-4.48183
0
LINE
8
BLACK
6
CONTINUOUS
10
5.08495
20
-4.48183
11
5.0781
21
-4.48328
0
LINE
8
BLACK
6
CONTINUOUS
10
5.0781
20
-4.48328
11
5.07111
21
-4.48328
0
LINE
8
BLACK
6
CONTINUOUS
10
5.07111
20
-4.48328
11
5.06427
21
-4.48183
0
LINE
8
BLACK
6
CONTINUOUS
10
5.06427
20
-4.48183
11
5.05787
21
-4.47898
0
LINE
8
BLACK
6
CONTINUOUS
10
5.05787
20
-4.47898
11
5.05221
21
-4.47487
0
LINE
8
BLACK
6
CONTINUOUS
10
5.05221
20
-4.47487
11
5.04753
21
-4.46967
0
LINE
8
BLACK
6
CONTINUOUS
10
5.04753
20
-4.46967
11
5.04403
21
-4.46361
0
LINE
8
BLACK
6
CONTINUOUS
10
5.04403
20
-4.46361
11
5.04187
21
-4.45696
0
LINE
8
BLACK
6
CONTINUOUS
10
5.04187
20
-4.45696
11
5.04114
21
-4.45
0
LINE
8
BLACK
6
CONTINUOUS
10
5.04114
20
-4.45
11
5.04187
21
-4.44304
0
LINE
8
BLACK
6
CONTINUOUS
10
5.04187
20
-4.44304
11
5.04403
21
-4.43639
0
LINE
8
BLACK
6
CONTINUOUS
10
5.04403
20
-4.43639
11
5.04753
21
-4.43033
0
LINE
8
BLACK
6
CONTINUOUS
10
5.04753
20
-4.43033
11
5.05221
21
-4.42513
0
LINE
8
BLACK
6
CONTINUOUS
10
5.05221
20
-4.42513
11
5.05787
21
-4.42102
0
LINE
8
BLACK
6
CONTINUOUS
10
5.05787
20
-4.42102
11
5.06427
21
-4.41817
0
LINE
8
BLACK
6
CONTINUOUS
10
5.06427
20
-4.41817
11
5.07111
21
-4.41672
0
LINE
8
BLACK
6
CONTINUOUS
10
5.07111
20
-4.41672
11
5.0781
21
-4.41672
0
LINE
8
BLACK
6
CONTINUOUS
10
5.0781
20
-4.41672
11
5.08495
21
-4.41817
0
LINE
8
BLACK
6
CONTINUOUS
10
5.18495
20
-4.41817
11
5.19134
21
-4.42102
0
LINE
8
BLACK
6
CONTINUOUS
10
5.19134
20
-4.42102
11
5.197
21
-4.42513
0
LINE
8
BLACK
6
CONTINUOUS
10
5.197
20
-4.42513
11
5.20168
21
-4.43033
0
LINE
8
BLACK
6
CONTINUOUS
10
5.20168
20
-4.43033
11
5.20518
21
-4.43639
0
LINE
8
BLACK
6
CONTINUOUS
10
5.20518
20
-4.43639
11
5.20734
21
-4.44304
0
LINE
8
BLACK
6
CONTINUOUS
10
5.20734
20
-4.44304
11
5.20807
21
-4.45
0
LINE
8
BLACK
6
CONTINUOUS
10
5.20807
20
-4.45
11
5.20734
21
-4.45696
0
LINE
8
BLACK
6
CONTINUOUS
10
5.20734
20
-4.45696
11
5.20518
21
-4.46361
0
LINE
8
BLACK
6
CONTINUOUS
10
5.20518
20
-4.46361
11
5.20168
21
-4.46967
0
LINE
8
BLACK
6
CONTINUOUS
10
5.20168
20
-4.46967
11
5.197
21
-4.47487
0
LINE
8
BLACK
6
CONTINUOUS
10
5.197
20
-4.47487
11
5.19134
21
-4.47898
0
LINE
8
BLACK
6
CONTINUOUS
10
5.19134
20
-4.47898
11
5.18495
21
-4.48183
0
LINE
8
BLACK
6
CONTINUOUS
10
5.18495
20
-4.48183
11
5.1781
21
-4.48328
0
LINE
8
BLACK
6
CONTINUOUS
10
5.1781
20
-4.48328
11
5.17111
21
-4.48328
0
LINE
8
BLACK
6
CONTINUOUS
10
5.17111
20
-4.48328
11
5.16427
21
-4.48183
0
LINE
8
BLACK
6
CONTINUOUS
10
5.16427
20
-4.48183
11
5.15787
21
-4.47898
0
LINE
8
BLACK
6
CONTINUOUS
10
5.15787
20
-4.47898
11
5.15221
21
-4.47487
0
LINE
8
BLACK
6
CONTINUOUS
10
5.15221
20
-4.47487
11
5.14753
21
-4.46967
0
LINE
8
BLACK
6
CONTINUOUS
10
5.14753
20
-4.46967
11
5.14403
21
-4.46361
0
LINE
8
BLACK
6
CONTINUOUS
10
5.14403
20
-4.46361
11
5.14187
21
-4.45696
0
LINE
8
BLACK
6
CONTINUOUS
10
5.14187
20
-4.45696
11
5.14114
21
-4.45
0
LINE
8
BLACK
6
CONTINUOUS
10
5.14114
20
-4.45
11
5.14187
21
-4.44304
0
LINE
8
BLACK
6
CONTINUOUS
10
5.14187
20
-4.44304
11
5.14403
21
-4.43639
0
LINE
8
BLACK
6
CONTINUOUS
10
5.14403
20
-4.43639
11
5.14753
21
-4.43033
0
LINE
8
BLACK
6
CONTINUOUS
10
5.14753
20
-4.43033
11
5.15221
21
-4.42513
0
LINE
8
BLACK
6
CONTINUOUS
10
5.15221
20
-4.42513
11
5.15787
21
-4.42102
0
LINE
8
BLACK
6
CONTINUOUS
10
5.15787
20
-4.42102
11
5.16427
21
-4.41817
0
LINE
8
BLACK
6
CONTINUOUS
10
5.16427
20
-4.41817
11
5.17111
21
-4.41672
0
LINE
8
BLACK
6
CONTINUOUS
10
5.17111
20
-4.41672
11
5.1781
21
-4.41672
0
LINE
8
BLACK
6
CONTINUOUS
10
5.1781
20
-4.41672
11
5.18495
21
-4.41817
0
LINE
8
BLACK
6
CONTINUOUS
10
5.28495
20
-4.41817
11
5.29134
21
-4.42102
0
LINE
8
BLACK
6
CONTINUOUS
10
5.29134
20
-4.42102
11
5.297
21
-4.42513
0
LINE
8
BLACK
6
CONTINUOUS
10
5.297
20
-4.42513
11
5.30168
21
-4.43033
0
LINE
8
BLACK
6
CONTINUOUS
10
5.30168
20
-4.43033
11
5.30518
21
-4.43639
0
LINE
8
BLACK
6
CONTINUOUS
10
5.30518
20
-4.43639
11
5.30734
21
-4.44304
0
LINE
8
BLACK
6
CONTINUOUS
10
5.30734
20
-4.44304
11
5.30807
21
-4.45
0
LINE
8
BLACK
6
CONTINUOUS
10
5.30807
20
-4.45
11
5.30734
21
-4.45696
0
LINE
8
BLACK
6
CONTINUOUS
10
5.30734
20
-4.45696
11
5.30518
21
-4.46361
0
LINE
8
BLACK
6
CONTINUOUS
10
5.30518
20
-4.46361
11
5.30168
21
-4.46967
0
LINE
8
BLACK
6
CONTINUOUS
10
5.30168
20
-4.46967
11
5.297
21
-4.47487
0
LINE
8
BLACK
6
CONTINUOUS
10
5.297
20
-4.47487
11
5.29134
21
-4.47898
0
LINE
8
BLACK
6
CONTINUOUS
10
5.29134
20
-4.47898
11
5.28495
21
-4.48183
0
LINE
8
BLACK
6
CONTINUOUS
10
5.28495
20
-4.48183
11
5.2781
21
-4.48328
0
LINE
8
BLACK
6
CONTINUOUS
10
5.2781
20
-4.48328
11
5.27111
21
-4.48328
0
LINE
8
BLACK
6
CONTINUOUS
10
5.27111
20
-4.48328
11
5.26427
21
-4.48183
0
LINE
8
BLACK
6
CONTINUOUS
10
5.26427
20
-4.48183
11
5.25787
21
-4.47898
0
LINE
8
BLACK
6
CONTINUOUS
10
5.25787
20
-4.47898
11
5.25221
21
-4.47487
0
LINE
8
BLACK
6
CONTINUOUS
10
5.25221
20
-4.47487
11
5.24753
21
-4.46967
0
LINE
8
BLACK
6
CONTINUOUS
10
5.24753
20
-4.46967
11
5.24403
21
-4.46361
0
LINE
8
BLACK
6
CONTINUOUS
10
5.24403
20
-4.46361
11
5.24187
21
-4.45696
0
LINE
8
BLACK
6
CONTINUOUS
10
5.24187
20
-4.45696
11
5.24114
21
-4.45
0
LINE
8
BLACK
6
CONTINUOUS
10
5.24114
20
-4.45
11
5.24187
21
-4.44304
0
LINE
8
BLACK
6
CONTINUOUS
10
5.24187
20
-4.44304
11
5.24403
21
-4.43639
0
LINE
8
BLACK
6
CONTINUOUS
10
5.24403
20
-4.43639
11
5.24753
21
-4.43033
0
LINE
8
BLACK
6
CONTINUOUS
10
5.24753
20
-4.43033
11
5.25221
21
-4.42513
0
LINE
8
BLACK
6
CONTINUOUS
10
5.25221
20
-4.42513
11
5.25787
21
-4.42102
0
LINE
8
BLACK
6
CONTINUOUS
10
5.25787
20
-4.42102
11
5.26427
21
-4.41817
0
LINE
8
BLACK
6
CONTINUOUS
10
5.26427
20
-4.41817
11
5.27111
21
-4.41672
0
LINE
8
BLACK
6
CONTINUOUS
10
5.27111
20
-4.41672
11
5.2781
21
-4.41672
0
LINE
8
BLACK
6
CONTINUOUS
10
5.2781
20
-4.41672
11
5.28495
21
-4.41817
0
LINE
8
BLACK
6
CONTINUOUS
10
3.23346
20
-4.43346
11
3.16654
21
-4.43346
0
LINE
8
BLACK
6
CONTINUOUS
10
3.16654
20
-4.43346
11
3.16654
21
-4.36654
0
LINE
8
BLACK
6
CONTINUOUS
10
3.16654
20
-4.36654
11
3.23346
21
-4.36654
0
LINE
8
BLACK
6
CONTINUOUS
10
3.23346
20
-4.36654
11
3.23346
21
-4.43346
0
LINE
8
BLACK
6
CONTINUOUS
10
3.78346
20
-4.43346
11
3.71654
21
-4.43346
0
LINE
8
BLACK
6
CONTINUOUS
10
3.71654
20
-4.43346
11
3.71654
21
-4.36654
0
LINE
8
BLACK
6
CONTINUOUS
10
3.71654
20
-4.36654
11
3.78346
21
-4.36654
0
LINE
8
BLACK
6
CONTINUOUS
10
3.78346
20
-4.36654
11
3.78346
21
-4.43346
0
LINE
8
BLACK
6
CONTINUOUS
10
6.38346
20
-3.98346
11
6.31654
21
-3.98346
0
LINE
8
BLACK
6
CONTINUOUS
10
6.31654
20
-3.98346
11
6.31654
21
-3.91654
0
LINE
8
BLACK
6
CONTINUOUS
10
6.31654
20
-3.91654
11
6.38346
21
-3.91654
0
LINE
8
BLACK
6
CONTINUOUS
10
6.38346
20
-3.91654
11
6.38346
21
-3.98346
0
LINE
8
BLACK
6
CONTINUOUS
10
6.36034
20
-3.81817
11
6.36673
21
-3.82102
0
LINE
8
BLACK
6
CONTINUOUS
10
6.36673
20
-3.82102
11
6.37239
21
-3.82513
0
LINE
8
BLACK
6
CONTINUOUS
10
6.37239
20
-3.82513
11
6.37707
21
-3.83033
0
LINE
8
BLACK
6
CONTINUOUS
10
6.37707
20
-3.83033
11
6.38057
21
-3.83639
0
LINE
8
BLACK
6
CONTINUOUS
10
6.38057
20
-3.83639
11
6.38273
21
-3.84304
0
LINE
8
BLACK
6
CONTINUOUS
10
6.38273
20
-3.84304
11
6.38346
21
-3.85
0
LINE
8
BLACK
6
CONTINUOUS
10
6.38346
20
-3.85
11
6.38273
21
-3.85696
0
LINE
8
BLACK
6
CONTINUOUS
10
6.38273
20
-3.85696
11
6.38057
21
-3.86361
0
LINE
8
BLACK
6
CONTINUOUS
10
6.38057
20
-3.86361
11
6.37707
21
-3.86967
0
LINE
8
BLACK
6
CONTINUOUS
10
6.37707
20
-3.86967
11
6.37239
21
-3.87487
0
LINE
8
BLACK
6
CONTINUOUS
10
6.37239
20
-3.87487
11
6.36673
21
-3.87898
0
LINE
8
BLACK
6
CONTINUOUS
10
6.36673
20
-3.87898
11
6.36034
21
-3.88183
0
LINE
8
BLACK
6
CONTINUOUS
10
6.36034
20
-3.88183
11
6.3535
21
-3.88328
0
LINE
8
BLACK
6
CONTINUOUS
10
6.3535
20
-3.88328
11
6.3465
21
-3.88328
0
LINE
8
BLACK
6
CONTINUOUS
10
6.3465
20
-3.88328
11
6.33966
21
-3.88183
0
LINE
8
BLACK
6
CONTINUOUS
10
6.33966
20
-3.88183
11
6.33327
21
-3.87898
0
LINE
8
BLACK
6
CONTINUOUS
10
6.33327
20
-3.87898
11
6.32761
21
-3.87487
0
LINE
8
BLACK
6
CONTINUOUS
10
6.32761
20
-3.87487
11
6.32293
21
-3.86967
0
LINE
8
BLACK
6
CONTINUOUS
10
6.32293
20
-3.86967
11
6.31943
21
-3.86361
0
LINE
8
BLACK
6
CONTINUOUS
10
6.31943
20
-3.86361
11
6.31727
21
-3.85696
0
LINE
8
BLACK
6
CONTINUOUS
10
6.31727
20
-3.85696
11
6.31654
21
-3.85
0
LINE
8
BLACK
6
CONTINUOUS
10
6.31654
20
-3.85
11
6.31727
21
-3.84304
0
LINE
8
BLACK
6
CONTINUOUS
10
6.31727
20
-3.84304
11
6.31943
21
-3.83639
0
LINE
8
BLACK
6
CONTINUOUS
10
6.31943
20
-3.83639
11
6.32293
21
-3.83033
0
LINE
8
BLACK
6
CONTINUOUS
10
6.32293
20
-3.83033
11
6.32761
21
-3.82513
0
LINE
8
BLACK
6
CONTINUOUS
10
6.32761
20
-3.82513
11
6.33327
21
-3.82102
0
LINE
8
BLACK
6
CONTINUOUS
10
6.33327
20
-3.82102
11
6.33966
21
-3.81817
0
LINE
8
BLACK
6
CONTINUOUS
10
6.33966
20
-3.81817
11
6.3465
21
-3.81672
0
LINE
8
BLACK
6
CONTINUOUS
10
6.3465
20
-3.81672
11
6.3535
21
-3.81672
0
LINE
8
BLACK
6
CONTINUOUS
10
6.3535
20
-3.81672
11
6.36034
21
-3.81817
0
LINE
8
BLACK
6
CONTINUOUS
10
6.36034
20
-3.71817
11
6.36673
21
-3.72102
0
LINE
8
BLACK
6
CONTINUOUS
10
6.36673
20
-3.72102
11
6.37239
21
-3.72513
0
LINE
8
BLACK
6
CONTINUOUS
10
6.37239
20
-3.72513
11
6.37707
21
-3.73033
0
LINE
8
BLACK
6
CONTINUOUS
10
6.37707
20
-3.73033
11
6.38057
21
-3.73639
0
LINE
8
BLACK
6
CONTINUOUS
10
6.38057
20
-3.73639
11
6.38273
21
-3.74304
0
LINE
8
BLACK
6
CONTINUOUS
10
6.38273
20
-3.74304
11
6.38346
21
-3.75
0
LINE
8
BLACK
6
CONTINUOUS
10
6.38346
20
-3.75
11
6.38273
21
-3.75696
0
LINE
8
BLACK
6
CONTINUOUS
10
6.38273
20
-3.75696
11
6.38057
21
-3.76361
0
LINE
8
BLACK
6
CONTINUOUS
10
6.38057
20
-3.76361
11
6.37707
21
-3.76967
0
LINE
8
BLACK
6
CONTINUOUS
10
6.37707
20
-3.76967
11
6.37239
21
-3.77487
0
LINE
8
BLACK
6
CONTINUOUS
10
6.37239
20
-3.77487
11
6.36673
21
-3.77898
0
LINE
8
BLACK
6
CONTINUOUS
10
6.36673
20
-3.77898
11
6.36034
21
-3.78183
0
LINE
8
BLACK
6
CONTINUOUS
10
6.36034
20
-3.78183
11
6.3535
21
-3.78328
0
LINE
8
BLACK
6
CONTINUOUS
10
6.3535
20
-3.78328
11
6.3465
21
-3.78328
0
LINE
8
BLACK
6
CONTINUOUS
10
6.3465
20
-3.78328
11
6.33966
21
-3.78183
0
LINE
8
BLACK
6
CONTINUOUS
10
6.33966
20
-3.78183
11
6.33327
21
-3.77898
0
LINE
8
BLACK
6
CONTINUOUS
10
6.33327
20
-3.77898
11
6.32761
21
-3.77487
0
LINE
8
BLACK
6
CONTINUOUS
10
6.32761
20
-3.77487
11
6.32293
21
-3.76967
0
LINE
8
BLACK
6
CONTINUOUS
10
6.32293
20
-3.76967
11
6.31943
21
-3.76361
0
LINE
8
BLACK
6
CONTINUOUS
10
6.31943
20
-3.76361
11
6.31727
21
-3.75696
0
LINE
8
BLACK
6
CONTINUOUS
10
6.31727
20
-3.75696
11
6.31654
21
-3.75
0
LINE
8
BLACK
6
CONTINUOUS
10
6.31654
20
-3.75
11
6.31727
21
-3.74304
0
LINE
8
BLACK
6
CONTINUOUS
10
6.31727
20
-3.74304
11
6.31943
21
-3.73639
0
LINE
8
BLACK
6
CONTINUOUS
10
6.31943
20
-3.73639
11
6.32293
21
-3.73033
0
LINE
8
BLACK
6
CONTINUOUS
10
6.32293
20
-3.73033
11
6.32761
21
-3.72513
0
LINE
8
BLACK
6
CONTINUOUS
10
6.32761
20
-3.72513
11
6.33327
21
-3.72102
0
LINE
8
BLACK
6
CONTINUOUS
10
6.33327
20
-3.72102
11
6.33966
21
-3.71817
0
LINE
8
BLACK
6
CONTINUOUS
10
6.33966
20
-3.71817
11
6.3465
21
-3.71672
0
LINE
8
BLACK
6
CONTINUOUS
10
6.3465
20
-3.71672
11
6.3535
21
-3.71672
0
LINE
8
BLACK
6
CONTINUOUS
10
6.3535
20
-3.71672
11
6.36034
21
-3.71817
0
LINE
8
BLACK
6
CONTINUOUS
10
6.36034
20
-3.61817
11
6.36673
21
-3.62102
0
LINE
8
BLACK
6
CONTINUOUS
10
6.36673
20
-3.62102
11
6.37239
21
-3.62513
0
LINE
8
BLACK
6
CONTINUOUS
10
6.37239
20
-3.62513
11
6.37707
21
-3.63033
0
LINE
8
BLACK
6
CONTINUOUS
10
6.37707
20
-3.63033
11
6.38057
21
-3.63639
0
LINE
8
BLACK
6
CONTINUOUS
10
6.38057
20
-3.63639
11
6.38273
21
-3.64304
0
LINE
8
BLACK
6
CONTINUOUS
10
6.38273
20
-3.64304
11
6.38346
21
-3.65
0
LINE
8
BLACK
6
CONTINUOUS
10
6.38346
20
-3.65
11
6.38273
21
-3.65696
0
LINE
8
BLACK
6
CONTINUOUS
10
6.38273
20
-3.65696
11
6.38057
21
-3.66361
0
LINE
8
BLACK
6
CONTINUOUS
10
6.38057
20
-3.66361
11
6.37707
21
-3.66967
0
LINE
8
BLACK
6
CONTINUOUS
10
6.37707
20
-3.66967
11
6.37239
21
-3.67487
0
LINE
8
BLACK
6
CONTINUOUS
10
6.37239
20
-3.67487
11
6.36673
21
-3.67898
0
LINE
8
BLACK
6
CONTINUOUS
10
6.36673
20
-3.67898
11
6.36034
21
-3.68183
0
LINE
8
BLACK
6
CONTINUOUS
10
6.36034
20
-3.68183
11
6.3535
21
-3.68328
0
LINE
8
BLACK
6
CONTINUOUS
10
6.3535
20
-3.68328
11
6.3465
21
-3.68328
0
LINE
8
BLACK
6
CONTINUOUS
10
6.3465
20
-3.68328
11
6.33966
21
-3.68183
0
LINE
8
BLACK
6
CONTINUOUS
10
6.33966
20
-3.68183
11
6.33327
21
-3.67898
0
LINE
8
BLACK
6
CONTINUOUS
10
6.33327
20
-3.67898
11
6.32761
21
-3.67487
0
LINE
8
BLACK
6
CONTINUOUS
10
6.32761
20
-3.67487
11
6.32293
21
-3.66967
0
LINE
8
BLACK
6
CONTINUOUS
10
6.32293
20
-3.66967
11
6.31943
21
-3.66361
0
LINE
8
BLACK
6
CONTINUOUS
10
6.31943
20
-3.66361
11
6.31727
21
-3.65696
0
LINE
8
BLACK
6
CONTINUOUS
10
6.31727
20
-3.65696
11
6.31654
21
-3.65
0
LINE
8
BLACK
6
CONTINUOUS
10
6.31654
20
-3.65
11
6.31727
21
-3.64304
0
LINE
8
BLACK
6
CONTINUOUS
10
6.31727
20
-3.64304
11
6.31943
21
-3.63639
0
LINE
8
BLACK
6
CONTINUOUS
10
6.31943
20
-3.63639
11
6.32293
21
-3.63033
0
LINE
8
BLACK
6
CONTINUOUS
10
6.32293
20
-3.63033
11
6.32761
21
-3.62513
0
LINE
8
BLACK
6
CONTINUOUS
10
6.32761
20
-3.62513
11
6.33327
21
-3.62102
0
LINE
8
BLACK
6
CONTINUOUS
10
6.33327
20
-3.62102
11
6.33966
21
-3.61817
0
LINE
8
BLACK
6
CONTINUOUS
10
6.33966
20
-3.61817
11
6.3465
21
-3.61672
0
LINE
8
BLACK
6
CONTINUOUS
10
6.3465
20
-3.61672
11
6.3535
21
-3.61672
0
LINE
8
BLACK
6
CONTINUOUS
10
6.3535
20
-3.61672
11
6.36034
21
-3.61817
0
LINE
8
BLACK
6
CONTINUOUS
10
6.36034
20
-3.51817
11
6.36673
21
-3.52102
0
LINE
8
BLACK
6
CONTINUOUS
10
6.36673
20
-3.52102
11
6.37239
21
-3.52513
0
LINE
8
BLACK
6
CONTINUOUS
10
6.37239
20
-3.52513
11
6.37707
21
-3.53033
0
LINE
8
BLACK
6
CONTINUOUS
10
6.37707
20
-3.53033
11
6.38057
21
-3.53639
0
LINE
8
BLACK
6
CONTINUOUS
10
6.38057
20
-3.53639
11
6.38273
21
-3.54304
0
LINE
8
BLACK
6
CONTINUOUS
10
6.38273
20
-3.54304
11
6.38346
21
-3.55
0
LINE
8
BLACK
6
CONTINUOUS
10
6.38346
20
-3.55
11
6.38273
21
-3.55696
0
LINE
8
BLACK
6
CONTINUOUS
10
6.38273
20
-3.55696
11
6.38057
21
-3.56361
0
LINE
8
BLACK
6
CONTINUOUS
10
6.38057
20
-3.56361
11
6.37707
21
-3.56967
0
LINE
8
BLACK
6
CONTINUOUS
10
6.37707
20
-3.56967
11
6.37239
21
-3.57487
0
LINE
8
BLACK
6
CONTINUOUS
10
6.37239
20
-3.57487
11
6.36673
21
-3.57898
0
LINE
8
BLACK
6
CONTINUOUS
10
6.36673
20
-3.57898
11
6.36034
21
-3.58183
0
LINE
8
BLACK
6
CONTINUOUS
10
6.36034
20
-3.58183
11
6.3535
21
-3.58328
0
LINE
8
BLACK
6
CONTINUOUS
10
6.3535
20
-3.58328
11
6.3465
21
-3.58328
0
LINE
8
BLACK
6
CONTINUOUS
10
6.3465
20
-3.58328
11
6.33966
21
-3.58183
0
LINE
8
BLACK
6
CONTINUOUS
10
6.33966
20
-3.58183
11
6.33327
21
-3.57898
0
LINE
8
BLACK
6
CONTINUOUS
10
6.33327
20
-3.57898
11
6.32761
21
-3.57487
0
LINE
8
BLACK
6
CONTINUOUS
10
6.32761
20
-3.57487
11
6.32293
21
-3.56967
0
LINE
8
BLACK
6
CONTINUOUS
10
6.32293
20
-3.56967
11
6.31943
21
-3.56361
0
LINE
8
BLACK
6
CONTINUOUS
10
6.31943
20
-3.56361
11
6.31727
21
-3.55696
0
LINE
8
BLACK
6
CONTINUOUS
10
6.31727
20
-3.55696
11
6.31654
21
-3.55
0
LINE
8
BLACK
6
CONTINUOUS
10
6.31654
20
-3.55
11
6.31727
21
-3.54304
0
LINE
8
BLACK
6
CONTINUOUS
10
6.31727
20
-3.54304
11
6.31943
21
-3.53639
0
LINE
8
BLACK
6
CONTINUOUS
10
6.31943
20
-3.53639
11
6.32293
21
-3.53033
0
LINE
8
BLACK
6
CONTINUOUS
10
6.32293
20
-3.53033
11
6.32761
21
-3.52513
0
LINE
8
BLACK
6
CONTINUOUS
10
6.32761
20
-3.52513
11
6.33327
21
-3.52102
0
LINE
8
BLACK
6
CONTINUOUS
10
6.33327
20
-3.52102
11
6.33966
21
-3.51817
0
LINE
8
BLACK
6
CONTINUOUS
10
6.33966
20
-3.51817
11
6.3465
21
-3.51672
0
LINE
8
BLACK
6
CONTINUOUS
10
6.3465
20
-3.51672
11
6.3535
21
-3.51672
0
LINE
8
BLACK
6
CONTINUOUS
10
6.3535
20
-3.51672
11
6.36034
21
-3.51817
0
LINE
8
BLACK
6
CONTINUOUS
10
3.78346
20
-3.53346
11
3.71654
21
-3.53346
0
LINE
8
BLACK
6
CONTINUOUS
10
3.71654
20
-3.53346
11
3.71654
21
-3.46654
0
LINE
8
BLACK
6
CONTINUOUS
10
3.71654
20
-3.46654
11
3.78346
21
-3.46654
0
LINE
8
BLACK
6
CONTINUOUS
10
3.78346
20
-3.46654
11
3.78346
21
-3.53346
0
LINE
8
BLACK
6
CONTINUOUS
10
4.23346
20
-3.53346
11
4.16654
21
-3.53346
0
LINE
8
BLACK
6
CONTINUOUS
10
4.16654
20
-3.53346
11
4.16654
21
-3.46654
0
LINE
8
BLACK
6
CONTINUOUS
10
4.16654
20
-3.46654
11
4.23346
21
-3.46654
0
LINE
8
BLACK
6
CONTINUOUS
10
4.23346
20
-3.46654
11
4.23346
21
-3.53346
0
LINE
8
BLACK
6
CONTINUOUS
10
4.08346
20
-3.53346
11
4.01654
21
-3.53346
0
LINE
8
BLACK
6
CONTINUOUS
10
4.01654
20
-3.53346
11
4.01654
21
-3.46654
0
LINE
8
BLACK
6
CONTINUOUS
10
4.01654
20
-3.46654
11
4.08346
21
-3.46654
0
LINE
8
BLACK
6
CONTINUOUS
10
4.08346
20
-3.46654
11
4.08346
21
-3.53346
0
LINE
8
BLACK
6
CONTINUOUS
10
3.23346
20
-3.53346
11
3.16654
21
-3.53346
0
LINE
8
BLACK
6
CONTINUOUS
10
3.16654
20
-3.53346
11
3.16654
21
-3.46654
0
LINE
8
BLACK
6
CONTINUOUS
10
3.16654
20
-3.46654
11
3.23346
21
-3.46654
0
LINE
8
BLACK
6
CONTINUOUS
10
3.23346
20
-3.46654
11
3.23346
21
-3.53346
0
LINE
8
BLACK
6
CONTINUOUS
10
6.36034
20
-3.41817
11
6.36673
21
-3.42102
0
LINE
8
BLACK
6
CONTINUOUS
10
6.36673
20
-3.42102
11
6.37239
21
-3.42513
0
LINE
8
BLACK
6
CONTINUOUS
10
6.37239
20
-3.42513
11
6.37707
21
-3.43033
0
LINE
8
BLACK
6
CONTINUOUS
10
6.37707
20
-3.43033
11
6.38057
21
-3.43639
0
LINE
8
BLACK
6
CONTINUOUS
10
6.38057
20
-3.43639
11
6.38273
21
-3.44304
0
LINE
8
BLACK
6
CONTINUOUS
10
6.38273
20
-3.44304
11
6.38346
21
-3.45
0
LINE
8
BLACK
6
CONTINUOUS
10
6.38346
20
-3.45
11
6.38273
21
-3.45696
0
LINE
8
BLACK
6
CONTINUOUS
10
6.38273
20
-3.45696
11
6.38057
21
-3.46361
0
LINE
8
BLACK
6
CONTINUOUS
10
6.38057
20
-3.46361
11
6.37707
21
-3.46967
0
LINE
8
BLACK
6
CONTINUOUS
10
6.37707
20
-3.46967
11
6.37239
21
-3.47487
0
LINE
8
BLACK
6
CONTINUOUS
10
6.37239
20
-3.47487
11
6.36673
21
-3.47898
0
LINE
8
BLACK
6
CONTINUOUS
10
6.36673
20
-3.47898
11
6.36034
21
-3.48183
0
LINE
8
BLACK
6
CONTINUOUS
10
6.36034
20
-3.48183
11
6.3535
21
-3.48328
0
LINE
8
BLACK
6
CONTINUOUS
10
6.3535
20
-3.48328
11
6.3465
21
-3.48328
0
LINE
8
BLACK
6
CONTINUOUS
10
6.3465
20
-3.48328
11
6.33966
21
-3.48183
0
LINE
8
BLACK
6
CONTINUOUS
10
6.33966
20
-3.48183
11
6.33327
21
-3.47898
0
LINE
8
BLACK
6
CONTINUOUS
10
6.33327
20
-3.47898
11
6.32761
21
-3.47487
0
LINE
8
BLACK
6
CONTINUOUS
10
6.32761
20
-3.47487
11
6.32293
21
-3.46967
0
LINE
8
BLACK
6
CONTINUOUS
10
6.32293
20
-3.46967
11
6.31943
21
-3.46361
0
LINE
8
BLACK
6
CONTINUOUS
10
6.31943
20
-3.46361
11
6.31727
21
-3.45696
0
LINE
8
BLACK
6
CONTINUOUS
10
6.31727
20
-3.45696
11
6.31654
21
-3.45
0
LINE
8
BLACK
6
CONTINUOUS
10
6.31654
20
-3.45
11
6.31727
21
-3.44304
0
LINE
8
BLACK
6
CONTINUOUS
10
6.31727
20
-3.44304
11
6.31943
21
-3.43639
0
LINE
8
BLACK
6
CONTINUOUS
10
6.31943
20
-3.43639
11
6.32293
21
-3.43033
0
LINE
8
BLACK
6
CONTINUOUS
10
6.32293
20
-3.43033
11
6.32761
21
-3.42513
0
LINE
8
BLACK
6
CONTINUOUS
10
6.32761
20
-3.42513
11
6.33327
21
-3.42102
0
LINE
8
BLACK
6
CONTINUOUS
10
6.33327
20
-3.42102
11
6.33966
21
-3.41817
0
LINE
8
BLACK
6
CONTINUOUS
10
6.33966
20
-3.41817
11
6.3465
21
-3.41672
0
LINE
8
BLACK
6
CONTINUOUS
10
6.3465
20
-3.41672
11
6.3535
21
-3.41672
0
LINE
8
BLACK
6
CONTINUOUS
10
6.3535
20
-3.41672
11
6.36034
21
-3.41817
  0
ENDSEC
  0
EOF
