%TF.GenerationSoftware,KiCad,Pcbnew,6.0.11+dfsg-1*%
%TF.CreationDate,2023-10-20T18:47:01+02:00*%
%TF.ProjectId,5x100A,35783130-3041-42e6-9b69-6361645f7063,rev?*%
%TF.SameCoordinates,Original*%
%TF.FileFunction,Legend,Top*%
%TF.FilePolarity,Positive*%
%FSLAX46Y46*%
G04 Gerber Fmt 4.6, Leading zero omitted, Abs format (unit mm)*
G04 Created by KiCad (PCBNEW 6.0.11+dfsg-1) date 2023-10-20 18:47:01*
%MOMM*%
%LPD*%
G01*
G04 APERTURE LIST*
%ADD10C,0.150000*%
%ADD11C,0.120000*%
G04 APERTURE END LIST*
D10*
%TO.C,U1*%
X134493095Y-102322380D02*
X134493095Y-103131904D01*
X134540714Y-103227142D01*
X134588333Y-103274761D01*
X134683571Y-103322380D01*
X134874047Y-103322380D01*
X134969285Y-103274761D01*
X135016904Y-103227142D01*
X135064523Y-103131904D01*
X135064523Y-102322380D01*
X136064523Y-103322380D02*
X135493095Y-103322380D01*
X135778809Y-103322380D02*
X135778809Y-102322380D01*
X135683571Y-102465238D01*
X135588333Y-102560476D01*
X135493095Y-102608095D01*
%TO.C,C18*%
X113657142Y-105767142D02*
X113609523Y-105814761D01*
X113466666Y-105862380D01*
X113371428Y-105862380D01*
X113228571Y-105814761D01*
X113133333Y-105719523D01*
X113085714Y-105624285D01*
X113038095Y-105433809D01*
X113038095Y-105290952D01*
X113085714Y-105100476D01*
X113133333Y-105005238D01*
X113228571Y-104910000D01*
X113371428Y-104862380D01*
X113466666Y-104862380D01*
X113609523Y-104910000D01*
X113657142Y-104957619D01*
X114609523Y-105862380D02*
X114038095Y-105862380D01*
X114323809Y-105862380D02*
X114323809Y-104862380D01*
X114228571Y-105005238D01*
X114133333Y-105100476D01*
X114038095Y-105148095D01*
X115180952Y-105290952D02*
X115085714Y-105243333D01*
X115038095Y-105195714D01*
X114990476Y-105100476D01*
X114990476Y-105052857D01*
X115038095Y-104957619D01*
X115085714Y-104910000D01*
X115180952Y-104862380D01*
X115371428Y-104862380D01*
X115466666Y-104910000D01*
X115514285Y-104957619D01*
X115561904Y-105052857D01*
X115561904Y-105100476D01*
X115514285Y-105195714D01*
X115466666Y-105243333D01*
X115371428Y-105290952D01*
X115180952Y-105290952D01*
X115085714Y-105338571D01*
X115038095Y-105386190D01*
X114990476Y-105481428D01*
X114990476Y-105671904D01*
X115038095Y-105767142D01*
X115085714Y-105814761D01*
X115180952Y-105862380D01*
X115371428Y-105862380D01*
X115466666Y-105814761D01*
X115514285Y-105767142D01*
X115561904Y-105671904D01*
X115561904Y-105481428D01*
X115514285Y-105386190D01*
X115466666Y-105338571D01*
X115371428Y-105290952D01*
%TO.C,J13*%
X160480476Y-102112380D02*
X160480476Y-102826666D01*
X160432857Y-102969523D01*
X160337619Y-103064761D01*
X160194761Y-103112380D01*
X160099523Y-103112380D01*
X161480476Y-103112380D02*
X160909047Y-103112380D01*
X161194761Y-103112380D02*
X161194761Y-102112380D01*
X161099523Y-102255238D01*
X161004285Y-102350476D01*
X160909047Y-102398095D01*
X161813809Y-102112380D02*
X162432857Y-102112380D01*
X162099523Y-102493333D01*
X162242380Y-102493333D01*
X162337619Y-102540952D01*
X162385238Y-102588571D01*
X162432857Y-102683809D01*
X162432857Y-102921904D01*
X162385238Y-103017142D01*
X162337619Y-103064761D01*
X162242380Y-103112380D01*
X161956666Y-103112380D01*
X161861428Y-103064761D01*
X161813809Y-103017142D01*
%TO.C,J4*%
X94916666Y-108882380D02*
X94916666Y-109596666D01*
X94869047Y-109739523D01*
X94773809Y-109834761D01*
X94630952Y-109882380D01*
X94535714Y-109882380D01*
X95821428Y-109215714D02*
X95821428Y-109882380D01*
X95583333Y-108834761D02*
X95345238Y-109549047D01*
X95964285Y-109549047D01*
%TO.C,U2*%
X110998095Y-91472380D02*
X110998095Y-92281904D01*
X111045714Y-92377142D01*
X111093333Y-92424761D01*
X111188571Y-92472380D01*
X111379047Y-92472380D01*
X111474285Y-92424761D01*
X111521904Y-92377142D01*
X111569523Y-92281904D01*
X111569523Y-91472380D01*
X111998095Y-91567619D02*
X112045714Y-91520000D01*
X112140952Y-91472380D01*
X112379047Y-91472380D01*
X112474285Y-91520000D01*
X112521904Y-91567619D01*
X112569523Y-91662857D01*
X112569523Y-91758095D01*
X112521904Y-91900952D01*
X111950476Y-92472380D01*
X112569523Y-92472380D01*
%TO.C,C9*%
X103300833Y-119327142D02*
X103253214Y-119374761D01*
X103110357Y-119422380D01*
X103015119Y-119422380D01*
X102872261Y-119374761D01*
X102777023Y-119279523D01*
X102729404Y-119184285D01*
X102681785Y-118993809D01*
X102681785Y-118850952D01*
X102729404Y-118660476D01*
X102777023Y-118565238D01*
X102872261Y-118470000D01*
X103015119Y-118422380D01*
X103110357Y-118422380D01*
X103253214Y-118470000D01*
X103300833Y-118517619D01*
X103777023Y-119422380D02*
X103967500Y-119422380D01*
X104062738Y-119374761D01*
X104110357Y-119327142D01*
X104205595Y-119184285D01*
X104253214Y-118993809D01*
X104253214Y-118612857D01*
X104205595Y-118517619D01*
X104157976Y-118470000D01*
X104062738Y-118422380D01*
X103872261Y-118422380D01*
X103777023Y-118470000D01*
X103729404Y-118517619D01*
X103681785Y-118612857D01*
X103681785Y-118850952D01*
X103729404Y-118946190D01*
X103777023Y-118993809D01*
X103872261Y-119041428D01*
X104062738Y-119041428D01*
X104157976Y-118993809D01*
X104205595Y-118946190D01*
X104253214Y-118850952D01*
%TO.C,R29*%
X151122142Y-121102380D02*
X150788809Y-120626190D01*
X150550714Y-121102380D02*
X150550714Y-120102380D01*
X150931666Y-120102380D01*
X151026904Y-120150000D01*
X151074523Y-120197619D01*
X151122142Y-120292857D01*
X151122142Y-120435714D01*
X151074523Y-120530952D01*
X151026904Y-120578571D01*
X150931666Y-120626190D01*
X150550714Y-120626190D01*
X151503095Y-120197619D02*
X151550714Y-120150000D01*
X151645952Y-120102380D01*
X151884047Y-120102380D01*
X151979285Y-120150000D01*
X152026904Y-120197619D01*
X152074523Y-120292857D01*
X152074523Y-120388095D01*
X152026904Y-120530952D01*
X151455476Y-121102380D01*
X152074523Y-121102380D01*
X152550714Y-121102380D02*
X152741190Y-121102380D01*
X152836428Y-121054761D01*
X152884047Y-121007142D01*
X152979285Y-120864285D01*
X153026904Y-120673809D01*
X153026904Y-120292857D01*
X152979285Y-120197619D01*
X152931666Y-120150000D01*
X152836428Y-120102380D01*
X152645952Y-120102380D01*
X152550714Y-120150000D01*
X152503095Y-120197619D01*
X152455476Y-120292857D01*
X152455476Y-120530952D01*
X152503095Y-120626190D01*
X152550714Y-120673809D01*
X152645952Y-120721428D01*
X152836428Y-120721428D01*
X152931666Y-120673809D01*
X152979285Y-120626190D01*
X153026904Y-120530952D01*
%TO.C,R13*%
X111117142Y-121102380D02*
X110783809Y-120626190D01*
X110545714Y-121102380D02*
X110545714Y-120102380D01*
X110926666Y-120102380D01*
X111021904Y-120150000D01*
X111069523Y-120197619D01*
X111117142Y-120292857D01*
X111117142Y-120435714D01*
X111069523Y-120530952D01*
X111021904Y-120578571D01*
X110926666Y-120626190D01*
X110545714Y-120626190D01*
X112069523Y-121102380D02*
X111498095Y-121102380D01*
X111783809Y-121102380D02*
X111783809Y-120102380D01*
X111688571Y-120245238D01*
X111593333Y-120340476D01*
X111498095Y-120388095D01*
X112402857Y-120102380D02*
X113021904Y-120102380D01*
X112688571Y-120483333D01*
X112831428Y-120483333D01*
X112926666Y-120530952D01*
X112974285Y-120578571D01*
X113021904Y-120673809D01*
X113021904Y-120911904D01*
X112974285Y-121007142D01*
X112926666Y-121054761D01*
X112831428Y-121102380D01*
X112545714Y-121102380D01*
X112450476Y-121054761D01*
X112402857Y-121007142D01*
%TO.C,R14*%
X107942142Y-116912380D02*
X107608809Y-116436190D01*
X107370714Y-116912380D02*
X107370714Y-115912380D01*
X107751666Y-115912380D01*
X107846904Y-115960000D01*
X107894523Y-116007619D01*
X107942142Y-116102857D01*
X107942142Y-116245714D01*
X107894523Y-116340952D01*
X107846904Y-116388571D01*
X107751666Y-116436190D01*
X107370714Y-116436190D01*
X108894523Y-116912380D02*
X108323095Y-116912380D01*
X108608809Y-116912380D02*
X108608809Y-115912380D01*
X108513571Y-116055238D01*
X108418333Y-116150476D01*
X108323095Y-116198095D01*
X109751666Y-116245714D02*
X109751666Y-116912380D01*
X109513571Y-115864761D02*
X109275476Y-116579047D01*
X109894523Y-116579047D01*
%TO.C,R11*%
X151122142Y-97607380D02*
X150788809Y-97131190D01*
X150550714Y-97607380D02*
X150550714Y-96607380D01*
X150931666Y-96607380D01*
X151026904Y-96655000D01*
X151074523Y-96702619D01*
X151122142Y-96797857D01*
X151122142Y-96940714D01*
X151074523Y-97035952D01*
X151026904Y-97083571D01*
X150931666Y-97131190D01*
X150550714Y-97131190D01*
X152074523Y-97607380D02*
X151503095Y-97607380D01*
X151788809Y-97607380D02*
X151788809Y-96607380D01*
X151693571Y-96750238D01*
X151598333Y-96845476D01*
X151503095Y-96893095D01*
X153026904Y-97607380D02*
X152455476Y-97607380D01*
X152741190Y-97607380D02*
X152741190Y-96607380D01*
X152645952Y-96750238D01*
X152550714Y-96845476D01*
X152455476Y-96893095D01*
%TO.C,J9*%
X119046666Y-122332380D02*
X119046666Y-123046666D01*
X118999047Y-123189523D01*
X118903809Y-123284761D01*
X118760952Y-123332380D01*
X118665714Y-123332380D01*
X119570476Y-123332380D02*
X119760952Y-123332380D01*
X119856190Y-123284761D01*
X119903809Y-123237142D01*
X119999047Y-123094285D01*
X120046666Y-122903809D01*
X120046666Y-122522857D01*
X119999047Y-122427619D01*
X119951428Y-122380000D01*
X119856190Y-122332380D01*
X119665714Y-122332380D01*
X119570476Y-122380000D01*
X119522857Y-122427619D01*
X119475238Y-122522857D01*
X119475238Y-122760952D01*
X119522857Y-122856190D01*
X119570476Y-122903809D01*
X119665714Y-122951428D01*
X119856190Y-122951428D01*
X119951428Y-122903809D01*
X119999047Y-122856190D01*
X120046666Y-122760952D01*
%TO.C,R9*%
X97623333Y-121102380D02*
X97290000Y-120626190D01*
X97051904Y-121102380D02*
X97051904Y-120102380D01*
X97432857Y-120102380D01*
X97528095Y-120150000D01*
X97575714Y-120197619D01*
X97623333Y-120292857D01*
X97623333Y-120435714D01*
X97575714Y-120530952D01*
X97528095Y-120578571D01*
X97432857Y-120626190D01*
X97051904Y-120626190D01*
X98099523Y-121102380D02*
X98290000Y-121102380D01*
X98385238Y-121054761D01*
X98432857Y-121007142D01*
X98528095Y-120864285D01*
X98575714Y-120673809D01*
X98575714Y-120292857D01*
X98528095Y-120197619D01*
X98480476Y-120150000D01*
X98385238Y-120102380D01*
X98194761Y-120102380D01*
X98099523Y-120150000D01*
X98051904Y-120197619D01*
X98004285Y-120292857D01*
X98004285Y-120530952D01*
X98051904Y-120626190D01*
X98099523Y-120673809D01*
X98194761Y-120721428D01*
X98385238Y-120721428D01*
X98480476Y-120673809D01*
X98528095Y-120626190D01*
X98575714Y-120530952D01*
%TO.C,R28*%
X118102142Y-113862380D02*
X117768809Y-113386190D01*
X117530714Y-113862380D02*
X117530714Y-112862380D01*
X117911666Y-112862380D01*
X118006904Y-112910000D01*
X118054523Y-112957619D01*
X118102142Y-113052857D01*
X118102142Y-113195714D01*
X118054523Y-113290952D01*
X118006904Y-113338571D01*
X117911666Y-113386190D01*
X117530714Y-113386190D01*
X118483095Y-112957619D02*
X118530714Y-112910000D01*
X118625952Y-112862380D01*
X118864047Y-112862380D01*
X118959285Y-112910000D01*
X119006904Y-112957619D01*
X119054523Y-113052857D01*
X119054523Y-113148095D01*
X119006904Y-113290952D01*
X118435476Y-113862380D01*
X119054523Y-113862380D01*
X119625952Y-113290952D02*
X119530714Y-113243333D01*
X119483095Y-113195714D01*
X119435476Y-113100476D01*
X119435476Y-113052857D01*
X119483095Y-112957619D01*
X119530714Y-112910000D01*
X119625952Y-112862380D01*
X119816428Y-112862380D01*
X119911666Y-112910000D01*
X119959285Y-112957619D01*
X120006904Y-113052857D01*
X120006904Y-113100476D01*
X119959285Y-113195714D01*
X119911666Y-113243333D01*
X119816428Y-113290952D01*
X119625952Y-113290952D01*
X119530714Y-113338571D01*
X119483095Y-113386190D01*
X119435476Y-113481428D01*
X119435476Y-113671904D01*
X119483095Y-113767142D01*
X119530714Y-113814761D01*
X119625952Y-113862380D01*
X119816428Y-113862380D01*
X119911666Y-113814761D01*
X119959285Y-113767142D01*
X120006904Y-113671904D01*
X120006904Y-113481428D01*
X119959285Y-113386190D01*
X119911666Y-113338571D01*
X119816428Y-113290952D01*
%TO.C,R16*%
X121277142Y-116657380D02*
X120943809Y-116181190D01*
X120705714Y-116657380D02*
X120705714Y-115657380D01*
X121086666Y-115657380D01*
X121181904Y-115705000D01*
X121229523Y-115752619D01*
X121277142Y-115847857D01*
X121277142Y-115990714D01*
X121229523Y-116085952D01*
X121181904Y-116133571D01*
X121086666Y-116181190D01*
X120705714Y-116181190D01*
X122229523Y-116657380D02*
X121658095Y-116657380D01*
X121943809Y-116657380D02*
X121943809Y-115657380D01*
X121848571Y-115800238D01*
X121753333Y-115895476D01*
X121658095Y-115943095D01*
X123086666Y-115657380D02*
X122896190Y-115657380D01*
X122800952Y-115705000D01*
X122753333Y-115752619D01*
X122658095Y-115895476D01*
X122610476Y-116085952D01*
X122610476Y-116466904D01*
X122658095Y-116562142D01*
X122705714Y-116609761D01*
X122800952Y-116657380D01*
X122991428Y-116657380D01*
X123086666Y-116609761D01*
X123134285Y-116562142D01*
X123181904Y-116466904D01*
X123181904Y-116228809D01*
X123134285Y-116133571D01*
X123086666Y-116085952D01*
X122991428Y-116038333D01*
X122800952Y-116038333D01*
X122705714Y-116085952D01*
X122658095Y-116133571D01*
X122610476Y-116228809D01*
%TO.C,R5*%
X121753333Y-92907380D02*
X121420000Y-92431190D01*
X121181904Y-92907380D02*
X121181904Y-91907380D01*
X121562857Y-91907380D01*
X121658095Y-91955000D01*
X121705714Y-92002619D01*
X121753333Y-92097857D01*
X121753333Y-92240714D01*
X121705714Y-92335952D01*
X121658095Y-92383571D01*
X121562857Y-92431190D01*
X121181904Y-92431190D01*
X122658095Y-91907380D02*
X122181904Y-91907380D01*
X122134285Y-92383571D01*
X122181904Y-92335952D01*
X122277142Y-92288333D01*
X122515238Y-92288333D01*
X122610476Y-92335952D01*
X122658095Y-92383571D01*
X122705714Y-92478809D01*
X122705714Y-92716904D01*
X122658095Y-92812142D01*
X122610476Y-92859761D01*
X122515238Y-92907380D01*
X122277142Y-92907380D01*
X122181904Y-92859761D01*
X122134285Y-92812142D01*
%TO.C,J11*%
X158575476Y-122332380D02*
X158575476Y-123046666D01*
X158527857Y-123189523D01*
X158432619Y-123284761D01*
X158289761Y-123332380D01*
X158194523Y-123332380D01*
X159575476Y-123332380D02*
X159004047Y-123332380D01*
X159289761Y-123332380D02*
X159289761Y-122332380D01*
X159194523Y-122475238D01*
X159099285Y-122570476D01*
X159004047Y-122618095D01*
X160527857Y-123332380D02*
X159956428Y-123332380D01*
X160242142Y-123332380D02*
X160242142Y-122332380D01*
X160146904Y-122475238D01*
X160051666Y-122570476D01*
X159956428Y-122618095D01*
%TO.C,C16*%
X153027142Y-103862142D02*
X152979523Y-103909761D01*
X152836666Y-103957380D01*
X152741428Y-103957380D01*
X152598571Y-103909761D01*
X152503333Y-103814523D01*
X152455714Y-103719285D01*
X152408095Y-103528809D01*
X152408095Y-103385952D01*
X152455714Y-103195476D01*
X152503333Y-103100238D01*
X152598571Y-103005000D01*
X152741428Y-102957380D01*
X152836666Y-102957380D01*
X152979523Y-103005000D01*
X153027142Y-103052619D01*
X153979523Y-103957380D02*
X153408095Y-103957380D01*
X153693809Y-103957380D02*
X153693809Y-102957380D01*
X153598571Y-103100238D01*
X153503333Y-103195476D01*
X153408095Y-103243095D01*
X154836666Y-102957380D02*
X154646190Y-102957380D01*
X154550952Y-103005000D01*
X154503333Y-103052619D01*
X154408095Y-103195476D01*
X154360476Y-103385952D01*
X154360476Y-103766904D01*
X154408095Y-103862142D01*
X154455714Y-103909761D01*
X154550952Y-103957380D01*
X154741428Y-103957380D01*
X154836666Y-103909761D01*
X154884285Y-103862142D01*
X154931904Y-103766904D01*
X154931904Y-103528809D01*
X154884285Y-103433571D01*
X154836666Y-103385952D01*
X154741428Y-103338333D01*
X154550952Y-103338333D01*
X154455714Y-103385952D01*
X154408095Y-103433571D01*
X154360476Y-103528809D01*
%TO.C,R30*%
X147947142Y-116912380D02*
X147613809Y-116436190D01*
X147375714Y-116912380D02*
X147375714Y-115912380D01*
X147756666Y-115912380D01*
X147851904Y-115960000D01*
X147899523Y-116007619D01*
X147947142Y-116102857D01*
X147947142Y-116245714D01*
X147899523Y-116340952D01*
X147851904Y-116388571D01*
X147756666Y-116436190D01*
X147375714Y-116436190D01*
X148280476Y-115912380D02*
X148899523Y-115912380D01*
X148566190Y-116293333D01*
X148709047Y-116293333D01*
X148804285Y-116340952D01*
X148851904Y-116388571D01*
X148899523Y-116483809D01*
X148899523Y-116721904D01*
X148851904Y-116817142D01*
X148804285Y-116864761D01*
X148709047Y-116912380D01*
X148423333Y-116912380D01*
X148328095Y-116864761D01*
X148280476Y-116817142D01*
X149518571Y-115912380D02*
X149613809Y-115912380D01*
X149709047Y-115960000D01*
X149756666Y-116007619D01*
X149804285Y-116102857D01*
X149851904Y-116293333D01*
X149851904Y-116531428D01*
X149804285Y-116721904D01*
X149756666Y-116817142D01*
X149709047Y-116864761D01*
X149613809Y-116912380D01*
X149518571Y-116912380D01*
X149423333Y-116864761D01*
X149375714Y-116817142D01*
X149328095Y-116721904D01*
X149280476Y-116531428D01*
X149280476Y-116293333D01*
X149328095Y-116102857D01*
X149375714Y-116007619D01*
X149423333Y-115960000D01*
X149518571Y-115912380D01*
%TO.C,C6*%
X112863333Y-108307142D02*
X112815714Y-108354761D01*
X112672857Y-108402380D01*
X112577619Y-108402380D01*
X112434761Y-108354761D01*
X112339523Y-108259523D01*
X112291904Y-108164285D01*
X112244285Y-107973809D01*
X112244285Y-107830952D01*
X112291904Y-107640476D01*
X112339523Y-107545238D01*
X112434761Y-107450000D01*
X112577619Y-107402380D01*
X112672857Y-107402380D01*
X112815714Y-107450000D01*
X112863333Y-107497619D01*
X113720476Y-107402380D02*
X113530000Y-107402380D01*
X113434761Y-107450000D01*
X113387142Y-107497619D01*
X113291904Y-107640476D01*
X113244285Y-107830952D01*
X113244285Y-108211904D01*
X113291904Y-108307142D01*
X113339523Y-108354761D01*
X113434761Y-108402380D01*
X113625238Y-108402380D01*
X113720476Y-108354761D01*
X113768095Y-108307142D01*
X113815714Y-108211904D01*
X113815714Y-107973809D01*
X113768095Y-107878571D01*
X113720476Y-107830952D01*
X113625238Y-107783333D01*
X113434761Y-107783333D01*
X113339523Y-107830952D01*
X113291904Y-107878571D01*
X113244285Y-107973809D01*
%TO.C,J8*%
X138297380Y-113363333D02*
X139011666Y-113363333D01*
X139154523Y-113410952D01*
X139249761Y-113506190D01*
X139297380Y-113649047D01*
X139297380Y-113744285D01*
X138725952Y-112744285D02*
X138678333Y-112839523D01*
X138630714Y-112887142D01*
X138535476Y-112934761D01*
X138487857Y-112934761D01*
X138392619Y-112887142D01*
X138345000Y-112839523D01*
X138297380Y-112744285D01*
X138297380Y-112553809D01*
X138345000Y-112458571D01*
X138392619Y-112410952D01*
X138487857Y-112363333D01*
X138535476Y-112363333D01*
X138630714Y-112410952D01*
X138678333Y-112458571D01*
X138725952Y-112553809D01*
X138725952Y-112744285D01*
X138773571Y-112839523D01*
X138821190Y-112887142D01*
X138916428Y-112934761D01*
X139106904Y-112934761D01*
X139202142Y-112887142D01*
X139249761Y-112839523D01*
X139297380Y-112744285D01*
X139297380Y-112553809D01*
X139249761Y-112458571D01*
X139202142Y-112410952D01*
X139106904Y-112363333D01*
X138916428Y-112363333D01*
X138821190Y-112410952D01*
X138773571Y-112458571D01*
X138725952Y-112553809D01*
%TO.C,C13*%
X115882142Y-119327142D02*
X115834523Y-119374761D01*
X115691666Y-119422380D01*
X115596428Y-119422380D01*
X115453571Y-119374761D01*
X115358333Y-119279523D01*
X115310714Y-119184285D01*
X115263095Y-118993809D01*
X115263095Y-118850952D01*
X115310714Y-118660476D01*
X115358333Y-118565238D01*
X115453571Y-118470000D01*
X115596428Y-118422380D01*
X115691666Y-118422380D01*
X115834523Y-118470000D01*
X115882142Y-118517619D01*
X116834523Y-119422380D02*
X116263095Y-119422380D01*
X116548809Y-119422380D02*
X116548809Y-118422380D01*
X116453571Y-118565238D01*
X116358333Y-118660476D01*
X116263095Y-118708095D01*
X117167857Y-118422380D02*
X117786904Y-118422380D01*
X117453571Y-118803333D01*
X117596428Y-118803333D01*
X117691666Y-118850952D01*
X117739285Y-118898571D01*
X117786904Y-118993809D01*
X117786904Y-119231904D01*
X117739285Y-119327142D01*
X117691666Y-119374761D01*
X117596428Y-119422380D01*
X117310714Y-119422380D01*
X117215476Y-119374761D01*
X117167857Y-119327142D01*
%TO.C,C11*%
X129532142Y-119327142D02*
X129484523Y-119374761D01*
X129341666Y-119422380D01*
X129246428Y-119422380D01*
X129103571Y-119374761D01*
X129008333Y-119279523D01*
X128960714Y-119184285D01*
X128913095Y-118993809D01*
X128913095Y-118850952D01*
X128960714Y-118660476D01*
X129008333Y-118565238D01*
X129103571Y-118470000D01*
X129246428Y-118422380D01*
X129341666Y-118422380D01*
X129484523Y-118470000D01*
X129532142Y-118517619D01*
X130484523Y-119422380D02*
X129913095Y-119422380D01*
X130198809Y-119422380D02*
X130198809Y-118422380D01*
X130103571Y-118565238D01*
X130008333Y-118660476D01*
X129913095Y-118708095D01*
X131436904Y-119422380D02*
X130865476Y-119422380D01*
X131151190Y-119422380D02*
X131151190Y-118422380D01*
X131055952Y-118565238D01*
X130960714Y-118660476D01*
X130865476Y-118708095D01*
%TO.C,J12*%
X145240476Y-122332380D02*
X145240476Y-123046666D01*
X145192857Y-123189523D01*
X145097619Y-123284761D01*
X144954761Y-123332380D01*
X144859523Y-123332380D01*
X146240476Y-123332380D02*
X145669047Y-123332380D01*
X145954761Y-123332380D02*
X145954761Y-122332380D01*
X145859523Y-122475238D01*
X145764285Y-122570476D01*
X145669047Y-122618095D01*
X146621428Y-122427619D02*
X146669047Y-122380000D01*
X146764285Y-122332380D01*
X147002380Y-122332380D01*
X147097619Y-122380000D01*
X147145238Y-122427619D01*
X147192857Y-122522857D01*
X147192857Y-122618095D01*
X147145238Y-122760952D01*
X146573809Y-123332380D01*
X147192857Y-123332380D01*
%TO.C,C12*%
X114368394Y-86717142D02*
X114320775Y-86764761D01*
X114177918Y-86812380D01*
X114082680Y-86812380D01*
X113939823Y-86764761D01*
X113844585Y-86669523D01*
X113796966Y-86574285D01*
X113749347Y-86383809D01*
X113749347Y-86240952D01*
X113796966Y-86050476D01*
X113844585Y-85955238D01*
X113939823Y-85860000D01*
X114082680Y-85812380D01*
X114177918Y-85812380D01*
X114320775Y-85860000D01*
X114368394Y-85907619D01*
X115320775Y-86812380D02*
X114749347Y-86812380D01*
X115035061Y-86812380D02*
X115035061Y-85812380D01*
X114939823Y-85955238D01*
X114844585Y-86050476D01*
X114749347Y-86098095D01*
X115701728Y-85907619D02*
X115749347Y-85860000D01*
X115844585Y-85812380D01*
X116082680Y-85812380D01*
X116177918Y-85860000D01*
X116225537Y-85907619D01*
X116273156Y-86002857D01*
X116273156Y-86098095D01*
X116225537Y-86240952D01*
X115654109Y-86812380D01*
X116273156Y-86812380D01*
%TO.C,R17*%
X101592142Y-114117380D02*
X101258809Y-113641190D01*
X101020714Y-114117380D02*
X101020714Y-113117380D01*
X101401666Y-113117380D01*
X101496904Y-113165000D01*
X101544523Y-113212619D01*
X101592142Y-113307857D01*
X101592142Y-113450714D01*
X101544523Y-113545952D01*
X101496904Y-113593571D01*
X101401666Y-113641190D01*
X101020714Y-113641190D01*
X102544523Y-114117380D02*
X101973095Y-114117380D01*
X102258809Y-114117380D02*
X102258809Y-113117380D01*
X102163571Y-113260238D01*
X102068333Y-113355476D01*
X101973095Y-113403095D01*
X102877857Y-113117380D02*
X103544523Y-113117380D01*
X103115952Y-114117380D01*
%TO.C,R19*%
X101592142Y-108022380D02*
X101258809Y-107546190D01*
X101020714Y-108022380D02*
X101020714Y-107022380D01*
X101401666Y-107022380D01*
X101496904Y-107070000D01*
X101544523Y-107117619D01*
X101592142Y-107212857D01*
X101592142Y-107355714D01*
X101544523Y-107450952D01*
X101496904Y-107498571D01*
X101401666Y-107546190D01*
X101020714Y-107546190D01*
X102544523Y-108022380D02*
X101973095Y-108022380D01*
X102258809Y-108022380D02*
X102258809Y-107022380D01*
X102163571Y-107165238D01*
X102068333Y-107260476D01*
X101973095Y-107308095D01*
X103020714Y-108022380D02*
X103211190Y-108022380D01*
X103306428Y-107974761D01*
X103354047Y-107927142D01*
X103449285Y-107784285D01*
X103496904Y-107593809D01*
X103496904Y-107212857D01*
X103449285Y-107117619D01*
X103401666Y-107070000D01*
X103306428Y-107022380D01*
X103115952Y-107022380D01*
X103020714Y-107070000D01*
X102973095Y-107117619D01*
X102925476Y-107212857D01*
X102925476Y-107450952D01*
X102973095Y-107546190D01*
X103020714Y-107593809D01*
X103115952Y-107641428D01*
X103306428Y-107641428D01*
X103401666Y-107593809D01*
X103449285Y-107546190D01*
X103496904Y-107450952D01*
%TO.C,C14*%
X120642142Y-106422142D02*
X120594523Y-106469761D01*
X120451666Y-106517380D01*
X120356428Y-106517380D01*
X120213571Y-106469761D01*
X120118333Y-106374523D01*
X120070714Y-106279285D01*
X120023095Y-106088809D01*
X120023095Y-105945952D01*
X120070714Y-105755476D01*
X120118333Y-105660238D01*
X120213571Y-105565000D01*
X120356428Y-105517380D01*
X120451666Y-105517380D01*
X120594523Y-105565000D01*
X120642142Y-105612619D01*
X121594523Y-106517380D02*
X121023095Y-106517380D01*
X121308809Y-106517380D02*
X121308809Y-105517380D01*
X121213571Y-105660238D01*
X121118333Y-105755476D01*
X121023095Y-105803095D01*
X122451666Y-105850714D02*
X122451666Y-106517380D01*
X122213571Y-105469761D02*
X121975476Y-106184047D01*
X122594523Y-106184047D01*
%TO.C,R15*%
X124452142Y-121102380D02*
X124118809Y-120626190D01*
X123880714Y-121102380D02*
X123880714Y-120102380D01*
X124261666Y-120102380D01*
X124356904Y-120150000D01*
X124404523Y-120197619D01*
X124452142Y-120292857D01*
X124452142Y-120435714D01*
X124404523Y-120530952D01*
X124356904Y-120578571D01*
X124261666Y-120626190D01*
X123880714Y-120626190D01*
X125404523Y-121102380D02*
X124833095Y-121102380D01*
X125118809Y-121102380D02*
X125118809Y-120102380D01*
X125023571Y-120245238D01*
X124928333Y-120340476D01*
X124833095Y-120388095D01*
X126309285Y-120102380D02*
X125833095Y-120102380D01*
X125785476Y-120578571D01*
X125833095Y-120530952D01*
X125928333Y-120483333D01*
X126166428Y-120483333D01*
X126261666Y-120530952D01*
X126309285Y-120578571D01*
X126356904Y-120673809D01*
X126356904Y-120911904D01*
X126309285Y-121007142D01*
X126261666Y-121054761D01*
X126166428Y-121102380D01*
X125928333Y-121102380D01*
X125833095Y-121054761D01*
X125785476Y-121007142D01*
%TO.C,R27*%
X151122142Y-92527380D02*
X150788809Y-92051190D01*
X150550714Y-92527380D02*
X150550714Y-91527380D01*
X150931666Y-91527380D01*
X151026904Y-91575000D01*
X151074523Y-91622619D01*
X151122142Y-91717857D01*
X151122142Y-91860714D01*
X151074523Y-91955952D01*
X151026904Y-92003571D01*
X150931666Y-92051190D01*
X150550714Y-92051190D01*
X151503095Y-91622619D02*
X151550714Y-91575000D01*
X151645952Y-91527380D01*
X151884047Y-91527380D01*
X151979285Y-91575000D01*
X152026904Y-91622619D01*
X152074523Y-91717857D01*
X152074523Y-91813095D01*
X152026904Y-91955952D01*
X151455476Y-92527380D01*
X152074523Y-92527380D01*
X152407857Y-91527380D02*
X153074523Y-91527380D01*
X152645952Y-92527380D01*
%TO.C,J2*%
X102536666Y-90682380D02*
X102536666Y-91396666D01*
X102489047Y-91539523D01*
X102393809Y-91634761D01*
X102250952Y-91682380D01*
X102155714Y-91682380D01*
X102965238Y-90777619D02*
X103012857Y-90730000D01*
X103108095Y-90682380D01*
X103346190Y-90682380D01*
X103441428Y-90730000D01*
X103489047Y-90777619D01*
X103536666Y-90872857D01*
X103536666Y-90968095D01*
X103489047Y-91110952D01*
X102917619Y-91682380D01*
X103536666Y-91682380D01*
%TO.C,R26*%
X121277142Y-110307380D02*
X120943809Y-109831190D01*
X120705714Y-110307380D02*
X120705714Y-109307380D01*
X121086666Y-109307380D01*
X121181904Y-109355000D01*
X121229523Y-109402619D01*
X121277142Y-109497857D01*
X121277142Y-109640714D01*
X121229523Y-109735952D01*
X121181904Y-109783571D01*
X121086666Y-109831190D01*
X120705714Y-109831190D01*
X121658095Y-109402619D02*
X121705714Y-109355000D01*
X121800952Y-109307380D01*
X122039047Y-109307380D01*
X122134285Y-109355000D01*
X122181904Y-109402619D01*
X122229523Y-109497857D01*
X122229523Y-109593095D01*
X122181904Y-109735952D01*
X121610476Y-110307380D01*
X122229523Y-110307380D01*
X123086666Y-109307380D02*
X122896190Y-109307380D01*
X122800952Y-109355000D01*
X122753333Y-109402619D01*
X122658095Y-109545476D01*
X122610476Y-109735952D01*
X122610476Y-110116904D01*
X122658095Y-110212142D01*
X122705714Y-110259761D01*
X122800952Y-110307380D01*
X122991428Y-110307380D01*
X123086666Y-110259761D01*
X123134285Y-110212142D01*
X123181904Y-110116904D01*
X123181904Y-109878809D01*
X123134285Y-109783571D01*
X123086666Y-109735952D01*
X122991428Y-109688333D01*
X122800952Y-109688333D01*
X122705714Y-109735952D01*
X122658095Y-109783571D01*
X122610476Y-109878809D01*
%TO.C,J10*%
X131905476Y-122332380D02*
X131905476Y-123046666D01*
X131857857Y-123189523D01*
X131762619Y-123284761D01*
X131619761Y-123332380D01*
X131524523Y-123332380D01*
X132905476Y-123332380D02*
X132334047Y-123332380D01*
X132619761Y-123332380D02*
X132619761Y-122332380D01*
X132524523Y-122475238D01*
X132429285Y-122570476D01*
X132334047Y-122618095D01*
X133524523Y-122332380D02*
X133619761Y-122332380D01*
X133715000Y-122380000D01*
X133762619Y-122427619D01*
X133810238Y-122522857D01*
X133857857Y-122713333D01*
X133857857Y-122951428D01*
X133810238Y-123141904D01*
X133762619Y-123237142D01*
X133715000Y-123284761D01*
X133619761Y-123332380D01*
X133524523Y-123332380D01*
X133429285Y-123284761D01*
X133381666Y-123237142D01*
X133334047Y-123141904D01*
X133286428Y-122951428D01*
X133286428Y-122713333D01*
X133334047Y-122522857D01*
X133381666Y-122427619D01*
X133429285Y-122380000D01*
X133524523Y-122332380D01*
%TO.C,R7*%
X83653333Y-123007380D02*
X83320000Y-122531190D01*
X83081904Y-123007380D02*
X83081904Y-122007380D01*
X83462857Y-122007380D01*
X83558095Y-122055000D01*
X83605714Y-122102619D01*
X83653333Y-122197857D01*
X83653333Y-122340714D01*
X83605714Y-122435952D01*
X83558095Y-122483571D01*
X83462857Y-122531190D01*
X83081904Y-122531190D01*
X83986666Y-122007380D02*
X84653333Y-122007380D01*
X84224761Y-123007380D01*
%TO.C,J14*%
X105870476Y-90682380D02*
X105870476Y-91396666D01*
X105822857Y-91539523D01*
X105727619Y-91634761D01*
X105584761Y-91682380D01*
X105489523Y-91682380D01*
X106870476Y-91682380D02*
X106299047Y-91682380D01*
X106584761Y-91682380D02*
X106584761Y-90682380D01*
X106489523Y-90825238D01*
X106394285Y-90920476D01*
X106299047Y-90968095D01*
X107727619Y-91015714D02*
X107727619Y-91682380D01*
X107489523Y-90634761D02*
X107251428Y-91349047D01*
X107870476Y-91349047D01*
%TO.C,C17*%
X155567142Y-116617142D02*
X155519523Y-116664761D01*
X155376666Y-116712380D01*
X155281428Y-116712380D01*
X155138571Y-116664761D01*
X155043333Y-116569523D01*
X154995714Y-116474285D01*
X154948095Y-116283809D01*
X154948095Y-116140952D01*
X154995714Y-115950476D01*
X155043333Y-115855238D01*
X155138571Y-115760000D01*
X155281428Y-115712380D01*
X155376666Y-115712380D01*
X155519523Y-115760000D01*
X155567142Y-115807619D01*
X156519523Y-116712380D02*
X155948095Y-116712380D01*
X156233809Y-116712380D02*
X156233809Y-115712380D01*
X156138571Y-115855238D01*
X156043333Y-115950476D01*
X155948095Y-115998095D01*
X156852857Y-115712380D02*
X157519523Y-115712380D01*
X157090952Y-116712380D01*
%TO.C,R21*%
X137787142Y-121102380D02*
X137453809Y-120626190D01*
X137215714Y-121102380D02*
X137215714Y-120102380D01*
X137596666Y-120102380D01*
X137691904Y-120150000D01*
X137739523Y-120197619D01*
X137787142Y-120292857D01*
X137787142Y-120435714D01*
X137739523Y-120530952D01*
X137691904Y-120578571D01*
X137596666Y-120626190D01*
X137215714Y-120626190D01*
X138168095Y-120197619D02*
X138215714Y-120150000D01*
X138310952Y-120102380D01*
X138549047Y-120102380D01*
X138644285Y-120150000D01*
X138691904Y-120197619D01*
X138739523Y-120292857D01*
X138739523Y-120388095D01*
X138691904Y-120530952D01*
X138120476Y-121102380D01*
X138739523Y-121102380D01*
X139691904Y-121102380D02*
X139120476Y-121102380D01*
X139406190Y-121102380D02*
X139406190Y-120102380D01*
X139310952Y-120245238D01*
X139215714Y-120340476D01*
X139120476Y-120388095D01*
%TO.C,R4*%
X105878333Y-103322380D02*
X105545000Y-102846190D01*
X105306904Y-103322380D02*
X105306904Y-102322380D01*
X105687857Y-102322380D01*
X105783095Y-102370000D01*
X105830714Y-102417619D01*
X105878333Y-102512857D01*
X105878333Y-102655714D01*
X105830714Y-102750952D01*
X105783095Y-102798571D01*
X105687857Y-102846190D01*
X105306904Y-102846190D01*
X106735476Y-102655714D02*
X106735476Y-103322380D01*
X106497380Y-102274761D02*
X106259285Y-102989047D01*
X106878333Y-102989047D01*
%TO.C,R22*%
X134612142Y-116912380D02*
X134278809Y-116436190D01*
X134040714Y-116912380D02*
X134040714Y-115912380D01*
X134421666Y-115912380D01*
X134516904Y-115960000D01*
X134564523Y-116007619D01*
X134612142Y-116102857D01*
X134612142Y-116245714D01*
X134564523Y-116340952D01*
X134516904Y-116388571D01*
X134421666Y-116436190D01*
X134040714Y-116436190D01*
X134993095Y-116007619D02*
X135040714Y-115960000D01*
X135135952Y-115912380D01*
X135374047Y-115912380D01*
X135469285Y-115960000D01*
X135516904Y-116007619D01*
X135564523Y-116102857D01*
X135564523Y-116198095D01*
X135516904Y-116340952D01*
X134945476Y-116912380D01*
X135564523Y-116912380D01*
X135945476Y-116007619D02*
X135993095Y-115960000D01*
X136088333Y-115912380D01*
X136326428Y-115912380D01*
X136421666Y-115960000D01*
X136469285Y-116007619D01*
X136516904Y-116102857D01*
X136516904Y-116198095D01*
X136469285Y-116340952D01*
X135897857Y-116912380D01*
X136516904Y-116912380D01*
%TO.C,J15*%
X94440476Y-86022380D02*
X94440476Y-86736666D01*
X94392857Y-86879523D01*
X94297619Y-86974761D01*
X94154761Y-87022380D01*
X94059523Y-87022380D01*
X95440476Y-87022380D02*
X94869047Y-87022380D01*
X95154761Y-87022380D02*
X95154761Y-86022380D01*
X95059523Y-86165238D01*
X94964285Y-86260476D01*
X94869047Y-86308095D01*
X96345238Y-86022380D02*
X95869047Y-86022380D01*
X95821428Y-86498571D01*
X95869047Y-86450952D01*
X95964285Y-86403333D01*
X96202380Y-86403333D01*
X96297619Y-86450952D01*
X96345238Y-86498571D01*
X96392857Y-86593809D01*
X96392857Y-86831904D01*
X96345238Y-86927142D01*
X96297619Y-86974761D01*
X96202380Y-87022380D01*
X95964285Y-87022380D01*
X95869047Y-86974761D01*
X95821428Y-86927142D01*
%TO.C,J5*%
X79041666Y-122332380D02*
X79041666Y-123046666D01*
X78994047Y-123189523D01*
X78898809Y-123284761D01*
X78755952Y-123332380D01*
X78660714Y-123332380D01*
X79994047Y-122332380D02*
X79517857Y-122332380D01*
X79470238Y-122808571D01*
X79517857Y-122760952D01*
X79613095Y-122713333D01*
X79851190Y-122713333D01*
X79946428Y-122760952D01*
X79994047Y-122808571D01*
X80041666Y-122903809D01*
X80041666Y-123141904D01*
X79994047Y-123237142D01*
X79946428Y-123284761D01*
X79851190Y-123332380D01*
X79613095Y-123332380D01*
X79517857Y-123284761D01*
X79470238Y-123237142D01*
%TO.C,C15*%
X100107142Y-95892857D02*
X100154761Y-95940476D01*
X100202380Y-96083333D01*
X100202380Y-96178571D01*
X100154761Y-96321428D01*
X100059523Y-96416666D01*
X99964285Y-96464285D01*
X99773809Y-96511904D01*
X99630952Y-96511904D01*
X99440476Y-96464285D01*
X99345238Y-96416666D01*
X99250000Y-96321428D01*
X99202380Y-96178571D01*
X99202380Y-96083333D01*
X99250000Y-95940476D01*
X99297619Y-95892857D01*
X100202380Y-94940476D02*
X100202380Y-95511904D01*
X100202380Y-95226190D02*
X99202380Y-95226190D01*
X99345238Y-95321428D01*
X99440476Y-95416666D01*
X99488095Y-95511904D01*
X99202380Y-94035714D02*
X99202380Y-94511904D01*
X99678571Y-94559523D01*
X99630952Y-94511904D01*
X99583333Y-94416666D01*
X99583333Y-94178571D01*
X99630952Y-94083333D01*
X99678571Y-94035714D01*
X99773809Y-93988095D01*
X100011904Y-93988095D01*
X100107142Y-94035714D01*
X100154761Y-94083333D01*
X100202380Y-94178571D01*
X100202380Y-94416666D01*
X100154761Y-94511904D01*
X100107142Y-94559523D01*
%TO.C,R12*%
X151122142Y-95067380D02*
X150788809Y-94591190D01*
X150550714Y-95067380D02*
X150550714Y-94067380D01*
X150931666Y-94067380D01*
X151026904Y-94115000D01*
X151074523Y-94162619D01*
X151122142Y-94257857D01*
X151122142Y-94400714D01*
X151074523Y-94495952D01*
X151026904Y-94543571D01*
X150931666Y-94591190D01*
X150550714Y-94591190D01*
X152074523Y-95067380D02*
X151503095Y-95067380D01*
X151788809Y-95067380D02*
X151788809Y-94067380D01*
X151693571Y-94210238D01*
X151598333Y-94305476D01*
X151503095Y-94353095D01*
X152455476Y-94162619D02*
X152503095Y-94115000D01*
X152598333Y-94067380D01*
X152836428Y-94067380D01*
X152931666Y-94115000D01*
X152979285Y-94162619D01*
X153026904Y-94257857D01*
X153026904Y-94353095D01*
X152979285Y-94495952D01*
X152407857Y-95067380D01*
X153026904Y-95067380D01*
%TO.C,C20*%
X135247142Y-107262142D02*
X135199523Y-107309761D01*
X135056666Y-107357380D01*
X134961428Y-107357380D01*
X134818571Y-107309761D01*
X134723333Y-107214523D01*
X134675714Y-107119285D01*
X134628095Y-106928809D01*
X134628095Y-106785952D01*
X134675714Y-106595476D01*
X134723333Y-106500238D01*
X134818571Y-106405000D01*
X134961428Y-106357380D01*
X135056666Y-106357380D01*
X135199523Y-106405000D01*
X135247142Y-106452619D01*
X135628095Y-106452619D02*
X135675714Y-106405000D01*
X135770952Y-106357380D01*
X136009047Y-106357380D01*
X136104285Y-106405000D01*
X136151904Y-106452619D01*
X136199523Y-106547857D01*
X136199523Y-106643095D01*
X136151904Y-106785952D01*
X135580476Y-107357380D01*
X136199523Y-107357380D01*
X136818571Y-106357380D02*
X136913809Y-106357380D01*
X137009047Y-106405000D01*
X137056666Y-106452619D01*
X137104285Y-106547857D01*
X137151904Y-106738333D01*
X137151904Y-106976428D01*
X137104285Y-107166904D01*
X137056666Y-107262142D01*
X137009047Y-107309761D01*
X136913809Y-107357380D01*
X136818571Y-107357380D01*
X136723333Y-107309761D01*
X136675714Y-107262142D01*
X136628095Y-107166904D01*
X136580476Y-106976428D01*
X136580476Y-106738333D01*
X136628095Y-106547857D01*
X136675714Y-106452619D01*
X136723333Y-106405000D01*
X136818571Y-106357380D01*
%TO.C,R25*%
X151122142Y-89987380D02*
X150788809Y-89511190D01*
X150550714Y-89987380D02*
X150550714Y-88987380D01*
X150931666Y-88987380D01*
X151026904Y-89035000D01*
X151074523Y-89082619D01*
X151122142Y-89177857D01*
X151122142Y-89320714D01*
X151074523Y-89415952D01*
X151026904Y-89463571D01*
X150931666Y-89511190D01*
X150550714Y-89511190D01*
X151503095Y-89082619D02*
X151550714Y-89035000D01*
X151645952Y-88987380D01*
X151884047Y-88987380D01*
X151979285Y-89035000D01*
X152026904Y-89082619D01*
X152074523Y-89177857D01*
X152074523Y-89273095D01*
X152026904Y-89415952D01*
X151455476Y-89987380D01*
X152074523Y-89987380D01*
X152979285Y-88987380D02*
X152503095Y-88987380D01*
X152455476Y-89463571D01*
X152503095Y-89415952D01*
X152598333Y-89368333D01*
X152836428Y-89368333D01*
X152931666Y-89415952D01*
X152979285Y-89463571D01*
X153026904Y-89558809D01*
X153026904Y-89796904D01*
X152979285Y-89892142D01*
X152931666Y-89939761D01*
X152836428Y-89987380D01*
X152598333Y-89987380D01*
X152503095Y-89939761D01*
X152455476Y-89892142D01*
%TO.C,J7*%
X105711666Y-122352380D02*
X105711666Y-123066666D01*
X105664047Y-123209523D01*
X105568809Y-123304761D01*
X105425952Y-123352380D01*
X105330714Y-123352380D01*
X106092619Y-122352380D02*
X106759285Y-122352380D01*
X106330714Y-123352380D01*
%TO.C,R24*%
X161282142Y-116912380D02*
X160948809Y-116436190D01*
X160710714Y-116912380D02*
X160710714Y-115912380D01*
X161091666Y-115912380D01*
X161186904Y-115960000D01*
X161234523Y-116007619D01*
X161282142Y-116102857D01*
X161282142Y-116245714D01*
X161234523Y-116340952D01*
X161186904Y-116388571D01*
X161091666Y-116436190D01*
X160710714Y-116436190D01*
X161663095Y-116007619D02*
X161710714Y-115960000D01*
X161805952Y-115912380D01*
X162044047Y-115912380D01*
X162139285Y-115960000D01*
X162186904Y-116007619D01*
X162234523Y-116102857D01*
X162234523Y-116198095D01*
X162186904Y-116340952D01*
X161615476Y-116912380D01*
X162234523Y-116912380D01*
X163091666Y-116245714D02*
X163091666Y-116912380D01*
X162853571Y-115864761D02*
X162615476Y-116579047D01*
X163234523Y-116579047D01*
%TO.C,C7*%
X89688333Y-119327142D02*
X89640714Y-119374761D01*
X89497857Y-119422380D01*
X89402619Y-119422380D01*
X89259761Y-119374761D01*
X89164523Y-119279523D01*
X89116904Y-119184285D01*
X89069285Y-118993809D01*
X89069285Y-118850952D01*
X89116904Y-118660476D01*
X89164523Y-118565238D01*
X89259761Y-118470000D01*
X89402619Y-118422380D01*
X89497857Y-118422380D01*
X89640714Y-118470000D01*
X89688333Y-118517619D01*
X90021666Y-118422380D02*
X90688333Y-118422380D01*
X90259761Y-119422380D01*
%TO.C,IC1*%
X112053809Y-109772380D02*
X112053809Y-108772380D01*
X113101428Y-109677142D02*
X113053809Y-109724761D01*
X112910952Y-109772380D01*
X112815714Y-109772380D01*
X112672857Y-109724761D01*
X112577619Y-109629523D01*
X112530000Y-109534285D01*
X112482380Y-109343809D01*
X112482380Y-109200952D01*
X112530000Y-109010476D01*
X112577619Y-108915238D01*
X112672857Y-108820000D01*
X112815714Y-108772380D01*
X112910952Y-108772380D01*
X113053809Y-108820000D01*
X113101428Y-108867619D01*
X114053809Y-109772380D02*
X113482380Y-109772380D01*
X113768095Y-109772380D02*
X113768095Y-108772380D01*
X113672857Y-108915238D01*
X113577619Y-109010476D01*
X113482380Y-109058095D01*
%TO.C,J3*%
X80946666Y-108882380D02*
X80946666Y-109596666D01*
X80899047Y-109739523D01*
X80803809Y-109834761D01*
X80660952Y-109882380D01*
X80565714Y-109882380D01*
X81327619Y-108882380D02*
X81946666Y-108882380D01*
X81613333Y-109263333D01*
X81756190Y-109263333D01*
X81851428Y-109310952D01*
X81899047Y-109358571D01*
X81946666Y-109453809D01*
X81946666Y-109691904D01*
X81899047Y-109787142D01*
X81851428Y-109834761D01*
X81756190Y-109882380D01*
X81470476Y-109882380D01*
X81375238Y-109834761D01*
X81327619Y-109787142D01*
%TO.C,C8*%
X150328333Y-108942142D02*
X150280714Y-108989761D01*
X150137857Y-109037380D01*
X150042619Y-109037380D01*
X149899761Y-108989761D01*
X149804523Y-108894523D01*
X149756904Y-108799285D01*
X149709285Y-108608809D01*
X149709285Y-108465952D01*
X149756904Y-108275476D01*
X149804523Y-108180238D01*
X149899761Y-108085000D01*
X150042619Y-108037380D01*
X150137857Y-108037380D01*
X150280714Y-108085000D01*
X150328333Y-108132619D01*
X150899761Y-108465952D02*
X150804523Y-108418333D01*
X150756904Y-108370714D01*
X150709285Y-108275476D01*
X150709285Y-108227857D01*
X150756904Y-108132619D01*
X150804523Y-108085000D01*
X150899761Y-108037380D01*
X151090238Y-108037380D01*
X151185476Y-108085000D01*
X151233095Y-108132619D01*
X151280714Y-108227857D01*
X151280714Y-108275476D01*
X151233095Y-108370714D01*
X151185476Y-108418333D01*
X151090238Y-108465952D01*
X150899761Y-108465952D01*
X150804523Y-108513571D01*
X150756904Y-108561190D01*
X150709285Y-108656428D01*
X150709285Y-108846904D01*
X150756904Y-108942142D01*
X150804523Y-108989761D01*
X150899761Y-109037380D01*
X151090238Y-109037380D01*
X151185476Y-108989761D01*
X151233095Y-108942142D01*
X151280714Y-108846904D01*
X151280714Y-108656428D01*
X151233095Y-108561190D01*
X151185476Y-108513571D01*
X151090238Y-108465952D01*
%TO.C,R8*%
X81748333Y-116912380D02*
X81415000Y-116436190D01*
X81176904Y-116912380D02*
X81176904Y-115912380D01*
X81557857Y-115912380D01*
X81653095Y-115960000D01*
X81700714Y-116007619D01*
X81748333Y-116102857D01*
X81748333Y-116245714D01*
X81700714Y-116340952D01*
X81653095Y-116388571D01*
X81557857Y-116436190D01*
X81176904Y-116436190D01*
X82319761Y-116340952D02*
X82224523Y-116293333D01*
X82176904Y-116245714D01*
X82129285Y-116150476D01*
X82129285Y-116102857D01*
X82176904Y-116007619D01*
X82224523Y-115960000D01*
X82319761Y-115912380D01*
X82510238Y-115912380D01*
X82605476Y-115960000D01*
X82653095Y-116007619D01*
X82700714Y-116102857D01*
X82700714Y-116150476D01*
X82653095Y-116245714D01*
X82605476Y-116293333D01*
X82510238Y-116340952D01*
X82319761Y-116340952D01*
X82224523Y-116388571D01*
X82176904Y-116436190D01*
X82129285Y-116531428D01*
X82129285Y-116721904D01*
X82176904Y-116817142D01*
X82224523Y-116864761D01*
X82319761Y-116912380D01*
X82510238Y-116912380D01*
X82605476Y-116864761D01*
X82653095Y-116817142D01*
X82700714Y-116721904D01*
X82700714Y-116531428D01*
X82653095Y-116436190D01*
X82605476Y-116388571D01*
X82510238Y-116340952D01*
%TO.C,C3*%
X143343333Y-119327142D02*
X143295714Y-119374761D01*
X143152857Y-119422380D01*
X143057619Y-119422380D01*
X142914761Y-119374761D01*
X142819523Y-119279523D01*
X142771904Y-119184285D01*
X142724285Y-118993809D01*
X142724285Y-118850952D01*
X142771904Y-118660476D01*
X142819523Y-118565238D01*
X142914761Y-118470000D01*
X143057619Y-118422380D01*
X143152857Y-118422380D01*
X143295714Y-118470000D01*
X143343333Y-118517619D01*
X143676666Y-118422380D02*
X144295714Y-118422380D01*
X143962380Y-118803333D01*
X144105238Y-118803333D01*
X144200476Y-118850952D01*
X144248095Y-118898571D01*
X144295714Y-118993809D01*
X144295714Y-119231904D01*
X144248095Y-119327142D01*
X144200476Y-119374761D01*
X144105238Y-119422380D01*
X143819523Y-119422380D01*
X143724285Y-119374761D01*
X143676666Y-119327142D01*
%TO.C,C4*%
X117943333Y-91797142D02*
X117895714Y-91844761D01*
X117752857Y-91892380D01*
X117657619Y-91892380D01*
X117514761Y-91844761D01*
X117419523Y-91749523D01*
X117371904Y-91654285D01*
X117324285Y-91463809D01*
X117324285Y-91320952D01*
X117371904Y-91130476D01*
X117419523Y-91035238D01*
X117514761Y-90940000D01*
X117657619Y-90892380D01*
X117752857Y-90892380D01*
X117895714Y-90940000D01*
X117943333Y-90987619D01*
X118800476Y-91225714D02*
X118800476Y-91892380D01*
X118562380Y-90844761D02*
X118324285Y-91559047D01*
X118943333Y-91559047D01*
%TO.C,R10*%
X94607142Y-116932380D02*
X94273809Y-116456190D01*
X94035714Y-116932380D02*
X94035714Y-115932380D01*
X94416666Y-115932380D01*
X94511904Y-115980000D01*
X94559523Y-116027619D01*
X94607142Y-116122857D01*
X94607142Y-116265714D01*
X94559523Y-116360952D01*
X94511904Y-116408571D01*
X94416666Y-116456190D01*
X94035714Y-116456190D01*
X95559523Y-116932380D02*
X94988095Y-116932380D01*
X95273809Y-116932380D02*
X95273809Y-115932380D01*
X95178571Y-116075238D01*
X95083333Y-116170476D01*
X94988095Y-116218095D01*
X96178571Y-115932380D02*
X96273809Y-115932380D01*
X96369047Y-115980000D01*
X96416666Y-116027619D01*
X96464285Y-116122857D01*
X96511904Y-116313333D01*
X96511904Y-116551428D01*
X96464285Y-116741904D01*
X96416666Y-116837142D01*
X96369047Y-116884761D01*
X96273809Y-116932380D01*
X96178571Y-116932380D01*
X96083333Y-116884761D01*
X96035714Y-116837142D01*
X95988095Y-116741904D01*
X95940476Y-116551428D01*
X95940476Y-116313333D01*
X95988095Y-116122857D01*
X96035714Y-116027619D01*
X96083333Y-115980000D01*
X96178571Y-115932380D01*
%TO.C,R20*%
X145764642Y-107387380D02*
X145431309Y-106911190D01*
X145193214Y-107387380D02*
X145193214Y-106387380D01*
X145574166Y-106387380D01*
X145669404Y-106435000D01*
X145717023Y-106482619D01*
X145764642Y-106577857D01*
X145764642Y-106720714D01*
X145717023Y-106815952D01*
X145669404Y-106863571D01*
X145574166Y-106911190D01*
X145193214Y-106911190D01*
X146145595Y-106482619D02*
X146193214Y-106435000D01*
X146288452Y-106387380D01*
X146526547Y-106387380D01*
X146621785Y-106435000D01*
X146669404Y-106482619D01*
X146717023Y-106577857D01*
X146717023Y-106673095D01*
X146669404Y-106815952D01*
X146097976Y-107387380D01*
X146717023Y-107387380D01*
X147336071Y-106387380D02*
X147431309Y-106387380D01*
X147526547Y-106435000D01*
X147574166Y-106482619D01*
X147621785Y-106577857D01*
X147669404Y-106768333D01*
X147669404Y-107006428D01*
X147621785Y-107196904D01*
X147574166Y-107292142D01*
X147526547Y-107339761D01*
X147431309Y-107387380D01*
X147336071Y-107387380D01*
X147240833Y-107339761D01*
X147193214Y-107292142D01*
X147145595Y-107196904D01*
X147097976Y-107006428D01*
X147097976Y-106768333D01*
X147145595Y-106577857D01*
X147193214Y-106482619D01*
X147240833Y-106435000D01*
X147336071Y-106387380D01*
%TO.C,IC2*%
X155868809Y-109672380D02*
X155868809Y-108672380D01*
X156916428Y-109577142D02*
X156868809Y-109624761D01*
X156725952Y-109672380D01*
X156630714Y-109672380D01*
X156487857Y-109624761D01*
X156392619Y-109529523D01*
X156345000Y-109434285D01*
X156297380Y-109243809D01*
X156297380Y-109100952D01*
X156345000Y-108910476D01*
X156392619Y-108815238D01*
X156487857Y-108720000D01*
X156630714Y-108672380D01*
X156725952Y-108672380D01*
X156868809Y-108720000D01*
X156916428Y-108767619D01*
X157297380Y-108767619D02*
X157345000Y-108720000D01*
X157440238Y-108672380D01*
X157678333Y-108672380D01*
X157773571Y-108720000D01*
X157821190Y-108767619D01*
X157868809Y-108862857D01*
X157868809Y-108958095D01*
X157821190Y-109100952D01*
X157249761Y-109672380D01*
X157868809Y-109672380D01*
%TO.C,R23*%
X162552142Y-123007380D02*
X162218809Y-122531190D01*
X161980714Y-123007380D02*
X161980714Y-122007380D01*
X162361666Y-122007380D01*
X162456904Y-122055000D01*
X162504523Y-122102619D01*
X162552142Y-122197857D01*
X162552142Y-122340714D01*
X162504523Y-122435952D01*
X162456904Y-122483571D01*
X162361666Y-122531190D01*
X161980714Y-122531190D01*
X162933095Y-122102619D02*
X162980714Y-122055000D01*
X163075952Y-122007380D01*
X163314047Y-122007380D01*
X163409285Y-122055000D01*
X163456904Y-122102619D01*
X163504523Y-122197857D01*
X163504523Y-122293095D01*
X163456904Y-122435952D01*
X162885476Y-123007380D01*
X163504523Y-123007380D01*
X163837857Y-122007380D02*
X164456904Y-122007380D01*
X164123571Y-122388333D01*
X164266428Y-122388333D01*
X164361666Y-122435952D01*
X164409285Y-122483571D01*
X164456904Y-122578809D01*
X164456904Y-122816904D01*
X164409285Y-122912142D01*
X164361666Y-122959761D01*
X164266428Y-123007380D01*
X163980714Y-123007380D01*
X163885476Y-122959761D01*
X163837857Y-122912142D01*
%TO.C,C19*%
X154297142Y-122912142D02*
X154249523Y-122959761D01*
X154106666Y-123007380D01*
X154011428Y-123007380D01*
X153868571Y-122959761D01*
X153773333Y-122864523D01*
X153725714Y-122769285D01*
X153678095Y-122578809D01*
X153678095Y-122435952D01*
X153725714Y-122245476D01*
X153773333Y-122150238D01*
X153868571Y-122055000D01*
X154011428Y-122007380D01*
X154106666Y-122007380D01*
X154249523Y-122055000D01*
X154297142Y-122102619D01*
X155249523Y-123007380D02*
X154678095Y-123007380D01*
X154963809Y-123007380D02*
X154963809Y-122007380D01*
X154868571Y-122150238D01*
X154773333Y-122245476D01*
X154678095Y-122293095D01*
X155725714Y-123007380D02*
X155916190Y-123007380D01*
X156011428Y-122959761D01*
X156059047Y-122912142D01*
X156154285Y-122769285D01*
X156201904Y-122578809D01*
X156201904Y-122197857D01*
X156154285Y-122102619D01*
X156106666Y-122055000D01*
X156011428Y-122007380D01*
X155820952Y-122007380D01*
X155725714Y-122055000D01*
X155678095Y-122102619D01*
X155630476Y-122197857D01*
X155630476Y-122435952D01*
X155678095Y-122531190D01*
X155725714Y-122578809D01*
X155820952Y-122626428D01*
X156011428Y-122626428D01*
X156106666Y-122578809D01*
X156154285Y-122531190D01*
X156201904Y-122435952D01*
%TO.C,R2*%
X105878333Y-100782380D02*
X105545000Y-100306190D01*
X105306904Y-100782380D02*
X105306904Y-99782380D01*
X105687857Y-99782380D01*
X105783095Y-99830000D01*
X105830714Y-99877619D01*
X105878333Y-99972857D01*
X105878333Y-100115714D01*
X105830714Y-100210952D01*
X105783095Y-100258571D01*
X105687857Y-100306190D01*
X105306904Y-100306190D01*
X106259285Y-99877619D02*
X106306904Y-99830000D01*
X106402142Y-99782380D01*
X106640238Y-99782380D01*
X106735476Y-99830000D01*
X106783095Y-99877619D01*
X106830714Y-99972857D01*
X106830714Y-100068095D01*
X106783095Y-100210952D01*
X106211666Y-100782380D01*
X106830714Y-100782380D01*
%TO.C,R18*%
X145764642Y-110562380D02*
X145431309Y-110086190D01*
X145193214Y-110562380D02*
X145193214Y-109562380D01*
X145574166Y-109562380D01*
X145669404Y-109610000D01*
X145717023Y-109657619D01*
X145764642Y-109752857D01*
X145764642Y-109895714D01*
X145717023Y-109990952D01*
X145669404Y-110038571D01*
X145574166Y-110086190D01*
X145193214Y-110086190D01*
X146717023Y-110562380D02*
X146145595Y-110562380D01*
X146431309Y-110562380D02*
X146431309Y-109562380D01*
X146336071Y-109705238D01*
X146240833Y-109800476D01*
X146145595Y-109848095D01*
X147288452Y-109990952D02*
X147193214Y-109943333D01*
X147145595Y-109895714D01*
X147097976Y-109800476D01*
X147097976Y-109752857D01*
X147145595Y-109657619D01*
X147193214Y-109610000D01*
X147288452Y-109562380D01*
X147478928Y-109562380D01*
X147574166Y-109610000D01*
X147621785Y-109657619D01*
X147669404Y-109752857D01*
X147669404Y-109800476D01*
X147621785Y-109895714D01*
X147574166Y-109943333D01*
X147478928Y-109990952D01*
X147288452Y-109990952D01*
X147193214Y-110038571D01*
X147145595Y-110086190D01*
X147097976Y-110181428D01*
X147097976Y-110371904D01*
X147145595Y-110467142D01*
X147193214Y-110514761D01*
X147288452Y-110562380D01*
X147478928Y-110562380D01*
X147574166Y-110514761D01*
X147621785Y-110467142D01*
X147669404Y-110371904D01*
X147669404Y-110181428D01*
X147621785Y-110086190D01*
X147574166Y-110038571D01*
X147478928Y-109990952D01*
%TO.C,J6*%
X92376666Y-122352380D02*
X92376666Y-123066666D01*
X92329047Y-123209523D01*
X92233809Y-123304761D01*
X92090952Y-123352380D01*
X91995714Y-123352380D01*
X93281428Y-122352380D02*
X93090952Y-122352380D01*
X92995714Y-122400000D01*
X92948095Y-122447619D01*
X92852857Y-122590476D01*
X92805238Y-122780952D01*
X92805238Y-123161904D01*
X92852857Y-123257142D01*
X92900476Y-123304761D01*
X92995714Y-123352380D01*
X93186190Y-123352380D01*
X93281428Y-123304761D01*
X93329047Y-123257142D01*
X93376666Y-123161904D01*
X93376666Y-122923809D01*
X93329047Y-122828571D01*
X93281428Y-122780952D01*
X93186190Y-122733333D01*
X92995714Y-122733333D01*
X92900476Y-122780952D01*
X92852857Y-122828571D01*
X92805238Y-122923809D01*
%TO.C,C10*%
X121277142Y-103002142D02*
X121229523Y-103049761D01*
X121086666Y-103097380D01*
X120991428Y-103097380D01*
X120848571Y-103049761D01*
X120753333Y-102954523D01*
X120705714Y-102859285D01*
X120658095Y-102668809D01*
X120658095Y-102525952D01*
X120705714Y-102335476D01*
X120753333Y-102240238D01*
X120848571Y-102145000D01*
X120991428Y-102097380D01*
X121086666Y-102097380D01*
X121229523Y-102145000D01*
X121277142Y-102192619D01*
X122229523Y-103097380D02*
X121658095Y-103097380D01*
X121943809Y-103097380D02*
X121943809Y-102097380D01*
X121848571Y-102240238D01*
X121753333Y-102335476D01*
X121658095Y-102383095D01*
X122848571Y-102097380D02*
X122943809Y-102097380D01*
X123039047Y-102145000D01*
X123086666Y-102192619D01*
X123134285Y-102287857D01*
X123181904Y-102478333D01*
X123181904Y-102716428D01*
X123134285Y-102906904D01*
X123086666Y-103002142D01*
X123039047Y-103049761D01*
X122943809Y-103097380D01*
X122848571Y-103097380D01*
X122753333Y-103049761D01*
X122705714Y-103002142D01*
X122658095Y-102906904D01*
X122610476Y-102716428D01*
X122610476Y-102478333D01*
X122658095Y-102287857D01*
X122705714Y-102192619D01*
X122753333Y-102145000D01*
X122848571Y-102097380D01*
%TO.C,C5*%
X76668333Y-119327142D02*
X76620714Y-119374761D01*
X76477857Y-119422380D01*
X76382619Y-119422380D01*
X76239761Y-119374761D01*
X76144523Y-119279523D01*
X76096904Y-119184285D01*
X76049285Y-118993809D01*
X76049285Y-118850952D01*
X76096904Y-118660476D01*
X76144523Y-118565238D01*
X76239761Y-118470000D01*
X76382619Y-118422380D01*
X76477857Y-118422380D01*
X76620714Y-118470000D01*
X76668333Y-118517619D01*
X77573095Y-118422380D02*
X77096904Y-118422380D01*
X77049285Y-118898571D01*
X77096904Y-118850952D01*
X77192142Y-118803333D01*
X77430238Y-118803333D01*
X77525476Y-118850952D01*
X77573095Y-118898571D01*
X77620714Y-118993809D01*
X77620714Y-119231904D01*
X77573095Y-119327142D01*
X77525476Y-119374761D01*
X77430238Y-119422380D01*
X77192142Y-119422380D01*
X77096904Y-119374761D01*
X77049285Y-119327142D01*
%TO.C,R3*%
X105878333Y-105862380D02*
X105545000Y-105386190D01*
X105306904Y-105862380D02*
X105306904Y-104862380D01*
X105687857Y-104862380D01*
X105783095Y-104910000D01*
X105830714Y-104957619D01*
X105878333Y-105052857D01*
X105878333Y-105195714D01*
X105830714Y-105290952D01*
X105783095Y-105338571D01*
X105687857Y-105386190D01*
X105306904Y-105386190D01*
X106211666Y-104862380D02*
X106830714Y-104862380D01*
X106497380Y-105243333D01*
X106640238Y-105243333D01*
X106735476Y-105290952D01*
X106783095Y-105338571D01*
X106830714Y-105433809D01*
X106830714Y-105671904D01*
X106783095Y-105767142D01*
X106735476Y-105814761D01*
X106640238Y-105862380D01*
X106354523Y-105862380D01*
X106259285Y-105814761D01*
X106211666Y-105767142D01*
%TO.C,J1*%
X80946666Y-86022380D02*
X80946666Y-86736666D01*
X80899047Y-86879523D01*
X80803809Y-86974761D01*
X80660952Y-87022380D01*
X80565714Y-87022380D01*
X81946666Y-87022380D02*
X81375238Y-87022380D01*
X81660952Y-87022380D02*
X81660952Y-86022380D01*
X81565714Y-86165238D01*
X81470476Y-86260476D01*
X81375238Y-86308095D01*
%TO.C,C1*%
X104087142Y-95416666D02*
X104134761Y-95464285D01*
X104182380Y-95607142D01*
X104182380Y-95702380D01*
X104134761Y-95845238D01*
X104039523Y-95940476D01*
X103944285Y-95988095D01*
X103753809Y-96035714D01*
X103610952Y-96035714D01*
X103420476Y-95988095D01*
X103325238Y-95940476D01*
X103230000Y-95845238D01*
X103182380Y-95702380D01*
X103182380Y-95607142D01*
X103230000Y-95464285D01*
X103277619Y-95416666D01*
X104182380Y-94464285D02*
X104182380Y-95035714D01*
X104182380Y-94750000D02*
X103182380Y-94750000D01*
X103325238Y-94845238D01*
X103420476Y-94940476D01*
X103468095Y-95035714D01*
%TO.C,C2*%
X150963333Y-100052142D02*
X150915714Y-100099761D01*
X150772857Y-100147380D01*
X150677619Y-100147380D01*
X150534761Y-100099761D01*
X150439523Y-100004523D01*
X150391904Y-99909285D01*
X150344285Y-99718809D01*
X150344285Y-99575952D01*
X150391904Y-99385476D01*
X150439523Y-99290238D01*
X150534761Y-99195000D01*
X150677619Y-99147380D01*
X150772857Y-99147380D01*
X150915714Y-99195000D01*
X150963333Y-99242619D01*
X151344285Y-99242619D02*
X151391904Y-99195000D01*
X151487142Y-99147380D01*
X151725238Y-99147380D01*
X151820476Y-99195000D01*
X151868095Y-99242619D01*
X151915714Y-99337857D01*
X151915714Y-99433095D01*
X151868095Y-99575952D01*
X151296666Y-100147380D01*
X151915714Y-100147380D01*
%TO.C,R6*%
X121753333Y-86812380D02*
X121420000Y-86336190D01*
X121181904Y-86812380D02*
X121181904Y-85812380D01*
X121562857Y-85812380D01*
X121658095Y-85860000D01*
X121705714Y-85907619D01*
X121753333Y-86002857D01*
X121753333Y-86145714D01*
X121705714Y-86240952D01*
X121658095Y-86288571D01*
X121562857Y-86336190D01*
X121181904Y-86336190D01*
X122610476Y-85812380D02*
X122420000Y-85812380D01*
X122324761Y-85860000D01*
X122277142Y-85907619D01*
X122181904Y-86050476D01*
X122134285Y-86240952D01*
X122134285Y-86621904D01*
X122181904Y-86717142D01*
X122229523Y-86764761D01*
X122324761Y-86812380D01*
X122515238Y-86812380D01*
X122610476Y-86764761D01*
X122658095Y-86717142D01*
X122705714Y-86621904D01*
X122705714Y-86383809D01*
X122658095Y-86288571D01*
X122610476Y-86240952D01*
X122515238Y-86193333D01*
X122324761Y-86193333D01*
X122229523Y-86240952D01*
X122181904Y-86288571D01*
X122134285Y-86383809D01*
D11*
%TO.C,U1*%
X143375000Y-100400000D02*
X143375000Y-101020000D01*
X143375000Y-101020000D02*
X141255000Y-101020000D01*
X129255000Y-101020000D02*
X127135000Y-101020000D01*
X127135000Y-101020000D02*
X127135000Y-100400000D01*
%TO.C,C18*%
X111201252Y-104500000D02*
X109778748Y-104500000D01*
X111201252Y-106320000D02*
X109778748Y-106320000D01*
%TO.C,J13*%
X162620000Y-99060000D02*
X162620000Y-86300000D01*
X162620000Y-99060000D02*
X159960000Y-99060000D01*
X162620000Y-86300000D02*
X159960000Y-86300000D01*
X162620000Y-100330000D02*
X162620000Y-101660000D01*
X162620000Y-101660000D02*
X161290000Y-101660000D01*
X159960000Y-99060000D02*
X159960000Y-86300000D01*
%TO.C,J4*%
X93920000Y-110430000D02*
X95250000Y-110430000D01*
X93920000Y-113090000D02*
X96580000Y-113090000D01*
X96580000Y-113030000D02*
X96580000Y-113090000D01*
X93920000Y-113030000D02*
X93920000Y-113090000D01*
X93920000Y-111760000D02*
X93920000Y-110430000D01*
X93920000Y-113030000D02*
X96580000Y-113030000D01*
%TO.C,U2*%
X114940000Y-99930000D02*
X114940000Y-98670000D01*
X111180000Y-99930000D02*
X114940000Y-99930000D01*
X114940000Y-93110000D02*
X114940000Y-94370000D01*
X108930000Y-93110000D02*
X114940000Y-93110000D01*
%TO.C,C9*%
X103206248Y-121385000D02*
X103728752Y-121385000D01*
X103206248Y-119915000D02*
X103728752Y-119915000D01*
%TO.C,R29*%
X148362936Y-119915000D02*
X148817064Y-119915000D01*
X148362936Y-121385000D02*
X148817064Y-121385000D01*
%TO.C,R13*%
X108357936Y-121385000D02*
X108812064Y-121385000D01*
X108357936Y-119915000D02*
X108812064Y-119915000D01*
%TO.C,R14*%
X108357936Y-118845000D02*
X108812064Y-118845000D01*
X108357936Y-117375000D02*
X108812064Y-117375000D01*
%TO.C,R11*%
X148085436Y-96420000D02*
X148539564Y-96420000D01*
X148085436Y-97890000D02*
X148539564Y-97890000D01*
%TO.C,J9*%
X115820000Y-128460000D02*
X122940000Y-128460000D01*
X115570000Y-128990000D02*
X123190000Y-128990000D01*
X122390000Y-124570000D02*
X123990000Y-124570000D01*
X114770000Y-123970000D02*
X114770000Y-124570000D01*
X113900000Y-125000000D02*
X113900000Y-129000000D01*
X117310000Y-123970000D02*
X117310000Y-124570000D01*
X115570000Y-128990000D02*
X115820000Y-128460000D01*
X117310000Y-124570000D02*
X118910000Y-124570000D01*
X123990000Y-124570000D02*
X123990000Y-123970000D01*
X121450000Y-124570000D02*
X121450000Y-123970000D01*
X119850000Y-123970000D02*
X119850000Y-124570000D01*
X114190000Y-129990000D02*
X124570000Y-129990000D01*
X124570000Y-129990000D02*
X124570000Y-123970000D01*
X115570000Y-129990000D02*
X115570000Y-128990000D01*
X122940000Y-129990000D02*
X122940000Y-128990000D01*
X122390000Y-123970000D02*
X122390000Y-124570000D01*
X118910000Y-124570000D02*
X118910000Y-123970000D01*
X123190000Y-128990000D02*
X123190000Y-129990000D01*
X122940000Y-128460000D02*
X123190000Y-128990000D01*
X124570000Y-123970000D02*
X114190000Y-123970000D01*
X115820000Y-129990000D02*
X115820000Y-128990000D01*
X114770000Y-124570000D02*
X116370000Y-124570000D01*
X119850000Y-124570000D02*
X121450000Y-124570000D01*
X114190000Y-123970000D02*
X114190000Y-129990000D01*
X116370000Y-124570000D02*
X116370000Y-123970000D01*
%TO.C,R9*%
X95022936Y-119935000D02*
X95477064Y-119935000D01*
X95022936Y-121405000D02*
X95477064Y-121405000D01*
%TO.C,R28*%
X118972064Y-111025000D02*
X118517936Y-111025000D01*
X118972064Y-112495000D02*
X118517936Y-112495000D01*
%TO.C,R16*%
X121692936Y-117375000D02*
X122147064Y-117375000D01*
X121692936Y-118845000D02*
X122147064Y-118845000D01*
%TO.C,R5*%
X122147064Y-90070000D02*
X121692936Y-90070000D01*
X122147064Y-91540000D02*
X121692936Y-91540000D01*
%TO.C,J11*%
X155575000Y-128990000D02*
X155825000Y-128460000D01*
X162945000Y-128460000D02*
X163195000Y-128990000D01*
X154195000Y-123970000D02*
X154195000Y-129990000D01*
X163195000Y-128990000D02*
X163195000Y-129990000D01*
X155825000Y-129990000D02*
X155825000Y-128990000D01*
X154195000Y-129990000D02*
X164575000Y-129990000D01*
X159855000Y-124570000D02*
X161455000Y-124570000D01*
X164575000Y-129990000D02*
X164575000Y-123970000D01*
X156375000Y-124570000D02*
X156375000Y-123970000D01*
X162395000Y-124570000D02*
X163995000Y-124570000D01*
X155575000Y-129990000D02*
X155575000Y-128990000D01*
X159855000Y-123970000D02*
X159855000Y-124570000D01*
X155825000Y-128460000D02*
X162945000Y-128460000D01*
X154775000Y-123970000D02*
X154775000Y-124570000D01*
X164575000Y-123970000D02*
X154195000Y-123970000D01*
X162945000Y-129990000D02*
X162945000Y-128990000D01*
X155575000Y-128990000D02*
X163195000Y-128990000D01*
X153905000Y-125000000D02*
X153905000Y-129000000D01*
X162395000Y-123970000D02*
X162395000Y-124570000D01*
X163995000Y-124570000D02*
X163995000Y-123970000D01*
X158915000Y-124570000D02*
X158915000Y-123970000D01*
X157315000Y-124570000D02*
X158915000Y-124570000D01*
X161455000Y-124570000D02*
X161455000Y-123970000D01*
X157315000Y-123970000D02*
X157315000Y-124570000D01*
X154775000Y-124570000D02*
X156375000Y-124570000D01*
%TO.C,C16*%
X154381252Y-106320000D02*
X152958748Y-106320000D01*
X154381252Y-104500000D02*
X152958748Y-104500000D01*
%TO.C,R30*%
X148362936Y-117375000D02*
X148817064Y-117375000D01*
X148362936Y-118845000D02*
X148817064Y-118845000D01*
%TO.C,C6*%
X110436252Y-107850000D02*
X109913748Y-107850000D01*
X110436252Y-109320000D02*
X109913748Y-109320000D01*
%TO.C,J8*%
X136515000Y-111700000D02*
X137845000Y-111700000D01*
X137845000Y-111700000D02*
X137845000Y-113030000D01*
X135245000Y-111700000D02*
X135245000Y-114360000D01*
X135245000Y-111700000D02*
X127565000Y-111700000D01*
X135245000Y-114360000D02*
X127565000Y-114360000D01*
X127565000Y-111700000D02*
X127565000Y-114360000D01*
%TO.C,C13*%
X116263748Y-121385000D02*
X116786252Y-121385000D01*
X116263748Y-119915000D02*
X116786252Y-119915000D01*
%TO.C,C11*%
X129913748Y-121385000D02*
X130436252Y-121385000D01*
X129913748Y-119915000D02*
X130436252Y-119915000D01*
%TO.C,J12*%
X151240000Y-123970000D02*
X140860000Y-123970000D01*
X143980000Y-123970000D02*
X143980000Y-124570000D01*
X146520000Y-123970000D02*
X146520000Y-124570000D01*
X149860000Y-128990000D02*
X149860000Y-129990000D01*
X142240000Y-128990000D02*
X149860000Y-128990000D01*
X142240000Y-129990000D02*
X142240000Y-128990000D01*
X150660000Y-124570000D02*
X150660000Y-123970000D01*
X142490000Y-129990000D02*
X142490000Y-128990000D01*
X143040000Y-124570000D02*
X143040000Y-123970000D01*
X146520000Y-124570000D02*
X148120000Y-124570000D01*
X149610000Y-129990000D02*
X149610000Y-128990000D01*
X148120000Y-124570000D02*
X148120000Y-123970000D01*
X140860000Y-123970000D02*
X140860000Y-129990000D01*
X149060000Y-123970000D02*
X149060000Y-124570000D01*
X142240000Y-128990000D02*
X142490000Y-128460000D01*
X141440000Y-124570000D02*
X143040000Y-124570000D01*
X141440000Y-123970000D02*
X141440000Y-124570000D01*
X149060000Y-124570000D02*
X150660000Y-124570000D01*
X142490000Y-128460000D02*
X149610000Y-128460000D01*
X143980000Y-124570000D02*
X145580000Y-124570000D01*
X140860000Y-129990000D02*
X151240000Y-129990000D01*
X140570000Y-125000000D02*
X140570000Y-129000000D01*
X149610000Y-128460000D02*
X149860000Y-128990000D01*
X145580000Y-124570000D02*
X145580000Y-123970000D01*
X151240000Y-129990000D02*
X151240000Y-123970000D01*
%TO.C,C12*%
X115011252Y-89175000D02*
X113588748Y-89175000D01*
X115011252Y-87355000D02*
X113588748Y-87355000D01*
%TO.C,R17*%
X102007936Y-112495000D02*
X102462064Y-112495000D01*
X102007936Y-111025000D02*
X102462064Y-111025000D01*
%TO.C,R19*%
X102007936Y-109955000D02*
X102462064Y-109955000D01*
X102007936Y-108485000D02*
X102462064Y-108485000D01*
%TO.C,C14*%
X121996252Y-103305000D02*
X120573748Y-103305000D01*
X121996252Y-105125000D02*
X120573748Y-105125000D01*
%TO.C,R15*%
X121692936Y-121385000D02*
X122147064Y-121385000D01*
X121692936Y-119915000D02*
X122147064Y-119915000D01*
%TO.C,R27*%
X148459564Y-92810000D02*
X148005436Y-92810000D01*
X148459564Y-91340000D02*
X148005436Y-91340000D01*
%TO.C,J2*%
X101540000Y-87630000D02*
X101540000Y-87570000D01*
X104200000Y-90230000D02*
X102870000Y-90230000D01*
X104200000Y-87630000D02*
X104200000Y-87570000D01*
X104200000Y-87570000D02*
X101540000Y-87570000D01*
X104200000Y-88900000D02*
X104200000Y-90230000D01*
X104200000Y-87630000D02*
X101540000Y-87630000D01*
%TO.C,R26*%
X118972064Y-109955000D02*
X118517936Y-109955000D01*
X118972064Y-108485000D02*
X118517936Y-108485000D01*
%TO.C,J10*%
X127525000Y-129990000D02*
X137905000Y-129990000D01*
X137325000Y-124570000D02*
X137325000Y-123970000D01*
X136275000Y-129990000D02*
X136275000Y-128990000D01*
X129705000Y-124570000D02*
X129705000Y-123970000D01*
X127525000Y-123970000D02*
X127525000Y-129990000D01*
X128905000Y-128990000D02*
X129155000Y-128460000D01*
X128905000Y-128990000D02*
X136525000Y-128990000D01*
X127235000Y-125000000D02*
X127235000Y-129000000D01*
X130645000Y-124570000D02*
X132245000Y-124570000D01*
X132245000Y-124570000D02*
X132245000Y-123970000D01*
X136275000Y-128460000D02*
X136525000Y-128990000D01*
X135725000Y-123970000D02*
X135725000Y-124570000D01*
X137905000Y-129990000D02*
X137905000Y-123970000D01*
X128905000Y-129990000D02*
X128905000Y-128990000D01*
X128105000Y-124570000D02*
X129705000Y-124570000D01*
X134785000Y-124570000D02*
X134785000Y-123970000D01*
X133185000Y-124570000D02*
X134785000Y-124570000D01*
X137905000Y-123970000D02*
X127525000Y-123970000D01*
X129155000Y-129990000D02*
X129155000Y-128990000D01*
X133185000Y-123970000D02*
X133185000Y-124570000D01*
X129155000Y-128460000D02*
X136275000Y-128460000D01*
X128105000Y-123970000D02*
X128105000Y-124570000D01*
X136525000Y-128990000D02*
X136525000Y-129990000D01*
X135725000Y-124570000D02*
X137325000Y-124570000D01*
X130645000Y-123970000D02*
X130645000Y-124570000D01*
%TO.C,R7*%
X81687936Y-119915000D02*
X82142064Y-119915000D01*
X81687936Y-121385000D02*
X82142064Y-121385000D01*
%TO.C,J14*%
X105350000Y-87630000D02*
X105350000Y-87570000D01*
X108010000Y-90230000D02*
X106680000Y-90230000D01*
X108010000Y-87630000D02*
X105350000Y-87630000D01*
X108010000Y-87630000D02*
X108010000Y-87570000D01*
X108010000Y-88900000D02*
X108010000Y-90230000D01*
X108010000Y-87570000D02*
X105350000Y-87570000D01*
%TO.C,C17*%
X155498748Y-119020000D02*
X156921252Y-119020000D01*
X155498748Y-117200000D02*
X156921252Y-117200000D01*
%TO.C,R21*%
X135027936Y-119915000D02*
X135482064Y-119915000D01*
X135027936Y-121385000D02*
X135482064Y-121385000D01*
%TO.C,R4*%
X102642936Y-103605000D02*
X103097064Y-103605000D01*
X102642936Y-102135000D02*
X103097064Y-102135000D01*
%TO.C,R22*%
X135027936Y-118845000D02*
X135482064Y-118845000D01*
X135027936Y-117375000D02*
X135482064Y-117375000D01*
%TO.C,J15*%
X93920000Y-87570000D02*
X95250000Y-87570000D01*
X93920000Y-90230000D02*
X96580000Y-90230000D01*
X93920000Y-88900000D02*
X93920000Y-87570000D01*
X93920000Y-90170000D02*
X93920000Y-90230000D01*
X96580000Y-90170000D02*
X96580000Y-90230000D01*
X93920000Y-90170000D02*
X96580000Y-90170000D01*
%TO.C,J5*%
X74185000Y-129990000D02*
X84565000Y-129990000D01*
X82935000Y-128460000D02*
X83185000Y-128990000D01*
X77305000Y-124570000D02*
X78905000Y-124570000D01*
X84565000Y-123970000D02*
X74185000Y-123970000D01*
X83185000Y-128990000D02*
X83185000Y-129990000D01*
X74185000Y-123970000D02*
X74185000Y-129990000D01*
X74765000Y-124570000D02*
X76365000Y-124570000D01*
X81445000Y-124570000D02*
X81445000Y-123970000D01*
X84565000Y-129990000D02*
X84565000Y-123970000D01*
X79845000Y-123970000D02*
X79845000Y-124570000D01*
X82385000Y-123970000D02*
X82385000Y-124570000D01*
X75815000Y-128460000D02*
X82935000Y-128460000D01*
X74765000Y-123970000D02*
X74765000Y-124570000D01*
X73895000Y-125000000D02*
X73895000Y-129000000D01*
X75565000Y-128990000D02*
X75815000Y-128460000D01*
X82935000Y-129990000D02*
X82935000Y-128990000D01*
X75815000Y-129990000D02*
X75815000Y-128990000D01*
X79845000Y-124570000D02*
X81445000Y-124570000D01*
X75565000Y-129990000D02*
X75565000Y-128990000D01*
X82385000Y-124570000D02*
X83985000Y-124570000D01*
X78905000Y-124570000D02*
X78905000Y-123970000D01*
X77305000Y-123970000D02*
X77305000Y-124570000D01*
X75565000Y-128990000D02*
X83185000Y-128990000D01*
X76365000Y-124570000D02*
X76365000Y-123970000D01*
X83985000Y-124570000D02*
X83985000Y-123970000D01*
%TO.C,C15*%
X100690000Y-95961252D02*
X100690000Y-94538748D01*
X102510000Y-95961252D02*
X102510000Y-94538748D01*
%TO.C,R12*%
X148459564Y-95350000D02*
X148005436Y-95350000D01*
X148459564Y-93880000D02*
X148005436Y-93880000D01*
%TO.C,C20*%
X135628748Y-109320000D02*
X136151252Y-109320000D01*
X135628748Y-107850000D02*
X136151252Y-107850000D01*
%TO.C,R25*%
X148459564Y-88800000D02*
X148005436Y-88800000D01*
X148459564Y-90270000D02*
X148005436Y-90270000D01*
%TO.C,J7*%
X106515000Y-123990000D02*
X106515000Y-124590000D01*
X102235000Y-129010000D02*
X102485000Y-128480000D01*
X103975000Y-123990000D02*
X103975000Y-124590000D01*
X108115000Y-124590000D02*
X108115000Y-123990000D01*
X105575000Y-124590000D02*
X105575000Y-123990000D01*
X103975000Y-124590000D02*
X105575000Y-124590000D01*
X102485000Y-130010000D02*
X102485000Y-129010000D01*
X102235000Y-130010000D02*
X102235000Y-129010000D01*
X100565000Y-125020000D02*
X100565000Y-129020000D01*
X109605000Y-128480000D02*
X109855000Y-129010000D01*
X111235000Y-123990000D02*
X100855000Y-123990000D01*
X109055000Y-123990000D02*
X109055000Y-124590000D01*
X109055000Y-124590000D02*
X110655000Y-124590000D01*
X109855000Y-129010000D02*
X109855000Y-130010000D01*
X106515000Y-124590000D02*
X108115000Y-124590000D01*
X110655000Y-124590000D02*
X110655000Y-123990000D01*
X100855000Y-130010000D02*
X111235000Y-130010000D01*
X111235000Y-130010000D02*
X111235000Y-123990000D01*
X102485000Y-128480000D02*
X109605000Y-128480000D01*
X101435000Y-124590000D02*
X103035000Y-124590000D01*
X101435000Y-123990000D02*
X101435000Y-124590000D01*
X103035000Y-124590000D02*
X103035000Y-123990000D01*
X102235000Y-129010000D02*
X109855000Y-129010000D01*
X109605000Y-130010000D02*
X109605000Y-129010000D01*
X100855000Y-123990000D02*
X100855000Y-130010000D01*
%TO.C,R24*%
X161697936Y-117375000D02*
X162152064Y-117375000D01*
X161697936Y-118845000D02*
X162152064Y-118845000D01*
%TO.C,C7*%
X89593748Y-121385000D02*
X90116252Y-121385000D01*
X89593748Y-119915000D02*
X90116252Y-119915000D01*
%TO.C,IC1*%
X110490000Y-110150000D02*
X107565000Y-110150000D01*
X110490000Y-113370000D02*
X111990000Y-113370000D01*
X110490000Y-110150000D02*
X111990000Y-110150000D01*
X110490000Y-113370000D02*
X108990000Y-113370000D01*
%TO.C,J3*%
X79950000Y-113030000D02*
X79950000Y-113090000D01*
X79950000Y-113030000D02*
X82610000Y-113030000D01*
X79950000Y-111760000D02*
X79950000Y-110430000D01*
X79950000Y-110430000D02*
X81280000Y-110430000D01*
X82610000Y-113030000D02*
X82610000Y-113090000D01*
X79950000Y-113090000D02*
X82610000Y-113090000D01*
%TO.C,C8*%
X153931252Y-109320000D02*
X153408748Y-109320000D01*
X153931252Y-107850000D02*
X153408748Y-107850000D01*
%TO.C,R8*%
X81687936Y-118845000D02*
X82142064Y-118845000D01*
X81687936Y-117375000D02*
X82142064Y-117375000D01*
%TO.C,C3*%
X143248748Y-121385000D02*
X143771252Y-121385000D01*
X143248748Y-119915000D02*
X143771252Y-119915000D01*
%TO.C,C4*%
X115196252Y-92175000D02*
X114673748Y-92175000D01*
X115196252Y-90705000D02*
X114673748Y-90705000D01*
%TO.C,R10*%
X95022936Y-118865000D02*
X95477064Y-118865000D01*
X95022936Y-117395000D02*
X95477064Y-117395000D01*
%TO.C,R20*%
X146180436Y-107850000D02*
X146634564Y-107850000D01*
X146180436Y-109320000D02*
X146634564Y-109320000D01*
%TO.C,IC2*%
X154305000Y-110150000D02*
X155805000Y-110150000D01*
X154305000Y-113370000D02*
X155805000Y-113370000D01*
X154305000Y-110150000D02*
X151380000Y-110150000D01*
X154305000Y-113370000D02*
X152805000Y-113370000D01*
%TO.C,R23*%
X161697936Y-121385000D02*
X162152064Y-121385000D01*
X161697936Y-119915000D02*
X162152064Y-119915000D01*
%TO.C,C19*%
X156583748Y-121385000D02*
X157106252Y-121385000D01*
X156583748Y-119915000D02*
X157106252Y-119915000D01*
%TO.C,R2*%
X103097064Y-101065000D02*
X102642936Y-101065000D01*
X103097064Y-99595000D02*
X102642936Y-99595000D01*
%TO.C,R18*%
X146180436Y-112495000D02*
X146634564Y-112495000D01*
X146180436Y-111025000D02*
X146634564Y-111025000D01*
%TO.C,J6*%
X88100000Y-124590000D02*
X89700000Y-124590000D01*
X95720000Y-124590000D02*
X97320000Y-124590000D01*
X93180000Y-124590000D02*
X94780000Y-124590000D01*
X96270000Y-130010000D02*
X96270000Y-129010000D01*
X87520000Y-123990000D02*
X87520000Y-130010000D01*
X89150000Y-130010000D02*
X89150000Y-129010000D01*
X89150000Y-128480000D02*
X96270000Y-128480000D01*
X88100000Y-123990000D02*
X88100000Y-124590000D01*
X88900000Y-129010000D02*
X89150000Y-128480000D01*
X88900000Y-130010000D02*
X88900000Y-129010000D01*
X96270000Y-128480000D02*
X96520000Y-129010000D01*
X92240000Y-124590000D02*
X92240000Y-123990000D01*
X97900000Y-130010000D02*
X97900000Y-123990000D01*
X89700000Y-124590000D02*
X89700000Y-123990000D01*
X87520000Y-130010000D02*
X97900000Y-130010000D01*
X96520000Y-129010000D02*
X96520000Y-130010000D01*
X95720000Y-123990000D02*
X95720000Y-124590000D01*
X90640000Y-123990000D02*
X90640000Y-124590000D01*
X97320000Y-124590000D02*
X97320000Y-123990000D01*
X94780000Y-124590000D02*
X94780000Y-123990000D01*
X88900000Y-129010000D02*
X96520000Y-129010000D01*
X97900000Y-123990000D02*
X87520000Y-123990000D01*
X90640000Y-124590000D02*
X92240000Y-124590000D01*
X87230000Y-125020000D02*
X87230000Y-129020000D01*
X93180000Y-123990000D02*
X93180000Y-124590000D01*
%TO.C,C10*%
X122181252Y-101700000D02*
X121658748Y-101700000D01*
X122181252Y-100230000D02*
X121658748Y-100230000D01*
%TO.C,C5*%
X76573748Y-121385000D02*
X77096252Y-121385000D01*
X76573748Y-119915000D02*
X77096252Y-119915000D01*
%TO.C,R3*%
X102642936Y-106145000D02*
X103097064Y-106145000D01*
X102642936Y-104675000D02*
X103097064Y-104675000D01*
%TO.C,J1*%
X79950000Y-90170000D02*
X82610000Y-90170000D01*
X82610000Y-90170000D02*
X82610000Y-90230000D01*
X79950000Y-87570000D02*
X81280000Y-87570000D01*
X79950000Y-90230000D02*
X82610000Y-90230000D01*
X79950000Y-90170000D02*
X79950000Y-90230000D01*
X79950000Y-88900000D02*
X79950000Y-87570000D01*
%TO.C,C1*%
X104675000Y-95511252D02*
X104675000Y-94988748D01*
X106145000Y-95511252D02*
X106145000Y-94988748D01*
%TO.C,C2*%
X148536252Y-98960000D02*
X148013748Y-98960000D01*
X148536252Y-100430000D02*
X148013748Y-100430000D01*
%TO.C,R6*%
X122147064Y-87530000D02*
X121692936Y-87530000D01*
X122147064Y-89000000D02*
X121692936Y-89000000D01*
%TD*%
M02*
